M48
; DRILL file {KiCad (5.1.6-0-10_14)} date Thursday, September 17, 2020 at 10:50:08 AM
; FORMAT={-:-/ absolute / metric / decimal}
; #@! TF.CreationDate,2020-09-17T10:50:08+02:00
; #@! TF.GenerationSoftware,Kicad,Pcbnew,(5.1.6-0-10_14)
FMAT,2
METRIC
T1C1.000
T2C1.500
T3C2.000
T4C2.700
%
G90
G05
T1
X135.812Y-82.804
X135.812Y-85.344
X135.812Y-87.884
X135.812Y-90.424
X135.812Y-92.964
X135.812Y-95.504
X135.812Y-98.044
X135.812Y-100.584
X135.812Y-103.124
X135.812Y-105.664
X135.812Y-108.204
X135.812Y-110.744
X135.812Y-113.284
X135.812Y-115.824
X135.812Y-118.364
X135.812Y-120.904
X135.812Y-123.444
X135.812Y-125.984
X135.812Y-128.524
X135.812Y-131.064
T3
X144.3Y-147.4
T4
X152.25Y-52.75
X152.25Y-147.75
T2
G00X128.6Y-46.9
M15
G01X128.6Y-47.5
M16
G05
G00X133.1Y-46.9
M15
G01X133.1Y-47.5
M16
G05
G00X137.9Y-46.9
M15
G01X137.9Y-47.5
M16
G05
G00X145.6Y-77.463
M15
G01X145.6Y-78.063
M16
G05
G00X150.1Y-77.463
M15
G01X150.1Y-78.063
M16
G05
G00X154.9Y-77.463
M15
G01X154.9Y-78.063
M16
G05
G00X145.6Y-87.616
M15
G01X145.6Y-88.216
M16
G05
G00X150.1Y-87.616
M15
G01X150.1Y-88.216
M16
G05
G00X154.9Y-87.616
M15
G01X154.9Y-88.216
M16
G05
G00X145.6Y-138.379
M15
G01X145.6Y-138.979
M16
G05
G00X150.1Y-138.379
M15
G01X150.1Y-138.979
M16
G05
G00X154.9Y-138.379
M15
G01X154.9Y-138.979
M16
G05
G00X145.6Y-97.769
M15
G01X145.6Y-98.369
M16
G05
G00X150.1Y-97.769
M15
G01X150.1Y-98.369
M16
G05
G00X154.9Y-97.769
M15
G01X154.9Y-98.369
M16
G05
G00X145.6Y-156.7
M15
G01X145.6Y-157.3
M16
G05
G00X150.1Y-156.7
M15
G01X150.1Y-157.3
M16
G05
G00X154.9Y-156.7
M15
G01X154.9Y-157.3
M16
G05
G00X145.6Y-67.311
M15
G01X145.6Y-67.911
M16
G05
G00X150.1Y-67.311
M15
G01X150.1Y-67.911
M16
G05
G00X154.9Y-67.311
M15
G01X154.9Y-67.911
M16
G05
G00X128.6Y-57.158
M15
G01X128.6Y-57.758
M16
G05
G00X133.1Y-57.158
M15
G01X133.1Y-57.758
M16
G05
G00X137.9Y-57.158
M15
G01X137.9Y-57.758
M16
G05
G00X145.6Y-36.853
M15
G01X145.6Y-37.453
M16
G05
G00X150.1Y-36.853
M15
G01X150.1Y-37.453
M16
G05
G00X154.9Y-36.853
M15
G01X154.9Y-37.453
M16
G05
G00X145.6Y-26.7
M15
G01X145.6Y-27.3
M16
G05
G00X150.1Y-26.7
M15
G01X150.1Y-27.3
M16
G05
G00X154.9Y-26.7
M15
G01X154.9Y-27.3
M16
G05
G00X145.6Y-118.074
M15
G01X145.6Y-118.674
M16
G05
G00X150.1Y-118.074
M15
G01X150.1Y-118.674
M16
G05
G00X154.9Y-118.074
M15
G01X154.9Y-118.674
M16
G05
G00X145.6Y-107.921
M15
G01X145.6Y-108.521
M16
G05
G00X150.1Y-107.921
M15
G01X150.1Y-108.521
M16
G05
G00X154.9Y-107.921
M15
G01X154.9Y-108.521
M16
G05
G00X145.6Y-128.227
M15
G01X145.6Y-128.827
M16
G05
G00X150.1Y-128.227
M15
G01X150.1Y-128.827
M16
G05
G00X154.9Y-128.227
M15
G01X154.9Y-128.827
M16
G05
T0
M30
