%TF.GenerationSoftware,KiCad,Pcbnew,5.1.5+dfsg1-2build2*%
%TF.CreationDate,2020-09-17T10:38:08+02:00*%
%TF.ProjectId,cv_expander,63765f65-7870-4616-9e64-65722e6b6963,rev?*%
%TF.SameCoordinates,Original*%
%TF.FileFunction,Copper,L2,Bot*%
%TF.FilePolarity,Positive*%
%FSLAX46Y46*%
G04 Gerber Fmt 4.6, Leading zero omitted, Abs format (unit mm)*
G04 Created by KiCad (PCBNEW 5.1.5+dfsg1-2build2) date 2020-09-17 10:38:08*
%MOMM*%
%LPD*%
G04 APERTURE LIST*
%TA.AperFunction,ComponentPad*%
%ADD10R,2.200000X2.200000*%
%TD*%
%TA.AperFunction,ComponentPad*%
%ADD11C,5.400000*%
%TD*%
%TA.AperFunction,ComponentPad*%
%ADD12O,1.700000X1.700000*%
%TD*%
%TA.AperFunction,ComponentPad*%
%ADD13R,1.700000X1.700000*%
%TD*%
%TA.AperFunction,ComponentPad*%
%ADD14C,3.000000*%
%TD*%
%TA.AperFunction,Conductor*%
%ADD15C,0.250000*%
%TD*%
%TA.AperFunction,Conductor*%
%ADD16C,0.254000*%
%TD*%
G04 APERTURE END LIST*
D10*
%TO.P,J14,R*%
%TO.N,Net-(J14-PadR)*%
X145600000Y-157000000D03*
%TO.P,J14,T*%
%TO.N,Net-(J1-Pad19)*%
X150100000Y-157000000D03*
%TO.P,J14,S*%
%TO.N,GND_D*%
X154900000Y-157000000D03*
%TD*%
D11*
%TO.P,GND,1*%
%TO.N,GND_D*%
X152250000Y-52750000D03*
%TD*%
D10*
%TO.P,J10,R*%
%TO.N,Net-(J10-PadR)*%
X145600000Y-108221208D03*
%TO.P,J10,T*%
%TO.N,Net-(J1-Pad11)*%
X150100000Y-108221208D03*
%TO.P,J10,S*%
%TO.N,GND_D*%
X154900000Y-108221208D03*
%TD*%
D12*
%TO.P,J1,20*%
%TO.N,Net-(J1-Pad19)*%
X135812000Y-131064000D03*
%TO.P,J1,19*%
X135812000Y-128524000D03*
%TO.P,J1,18*%
%TO.N,Net-(J1-Pad17)*%
X135812000Y-125984000D03*
%TO.P,J1,17*%
X135812000Y-123444000D03*
%TO.P,J1,16*%
%TO.N,Net-(J1-Pad15)*%
X135812000Y-120904000D03*
%TO.P,J1,15*%
X135812000Y-118364000D03*
%TO.P,J1,14*%
%TO.N,Net-(J1-Pad13)*%
X135812000Y-115824000D03*
%TO.P,J1,13*%
X135812000Y-113284000D03*
%TO.P,J1,12*%
%TO.N,Net-(J1-Pad11)*%
X135812000Y-110744000D03*
%TO.P,J1,11*%
X135812000Y-108204000D03*
%TO.P,J1,10*%
%TO.N,Net-(J1-Pad10)*%
X135812000Y-105664000D03*
%TO.P,J1,9*%
X135812000Y-103124000D03*
%TO.P,J1,8*%
%TO.N,Net-(J1-Pad7)*%
X135812000Y-100584000D03*
%TO.P,J1,7*%
X135812000Y-98044000D03*
%TO.P,J1,6*%
%TO.N,Net-(J1-Pad6)*%
X135812000Y-95504000D03*
%TO.P,J1,5*%
%TO.N,Net-(J1-Pad5)*%
X135812000Y-92964000D03*
%TO.P,J1,4*%
%TO.N,Net-(J1-Pad4)*%
X135812000Y-90424000D03*
%TO.P,J1,3*%
%TO.N,Net-(J1-Pad3)*%
X135812000Y-87884000D03*
%TO.P,J1,2*%
%TO.N,Net-(J1-Pad2)*%
X135812000Y-85344000D03*
D13*
%TO.P,J1,1*%
%TO.N,Net-(J1-Pad1)*%
X135812000Y-82804000D03*
%TD*%
D10*
%TO.P,J7,R*%
%TO.N,Net-(J7-PadR)*%
X145600000Y-77763255D03*
%TO.P,J7,T*%
%TO.N,Net-(J1-Pad6)*%
X150100000Y-77763255D03*
%TO.P,J7,S*%
%TO.N,GND_D*%
X154900000Y-77763255D03*
%TD*%
%TO.P,J6,R*%
%TO.N,Net-(J6-PadR)*%
X145600000Y-67610604D03*
%TO.P,J6,T*%
%TO.N,Net-(J1-Pad5)*%
X150100000Y-67610604D03*
%TO.P,J6,S*%
%TO.N,GND_D*%
X154900000Y-67610604D03*
%TD*%
%TO.P,J5,R*%
%TO.N,Net-(J5-PadR)*%
X128600000Y-57457953D03*
%TO.P,J5,T*%
%TO.N,Net-(J1-Pad4)*%
X133100000Y-57457953D03*
%TO.P,J5,S*%
%TO.N,GND_D*%
X137900000Y-57457953D03*
%TD*%
%TO.P,J4,R*%
%TO.N,Net-(J4-PadR)*%
X128600000Y-47200000D03*
%TO.P,J4,T*%
%TO.N,Net-(J1-Pad3)*%
X133100000Y-47200000D03*
%TO.P,J4,S*%
%TO.N,GND_D*%
X137900000Y-47200000D03*
%TD*%
%TO.P,J3,R*%
%TO.N,Net-(J3-PadR)*%
X145600000Y-37152651D03*
%TO.P,J3,T*%
%TO.N,Net-(J1-Pad2)*%
X150100000Y-37152651D03*
%TO.P,J3,S*%
%TO.N,GND_D*%
X154900000Y-37152651D03*
%TD*%
%TO.P,J2,R*%
%TO.N,Net-(J2-PadR)*%
X145600000Y-27000000D03*
%TO.P,J2,T*%
%TO.N,Net-(J1-Pad1)*%
X150100000Y-27000000D03*
%TO.P,J2,S*%
%TO.N,GND_D*%
X154900000Y-27000000D03*
%TD*%
%TO.P,J13,R*%
%TO.N,Net-(J13-PadR)*%
X145600000Y-138679163D03*
%TO.P,J13,T*%
%TO.N,Net-(J1-Pad17)*%
X150100000Y-138679163D03*
%TO.P,J13,S*%
%TO.N,GND_D*%
X154900000Y-138679163D03*
%TD*%
%TO.P,J12,R*%
%TO.N,Net-(J12-PadR)*%
X145600000Y-128526510D03*
%TO.P,J12,T*%
%TO.N,Net-(J1-Pad15)*%
X150100000Y-128526510D03*
%TO.P,J12,S*%
%TO.N,GND_D*%
X154900000Y-128526510D03*
%TD*%
%TO.P,J11,R*%
%TO.N,Net-(J11-PadR)*%
X145600000Y-118373859D03*
%TO.P,J11,T*%
%TO.N,Net-(J1-Pad13)*%
X150100000Y-118373859D03*
%TO.P,J11,S*%
%TO.N,GND_D*%
X154900000Y-118373859D03*
%TD*%
%TO.P,J9,R*%
%TO.N,Net-(J9-PadR)*%
X145600000Y-98068557D03*
%TO.P,J9,T*%
%TO.N,Net-(J1-Pad10)*%
X150100000Y-98068557D03*
%TO.P,J9,S*%
%TO.N,GND_D*%
X154900000Y-98068557D03*
%TD*%
%TO.P,J8,R*%
%TO.N,Net-(J8-PadR)*%
X145600000Y-87915906D03*
%TO.P,J8,T*%
%TO.N,Net-(J1-Pad7)*%
X150100000Y-87915906D03*
%TO.P,J8,S*%
%TO.N,GND_D*%
X154900000Y-87915906D03*
%TD*%
D14*
%TO.P,GND,1*%
%TO.N,GND_D*%
X144300000Y-147400000D03*
%TD*%
D11*
%TO.P,H1,1*%
%TO.N,GND_D*%
X152250000Y-147750000D03*
%TD*%
D15*
%TO.N,Net-(J1-Pad19)*%
X148750000Y-157000000D02*
X150100000Y-157000000D01*
X135812000Y-144062000D02*
X148750000Y-157000000D01*
X135812000Y-131064000D02*
X135812000Y-144062000D01*
%TO.N,Net-(J1-Pad17)*%
X148507163Y-138679163D02*
X135812000Y-125984000D01*
X150100000Y-138679163D02*
X148507163Y-138679163D01*
%TO.N,Net-(J1-Pad15)*%
X137014081Y-120904000D02*
X135812000Y-120904000D01*
X143827490Y-120904000D02*
X137014081Y-120904000D01*
X150100000Y-127176510D02*
X143827490Y-120904000D01*
X150100000Y-128526510D02*
X150100000Y-127176510D01*
%TO.N,Net-(J1-Pad13)*%
X137014081Y-113284000D02*
X135812000Y-113284000D01*
X143660141Y-113284000D02*
X137014081Y-113284000D01*
X148750000Y-118373859D02*
X143660141Y-113284000D01*
X150100000Y-118373859D02*
X148750000Y-118373859D01*
%TO.N,Net-(J1-Pad11)*%
X148927208Y-110744000D02*
X137014081Y-110744000D01*
X137014081Y-110744000D02*
X135812000Y-110744000D01*
X150100000Y-109571208D02*
X148927208Y-110744000D01*
X150100000Y-108221208D02*
X150100000Y-109571208D01*
%TO.N,Net-(J1-Pad10)*%
X137014081Y-103124000D02*
X135812000Y-103124000D01*
X146394557Y-103124000D02*
X137014081Y-103124000D01*
X150100000Y-99418557D02*
X146394557Y-103124000D01*
X150100000Y-98068557D02*
X150100000Y-99418557D01*
%TO.N,Net-(J1-Pad7)*%
X137014081Y-98044000D02*
X135812000Y-98044000D01*
X138621906Y-98044000D02*
X137014081Y-98044000D01*
X148750000Y-87915906D02*
X138621906Y-98044000D01*
X150100000Y-87915906D02*
X148750000Y-87915906D01*
%TO.N,Net-(J1-Pad6)*%
X136987001Y-94328999D02*
X136987001Y-94312999D01*
X135812000Y-95504000D02*
X136987001Y-94328999D01*
X142750000Y-88550000D02*
X142750000Y-87300000D01*
X136987001Y-94312999D02*
X142750000Y-88550000D01*
X150100000Y-79950000D02*
X150100000Y-77763255D01*
X142750000Y-87300000D02*
X150100000Y-79950000D01*
%TO.N,Net-(J1-Pad5)*%
X136661999Y-92114001D02*
X135812000Y-92964000D01*
X144174999Y-84601001D02*
X136661999Y-92114001D01*
X144174999Y-72185605D02*
X144174999Y-84601001D01*
X148750000Y-67610604D02*
X144174999Y-72185605D01*
X150100000Y-67610604D02*
X148750000Y-67610604D01*
%TO.N,Net-(J1-Pad4)*%
X133100000Y-87712000D02*
X133100000Y-57457953D01*
X135812000Y-90424000D02*
X133100000Y-87712000D01*
%TO.N,Net-(J1-Pad3)*%
X134450000Y-47200000D02*
X135300000Y-48050000D01*
X133100000Y-47200000D02*
X134450000Y-47200000D01*
X135300000Y-75650000D02*
X133600000Y-77350000D01*
X135300000Y-48050000D02*
X135300000Y-75650000D01*
X133600000Y-85672000D02*
X135812000Y-87884000D01*
X133600000Y-77350000D02*
X133600000Y-85672000D01*
%TO.N,Net-(J1-Pad2)*%
X148750000Y-37152651D02*
X142500000Y-43402651D01*
X150100000Y-37152651D02*
X148750000Y-37152651D01*
X142500000Y-78656000D02*
X135812000Y-85344000D01*
X142500000Y-43402651D02*
X142500000Y-78656000D01*
%TO.N,Net-(J1-Pad1)*%
X148750000Y-27000000D02*
X140800000Y-34950000D01*
X150100000Y-27000000D02*
X148750000Y-27000000D01*
X140800000Y-78916000D02*
X140800000Y-34950000D01*
X136912000Y-82804000D02*
X140800000Y-78916000D01*
X135812000Y-82804000D02*
X136912000Y-82804000D01*
%TD*%
D16*
%TO.N,GND_D*%
G36*
X156290001Y-25334990D02*
G01*
X156244180Y-25310498D01*
X156124482Y-25274188D01*
X156000000Y-25261928D01*
X155185750Y-25265000D01*
X155027000Y-25423750D01*
X155027000Y-26873000D01*
X155047000Y-26873000D01*
X155047000Y-27127000D01*
X155027000Y-27127000D01*
X155027000Y-28576250D01*
X155185750Y-28735000D01*
X156000000Y-28738072D01*
X156124482Y-28725812D01*
X156244180Y-28689502D01*
X156290001Y-28665010D01*
X156290001Y-35487641D01*
X156244180Y-35463149D01*
X156124482Y-35426839D01*
X156000000Y-35414579D01*
X155185750Y-35417651D01*
X155027000Y-35576401D01*
X155027000Y-37025651D01*
X155047000Y-37025651D01*
X155047000Y-37279651D01*
X155027000Y-37279651D01*
X155027000Y-38728901D01*
X155185750Y-38887651D01*
X156000000Y-38890723D01*
X156124482Y-38878463D01*
X156244180Y-38842153D01*
X156290001Y-38817661D01*
X156290001Y-65945594D01*
X156244180Y-65921102D01*
X156124482Y-65884792D01*
X156000000Y-65872532D01*
X155185750Y-65875604D01*
X155027000Y-66034354D01*
X155027000Y-67483604D01*
X155047000Y-67483604D01*
X155047000Y-67737604D01*
X155027000Y-67737604D01*
X155027000Y-69186854D01*
X155185750Y-69345604D01*
X156000000Y-69348676D01*
X156124482Y-69336416D01*
X156244180Y-69300106D01*
X156290001Y-69275614D01*
X156290001Y-76098245D01*
X156244180Y-76073753D01*
X156124482Y-76037443D01*
X156000000Y-76025183D01*
X155185750Y-76028255D01*
X155027000Y-76187005D01*
X155027000Y-77636255D01*
X155047000Y-77636255D01*
X155047000Y-77890255D01*
X155027000Y-77890255D01*
X155027000Y-79339505D01*
X155185750Y-79498255D01*
X156000000Y-79501327D01*
X156124482Y-79489067D01*
X156244180Y-79452757D01*
X156290001Y-79428265D01*
X156290001Y-86250896D01*
X156244180Y-86226404D01*
X156124482Y-86190094D01*
X156000000Y-86177834D01*
X155185750Y-86180906D01*
X155027000Y-86339656D01*
X155027000Y-87788906D01*
X155047000Y-87788906D01*
X155047000Y-88042906D01*
X155027000Y-88042906D01*
X155027000Y-89492156D01*
X155185750Y-89650906D01*
X156000000Y-89653978D01*
X156124482Y-89641718D01*
X156244180Y-89605408D01*
X156290001Y-89580916D01*
X156290000Y-96403547D01*
X156244180Y-96379055D01*
X156124482Y-96342745D01*
X156000000Y-96330485D01*
X155185750Y-96333557D01*
X155027000Y-96492307D01*
X155027000Y-97941557D01*
X155047000Y-97941557D01*
X155047000Y-98195557D01*
X155027000Y-98195557D01*
X155027000Y-99644807D01*
X155185750Y-99803557D01*
X156000000Y-99806629D01*
X156124482Y-99794369D01*
X156244180Y-99758059D01*
X156290000Y-99733567D01*
X156290000Y-106556198D01*
X156244180Y-106531706D01*
X156124482Y-106495396D01*
X156000000Y-106483136D01*
X155185750Y-106486208D01*
X155027000Y-106644958D01*
X155027000Y-108094208D01*
X155047000Y-108094208D01*
X155047000Y-108348208D01*
X155027000Y-108348208D01*
X155027000Y-109797458D01*
X155185750Y-109956208D01*
X156000000Y-109959280D01*
X156124482Y-109947020D01*
X156244180Y-109910710D01*
X156290000Y-109886218D01*
X156290000Y-116708849D01*
X156244180Y-116684357D01*
X156124482Y-116648047D01*
X156000000Y-116635787D01*
X155185750Y-116638859D01*
X155027000Y-116797609D01*
X155027000Y-118246859D01*
X155047000Y-118246859D01*
X155047000Y-118500859D01*
X155027000Y-118500859D01*
X155027000Y-119950109D01*
X155185750Y-120108859D01*
X156000000Y-120111931D01*
X156124482Y-120099671D01*
X156244180Y-120063361D01*
X156290000Y-120038869D01*
X156290000Y-126861500D01*
X156244180Y-126837008D01*
X156124482Y-126800698D01*
X156000000Y-126788438D01*
X155185750Y-126791510D01*
X155027000Y-126950260D01*
X155027000Y-128399510D01*
X155047000Y-128399510D01*
X155047000Y-128653510D01*
X155027000Y-128653510D01*
X155027000Y-130102760D01*
X155185750Y-130261510D01*
X156000000Y-130264582D01*
X156124482Y-130252322D01*
X156244180Y-130216012D01*
X156290000Y-130191520D01*
X156290000Y-137014153D01*
X156244180Y-136989661D01*
X156124482Y-136953351D01*
X156000000Y-136941091D01*
X155185750Y-136944163D01*
X155027000Y-137102913D01*
X155027000Y-138552163D01*
X155047000Y-138552163D01*
X155047000Y-138806163D01*
X155027000Y-138806163D01*
X155027000Y-140255413D01*
X155185750Y-140414163D01*
X156000000Y-140417235D01*
X156124482Y-140404975D01*
X156244180Y-140368665D01*
X156290000Y-140344173D01*
X156290000Y-155334990D01*
X156244180Y-155310498D01*
X156124482Y-155274188D01*
X156000000Y-155261928D01*
X155185750Y-155265000D01*
X155027000Y-155423750D01*
X155027000Y-156873000D01*
X155047000Y-156873000D01*
X155047000Y-157127000D01*
X155027000Y-157127000D01*
X155027000Y-158576250D01*
X155185750Y-158735000D01*
X156000000Y-158738072D01*
X156124482Y-158725812D01*
X156244180Y-158689502D01*
X156290000Y-158665010D01*
X156290000Y-161290000D01*
X135893465Y-161290000D01*
X135879608Y-160701978D01*
X135879079Y-160693338D01*
X135877263Y-160658676D01*
X135704713Y-158625125D01*
X135704259Y-158621424D01*
X135704045Y-158617721D01*
X135698221Y-158572250D01*
X135373685Y-156557361D01*
X135372955Y-156553709D01*
X135372464Y-156550027D01*
X135363246Y-156505121D01*
X134888549Y-154520237D01*
X134887549Y-154516655D01*
X134886782Y-154513016D01*
X134874223Y-154468928D01*
X134252038Y-152525223D01*
X134250770Y-152521721D01*
X134249734Y-152518154D01*
X134233905Y-152475132D01*
X133467735Y-150583549D01*
X133466211Y-150580157D01*
X133464908Y-150576673D01*
X133445898Y-150534958D01*
X132540057Y-148706146D01*
X132538281Y-148702876D01*
X132536722Y-148699501D01*
X132514637Y-148659329D01*
X131474223Y-146903584D01*
X131472205Y-146900452D01*
X131470399Y-146897208D01*
X131445365Y-146858805D01*
X130276236Y-145186011D01*
X130273990Y-145183041D01*
X130271945Y-145179940D01*
X130244102Y-145143522D01*
X128952840Y-143563097D01*
X128950383Y-143560310D01*
X128948106Y-143557364D01*
X128917610Y-143523137D01*
X127706903Y-142249545D01*
X127709033Y-59196025D01*
X129700000Y-59196025D01*
X129824482Y-59183765D01*
X129944180Y-59147455D01*
X130054494Y-59088490D01*
X130151185Y-59009138D01*
X130230537Y-58912447D01*
X130289502Y-58802133D01*
X130325812Y-58682435D01*
X130338072Y-58557953D01*
X130338072Y-56357953D01*
X130325812Y-56233471D01*
X130289502Y-56113773D01*
X130230537Y-56003459D01*
X130151185Y-55906768D01*
X130054494Y-55827416D01*
X129944180Y-55768451D01*
X129824482Y-55732141D01*
X129700000Y-55719881D01*
X127709122Y-55719881D01*
X127709296Y-48938072D01*
X129700000Y-48938072D01*
X129824482Y-48925812D01*
X129944180Y-48889502D01*
X130054494Y-48830537D01*
X130151185Y-48751185D01*
X130230537Y-48654494D01*
X130289502Y-48544180D01*
X130325812Y-48424482D01*
X130338072Y-48300000D01*
X130338072Y-46100000D01*
X131361928Y-46100000D01*
X131361928Y-48300000D01*
X131374188Y-48424482D01*
X131410498Y-48544180D01*
X131469463Y-48654494D01*
X131548815Y-48751185D01*
X131645506Y-48830537D01*
X131755820Y-48889502D01*
X131875518Y-48925812D01*
X132000000Y-48938072D01*
X134200000Y-48938072D01*
X134324482Y-48925812D01*
X134444180Y-48889502D01*
X134540000Y-48838284D01*
X134540000Y-55819669D01*
X134444180Y-55768451D01*
X134324482Y-55732141D01*
X134200000Y-55719881D01*
X132000000Y-55719881D01*
X131875518Y-55732141D01*
X131755820Y-55768451D01*
X131645506Y-55827416D01*
X131548815Y-55906768D01*
X131469463Y-56003459D01*
X131410498Y-56113773D01*
X131374188Y-56233471D01*
X131361928Y-56357953D01*
X131361928Y-58557953D01*
X131374188Y-58682435D01*
X131410498Y-58802133D01*
X131469463Y-58912447D01*
X131548815Y-59009138D01*
X131645506Y-59088490D01*
X131755820Y-59147455D01*
X131875518Y-59183765D01*
X132000000Y-59196025D01*
X132340001Y-59196025D01*
X132340000Y-87674678D01*
X132336324Y-87712000D01*
X132340000Y-87749322D01*
X132340000Y-87749332D01*
X132350997Y-87860985D01*
X132367657Y-87915906D01*
X132394454Y-88004246D01*
X132465026Y-88136276D01*
X132497829Y-88176246D01*
X132559999Y-88252001D01*
X132589003Y-88275804D01*
X134370790Y-90057592D01*
X134327000Y-90277740D01*
X134327000Y-90570260D01*
X134384068Y-90857158D01*
X134496010Y-91127411D01*
X134658525Y-91370632D01*
X134865368Y-91577475D01*
X135039760Y-91694000D01*
X134865368Y-91810525D01*
X134658525Y-92017368D01*
X134496010Y-92260589D01*
X134384068Y-92530842D01*
X134327000Y-92817740D01*
X134327000Y-93110260D01*
X134384068Y-93397158D01*
X134496010Y-93667411D01*
X134658525Y-93910632D01*
X134865368Y-94117475D01*
X135039760Y-94234000D01*
X134865368Y-94350525D01*
X134658525Y-94557368D01*
X134496010Y-94800589D01*
X134384068Y-95070842D01*
X134327000Y-95357740D01*
X134327000Y-95650260D01*
X134384068Y-95937158D01*
X134496010Y-96207411D01*
X134658525Y-96450632D01*
X134865368Y-96657475D01*
X135039760Y-96774000D01*
X134865368Y-96890525D01*
X134658525Y-97097368D01*
X134496010Y-97340589D01*
X134384068Y-97610842D01*
X134327000Y-97897740D01*
X134327000Y-98190260D01*
X134384068Y-98477158D01*
X134496010Y-98747411D01*
X134658525Y-98990632D01*
X134865368Y-99197475D01*
X135039760Y-99314000D01*
X134865368Y-99430525D01*
X134658525Y-99637368D01*
X134496010Y-99880589D01*
X134384068Y-100150842D01*
X134327000Y-100437740D01*
X134327000Y-100730260D01*
X134384068Y-101017158D01*
X134496010Y-101287411D01*
X134658525Y-101530632D01*
X134865368Y-101737475D01*
X135039760Y-101854000D01*
X134865368Y-101970525D01*
X134658525Y-102177368D01*
X134496010Y-102420589D01*
X134384068Y-102690842D01*
X134327000Y-102977740D01*
X134327000Y-103270260D01*
X134384068Y-103557158D01*
X134496010Y-103827411D01*
X134658525Y-104070632D01*
X134865368Y-104277475D01*
X135039760Y-104394000D01*
X134865368Y-104510525D01*
X134658525Y-104717368D01*
X134496010Y-104960589D01*
X134384068Y-105230842D01*
X134327000Y-105517740D01*
X134327000Y-105810260D01*
X134384068Y-106097158D01*
X134496010Y-106367411D01*
X134658525Y-106610632D01*
X134865368Y-106817475D01*
X135039760Y-106934000D01*
X134865368Y-107050525D01*
X134658525Y-107257368D01*
X134496010Y-107500589D01*
X134384068Y-107770842D01*
X134327000Y-108057740D01*
X134327000Y-108350260D01*
X134384068Y-108637158D01*
X134496010Y-108907411D01*
X134658525Y-109150632D01*
X134865368Y-109357475D01*
X135039760Y-109474000D01*
X134865368Y-109590525D01*
X134658525Y-109797368D01*
X134496010Y-110040589D01*
X134384068Y-110310842D01*
X134327000Y-110597740D01*
X134327000Y-110890260D01*
X134384068Y-111177158D01*
X134496010Y-111447411D01*
X134658525Y-111690632D01*
X134865368Y-111897475D01*
X135039760Y-112014000D01*
X134865368Y-112130525D01*
X134658525Y-112337368D01*
X134496010Y-112580589D01*
X134384068Y-112850842D01*
X134327000Y-113137740D01*
X134327000Y-113430260D01*
X134384068Y-113717158D01*
X134496010Y-113987411D01*
X134658525Y-114230632D01*
X134865368Y-114437475D01*
X135039760Y-114554000D01*
X134865368Y-114670525D01*
X134658525Y-114877368D01*
X134496010Y-115120589D01*
X134384068Y-115390842D01*
X134327000Y-115677740D01*
X134327000Y-115970260D01*
X134384068Y-116257158D01*
X134496010Y-116527411D01*
X134658525Y-116770632D01*
X134865368Y-116977475D01*
X135039760Y-117094000D01*
X134865368Y-117210525D01*
X134658525Y-117417368D01*
X134496010Y-117660589D01*
X134384068Y-117930842D01*
X134327000Y-118217740D01*
X134327000Y-118510260D01*
X134384068Y-118797158D01*
X134496010Y-119067411D01*
X134658525Y-119310632D01*
X134865368Y-119517475D01*
X135039760Y-119634000D01*
X134865368Y-119750525D01*
X134658525Y-119957368D01*
X134496010Y-120200589D01*
X134384068Y-120470842D01*
X134327000Y-120757740D01*
X134327000Y-121050260D01*
X134384068Y-121337158D01*
X134496010Y-121607411D01*
X134658525Y-121850632D01*
X134865368Y-122057475D01*
X135039760Y-122174000D01*
X134865368Y-122290525D01*
X134658525Y-122497368D01*
X134496010Y-122740589D01*
X134384068Y-123010842D01*
X134327000Y-123297740D01*
X134327000Y-123590260D01*
X134384068Y-123877158D01*
X134496010Y-124147411D01*
X134658525Y-124390632D01*
X134865368Y-124597475D01*
X135039760Y-124714000D01*
X134865368Y-124830525D01*
X134658525Y-125037368D01*
X134496010Y-125280589D01*
X134384068Y-125550842D01*
X134327000Y-125837740D01*
X134327000Y-126130260D01*
X134384068Y-126417158D01*
X134496010Y-126687411D01*
X134658525Y-126930632D01*
X134865368Y-127137475D01*
X135039760Y-127254000D01*
X134865368Y-127370525D01*
X134658525Y-127577368D01*
X134496010Y-127820589D01*
X134384068Y-128090842D01*
X134327000Y-128377740D01*
X134327000Y-128670260D01*
X134384068Y-128957158D01*
X134496010Y-129227411D01*
X134658525Y-129470632D01*
X134865368Y-129677475D01*
X135039760Y-129794000D01*
X134865368Y-129910525D01*
X134658525Y-130117368D01*
X134496010Y-130360589D01*
X134384068Y-130630842D01*
X134327000Y-130917740D01*
X134327000Y-131210260D01*
X134384068Y-131497158D01*
X134496010Y-131767411D01*
X134658525Y-132010632D01*
X134865368Y-132217475D01*
X135052000Y-132342179D01*
X135052001Y-144024668D01*
X135048324Y-144062000D01*
X135052001Y-144099333D01*
X135060408Y-144184684D01*
X135062998Y-144210985D01*
X135106454Y-144354246D01*
X135177026Y-144486276D01*
X135248157Y-144572948D01*
X135272000Y-144602001D01*
X135300998Y-144625799D01*
X145937126Y-155261928D01*
X144500000Y-155261928D01*
X144375518Y-155274188D01*
X144255820Y-155310498D01*
X144145506Y-155369463D01*
X144048815Y-155448815D01*
X143969463Y-155545506D01*
X143910498Y-155655820D01*
X143874188Y-155775518D01*
X143861928Y-155900000D01*
X143861928Y-158100000D01*
X143874188Y-158224482D01*
X143910498Y-158344180D01*
X143969463Y-158454494D01*
X144048815Y-158551185D01*
X144145506Y-158630537D01*
X144255820Y-158689502D01*
X144375518Y-158725812D01*
X144500000Y-158738072D01*
X146700000Y-158738072D01*
X146824482Y-158725812D01*
X146944180Y-158689502D01*
X147054494Y-158630537D01*
X147151185Y-158551185D01*
X147230537Y-158454494D01*
X147289502Y-158344180D01*
X147325812Y-158224482D01*
X147338072Y-158100000D01*
X147338072Y-156662874D01*
X148186201Y-157511003D01*
X148209999Y-157540001D01*
X148238997Y-157563799D01*
X148325723Y-157634974D01*
X148361928Y-157654326D01*
X148361928Y-158100000D01*
X148374188Y-158224482D01*
X148410498Y-158344180D01*
X148469463Y-158454494D01*
X148548815Y-158551185D01*
X148645506Y-158630537D01*
X148755820Y-158689502D01*
X148875518Y-158725812D01*
X149000000Y-158738072D01*
X151200000Y-158738072D01*
X151324482Y-158725812D01*
X151444180Y-158689502D01*
X151554494Y-158630537D01*
X151651185Y-158551185D01*
X151730537Y-158454494D01*
X151789502Y-158344180D01*
X151825812Y-158224482D01*
X151838072Y-158100000D01*
X153161928Y-158100000D01*
X153174188Y-158224482D01*
X153210498Y-158344180D01*
X153269463Y-158454494D01*
X153348815Y-158551185D01*
X153445506Y-158630537D01*
X153555820Y-158689502D01*
X153675518Y-158725812D01*
X153800000Y-158738072D01*
X154614250Y-158735000D01*
X154773000Y-158576250D01*
X154773000Y-157127000D01*
X153323750Y-157127000D01*
X153165000Y-157285750D01*
X153161928Y-158100000D01*
X151838072Y-158100000D01*
X151838072Y-155900000D01*
X153161928Y-155900000D01*
X153165000Y-156714250D01*
X153323750Y-156873000D01*
X154773000Y-156873000D01*
X154773000Y-155423750D01*
X154614250Y-155265000D01*
X153800000Y-155261928D01*
X153675518Y-155274188D01*
X153555820Y-155310498D01*
X153445506Y-155369463D01*
X153348815Y-155448815D01*
X153269463Y-155545506D01*
X153210498Y-155655820D01*
X153174188Y-155775518D01*
X153161928Y-155900000D01*
X151838072Y-155900000D01*
X151825812Y-155775518D01*
X151789502Y-155655820D01*
X151730537Y-155545506D01*
X151651185Y-155448815D01*
X151554494Y-155369463D01*
X151444180Y-155310498D01*
X151324482Y-155274188D01*
X151200000Y-155261928D01*
X149000000Y-155261928D01*
X148875518Y-155274188D01*
X148755820Y-155310498D01*
X148645506Y-155369463D01*
X148548815Y-155448815D01*
X148469463Y-155545506D01*
X148434924Y-155610122D01*
X142920176Y-150095374D01*
X150084231Y-150095374D01*
X150384411Y-150533828D01*
X150963356Y-150844296D01*
X151591746Y-151035852D01*
X152245431Y-151101134D01*
X152899293Y-151037634D01*
X153528203Y-150847792D01*
X154107992Y-150538904D01*
X154115589Y-150533828D01*
X154415769Y-150095374D01*
X152250000Y-147929605D01*
X150084231Y-150095374D01*
X142920176Y-150095374D01*
X141716455Y-148891653D01*
X142987952Y-148891653D01*
X143143962Y-149207214D01*
X143518745Y-149398020D01*
X143923551Y-149512044D01*
X144342824Y-149544902D01*
X144760451Y-149495334D01*
X145160383Y-149365243D01*
X145456038Y-149207214D01*
X145612048Y-148891653D01*
X144300000Y-147579605D01*
X142987952Y-148891653D01*
X141716455Y-148891653D01*
X140267626Y-147442824D01*
X142155098Y-147442824D01*
X142204666Y-147860451D01*
X142334757Y-148260383D01*
X142492786Y-148556038D01*
X142808347Y-148712048D01*
X144120395Y-147400000D01*
X144479605Y-147400000D01*
X145791653Y-148712048D01*
X146107214Y-148556038D01*
X146298020Y-148181255D01*
X146412044Y-147776449D01*
X146414474Y-147745431D01*
X148898866Y-147745431D01*
X148962366Y-148399293D01*
X149152208Y-149028203D01*
X149461096Y-149607992D01*
X149466172Y-149615589D01*
X149904626Y-149915769D01*
X152070395Y-147750000D01*
X152429605Y-147750000D01*
X154595374Y-149915769D01*
X155033828Y-149615589D01*
X155344296Y-149036644D01*
X155535852Y-148408254D01*
X155601134Y-147754569D01*
X155537634Y-147100707D01*
X155347792Y-146471797D01*
X155038904Y-145892008D01*
X155033828Y-145884411D01*
X154595374Y-145584231D01*
X152429605Y-147750000D01*
X152070395Y-147750000D01*
X149904626Y-145584231D01*
X149466172Y-145884411D01*
X149155704Y-146463356D01*
X148964148Y-147091746D01*
X148898866Y-147745431D01*
X146414474Y-147745431D01*
X146444902Y-147357176D01*
X146395334Y-146939549D01*
X146265243Y-146539617D01*
X146107214Y-146243962D01*
X145791653Y-146087952D01*
X144479605Y-147400000D01*
X144120395Y-147400000D01*
X142808347Y-146087952D01*
X142492786Y-146243962D01*
X142301980Y-146618745D01*
X142187956Y-147023551D01*
X142155098Y-147442824D01*
X140267626Y-147442824D01*
X138733149Y-145908347D01*
X142987952Y-145908347D01*
X144300000Y-147220395D01*
X145612048Y-145908347D01*
X145456038Y-145592786D01*
X145086453Y-145404626D01*
X150084231Y-145404626D01*
X152250000Y-147570395D01*
X154415769Y-145404626D01*
X154115589Y-144966172D01*
X153536644Y-144655704D01*
X152908254Y-144464148D01*
X152254569Y-144398866D01*
X151600707Y-144462366D01*
X150971797Y-144652208D01*
X150392008Y-144961096D01*
X150384411Y-144966172D01*
X150084231Y-145404626D01*
X145086453Y-145404626D01*
X145081255Y-145401980D01*
X144676449Y-145287956D01*
X144257176Y-145255098D01*
X143839549Y-145304666D01*
X143439617Y-145434757D01*
X143143962Y-145592786D01*
X142987952Y-145908347D01*
X138733149Y-145908347D01*
X136572000Y-143747199D01*
X136572000Y-132342178D01*
X136758632Y-132217475D01*
X136965475Y-132010632D01*
X137127990Y-131767411D01*
X137239932Y-131497158D01*
X137297000Y-131210260D01*
X137297000Y-130917740D01*
X137239932Y-130630842D01*
X137127990Y-130360589D01*
X136965475Y-130117368D01*
X136758632Y-129910525D01*
X136584240Y-129794000D01*
X136758632Y-129677475D01*
X136965475Y-129470632D01*
X137127990Y-129227411D01*
X137239932Y-128957158D01*
X137297000Y-128670260D01*
X137297000Y-128543801D01*
X145694289Y-136941091D01*
X144500000Y-136941091D01*
X144375518Y-136953351D01*
X144255820Y-136989661D01*
X144145506Y-137048626D01*
X144048815Y-137127978D01*
X143969463Y-137224669D01*
X143910498Y-137334983D01*
X143874188Y-137454681D01*
X143861928Y-137579163D01*
X143861928Y-139779163D01*
X143874188Y-139903645D01*
X143910498Y-140023343D01*
X143969463Y-140133657D01*
X144048815Y-140230348D01*
X144145506Y-140309700D01*
X144255820Y-140368665D01*
X144375518Y-140404975D01*
X144500000Y-140417235D01*
X146700000Y-140417235D01*
X146824482Y-140404975D01*
X146944180Y-140368665D01*
X147054494Y-140309700D01*
X147151185Y-140230348D01*
X147230537Y-140133657D01*
X147289502Y-140023343D01*
X147325812Y-139903645D01*
X147338072Y-139779163D01*
X147338072Y-138584874D01*
X147943364Y-139190166D01*
X147967162Y-139219164D01*
X148082887Y-139314137D01*
X148214916Y-139384709D01*
X148358177Y-139428166D01*
X148361928Y-139428535D01*
X148361928Y-139779163D01*
X148374188Y-139903645D01*
X148410498Y-140023343D01*
X148469463Y-140133657D01*
X148548815Y-140230348D01*
X148645506Y-140309700D01*
X148755820Y-140368665D01*
X148875518Y-140404975D01*
X149000000Y-140417235D01*
X151200000Y-140417235D01*
X151324482Y-140404975D01*
X151444180Y-140368665D01*
X151554494Y-140309700D01*
X151651185Y-140230348D01*
X151730537Y-140133657D01*
X151789502Y-140023343D01*
X151825812Y-139903645D01*
X151838072Y-139779163D01*
X153161928Y-139779163D01*
X153174188Y-139903645D01*
X153210498Y-140023343D01*
X153269463Y-140133657D01*
X153348815Y-140230348D01*
X153445506Y-140309700D01*
X153555820Y-140368665D01*
X153675518Y-140404975D01*
X153800000Y-140417235D01*
X154614250Y-140414163D01*
X154773000Y-140255413D01*
X154773000Y-138806163D01*
X153323750Y-138806163D01*
X153165000Y-138964913D01*
X153161928Y-139779163D01*
X151838072Y-139779163D01*
X151838072Y-137579163D01*
X153161928Y-137579163D01*
X153165000Y-138393413D01*
X153323750Y-138552163D01*
X154773000Y-138552163D01*
X154773000Y-137102913D01*
X154614250Y-136944163D01*
X153800000Y-136941091D01*
X153675518Y-136953351D01*
X153555820Y-136989661D01*
X153445506Y-137048626D01*
X153348815Y-137127978D01*
X153269463Y-137224669D01*
X153210498Y-137334983D01*
X153174188Y-137454681D01*
X153161928Y-137579163D01*
X151838072Y-137579163D01*
X151825812Y-137454681D01*
X151789502Y-137334983D01*
X151730537Y-137224669D01*
X151651185Y-137127978D01*
X151554494Y-137048626D01*
X151444180Y-136989661D01*
X151324482Y-136953351D01*
X151200000Y-136941091D01*
X149000000Y-136941091D01*
X148875518Y-136953351D01*
X148755820Y-136989661D01*
X148645506Y-137048626D01*
X148548815Y-137127978D01*
X148469463Y-137224669D01*
X148410498Y-137334983D01*
X148374188Y-137454681D01*
X148372690Y-137469888D01*
X138329312Y-127426510D01*
X143861928Y-127426510D01*
X143861928Y-129626510D01*
X143874188Y-129750992D01*
X143910498Y-129870690D01*
X143969463Y-129981004D01*
X144048815Y-130077695D01*
X144145506Y-130157047D01*
X144255820Y-130216012D01*
X144375518Y-130252322D01*
X144500000Y-130264582D01*
X146700000Y-130264582D01*
X146824482Y-130252322D01*
X146944180Y-130216012D01*
X147054494Y-130157047D01*
X147151185Y-130077695D01*
X147230537Y-129981004D01*
X147289502Y-129870690D01*
X147325812Y-129750992D01*
X147338072Y-129626510D01*
X147338072Y-127426510D01*
X147325812Y-127302028D01*
X147289502Y-127182330D01*
X147230537Y-127072016D01*
X147151185Y-126975325D01*
X147054494Y-126895973D01*
X146944180Y-126837008D01*
X146824482Y-126800698D01*
X146700000Y-126788438D01*
X144500000Y-126788438D01*
X144375518Y-126800698D01*
X144255820Y-126837008D01*
X144145506Y-126895973D01*
X144048815Y-126975325D01*
X143969463Y-127072016D01*
X143910498Y-127182330D01*
X143874188Y-127302028D01*
X143861928Y-127426510D01*
X138329312Y-127426510D01*
X137253209Y-126350408D01*
X137297000Y-126130260D01*
X137297000Y-125837740D01*
X137239932Y-125550842D01*
X137127990Y-125280589D01*
X136965475Y-125037368D01*
X136758632Y-124830525D01*
X136584240Y-124714000D01*
X136758632Y-124597475D01*
X136965475Y-124390632D01*
X137127990Y-124147411D01*
X137239932Y-123877158D01*
X137297000Y-123590260D01*
X137297000Y-123297740D01*
X137239932Y-123010842D01*
X137127990Y-122740589D01*
X136965475Y-122497368D01*
X136758632Y-122290525D01*
X136584240Y-122174000D01*
X136758632Y-122057475D01*
X136965475Y-121850632D01*
X137090178Y-121664000D01*
X143512689Y-121664000D01*
X148710122Y-126861434D01*
X148645506Y-126895973D01*
X148548815Y-126975325D01*
X148469463Y-127072016D01*
X148410498Y-127182330D01*
X148374188Y-127302028D01*
X148361928Y-127426510D01*
X148361928Y-129626510D01*
X148374188Y-129750992D01*
X148410498Y-129870690D01*
X148469463Y-129981004D01*
X148548815Y-130077695D01*
X148645506Y-130157047D01*
X148755820Y-130216012D01*
X148875518Y-130252322D01*
X149000000Y-130264582D01*
X151200000Y-130264582D01*
X151324482Y-130252322D01*
X151444180Y-130216012D01*
X151554494Y-130157047D01*
X151651185Y-130077695D01*
X151730537Y-129981004D01*
X151789502Y-129870690D01*
X151825812Y-129750992D01*
X151838072Y-129626510D01*
X153161928Y-129626510D01*
X153174188Y-129750992D01*
X153210498Y-129870690D01*
X153269463Y-129981004D01*
X153348815Y-130077695D01*
X153445506Y-130157047D01*
X153555820Y-130216012D01*
X153675518Y-130252322D01*
X153800000Y-130264582D01*
X154614250Y-130261510D01*
X154773000Y-130102760D01*
X154773000Y-128653510D01*
X153323750Y-128653510D01*
X153165000Y-128812260D01*
X153161928Y-129626510D01*
X151838072Y-129626510D01*
X151838072Y-127426510D01*
X153161928Y-127426510D01*
X153165000Y-128240760D01*
X153323750Y-128399510D01*
X154773000Y-128399510D01*
X154773000Y-126950260D01*
X154614250Y-126791510D01*
X153800000Y-126788438D01*
X153675518Y-126800698D01*
X153555820Y-126837008D01*
X153445506Y-126895973D01*
X153348815Y-126975325D01*
X153269463Y-127072016D01*
X153210498Y-127182330D01*
X153174188Y-127302028D01*
X153161928Y-127426510D01*
X151838072Y-127426510D01*
X151825812Y-127302028D01*
X151789502Y-127182330D01*
X151730537Y-127072016D01*
X151651185Y-126975325D01*
X151554494Y-126895973D01*
X151444180Y-126837008D01*
X151324482Y-126800698D01*
X151200000Y-126788438D01*
X150754326Y-126788438D01*
X150734974Y-126752234D01*
X150640001Y-126636509D01*
X150611003Y-126612711D01*
X144391294Y-120393003D01*
X144367491Y-120363999D01*
X144251766Y-120269026D01*
X144119737Y-120198454D01*
X143976476Y-120154997D01*
X143864823Y-120144000D01*
X143864812Y-120144000D01*
X143827490Y-120140324D01*
X143790168Y-120144000D01*
X137090178Y-120144000D01*
X136965475Y-119957368D01*
X136758632Y-119750525D01*
X136584240Y-119634000D01*
X136758632Y-119517475D01*
X136965475Y-119310632D01*
X137127990Y-119067411D01*
X137239932Y-118797158D01*
X137297000Y-118510260D01*
X137297000Y-118217740D01*
X137239932Y-117930842D01*
X137127990Y-117660589D01*
X136965475Y-117417368D01*
X136758632Y-117210525D01*
X136584240Y-117094000D01*
X136758632Y-116977475D01*
X136965475Y-116770632D01*
X137127990Y-116527411D01*
X137239932Y-116257158D01*
X137297000Y-115970260D01*
X137297000Y-115677740D01*
X137239932Y-115390842D01*
X137127990Y-115120589D01*
X136965475Y-114877368D01*
X136758632Y-114670525D01*
X136584240Y-114554000D01*
X136758632Y-114437475D01*
X136965475Y-114230632D01*
X137090178Y-114044000D01*
X143345340Y-114044000D01*
X145937126Y-116635787D01*
X144500000Y-116635787D01*
X144375518Y-116648047D01*
X144255820Y-116684357D01*
X144145506Y-116743322D01*
X144048815Y-116822674D01*
X143969463Y-116919365D01*
X143910498Y-117029679D01*
X143874188Y-117149377D01*
X143861928Y-117273859D01*
X143861928Y-119473859D01*
X143874188Y-119598341D01*
X143910498Y-119718039D01*
X143969463Y-119828353D01*
X144048815Y-119925044D01*
X144145506Y-120004396D01*
X144255820Y-120063361D01*
X144375518Y-120099671D01*
X144500000Y-120111931D01*
X146700000Y-120111931D01*
X146824482Y-120099671D01*
X146944180Y-120063361D01*
X147054494Y-120004396D01*
X147151185Y-119925044D01*
X147230537Y-119828353D01*
X147289502Y-119718039D01*
X147325812Y-119598341D01*
X147338072Y-119473859D01*
X147338072Y-118036733D01*
X148186201Y-118884862D01*
X148209999Y-118913860D01*
X148238997Y-118937658D01*
X148325724Y-119008833D01*
X148361928Y-119028185D01*
X148361928Y-119473859D01*
X148374188Y-119598341D01*
X148410498Y-119718039D01*
X148469463Y-119828353D01*
X148548815Y-119925044D01*
X148645506Y-120004396D01*
X148755820Y-120063361D01*
X148875518Y-120099671D01*
X149000000Y-120111931D01*
X151200000Y-120111931D01*
X151324482Y-120099671D01*
X151444180Y-120063361D01*
X151554494Y-120004396D01*
X151651185Y-119925044D01*
X151730537Y-119828353D01*
X151789502Y-119718039D01*
X151825812Y-119598341D01*
X151838072Y-119473859D01*
X153161928Y-119473859D01*
X153174188Y-119598341D01*
X153210498Y-119718039D01*
X153269463Y-119828353D01*
X153348815Y-119925044D01*
X153445506Y-120004396D01*
X153555820Y-120063361D01*
X153675518Y-120099671D01*
X153800000Y-120111931D01*
X154614250Y-120108859D01*
X154773000Y-119950109D01*
X154773000Y-118500859D01*
X153323750Y-118500859D01*
X153165000Y-118659609D01*
X153161928Y-119473859D01*
X151838072Y-119473859D01*
X151838072Y-117273859D01*
X153161928Y-117273859D01*
X153165000Y-118088109D01*
X153323750Y-118246859D01*
X154773000Y-118246859D01*
X154773000Y-116797609D01*
X154614250Y-116638859D01*
X153800000Y-116635787D01*
X153675518Y-116648047D01*
X153555820Y-116684357D01*
X153445506Y-116743322D01*
X153348815Y-116822674D01*
X153269463Y-116919365D01*
X153210498Y-117029679D01*
X153174188Y-117149377D01*
X153161928Y-117273859D01*
X151838072Y-117273859D01*
X151825812Y-117149377D01*
X151789502Y-117029679D01*
X151730537Y-116919365D01*
X151651185Y-116822674D01*
X151554494Y-116743322D01*
X151444180Y-116684357D01*
X151324482Y-116648047D01*
X151200000Y-116635787D01*
X149000000Y-116635787D01*
X148875518Y-116648047D01*
X148755820Y-116684357D01*
X148645506Y-116743322D01*
X148548815Y-116822674D01*
X148469463Y-116919365D01*
X148434924Y-116983981D01*
X144223945Y-112773003D01*
X144200142Y-112743999D01*
X144084417Y-112649026D01*
X143952388Y-112578454D01*
X143809127Y-112534997D01*
X143697474Y-112524000D01*
X143697463Y-112524000D01*
X143660141Y-112520324D01*
X143622819Y-112524000D01*
X137090178Y-112524000D01*
X136965475Y-112337368D01*
X136758632Y-112130525D01*
X136584240Y-112014000D01*
X136758632Y-111897475D01*
X136965475Y-111690632D01*
X137090178Y-111504000D01*
X148889886Y-111504000D01*
X148927208Y-111507676D01*
X148964530Y-111504000D01*
X148964541Y-111504000D01*
X149076194Y-111493003D01*
X149219455Y-111449546D01*
X149351484Y-111378974D01*
X149467209Y-111284001D01*
X149491012Y-111254997D01*
X150611003Y-110135007D01*
X150640001Y-110111209D01*
X150734974Y-109995484D01*
X150754326Y-109959280D01*
X151200000Y-109959280D01*
X151324482Y-109947020D01*
X151444180Y-109910710D01*
X151554494Y-109851745D01*
X151651185Y-109772393D01*
X151730537Y-109675702D01*
X151789502Y-109565388D01*
X151825812Y-109445690D01*
X151838072Y-109321208D01*
X153161928Y-109321208D01*
X153174188Y-109445690D01*
X153210498Y-109565388D01*
X153269463Y-109675702D01*
X153348815Y-109772393D01*
X153445506Y-109851745D01*
X153555820Y-109910710D01*
X153675518Y-109947020D01*
X153800000Y-109959280D01*
X154614250Y-109956208D01*
X154773000Y-109797458D01*
X154773000Y-108348208D01*
X153323750Y-108348208D01*
X153165000Y-108506958D01*
X153161928Y-109321208D01*
X151838072Y-109321208D01*
X151838072Y-107121208D01*
X153161928Y-107121208D01*
X153165000Y-107935458D01*
X153323750Y-108094208D01*
X154773000Y-108094208D01*
X154773000Y-106644958D01*
X154614250Y-106486208D01*
X153800000Y-106483136D01*
X153675518Y-106495396D01*
X153555820Y-106531706D01*
X153445506Y-106590671D01*
X153348815Y-106670023D01*
X153269463Y-106766714D01*
X153210498Y-106877028D01*
X153174188Y-106996726D01*
X153161928Y-107121208D01*
X151838072Y-107121208D01*
X151825812Y-106996726D01*
X151789502Y-106877028D01*
X151730537Y-106766714D01*
X151651185Y-106670023D01*
X151554494Y-106590671D01*
X151444180Y-106531706D01*
X151324482Y-106495396D01*
X151200000Y-106483136D01*
X149000000Y-106483136D01*
X148875518Y-106495396D01*
X148755820Y-106531706D01*
X148645506Y-106590671D01*
X148548815Y-106670023D01*
X148469463Y-106766714D01*
X148410498Y-106877028D01*
X148374188Y-106996726D01*
X148361928Y-107121208D01*
X148361928Y-109321208D01*
X148374188Y-109445690D01*
X148410498Y-109565388D01*
X148469463Y-109675702D01*
X148548815Y-109772393D01*
X148645506Y-109851745D01*
X148710123Y-109886284D01*
X148612407Y-109984000D01*
X137090178Y-109984000D01*
X136965475Y-109797368D01*
X136758632Y-109590525D01*
X136584240Y-109474000D01*
X136758632Y-109357475D01*
X136965475Y-109150632D01*
X137127990Y-108907411D01*
X137239932Y-108637158D01*
X137297000Y-108350260D01*
X137297000Y-108057740D01*
X137239932Y-107770842D01*
X137127990Y-107500589D01*
X136965475Y-107257368D01*
X136829315Y-107121208D01*
X143861928Y-107121208D01*
X143861928Y-109321208D01*
X143874188Y-109445690D01*
X143910498Y-109565388D01*
X143969463Y-109675702D01*
X144048815Y-109772393D01*
X144145506Y-109851745D01*
X144255820Y-109910710D01*
X144375518Y-109947020D01*
X144500000Y-109959280D01*
X146700000Y-109959280D01*
X146824482Y-109947020D01*
X146944180Y-109910710D01*
X147054494Y-109851745D01*
X147151185Y-109772393D01*
X147230537Y-109675702D01*
X147289502Y-109565388D01*
X147325812Y-109445690D01*
X147338072Y-109321208D01*
X147338072Y-107121208D01*
X147325812Y-106996726D01*
X147289502Y-106877028D01*
X147230537Y-106766714D01*
X147151185Y-106670023D01*
X147054494Y-106590671D01*
X146944180Y-106531706D01*
X146824482Y-106495396D01*
X146700000Y-106483136D01*
X144500000Y-106483136D01*
X144375518Y-106495396D01*
X144255820Y-106531706D01*
X144145506Y-106590671D01*
X144048815Y-106670023D01*
X143969463Y-106766714D01*
X143910498Y-106877028D01*
X143874188Y-106996726D01*
X143861928Y-107121208D01*
X136829315Y-107121208D01*
X136758632Y-107050525D01*
X136584240Y-106934000D01*
X136758632Y-106817475D01*
X136965475Y-106610632D01*
X137127990Y-106367411D01*
X137239932Y-106097158D01*
X137297000Y-105810260D01*
X137297000Y-105517740D01*
X137239932Y-105230842D01*
X137127990Y-104960589D01*
X136965475Y-104717368D01*
X136758632Y-104510525D01*
X136584240Y-104394000D01*
X136758632Y-104277475D01*
X136965475Y-104070632D01*
X137090178Y-103884000D01*
X146357235Y-103884000D01*
X146394557Y-103887676D01*
X146431879Y-103884000D01*
X146431890Y-103884000D01*
X146543543Y-103873003D01*
X146686804Y-103829546D01*
X146818833Y-103758974D01*
X146934558Y-103664001D01*
X146958361Y-103634997D01*
X150611003Y-99982356D01*
X150640001Y-99958558D01*
X150734974Y-99842833D01*
X150754326Y-99806629D01*
X151200000Y-99806629D01*
X151324482Y-99794369D01*
X151444180Y-99758059D01*
X151554494Y-99699094D01*
X151651185Y-99619742D01*
X151730537Y-99523051D01*
X151789502Y-99412737D01*
X151825812Y-99293039D01*
X151838072Y-99168557D01*
X153161928Y-99168557D01*
X153174188Y-99293039D01*
X153210498Y-99412737D01*
X153269463Y-99523051D01*
X153348815Y-99619742D01*
X153445506Y-99699094D01*
X153555820Y-99758059D01*
X153675518Y-99794369D01*
X153800000Y-99806629D01*
X154614250Y-99803557D01*
X154773000Y-99644807D01*
X154773000Y-98195557D01*
X153323750Y-98195557D01*
X153165000Y-98354307D01*
X153161928Y-99168557D01*
X151838072Y-99168557D01*
X151838072Y-96968557D01*
X153161928Y-96968557D01*
X153165000Y-97782807D01*
X153323750Y-97941557D01*
X154773000Y-97941557D01*
X154773000Y-96492307D01*
X154614250Y-96333557D01*
X153800000Y-96330485D01*
X153675518Y-96342745D01*
X153555820Y-96379055D01*
X153445506Y-96438020D01*
X153348815Y-96517372D01*
X153269463Y-96614063D01*
X153210498Y-96724377D01*
X153174188Y-96844075D01*
X153161928Y-96968557D01*
X151838072Y-96968557D01*
X151825812Y-96844075D01*
X151789502Y-96724377D01*
X151730537Y-96614063D01*
X151651185Y-96517372D01*
X151554494Y-96438020D01*
X151444180Y-96379055D01*
X151324482Y-96342745D01*
X151200000Y-96330485D01*
X149000000Y-96330485D01*
X148875518Y-96342745D01*
X148755820Y-96379055D01*
X148645506Y-96438020D01*
X148548815Y-96517372D01*
X148469463Y-96614063D01*
X148410498Y-96724377D01*
X148374188Y-96844075D01*
X148361928Y-96968557D01*
X148361928Y-99168557D01*
X148374188Y-99293039D01*
X148410498Y-99412737D01*
X148469463Y-99523051D01*
X148548815Y-99619742D01*
X148645506Y-99699094D01*
X148710122Y-99733633D01*
X146079756Y-102364000D01*
X137090178Y-102364000D01*
X136965475Y-102177368D01*
X136758632Y-101970525D01*
X136584240Y-101854000D01*
X136758632Y-101737475D01*
X136965475Y-101530632D01*
X137127990Y-101287411D01*
X137239932Y-101017158D01*
X137297000Y-100730260D01*
X137297000Y-100437740D01*
X137239932Y-100150842D01*
X137127990Y-99880589D01*
X136965475Y-99637368D01*
X136758632Y-99430525D01*
X136584240Y-99314000D01*
X136758632Y-99197475D01*
X136965475Y-98990632D01*
X137090178Y-98804000D01*
X138584584Y-98804000D01*
X138621906Y-98807676D01*
X138659228Y-98804000D01*
X138659239Y-98804000D01*
X138770892Y-98793003D01*
X138914153Y-98749546D01*
X139046182Y-98678974D01*
X139161907Y-98584001D01*
X139185710Y-98554997D01*
X140772150Y-96968557D01*
X143861928Y-96968557D01*
X143861928Y-99168557D01*
X143874188Y-99293039D01*
X143910498Y-99412737D01*
X143969463Y-99523051D01*
X144048815Y-99619742D01*
X144145506Y-99699094D01*
X144255820Y-99758059D01*
X144375518Y-99794369D01*
X144500000Y-99806629D01*
X146700000Y-99806629D01*
X146824482Y-99794369D01*
X146944180Y-99758059D01*
X147054494Y-99699094D01*
X147151185Y-99619742D01*
X147230537Y-99523051D01*
X147289502Y-99412737D01*
X147325812Y-99293039D01*
X147338072Y-99168557D01*
X147338072Y-96968557D01*
X147325812Y-96844075D01*
X147289502Y-96724377D01*
X147230537Y-96614063D01*
X147151185Y-96517372D01*
X147054494Y-96438020D01*
X146944180Y-96379055D01*
X146824482Y-96342745D01*
X146700000Y-96330485D01*
X144500000Y-96330485D01*
X144375518Y-96342745D01*
X144255820Y-96379055D01*
X144145506Y-96438020D01*
X144048815Y-96517372D01*
X143969463Y-96614063D01*
X143910498Y-96724377D01*
X143874188Y-96844075D01*
X143861928Y-96968557D01*
X140772150Y-96968557D01*
X148434924Y-89305784D01*
X148469463Y-89370400D01*
X148548815Y-89467091D01*
X148645506Y-89546443D01*
X148755820Y-89605408D01*
X148875518Y-89641718D01*
X149000000Y-89653978D01*
X151200000Y-89653978D01*
X151324482Y-89641718D01*
X151444180Y-89605408D01*
X151554494Y-89546443D01*
X151651185Y-89467091D01*
X151730537Y-89370400D01*
X151789502Y-89260086D01*
X151825812Y-89140388D01*
X151838072Y-89015906D01*
X153161928Y-89015906D01*
X153174188Y-89140388D01*
X153210498Y-89260086D01*
X153269463Y-89370400D01*
X153348815Y-89467091D01*
X153445506Y-89546443D01*
X153555820Y-89605408D01*
X153675518Y-89641718D01*
X153800000Y-89653978D01*
X154614250Y-89650906D01*
X154773000Y-89492156D01*
X154773000Y-88042906D01*
X153323750Y-88042906D01*
X153165000Y-88201656D01*
X153161928Y-89015906D01*
X151838072Y-89015906D01*
X151838072Y-86815906D01*
X153161928Y-86815906D01*
X153165000Y-87630156D01*
X153323750Y-87788906D01*
X154773000Y-87788906D01*
X154773000Y-86339656D01*
X154614250Y-86180906D01*
X153800000Y-86177834D01*
X153675518Y-86190094D01*
X153555820Y-86226404D01*
X153445506Y-86285369D01*
X153348815Y-86364721D01*
X153269463Y-86461412D01*
X153210498Y-86571726D01*
X153174188Y-86691424D01*
X153161928Y-86815906D01*
X151838072Y-86815906D01*
X151825812Y-86691424D01*
X151789502Y-86571726D01*
X151730537Y-86461412D01*
X151651185Y-86364721D01*
X151554494Y-86285369D01*
X151444180Y-86226404D01*
X151324482Y-86190094D01*
X151200000Y-86177834D01*
X149000000Y-86177834D01*
X148875518Y-86190094D01*
X148755820Y-86226404D01*
X148645506Y-86285369D01*
X148548815Y-86364721D01*
X148469463Y-86461412D01*
X148410498Y-86571726D01*
X148374188Y-86691424D01*
X148361928Y-86815906D01*
X148361928Y-87261580D01*
X148325723Y-87280932D01*
X148242083Y-87349574D01*
X148209999Y-87375905D01*
X148186201Y-87404903D01*
X147338072Y-88253032D01*
X147338072Y-86815906D01*
X147325812Y-86691424D01*
X147289502Y-86571726D01*
X147230537Y-86461412D01*
X147151185Y-86364721D01*
X147054494Y-86285369D01*
X146944180Y-86226404D01*
X146824482Y-86190094D01*
X146700000Y-86177834D01*
X144946967Y-86177834D01*
X150611004Y-80513798D01*
X150640001Y-80490001D01*
X150734974Y-80374276D01*
X150805546Y-80242247D01*
X150849003Y-80098986D01*
X150860000Y-79987333D01*
X150860000Y-79987325D01*
X150863676Y-79950000D01*
X150860000Y-79912675D01*
X150860000Y-79501327D01*
X151200000Y-79501327D01*
X151324482Y-79489067D01*
X151444180Y-79452757D01*
X151554494Y-79393792D01*
X151651185Y-79314440D01*
X151730537Y-79217749D01*
X151789502Y-79107435D01*
X151825812Y-78987737D01*
X151838072Y-78863255D01*
X153161928Y-78863255D01*
X153174188Y-78987737D01*
X153210498Y-79107435D01*
X153269463Y-79217749D01*
X153348815Y-79314440D01*
X153445506Y-79393792D01*
X153555820Y-79452757D01*
X153675518Y-79489067D01*
X153800000Y-79501327D01*
X154614250Y-79498255D01*
X154773000Y-79339505D01*
X154773000Y-77890255D01*
X153323750Y-77890255D01*
X153165000Y-78049005D01*
X153161928Y-78863255D01*
X151838072Y-78863255D01*
X151838072Y-76663255D01*
X153161928Y-76663255D01*
X153165000Y-77477505D01*
X153323750Y-77636255D01*
X154773000Y-77636255D01*
X154773000Y-76187005D01*
X154614250Y-76028255D01*
X153800000Y-76025183D01*
X153675518Y-76037443D01*
X153555820Y-76073753D01*
X153445506Y-76132718D01*
X153348815Y-76212070D01*
X153269463Y-76308761D01*
X153210498Y-76419075D01*
X153174188Y-76538773D01*
X153161928Y-76663255D01*
X151838072Y-76663255D01*
X151825812Y-76538773D01*
X151789502Y-76419075D01*
X151730537Y-76308761D01*
X151651185Y-76212070D01*
X151554494Y-76132718D01*
X151444180Y-76073753D01*
X151324482Y-76037443D01*
X151200000Y-76025183D01*
X149000000Y-76025183D01*
X148875518Y-76037443D01*
X148755820Y-76073753D01*
X148645506Y-76132718D01*
X148548815Y-76212070D01*
X148469463Y-76308761D01*
X148410498Y-76419075D01*
X148374188Y-76538773D01*
X148361928Y-76663255D01*
X148361928Y-78863255D01*
X148374188Y-78987737D01*
X148410498Y-79107435D01*
X148469463Y-79217749D01*
X148548815Y-79314440D01*
X148645506Y-79393792D01*
X148755820Y-79452757D01*
X148875518Y-79489067D01*
X149000000Y-79501327D01*
X149340000Y-79501327D01*
X149340000Y-79635198D01*
X144934999Y-84040200D01*
X144934999Y-79501327D01*
X146700000Y-79501327D01*
X146824482Y-79489067D01*
X146944180Y-79452757D01*
X147054494Y-79393792D01*
X147151185Y-79314440D01*
X147230537Y-79217749D01*
X147289502Y-79107435D01*
X147325812Y-78987737D01*
X147338072Y-78863255D01*
X147338072Y-76663255D01*
X147325812Y-76538773D01*
X147289502Y-76419075D01*
X147230537Y-76308761D01*
X147151185Y-76212070D01*
X147054494Y-76132718D01*
X146944180Y-76073753D01*
X146824482Y-76037443D01*
X146700000Y-76025183D01*
X144934999Y-76025183D01*
X144934999Y-72500406D01*
X148434925Y-69000482D01*
X148469463Y-69065098D01*
X148548815Y-69161789D01*
X148645506Y-69241141D01*
X148755820Y-69300106D01*
X148875518Y-69336416D01*
X149000000Y-69348676D01*
X151200000Y-69348676D01*
X151324482Y-69336416D01*
X151444180Y-69300106D01*
X151554494Y-69241141D01*
X151651185Y-69161789D01*
X151730537Y-69065098D01*
X151789502Y-68954784D01*
X151825812Y-68835086D01*
X151838072Y-68710604D01*
X153161928Y-68710604D01*
X153174188Y-68835086D01*
X153210498Y-68954784D01*
X153269463Y-69065098D01*
X153348815Y-69161789D01*
X153445506Y-69241141D01*
X153555820Y-69300106D01*
X153675518Y-69336416D01*
X153800000Y-69348676D01*
X154614250Y-69345604D01*
X154773000Y-69186854D01*
X154773000Y-67737604D01*
X153323750Y-67737604D01*
X153165000Y-67896354D01*
X153161928Y-68710604D01*
X151838072Y-68710604D01*
X151838072Y-66510604D01*
X153161928Y-66510604D01*
X153165000Y-67324854D01*
X153323750Y-67483604D01*
X154773000Y-67483604D01*
X154773000Y-66034354D01*
X154614250Y-65875604D01*
X153800000Y-65872532D01*
X153675518Y-65884792D01*
X153555820Y-65921102D01*
X153445506Y-65980067D01*
X153348815Y-66059419D01*
X153269463Y-66156110D01*
X153210498Y-66266424D01*
X153174188Y-66386122D01*
X153161928Y-66510604D01*
X151838072Y-66510604D01*
X151825812Y-66386122D01*
X151789502Y-66266424D01*
X151730537Y-66156110D01*
X151651185Y-66059419D01*
X151554494Y-65980067D01*
X151444180Y-65921102D01*
X151324482Y-65884792D01*
X151200000Y-65872532D01*
X149000000Y-65872532D01*
X148875518Y-65884792D01*
X148755820Y-65921102D01*
X148645506Y-65980067D01*
X148548815Y-66059419D01*
X148469463Y-66156110D01*
X148410498Y-66266424D01*
X148374188Y-66386122D01*
X148361928Y-66510604D01*
X148361928Y-66956278D01*
X148325724Y-66975630D01*
X148325722Y-66975631D01*
X148325723Y-66975631D01*
X148238996Y-67046805D01*
X148238992Y-67046809D01*
X148209999Y-67070603D01*
X148186205Y-67099596D01*
X147338072Y-67947729D01*
X147338072Y-66510604D01*
X147325812Y-66386122D01*
X147289502Y-66266424D01*
X147230537Y-66156110D01*
X147151185Y-66059419D01*
X147054494Y-65980067D01*
X146944180Y-65921102D01*
X146824482Y-65884792D01*
X146700000Y-65872532D01*
X144500000Y-65872532D01*
X144375518Y-65884792D01*
X144255820Y-65921102D01*
X144145506Y-65980067D01*
X144048815Y-66059419D01*
X143969463Y-66156110D01*
X143910498Y-66266424D01*
X143874188Y-66386122D01*
X143861928Y-66510604D01*
X143861928Y-68710604D01*
X143874188Y-68835086D01*
X143910498Y-68954784D01*
X143969463Y-69065098D01*
X144048815Y-69161789D01*
X144145506Y-69241141D01*
X144255820Y-69300106D01*
X144375518Y-69336416D01*
X144500000Y-69348676D01*
X145937126Y-69348676D01*
X143664002Y-71621801D01*
X143634998Y-71645604D01*
X143579870Y-71712779D01*
X143540025Y-71761329D01*
X143469454Y-71893358D01*
X143469453Y-71893359D01*
X143425996Y-72036620D01*
X143414999Y-72148273D01*
X143414999Y-72148283D01*
X143411323Y-72185605D01*
X143414999Y-72222927D01*
X143415000Y-84286197D01*
X137297000Y-90404199D01*
X137297000Y-90277740D01*
X137239932Y-89990842D01*
X137127990Y-89720589D01*
X136965475Y-89477368D01*
X136758632Y-89270525D01*
X136584240Y-89154000D01*
X136758632Y-89037475D01*
X136965475Y-88830632D01*
X137127990Y-88587411D01*
X137239932Y-88317158D01*
X137297000Y-88030260D01*
X137297000Y-87737740D01*
X137239932Y-87450842D01*
X137127990Y-87180589D01*
X136965475Y-86937368D01*
X136758632Y-86730525D01*
X136584240Y-86614000D01*
X136758632Y-86497475D01*
X136965475Y-86290632D01*
X137127990Y-86047411D01*
X137239932Y-85777158D01*
X137297000Y-85490260D01*
X137297000Y-85197740D01*
X137253209Y-84977592D01*
X143011003Y-79219799D01*
X143040001Y-79196001D01*
X143134974Y-79080276D01*
X143205546Y-78948247D01*
X143249003Y-78804986D01*
X143260000Y-78693333D01*
X143260000Y-78693324D01*
X143263676Y-78656001D01*
X143260000Y-78618678D01*
X143260000Y-55095374D01*
X150084231Y-55095374D01*
X150384411Y-55533828D01*
X150963356Y-55844296D01*
X151591746Y-56035852D01*
X152245431Y-56101134D01*
X152899293Y-56037634D01*
X153528203Y-55847792D01*
X154107992Y-55538904D01*
X154115589Y-55533828D01*
X154415769Y-55095374D01*
X152250000Y-52929605D01*
X150084231Y-55095374D01*
X143260000Y-55095374D01*
X143260000Y-52745431D01*
X148898866Y-52745431D01*
X148962366Y-53399293D01*
X149152208Y-54028203D01*
X149461096Y-54607992D01*
X149466172Y-54615589D01*
X149904626Y-54915769D01*
X152070395Y-52750000D01*
X152429605Y-52750000D01*
X154595374Y-54915769D01*
X155033828Y-54615589D01*
X155344296Y-54036644D01*
X155535852Y-53408254D01*
X155601134Y-52754569D01*
X155537634Y-52100707D01*
X155347792Y-51471797D01*
X155038904Y-50892008D01*
X155033828Y-50884411D01*
X154595374Y-50584231D01*
X152429605Y-52750000D01*
X152070395Y-52750000D01*
X149904626Y-50584231D01*
X149466172Y-50884411D01*
X149155704Y-51463356D01*
X148964148Y-52091746D01*
X148898866Y-52745431D01*
X143260000Y-52745431D01*
X143260000Y-50404626D01*
X150084231Y-50404626D01*
X152250000Y-52570395D01*
X154415769Y-50404626D01*
X154115589Y-49966172D01*
X153536644Y-49655704D01*
X152908254Y-49464148D01*
X152254569Y-49398866D01*
X151600707Y-49462366D01*
X150971797Y-49652208D01*
X150392008Y-49961096D01*
X150384411Y-49966172D01*
X150084231Y-50404626D01*
X143260000Y-50404626D01*
X143260000Y-43717452D01*
X148434924Y-38542529D01*
X148469463Y-38607145D01*
X148548815Y-38703836D01*
X148645506Y-38783188D01*
X148755820Y-38842153D01*
X148875518Y-38878463D01*
X149000000Y-38890723D01*
X151200000Y-38890723D01*
X151324482Y-38878463D01*
X151444180Y-38842153D01*
X151554494Y-38783188D01*
X151651185Y-38703836D01*
X151730537Y-38607145D01*
X151789502Y-38496831D01*
X151825812Y-38377133D01*
X151838072Y-38252651D01*
X153161928Y-38252651D01*
X153174188Y-38377133D01*
X153210498Y-38496831D01*
X153269463Y-38607145D01*
X153348815Y-38703836D01*
X153445506Y-38783188D01*
X153555820Y-38842153D01*
X153675518Y-38878463D01*
X153800000Y-38890723D01*
X154614250Y-38887651D01*
X154773000Y-38728901D01*
X154773000Y-37279651D01*
X153323750Y-37279651D01*
X153165000Y-37438401D01*
X153161928Y-38252651D01*
X151838072Y-38252651D01*
X151838072Y-36052651D01*
X153161928Y-36052651D01*
X153165000Y-36866901D01*
X153323750Y-37025651D01*
X154773000Y-37025651D01*
X154773000Y-35576401D01*
X154614250Y-35417651D01*
X153800000Y-35414579D01*
X153675518Y-35426839D01*
X153555820Y-35463149D01*
X153445506Y-35522114D01*
X153348815Y-35601466D01*
X153269463Y-35698157D01*
X153210498Y-35808471D01*
X153174188Y-35928169D01*
X153161928Y-36052651D01*
X151838072Y-36052651D01*
X151825812Y-35928169D01*
X151789502Y-35808471D01*
X151730537Y-35698157D01*
X151651185Y-35601466D01*
X151554494Y-35522114D01*
X151444180Y-35463149D01*
X151324482Y-35426839D01*
X151200000Y-35414579D01*
X149000000Y-35414579D01*
X148875518Y-35426839D01*
X148755820Y-35463149D01*
X148645506Y-35522114D01*
X148548815Y-35601466D01*
X148469463Y-35698157D01*
X148410498Y-35808471D01*
X148374188Y-35928169D01*
X148361928Y-36052651D01*
X148361928Y-36498325D01*
X148325724Y-36517677D01*
X148209999Y-36612650D01*
X148186201Y-36641648D01*
X147338072Y-37489777D01*
X147338072Y-36052651D01*
X147325812Y-35928169D01*
X147289502Y-35808471D01*
X147230537Y-35698157D01*
X147151185Y-35601466D01*
X147054494Y-35522114D01*
X146944180Y-35463149D01*
X146824482Y-35426839D01*
X146700000Y-35414579D01*
X144500000Y-35414579D01*
X144375518Y-35426839D01*
X144255820Y-35463149D01*
X144145506Y-35522114D01*
X144048815Y-35601466D01*
X143969463Y-35698157D01*
X143910498Y-35808471D01*
X143874188Y-35928169D01*
X143861928Y-36052651D01*
X143861928Y-38252651D01*
X143874188Y-38377133D01*
X143910498Y-38496831D01*
X143969463Y-38607145D01*
X144048815Y-38703836D01*
X144145506Y-38783188D01*
X144255820Y-38842153D01*
X144375518Y-38878463D01*
X144500000Y-38890723D01*
X145937126Y-38890723D01*
X141989003Y-42838847D01*
X141959999Y-42862650D01*
X141904871Y-42929825D01*
X141865026Y-42978375D01*
X141794455Y-43110404D01*
X141794454Y-43110405D01*
X141750997Y-43253666D01*
X141740000Y-43365319D01*
X141740000Y-43365329D01*
X141736324Y-43402651D01*
X141740000Y-43439973D01*
X141740001Y-78341197D01*
X141560000Y-78521198D01*
X141560000Y-35264801D01*
X148434924Y-28389878D01*
X148469463Y-28454494D01*
X148548815Y-28551185D01*
X148645506Y-28630537D01*
X148755820Y-28689502D01*
X148875518Y-28725812D01*
X149000000Y-28738072D01*
X151200000Y-28738072D01*
X151324482Y-28725812D01*
X151444180Y-28689502D01*
X151554494Y-28630537D01*
X151651185Y-28551185D01*
X151730537Y-28454494D01*
X151789502Y-28344180D01*
X151825812Y-28224482D01*
X151838072Y-28100000D01*
X153161928Y-28100000D01*
X153174188Y-28224482D01*
X153210498Y-28344180D01*
X153269463Y-28454494D01*
X153348815Y-28551185D01*
X153445506Y-28630537D01*
X153555820Y-28689502D01*
X153675518Y-28725812D01*
X153800000Y-28738072D01*
X154614250Y-28735000D01*
X154773000Y-28576250D01*
X154773000Y-27127000D01*
X153323750Y-27127000D01*
X153165000Y-27285750D01*
X153161928Y-28100000D01*
X151838072Y-28100000D01*
X151838072Y-25900000D01*
X153161928Y-25900000D01*
X153165000Y-26714250D01*
X153323750Y-26873000D01*
X154773000Y-26873000D01*
X154773000Y-25423750D01*
X154614250Y-25265000D01*
X153800000Y-25261928D01*
X153675518Y-25274188D01*
X153555820Y-25310498D01*
X153445506Y-25369463D01*
X153348815Y-25448815D01*
X153269463Y-25545506D01*
X153210498Y-25655820D01*
X153174188Y-25775518D01*
X153161928Y-25900000D01*
X151838072Y-25900000D01*
X151825812Y-25775518D01*
X151789502Y-25655820D01*
X151730537Y-25545506D01*
X151651185Y-25448815D01*
X151554494Y-25369463D01*
X151444180Y-25310498D01*
X151324482Y-25274188D01*
X151200000Y-25261928D01*
X149000000Y-25261928D01*
X148875518Y-25274188D01*
X148755820Y-25310498D01*
X148645506Y-25369463D01*
X148548815Y-25448815D01*
X148469463Y-25545506D01*
X148410498Y-25655820D01*
X148374188Y-25775518D01*
X148361928Y-25900000D01*
X148361928Y-26345674D01*
X148325724Y-26365026D01*
X148209999Y-26459999D01*
X148186201Y-26488997D01*
X147338072Y-27337126D01*
X147338072Y-25900000D01*
X147325812Y-25775518D01*
X147289502Y-25655820D01*
X147230537Y-25545506D01*
X147151185Y-25448815D01*
X147054494Y-25369463D01*
X146944180Y-25310498D01*
X146824482Y-25274188D01*
X146700000Y-25261928D01*
X144500000Y-25261928D01*
X144375518Y-25274188D01*
X144255820Y-25310498D01*
X144145506Y-25369463D01*
X144048815Y-25448815D01*
X143969463Y-25545506D01*
X143910498Y-25655820D01*
X143874188Y-25775518D01*
X143861928Y-25900000D01*
X143861928Y-28100000D01*
X143874188Y-28224482D01*
X143910498Y-28344180D01*
X143969463Y-28454494D01*
X144048815Y-28551185D01*
X144145506Y-28630537D01*
X144255820Y-28689502D01*
X144375518Y-28725812D01*
X144500000Y-28738072D01*
X145937126Y-28738072D01*
X140288998Y-34386201D01*
X140260000Y-34409999D01*
X140236202Y-34438997D01*
X140236201Y-34438998D01*
X140165026Y-34525724D01*
X140094454Y-34657754D01*
X140050998Y-34801015D01*
X140036324Y-34950000D01*
X140040001Y-34987333D01*
X140040000Y-78601198D01*
X137124543Y-81516655D01*
X137113185Y-81502815D01*
X137016494Y-81423463D01*
X136906180Y-81364498D01*
X136786482Y-81328188D01*
X136662000Y-81315928D01*
X134962000Y-81315928D01*
X134837518Y-81328188D01*
X134717820Y-81364498D01*
X134607506Y-81423463D01*
X134510815Y-81502815D01*
X134431463Y-81599506D01*
X134372498Y-81709820D01*
X134360000Y-81751020D01*
X134360000Y-77664801D01*
X135811003Y-76213799D01*
X135840001Y-76190001D01*
X135887012Y-76132718D01*
X135934974Y-76074277D01*
X136005546Y-75942247D01*
X136049003Y-75798986D01*
X136060000Y-75687333D01*
X136060000Y-75687324D01*
X136063676Y-75650001D01*
X136060000Y-75612678D01*
X136060000Y-58557953D01*
X136161928Y-58557953D01*
X136174188Y-58682435D01*
X136210498Y-58802133D01*
X136269463Y-58912447D01*
X136348815Y-59009138D01*
X136445506Y-59088490D01*
X136555820Y-59147455D01*
X136675518Y-59183765D01*
X136800000Y-59196025D01*
X137614250Y-59192953D01*
X137773000Y-59034203D01*
X137773000Y-57584953D01*
X138027000Y-57584953D01*
X138027000Y-59034203D01*
X138185750Y-59192953D01*
X139000000Y-59196025D01*
X139124482Y-59183765D01*
X139244180Y-59147455D01*
X139354494Y-59088490D01*
X139451185Y-59009138D01*
X139530537Y-58912447D01*
X139589502Y-58802133D01*
X139625812Y-58682435D01*
X139638072Y-58557953D01*
X139635000Y-57743703D01*
X139476250Y-57584953D01*
X138027000Y-57584953D01*
X137773000Y-57584953D01*
X136323750Y-57584953D01*
X136165000Y-57743703D01*
X136161928Y-58557953D01*
X136060000Y-58557953D01*
X136060000Y-56357953D01*
X136161928Y-56357953D01*
X136165000Y-57172203D01*
X136323750Y-57330953D01*
X137773000Y-57330953D01*
X137773000Y-55881703D01*
X138027000Y-55881703D01*
X138027000Y-57330953D01*
X139476250Y-57330953D01*
X139635000Y-57172203D01*
X139638072Y-56357953D01*
X139625812Y-56233471D01*
X139589502Y-56113773D01*
X139530537Y-56003459D01*
X139451185Y-55906768D01*
X139354494Y-55827416D01*
X139244180Y-55768451D01*
X139124482Y-55732141D01*
X139000000Y-55719881D01*
X138185750Y-55722953D01*
X138027000Y-55881703D01*
X137773000Y-55881703D01*
X137614250Y-55722953D01*
X136800000Y-55719881D01*
X136675518Y-55732141D01*
X136555820Y-55768451D01*
X136445506Y-55827416D01*
X136348815Y-55906768D01*
X136269463Y-56003459D01*
X136210498Y-56113773D01*
X136174188Y-56233471D01*
X136161928Y-56357953D01*
X136060000Y-56357953D01*
X136060000Y-48300000D01*
X136161928Y-48300000D01*
X136174188Y-48424482D01*
X136210498Y-48544180D01*
X136269463Y-48654494D01*
X136348815Y-48751185D01*
X136445506Y-48830537D01*
X136555820Y-48889502D01*
X136675518Y-48925812D01*
X136800000Y-48938072D01*
X137614250Y-48935000D01*
X137773000Y-48776250D01*
X137773000Y-47327000D01*
X138027000Y-47327000D01*
X138027000Y-48776250D01*
X138185750Y-48935000D01*
X139000000Y-48938072D01*
X139124482Y-48925812D01*
X139244180Y-48889502D01*
X139354494Y-48830537D01*
X139451185Y-48751185D01*
X139530537Y-48654494D01*
X139589502Y-48544180D01*
X139625812Y-48424482D01*
X139638072Y-48300000D01*
X139635000Y-47485750D01*
X139476250Y-47327000D01*
X138027000Y-47327000D01*
X137773000Y-47327000D01*
X136323750Y-47327000D01*
X136165000Y-47485750D01*
X136161928Y-48300000D01*
X136060000Y-48300000D01*
X136060000Y-48087333D01*
X136063677Y-48050000D01*
X136049003Y-47901014D01*
X136005546Y-47757753D01*
X135934974Y-47625724D01*
X135863799Y-47538997D01*
X135840001Y-47509999D01*
X135811004Y-47486202D01*
X135013803Y-46689002D01*
X134990001Y-46659999D01*
X134874276Y-46565026D01*
X134838072Y-46545674D01*
X134838072Y-46100000D01*
X136161928Y-46100000D01*
X136165000Y-46914250D01*
X136323750Y-47073000D01*
X137773000Y-47073000D01*
X137773000Y-45623750D01*
X138027000Y-45623750D01*
X138027000Y-47073000D01*
X139476250Y-47073000D01*
X139635000Y-46914250D01*
X139638072Y-46100000D01*
X139625812Y-45975518D01*
X139589502Y-45855820D01*
X139530537Y-45745506D01*
X139451185Y-45648815D01*
X139354494Y-45569463D01*
X139244180Y-45510498D01*
X139124482Y-45474188D01*
X139000000Y-45461928D01*
X138185750Y-45465000D01*
X138027000Y-45623750D01*
X137773000Y-45623750D01*
X137614250Y-45465000D01*
X136800000Y-45461928D01*
X136675518Y-45474188D01*
X136555820Y-45510498D01*
X136445506Y-45569463D01*
X136348815Y-45648815D01*
X136269463Y-45745506D01*
X136210498Y-45855820D01*
X136174188Y-45975518D01*
X136161928Y-46100000D01*
X134838072Y-46100000D01*
X134825812Y-45975518D01*
X134789502Y-45855820D01*
X134730537Y-45745506D01*
X134651185Y-45648815D01*
X134554494Y-45569463D01*
X134444180Y-45510498D01*
X134324482Y-45474188D01*
X134200000Y-45461928D01*
X132000000Y-45461928D01*
X131875518Y-45474188D01*
X131755820Y-45510498D01*
X131645506Y-45569463D01*
X131548815Y-45648815D01*
X131469463Y-45745506D01*
X131410498Y-45855820D01*
X131374188Y-45975518D01*
X131361928Y-46100000D01*
X130338072Y-46100000D01*
X130325812Y-45975518D01*
X130289502Y-45855820D01*
X130230537Y-45745506D01*
X130151185Y-45648815D01*
X130054494Y-45569463D01*
X129944180Y-45510498D01*
X129824482Y-45474188D01*
X129700000Y-45461928D01*
X127709385Y-45461928D01*
X127709981Y-22210000D01*
X156290001Y-22210000D01*
X156290001Y-25334990D01*
G37*
X156290001Y-25334990D02*
X156244180Y-25310498D01*
X156124482Y-25274188D01*
X156000000Y-25261928D01*
X155185750Y-25265000D01*
X155027000Y-25423750D01*
X155027000Y-26873000D01*
X155047000Y-26873000D01*
X155047000Y-27127000D01*
X155027000Y-27127000D01*
X155027000Y-28576250D01*
X155185750Y-28735000D01*
X156000000Y-28738072D01*
X156124482Y-28725812D01*
X156244180Y-28689502D01*
X156290001Y-28665010D01*
X156290001Y-35487641D01*
X156244180Y-35463149D01*
X156124482Y-35426839D01*
X156000000Y-35414579D01*
X155185750Y-35417651D01*
X155027000Y-35576401D01*
X155027000Y-37025651D01*
X155047000Y-37025651D01*
X155047000Y-37279651D01*
X155027000Y-37279651D01*
X155027000Y-38728901D01*
X155185750Y-38887651D01*
X156000000Y-38890723D01*
X156124482Y-38878463D01*
X156244180Y-38842153D01*
X156290001Y-38817661D01*
X156290001Y-65945594D01*
X156244180Y-65921102D01*
X156124482Y-65884792D01*
X156000000Y-65872532D01*
X155185750Y-65875604D01*
X155027000Y-66034354D01*
X155027000Y-67483604D01*
X155047000Y-67483604D01*
X155047000Y-67737604D01*
X155027000Y-67737604D01*
X155027000Y-69186854D01*
X155185750Y-69345604D01*
X156000000Y-69348676D01*
X156124482Y-69336416D01*
X156244180Y-69300106D01*
X156290001Y-69275614D01*
X156290001Y-76098245D01*
X156244180Y-76073753D01*
X156124482Y-76037443D01*
X156000000Y-76025183D01*
X155185750Y-76028255D01*
X155027000Y-76187005D01*
X155027000Y-77636255D01*
X155047000Y-77636255D01*
X155047000Y-77890255D01*
X155027000Y-77890255D01*
X155027000Y-79339505D01*
X155185750Y-79498255D01*
X156000000Y-79501327D01*
X156124482Y-79489067D01*
X156244180Y-79452757D01*
X156290001Y-79428265D01*
X156290001Y-86250896D01*
X156244180Y-86226404D01*
X156124482Y-86190094D01*
X156000000Y-86177834D01*
X155185750Y-86180906D01*
X155027000Y-86339656D01*
X155027000Y-87788906D01*
X155047000Y-87788906D01*
X155047000Y-88042906D01*
X155027000Y-88042906D01*
X155027000Y-89492156D01*
X155185750Y-89650906D01*
X156000000Y-89653978D01*
X156124482Y-89641718D01*
X156244180Y-89605408D01*
X156290001Y-89580916D01*
X156290000Y-96403547D01*
X156244180Y-96379055D01*
X156124482Y-96342745D01*
X156000000Y-96330485D01*
X155185750Y-96333557D01*
X155027000Y-96492307D01*
X155027000Y-97941557D01*
X155047000Y-97941557D01*
X155047000Y-98195557D01*
X155027000Y-98195557D01*
X155027000Y-99644807D01*
X155185750Y-99803557D01*
X156000000Y-99806629D01*
X156124482Y-99794369D01*
X156244180Y-99758059D01*
X156290000Y-99733567D01*
X156290000Y-106556198D01*
X156244180Y-106531706D01*
X156124482Y-106495396D01*
X156000000Y-106483136D01*
X155185750Y-106486208D01*
X155027000Y-106644958D01*
X155027000Y-108094208D01*
X155047000Y-108094208D01*
X155047000Y-108348208D01*
X155027000Y-108348208D01*
X155027000Y-109797458D01*
X155185750Y-109956208D01*
X156000000Y-109959280D01*
X156124482Y-109947020D01*
X156244180Y-109910710D01*
X156290000Y-109886218D01*
X156290000Y-116708849D01*
X156244180Y-116684357D01*
X156124482Y-116648047D01*
X156000000Y-116635787D01*
X155185750Y-116638859D01*
X155027000Y-116797609D01*
X155027000Y-118246859D01*
X155047000Y-118246859D01*
X155047000Y-118500859D01*
X155027000Y-118500859D01*
X155027000Y-119950109D01*
X155185750Y-120108859D01*
X156000000Y-120111931D01*
X156124482Y-120099671D01*
X156244180Y-120063361D01*
X156290000Y-120038869D01*
X156290000Y-126861500D01*
X156244180Y-126837008D01*
X156124482Y-126800698D01*
X156000000Y-126788438D01*
X155185750Y-126791510D01*
X155027000Y-126950260D01*
X155027000Y-128399510D01*
X155047000Y-128399510D01*
X155047000Y-128653510D01*
X155027000Y-128653510D01*
X155027000Y-130102760D01*
X155185750Y-130261510D01*
X156000000Y-130264582D01*
X156124482Y-130252322D01*
X156244180Y-130216012D01*
X156290000Y-130191520D01*
X156290000Y-137014153D01*
X156244180Y-136989661D01*
X156124482Y-136953351D01*
X156000000Y-136941091D01*
X155185750Y-136944163D01*
X155027000Y-137102913D01*
X155027000Y-138552163D01*
X155047000Y-138552163D01*
X155047000Y-138806163D01*
X155027000Y-138806163D01*
X155027000Y-140255413D01*
X155185750Y-140414163D01*
X156000000Y-140417235D01*
X156124482Y-140404975D01*
X156244180Y-140368665D01*
X156290000Y-140344173D01*
X156290000Y-155334990D01*
X156244180Y-155310498D01*
X156124482Y-155274188D01*
X156000000Y-155261928D01*
X155185750Y-155265000D01*
X155027000Y-155423750D01*
X155027000Y-156873000D01*
X155047000Y-156873000D01*
X155047000Y-157127000D01*
X155027000Y-157127000D01*
X155027000Y-158576250D01*
X155185750Y-158735000D01*
X156000000Y-158738072D01*
X156124482Y-158725812D01*
X156244180Y-158689502D01*
X156290000Y-158665010D01*
X156290000Y-161290000D01*
X135893465Y-161290000D01*
X135879608Y-160701978D01*
X135879079Y-160693338D01*
X135877263Y-160658676D01*
X135704713Y-158625125D01*
X135704259Y-158621424D01*
X135704045Y-158617721D01*
X135698221Y-158572250D01*
X135373685Y-156557361D01*
X135372955Y-156553709D01*
X135372464Y-156550027D01*
X135363246Y-156505121D01*
X134888549Y-154520237D01*
X134887549Y-154516655D01*
X134886782Y-154513016D01*
X134874223Y-154468928D01*
X134252038Y-152525223D01*
X134250770Y-152521721D01*
X134249734Y-152518154D01*
X134233905Y-152475132D01*
X133467735Y-150583549D01*
X133466211Y-150580157D01*
X133464908Y-150576673D01*
X133445898Y-150534958D01*
X132540057Y-148706146D01*
X132538281Y-148702876D01*
X132536722Y-148699501D01*
X132514637Y-148659329D01*
X131474223Y-146903584D01*
X131472205Y-146900452D01*
X131470399Y-146897208D01*
X131445365Y-146858805D01*
X130276236Y-145186011D01*
X130273990Y-145183041D01*
X130271945Y-145179940D01*
X130244102Y-145143522D01*
X128952840Y-143563097D01*
X128950383Y-143560310D01*
X128948106Y-143557364D01*
X128917610Y-143523137D01*
X127706903Y-142249545D01*
X127709033Y-59196025D01*
X129700000Y-59196025D01*
X129824482Y-59183765D01*
X129944180Y-59147455D01*
X130054494Y-59088490D01*
X130151185Y-59009138D01*
X130230537Y-58912447D01*
X130289502Y-58802133D01*
X130325812Y-58682435D01*
X130338072Y-58557953D01*
X130338072Y-56357953D01*
X130325812Y-56233471D01*
X130289502Y-56113773D01*
X130230537Y-56003459D01*
X130151185Y-55906768D01*
X130054494Y-55827416D01*
X129944180Y-55768451D01*
X129824482Y-55732141D01*
X129700000Y-55719881D01*
X127709122Y-55719881D01*
X127709296Y-48938072D01*
X129700000Y-48938072D01*
X129824482Y-48925812D01*
X129944180Y-48889502D01*
X130054494Y-48830537D01*
X130151185Y-48751185D01*
X130230537Y-48654494D01*
X130289502Y-48544180D01*
X130325812Y-48424482D01*
X130338072Y-48300000D01*
X130338072Y-46100000D01*
X131361928Y-46100000D01*
X131361928Y-48300000D01*
X131374188Y-48424482D01*
X131410498Y-48544180D01*
X131469463Y-48654494D01*
X131548815Y-48751185D01*
X131645506Y-48830537D01*
X131755820Y-48889502D01*
X131875518Y-48925812D01*
X132000000Y-48938072D01*
X134200000Y-48938072D01*
X134324482Y-48925812D01*
X134444180Y-48889502D01*
X134540000Y-48838284D01*
X134540000Y-55819669D01*
X134444180Y-55768451D01*
X134324482Y-55732141D01*
X134200000Y-55719881D01*
X132000000Y-55719881D01*
X131875518Y-55732141D01*
X131755820Y-55768451D01*
X131645506Y-55827416D01*
X131548815Y-55906768D01*
X131469463Y-56003459D01*
X131410498Y-56113773D01*
X131374188Y-56233471D01*
X131361928Y-56357953D01*
X131361928Y-58557953D01*
X131374188Y-58682435D01*
X131410498Y-58802133D01*
X131469463Y-58912447D01*
X131548815Y-59009138D01*
X131645506Y-59088490D01*
X131755820Y-59147455D01*
X131875518Y-59183765D01*
X132000000Y-59196025D01*
X132340001Y-59196025D01*
X132340000Y-87674678D01*
X132336324Y-87712000D01*
X132340000Y-87749322D01*
X132340000Y-87749332D01*
X132350997Y-87860985D01*
X132367657Y-87915906D01*
X132394454Y-88004246D01*
X132465026Y-88136276D01*
X132497829Y-88176246D01*
X132559999Y-88252001D01*
X132589003Y-88275804D01*
X134370790Y-90057592D01*
X134327000Y-90277740D01*
X134327000Y-90570260D01*
X134384068Y-90857158D01*
X134496010Y-91127411D01*
X134658525Y-91370632D01*
X134865368Y-91577475D01*
X135039760Y-91694000D01*
X134865368Y-91810525D01*
X134658525Y-92017368D01*
X134496010Y-92260589D01*
X134384068Y-92530842D01*
X134327000Y-92817740D01*
X134327000Y-93110260D01*
X134384068Y-93397158D01*
X134496010Y-93667411D01*
X134658525Y-93910632D01*
X134865368Y-94117475D01*
X135039760Y-94234000D01*
X134865368Y-94350525D01*
X134658525Y-94557368D01*
X134496010Y-94800589D01*
X134384068Y-95070842D01*
X134327000Y-95357740D01*
X134327000Y-95650260D01*
X134384068Y-95937158D01*
X134496010Y-96207411D01*
X134658525Y-96450632D01*
X134865368Y-96657475D01*
X135039760Y-96774000D01*
X134865368Y-96890525D01*
X134658525Y-97097368D01*
X134496010Y-97340589D01*
X134384068Y-97610842D01*
X134327000Y-97897740D01*
X134327000Y-98190260D01*
X134384068Y-98477158D01*
X134496010Y-98747411D01*
X134658525Y-98990632D01*
X134865368Y-99197475D01*
X135039760Y-99314000D01*
X134865368Y-99430525D01*
X134658525Y-99637368D01*
X134496010Y-99880589D01*
X134384068Y-100150842D01*
X134327000Y-100437740D01*
X134327000Y-100730260D01*
X134384068Y-101017158D01*
X134496010Y-101287411D01*
X134658525Y-101530632D01*
X134865368Y-101737475D01*
X135039760Y-101854000D01*
X134865368Y-101970525D01*
X134658525Y-102177368D01*
X134496010Y-102420589D01*
X134384068Y-102690842D01*
X134327000Y-102977740D01*
X134327000Y-103270260D01*
X134384068Y-103557158D01*
X134496010Y-103827411D01*
X134658525Y-104070632D01*
X134865368Y-104277475D01*
X135039760Y-104394000D01*
X134865368Y-104510525D01*
X134658525Y-104717368D01*
X134496010Y-104960589D01*
X134384068Y-105230842D01*
X134327000Y-105517740D01*
X134327000Y-105810260D01*
X134384068Y-106097158D01*
X134496010Y-106367411D01*
X134658525Y-106610632D01*
X134865368Y-106817475D01*
X135039760Y-106934000D01*
X134865368Y-107050525D01*
X134658525Y-107257368D01*
X134496010Y-107500589D01*
X134384068Y-107770842D01*
X134327000Y-108057740D01*
X134327000Y-108350260D01*
X134384068Y-108637158D01*
X134496010Y-108907411D01*
X134658525Y-109150632D01*
X134865368Y-109357475D01*
X135039760Y-109474000D01*
X134865368Y-109590525D01*
X134658525Y-109797368D01*
X134496010Y-110040589D01*
X134384068Y-110310842D01*
X134327000Y-110597740D01*
X134327000Y-110890260D01*
X134384068Y-111177158D01*
X134496010Y-111447411D01*
X134658525Y-111690632D01*
X134865368Y-111897475D01*
X135039760Y-112014000D01*
X134865368Y-112130525D01*
X134658525Y-112337368D01*
X134496010Y-112580589D01*
X134384068Y-112850842D01*
X134327000Y-113137740D01*
X134327000Y-113430260D01*
X134384068Y-113717158D01*
X134496010Y-113987411D01*
X134658525Y-114230632D01*
X134865368Y-114437475D01*
X135039760Y-114554000D01*
X134865368Y-114670525D01*
X134658525Y-114877368D01*
X134496010Y-115120589D01*
X134384068Y-115390842D01*
X134327000Y-115677740D01*
X134327000Y-115970260D01*
X134384068Y-116257158D01*
X134496010Y-116527411D01*
X134658525Y-116770632D01*
X134865368Y-116977475D01*
X135039760Y-117094000D01*
X134865368Y-117210525D01*
X134658525Y-117417368D01*
X134496010Y-117660589D01*
X134384068Y-117930842D01*
X134327000Y-118217740D01*
X134327000Y-118510260D01*
X134384068Y-118797158D01*
X134496010Y-119067411D01*
X134658525Y-119310632D01*
X134865368Y-119517475D01*
X135039760Y-119634000D01*
X134865368Y-119750525D01*
X134658525Y-119957368D01*
X134496010Y-120200589D01*
X134384068Y-120470842D01*
X134327000Y-120757740D01*
X134327000Y-121050260D01*
X134384068Y-121337158D01*
X134496010Y-121607411D01*
X134658525Y-121850632D01*
X134865368Y-122057475D01*
X135039760Y-122174000D01*
X134865368Y-122290525D01*
X134658525Y-122497368D01*
X134496010Y-122740589D01*
X134384068Y-123010842D01*
X134327000Y-123297740D01*
X134327000Y-123590260D01*
X134384068Y-123877158D01*
X134496010Y-124147411D01*
X134658525Y-124390632D01*
X134865368Y-124597475D01*
X135039760Y-124714000D01*
X134865368Y-124830525D01*
X134658525Y-125037368D01*
X134496010Y-125280589D01*
X134384068Y-125550842D01*
X134327000Y-125837740D01*
X134327000Y-126130260D01*
X134384068Y-126417158D01*
X134496010Y-126687411D01*
X134658525Y-126930632D01*
X134865368Y-127137475D01*
X135039760Y-127254000D01*
X134865368Y-127370525D01*
X134658525Y-127577368D01*
X134496010Y-127820589D01*
X134384068Y-128090842D01*
X134327000Y-128377740D01*
X134327000Y-128670260D01*
X134384068Y-128957158D01*
X134496010Y-129227411D01*
X134658525Y-129470632D01*
X134865368Y-129677475D01*
X135039760Y-129794000D01*
X134865368Y-129910525D01*
X134658525Y-130117368D01*
X134496010Y-130360589D01*
X134384068Y-130630842D01*
X134327000Y-130917740D01*
X134327000Y-131210260D01*
X134384068Y-131497158D01*
X134496010Y-131767411D01*
X134658525Y-132010632D01*
X134865368Y-132217475D01*
X135052000Y-132342179D01*
X135052001Y-144024668D01*
X135048324Y-144062000D01*
X135052001Y-144099333D01*
X135060408Y-144184684D01*
X135062998Y-144210985D01*
X135106454Y-144354246D01*
X135177026Y-144486276D01*
X135248157Y-144572948D01*
X135272000Y-144602001D01*
X135300998Y-144625799D01*
X145937126Y-155261928D01*
X144500000Y-155261928D01*
X144375518Y-155274188D01*
X144255820Y-155310498D01*
X144145506Y-155369463D01*
X144048815Y-155448815D01*
X143969463Y-155545506D01*
X143910498Y-155655820D01*
X143874188Y-155775518D01*
X143861928Y-155900000D01*
X143861928Y-158100000D01*
X143874188Y-158224482D01*
X143910498Y-158344180D01*
X143969463Y-158454494D01*
X144048815Y-158551185D01*
X144145506Y-158630537D01*
X144255820Y-158689502D01*
X144375518Y-158725812D01*
X144500000Y-158738072D01*
X146700000Y-158738072D01*
X146824482Y-158725812D01*
X146944180Y-158689502D01*
X147054494Y-158630537D01*
X147151185Y-158551185D01*
X147230537Y-158454494D01*
X147289502Y-158344180D01*
X147325812Y-158224482D01*
X147338072Y-158100000D01*
X147338072Y-156662874D01*
X148186201Y-157511003D01*
X148209999Y-157540001D01*
X148238997Y-157563799D01*
X148325723Y-157634974D01*
X148361928Y-157654326D01*
X148361928Y-158100000D01*
X148374188Y-158224482D01*
X148410498Y-158344180D01*
X148469463Y-158454494D01*
X148548815Y-158551185D01*
X148645506Y-158630537D01*
X148755820Y-158689502D01*
X148875518Y-158725812D01*
X149000000Y-158738072D01*
X151200000Y-158738072D01*
X151324482Y-158725812D01*
X151444180Y-158689502D01*
X151554494Y-158630537D01*
X151651185Y-158551185D01*
X151730537Y-158454494D01*
X151789502Y-158344180D01*
X151825812Y-158224482D01*
X151838072Y-158100000D01*
X153161928Y-158100000D01*
X153174188Y-158224482D01*
X153210498Y-158344180D01*
X153269463Y-158454494D01*
X153348815Y-158551185D01*
X153445506Y-158630537D01*
X153555820Y-158689502D01*
X153675518Y-158725812D01*
X153800000Y-158738072D01*
X154614250Y-158735000D01*
X154773000Y-158576250D01*
X154773000Y-157127000D01*
X153323750Y-157127000D01*
X153165000Y-157285750D01*
X153161928Y-158100000D01*
X151838072Y-158100000D01*
X151838072Y-155900000D01*
X153161928Y-155900000D01*
X153165000Y-156714250D01*
X153323750Y-156873000D01*
X154773000Y-156873000D01*
X154773000Y-155423750D01*
X154614250Y-155265000D01*
X153800000Y-155261928D01*
X153675518Y-155274188D01*
X153555820Y-155310498D01*
X153445506Y-155369463D01*
X153348815Y-155448815D01*
X153269463Y-155545506D01*
X153210498Y-155655820D01*
X153174188Y-155775518D01*
X153161928Y-155900000D01*
X151838072Y-155900000D01*
X151825812Y-155775518D01*
X151789502Y-155655820D01*
X151730537Y-155545506D01*
X151651185Y-155448815D01*
X151554494Y-155369463D01*
X151444180Y-155310498D01*
X151324482Y-155274188D01*
X151200000Y-155261928D01*
X149000000Y-155261928D01*
X148875518Y-155274188D01*
X148755820Y-155310498D01*
X148645506Y-155369463D01*
X148548815Y-155448815D01*
X148469463Y-155545506D01*
X148434924Y-155610122D01*
X142920176Y-150095374D01*
X150084231Y-150095374D01*
X150384411Y-150533828D01*
X150963356Y-150844296D01*
X151591746Y-151035852D01*
X152245431Y-151101134D01*
X152899293Y-151037634D01*
X153528203Y-150847792D01*
X154107992Y-150538904D01*
X154115589Y-150533828D01*
X154415769Y-150095374D01*
X152250000Y-147929605D01*
X150084231Y-150095374D01*
X142920176Y-150095374D01*
X141716455Y-148891653D01*
X142987952Y-148891653D01*
X143143962Y-149207214D01*
X143518745Y-149398020D01*
X143923551Y-149512044D01*
X144342824Y-149544902D01*
X144760451Y-149495334D01*
X145160383Y-149365243D01*
X145456038Y-149207214D01*
X145612048Y-148891653D01*
X144300000Y-147579605D01*
X142987952Y-148891653D01*
X141716455Y-148891653D01*
X140267626Y-147442824D01*
X142155098Y-147442824D01*
X142204666Y-147860451D01*
X142334757Y-148260383D01*
X142492786Y-148556038D01*
X142808347Y-148712048D01*
X144120395Y-147400000D01*
X144479605Y-147400000D01*
X145791653Y-148712048D01*
X146107214Y-148556038D01*
X146298020Y-148181255D01*
X146412044Y-147776449D01*
X146414474Y-147745431D01*
X148898866Y-147745431D01*
X148962366Y-148399293D01*
X149152208Y-149028203D01*
X149461096Y-149607992D01*
X149466172Y-149615589D01*
X149904626Y-149915769D01*
X152070395Y-147750000D01*
X152429605Y-147750000D01*
X154595374Y-149915769D01*
X155033828Y-149615589D01*
X155344296Y-149036644D01*
X155535852Y-148408254D01*
X155601134Y-147754569D01*
X155537634Y-147100707D01*
X155347792Y-146471797D01*
X155038904Y-145892008D01*
X155033828Y-145884411D01*
X154595374Y-145584231D01*
X152429605Y-147750000D01*
X152070395Y-147750000D01*
X149904626Y-145584231D01*
X149466172Y-145884411D01*
X149155704Y-146463356D01*
X148964148Y-147091746D01*
X148898866Y-147745431D01*
X146414474Y-147745431D01*
X146444902Y-147357176D01*
X146395334Y-146939549D01*
X146265243Y-146539617D01*
X146107214Y-146243962D01*
X145791653Y-146087952D01*
X144479605Y-147400000D01*
X144120395Y-147400000D01*
X142808347Y-146087952D01*
X142492786Y-146243962D01*
X142301980Y-146618745D01*
X142187956Y-147023551D01*
X142155098Y-147442824D01*
X140267626Y-147442824D01*
X138733149Y-145908347D01*
X142987952Y-145908347D01*
X144300000Y-147220395D01*
X145612048Y-145908347D01*
X145456038Y-145592786D01*
X145086453Y-145404626D01*
X150084231Y-145404626D01*
X152250000Y-147570395D01*
X154415769Y-145404626D01*
X154115589Y-144966172D01*
X153536644Y-144655704D01*
X152908254Y-144464148D01*
X152254569Y-144398866D01*
X151600707Y-144462366D01*
X150971797Y-144652208D01*
X150392008Y-144961096D01*
X150384411Y-144966172D01*
X150084231Y-145404626D01*
X145086453Y-145404626D01*
X145081255Y-145401980D01*
X144676449Y-145287956D01*
X144257176Y-145255098D01*
X143839549Y-145304666D01*
X143439617Y-145434757D01*
X143143962Y-145592786D01*
X142987952Y-145908347D01*
X138733149Y-145908347D01*
X136572000Y-143747199D01*
X136572000Y-132342178D01*
X136758632Y-132217475D01*
X136965475Y-132010632D01*
X137127990Y-131767411D01*
X137239932Y-131497158D01*
X137297000Y-131210260D01*
X137297000Y-130917740D01*
X137239932Y-130630842D01*
X137127990Y-130360589D01*
X136965475Y-130117368D01*
X136758632Y-129910525D01*
X136584240Y-129794000D01*
X136758632Y-129677475D01*
X136965475Y-129470632D01*
X137127990Y-129227411D01*
X137239932Y-128957158D01*
X137297000Y-128670260D01*
X137297000Y-128543801D01*
X145694289Y-136941091D01*
X144500000Y-136941091D01*
X144375518Y-136953351D01*
X144255820Y-136989661D01*
X144145506Y-137048626D01*
X144048815Y-137127978D01*
X143969463Y-137224669D01*
X143910498Y-137334983D01*
X143874188Y-137454681D01*
X143861928Y-137579163D01*
X143861928Y-139779163D01*
X143874188Y-139903645D01*
X143910498Y-140023343D01*
X143969463Y-140133657D01*
X144048815Y-140230348D01*
X144145506Y-140309700D01*
X144255820Y-140368665D01*
X144375518Y-140404975D01*
X144500000Y-140417235D01*
X146700000Y-140417235D01*
X146824482Y-140404975D01*
X146944180Y-140368665D01*
X147054494Y-140309700D01*
X147151185Y-140230348D01*
X147230537Y-140133657D01*
X147289502Y-140023343D01*
X147325812Y-139903645D01*
X147338072Y-139779163D01*
X147338072Y-138584874D01*
X147943364Y-139190166D01*
X147967162Y-139219164D01*
X148082887Y-139314137D01*
X148214916Y-139384709D01*
X148358177Y-139428166D01*
X148361928Y-139428535D01*
X148361928Y-139779163D01*
X148374188Y-139903645D01*
X148410498Y-140023343D01*
X148469463Y-140133657D01*
X148548815Y-140230348D01*
X148645506Y-140309700D01*
X148755820Y-140368665D01*
X148875518Y-140404975D01*
X149000000Y-140417235D01*
X151200000Y-140417235D01*
X151324482Y-140404975D01*
X151444180Y-140368665D01*
X151554494Y-140309700D01*
X151651185Y-140230348D01*
X151730537Y-140133657D01*
X151789502Y-140023343D01*
X151825812Y-139903645D01*
X151838072Y-139779163D01*
X153161928Y-139779163D01*
X153174188Y-139903645D01*
X153210498Y-140023343D01*
X153269463Y-140133657D01*
X153348815Y-140230348D01*
X153445506Y-140309700D01*
X153555820Y-140368665D01*
X153675518Y-140404975D01*
X153800000Y-140417235D01*
X154614250Y-140414163D01*
X154773000Y-140255413D01*
X154773000Y-138806163D01*
X153323750Y-138806163D01*
X153165000Y-138964913D01*
X153161928Y-139779163D01*
X151838072Y-139779163D01*
X151838072Y-137579163D01*
X153161928Y-137579163D01*
X153165000Y-138393413D01*
X153323750Y-138552163D01*
X154773000Y-138552163D01*
X154773000Y-137102913D01*
X154614250Y-136944163D01*
X153800000Y-136941091D01*
X153675518Y-136953351D01*
X153555820Y-136989661D01*
X153445506Y-137048626D01*
X153348815Y-137127978D01*
X153269463Y-137224669D01*
X153210498Y-137334983D01*
X153174188Y-137454681D01*
X153161928Y-137579163D01*
X151838072Y-137579163D01*
X151825812Y-137454681D01*
X151789502Y-137334983D01*
X151730537Y-137224669D01*
X151651185Y-137127978D01*
X151554494Y-137048626D01*
X151444180Y-136989661D01*
X151324482Y-136953351D01*
X151200000Y-136941091D01*
X149000000Y-136941091D01*
X148875518Y-136953351D01*
X148755820Y-136989661D01*
X148645506Y-137048626D01*
X148548815Y-137127978D01*
X148469463Y-137224669D01*
X148410498Y-137334983D01*
X148374188Y-137454681D01*
X148372690Y-137469888D01*
X138329312Y-127426510D01*
X143861928Y-127426510D01*
X143861928Y-129626510D01*
X143874188Y-129750992D01*
X143910498Y-129870690D01*
X143969463Y-129981004D01*
X144048815Y-130077695D01*
X144145506Y-130157047D01*
X144255820Y-130216012D01*
X144375518Y-130252322D01*
X144500000Y-130264582D01*
X146700000Y-130264582D01*
X146824482Y-130252322D01*
X146944180Y-130216012D01*
X147054494Y-130157047D01*
X147151185Y-130077695D01*
X147230537Y-129981004D01*
X147289502Y-129870690D01*
X147325812Y-129750992D01*
X147338072Y-129626510D01*
X147338072Y-127426510D01*
X147325812Y-127302028D01*
X147289502Y-127182330D01*
X147230537Y-127072016D01*
X147151185Y-126975325D01*
X147054494Y-126895973D01*
X146944180Y-126837008D01*
X146824482Y-126800698D01*
X146700000Y-126788438D01*
X144500000Y-126788438D01*
X144375518Y-126800698D01*
X144255820Y-126837008D01*
X144145506Y-126895973D01*
X144048815Y-126975325D01*
X143969463Y-127072016D01*
X143910498Y-127182330D01*
X143874188Y-127302028D01*
X143861928Y-127426510D01*
X138329312Y-127426510D01*
X137253209Y-126350408D01*
X137297000Y-126130260D01*
X137297000Y-125837740D01*
X137239932Y-125550842D01*
X137127990Y-125280589D01*
X136965475Y-125037368D01*
X136758632Y-124830525D01*
X136584240Y-124714000D01*
X136758632Y-124597475D01*
X136965475Y-124390632D01*
X137127990Y-124147411D01*
X137239932Y-123877158D01*
X137297000Y-123590260D01*
X137297000Y-123297740D01*
X137239932Y-123010842D01*
X137127990Y-122740589D01*
X136965475Y-122497368D01*
X136758632Y-122290525D01*
X136584240Y-122174000D01*
X136758632Y-122057475D01*
X136965475Y-121850632D01*
X137090178Y-121664000D01*
X143512689Y-121664000D01*
X148710122Y-126861434D01*
X148645506Y-126895973D01*
X148548815Y-126975325D01*
X148469463Y-127072016D01*
X148410498Y-127182330D01*
X148374188Y-127302028D01*
X148361928Y-127426510D01*
X148361928Y-129626510D01*
X148374188Y-129750992D01*
X148410498Y-129870690D01*
X148469463Y-129981004D01*
X148548815Y-130077695D01*
X148645506Y-130157047D01*
X148755820Y-130216012D01*
X148875518Y-130252322D01*
X149000000Y-130264582D01*
X151200000Y-130264582D01*
X151324482Y-130252322D01*
X151444180Y-130216012D01*
X151554494Y-130157047D01*
X151651185Y-130077695D01*
X151730537Y-129981004D01*
X151789502Y-129870690D01*
X151825812Y-129750992D01*
X151838072Y-129626510D01*
X153161928Y-129626510D01*
X153174188Y-129750992D01*
X153210498Y-129870690D01*
X153269463Y-129981004D01*
X153348815Y-130077695D01*
X153445506Y-130157047D01*
X153555820Y-130216012D01*
X153675518Y-130252322D01*
X153800000Y-130264582D01*
X154614250Y-130261510D01*
X154773000Y-130102760D01*
X154773000Y-128653510D01*
X153323750Y-128653510D01*
X153165000Y-128812260D01*
X153161928Y-129626510D01*
X151838072Y-129626510D01*
X151838072Y-127426510D01*
X153161928Y-127426510D01*
X153165000Y-128240760D01*
X153323750Y-128399510D01*
X154773000Y-128399510D01*
X154773000Y-126950260D01*
X154614250Y-126791510D01*
X153800000Y-126788438D01*
X153675518Y-126800698D01*
X153555820Y-126837008D01*
X153445506Y-126895973D01*
X153348815Y-126975325D01*
X153269463Y-127072016D01*
X153210498Y-127182330D01*
X153174188Y-127302028D01*
X153161928Y-127426510D01*
X151838072Y-127426510D01*
X151825812Y-127302028D01*
X151789502Y-127182330D01*
X151730537Y-127072016D01*
X151651185Y-126975325D01*
X151554494Y-126895973D01*
X151444180Y-126837008D01*
X151324482Y-126800698D01*
X151200000Y-126788438D01*
X150754326Y-126788438D01*
X150734974Y-126752234D01*
X150640001Y-126636509D01*
X150611003Y-126612711D01*
X144391294Y-120393003D01*
X144367491Y-120363999D01*
X144251766Y-120269026D01*
X144119737Y-120198454D01*
X143976476Y-120154997D01*
X143864823Y-120144000D01*
X143864812Y-120144000D01*
X143827490Y-120140324D01*
X143790168Y-120144000D01*
X137090178Y-120144000D01*
X136965475Y-119957368D01*
X136758632Y-119750525D01*
X136584240Y-119634000D01*
X136758632Y-119517475D01*
X136965475Y-119310632D01*
X137127990Y-119067411D01*
X137239932Y-118797158D01*
X137297000Y-118510260D01*
X137297000Y-118217740D01*
X137239932Y-117930842D01*
X137127990Y-117660589D01*
X136965475Y-117417368D01*
X136758632Y-117210525D01*
X136584240Y-117094000D01*
X136758632Y-116977475D01*
X136965475Y-116770632D01*
X137127990Y-116527411D01*
X137239932Y-116257158D01*
X137297000Y-115970260D01*
X137297000Y-115677740D01*
X137239932Y-115390842D01*
X137127990Y-115120589D01*
X136965475Y-114877368D01*
X136758632Y-114670525D01*
X136584240Y-114554000D01*
X136758632Y-114437475D01*
X136965475Y-114230632D01*
X137090178Y-114044000D01*
X143345340Y-114044000D01*
X145937126Y-116635787D01*
X144500000Y-116635787D01*
X144375518Y-116648047D01*
X144255820Y-116684357D01*
X144145506Y-116743322D01*
X144048815Y-116822674D01*
X143969463Y-116919365D01*
X143910498Y-117029679D01*
X143874188Y-117149377D01*
X143861928Y-117273859D01*
X143861928Y-119473859D01*
X143874188Y-119598341D01*
X143910498Y-119718039D01*
X143969463Y-119828353D01*
X144048815Y-119925044D01*
X144145506Y-120004396D01*
X144255820Y-120063361D01*
X144375518Y-120099671D01*
X144500000Y-120111931D01*
X146700000Y-120111931D01*
X146824482Y-120099671D01*
X146944180Y-120063361D01*
X147054494Y-120004396D01*
X147151185Y-119925044D01*
X147230537Y-119828353D01*
X147289502Y-119718039D01*
X147325812Y-119598341D01*
X147338072Y-119473859D01*
X147338072Y-118036733D01*
X148186201Y-118884862D01*
X148209999Y-118913860D01*
X148238997Y-118937658D01*
X148325724Y-119008833D01*
X148361928Y-119028185D01*
X148361928Y-119473859D01*
X148374188Y-119598341D01*
X148410498Y-119718039D01*
X148469463Y-119828353D01*
X148548815Y-119925044D01*
X148645506Y-120004396D01*
X148755820Y-120063361D01*
X148875518Y-120099671D01*
X149000000Y-120111931D01*
X151200000Y-120111931D01*
X151324482Y-120099671D01*
X151444180Y-120063361D01*
X151554494Y-120004396D01*
X151651185Y-119925044D01*
X151730537Y-119828353D01*
X151789502Y-119718039D01*
X151825812Y-119598341D01*
X151838072Y-119473859D01*
X153161928Y-119473859D01*
X153174188Y-119598341D01*
X153210498Y-119718039D01*
X153269463Y-119828353D01*
X153348815Y-119925044D01*
X153445506Y-120004396D01*
X153555820Y-120063361D01*
X153675518Y-120099671D01*
X153800000Y-120111931D01*
X154614250Y-120108859D01*
X154773000Y-119950109D01*
X154773000Y-118500859D01*
X153323750Y-118500859D01*
X153165000Y-118659609D01*
X153161928Y-119473859D01*
X151838072Y-119473859D01*
X151838072Y-117273859D01*
X153161928Y-117273859D01*
X153165000Y-118088109D01*
X153323750Y-118246859D01*
X154773000Y-118246859D01*
X154773000Y-116797609D01*
X154614250Y-116638859D01*
X153800000Y-116635787D01*
X153675518Y-116648047D01*
X153555820Y-116684357D01*
X153445506Y-116743322D01*
X153348815Y-116822674D01*
X153269463Y-116919365D01*
X153210498Y-117029679D01*
X153174188Y-117149377D01*
X153161928Y-117273859D01*
X151838072Y-117273859D01*
X151825812Y-117149377D01*
X151789502Y-117029679D01*
X151730537Y-116919365D01*
X151651185Y-116822674D01*
X151554494Y-116743322D01*
X151444180Y-116684357D01*
X151324482Y-116648047D01*
X151200000Y-116635787D01*
X149000000Y-116635787D01*
X148875518Y-116648047D01*
X148755820Y-116684357D01*
X148645506Y-116743322D01*
X148548815Y-116822674D01*
X148469463Y-116919365D01*
X148434924Y-116983981D01*
X144223945Y-112773003D01*
X144200142Y-112743999D01*
X144084417Y-112649026D01*
X143952388Y-112578454D01*
X143809127Y-112534997D01*
X143697474Y-112524000D01*
X143697463Y-112524000D01*
X143660141Y-112520324D01*
X143622819Y-112524000D01*
X137090178Y-112524000D01*
X136965475Y-112337368D01*
X136758632Y-112130525D01*
X136584240Y-112014000D01*
X136758632Y-111897475D01*
X136965475Y-111690632D01*
X137090178Y-111504000D01*
X148889886Y-111504000D01*
X148927208Y-111507676D01*
X148964530Y-111504000D01*
X148964541Y-111504000D01*
X149076194Y-111493003D01*
X149219455Y-111449546D01*
X149351484Y-111378974D01*
X149467209Y-111284001D01*
X149491012Y-111254997D01*
X150611003Y-110135007D01*
X150640001Y-110111209D01*
X150734974Y-109995484D01*
X150754326Y-109959280D01*
X151200000Y-109959280D01*
X151324482Y-109947020D01*
X151444180Y-109910710D01*
X151554494Y-109851745D01*
X151651185Y-109772393D01*
X151730537Y-109675702D01*
X151789502Y-109565388D01*
X151825812Y-109445690D01*
X151838072Y-109321208D01*
X153161928Y-109321208D01*
X153174188Y-109445690D01*
X153210498Y-109565388D01*
X153269463Y-109675702D01*
X153348815Y-109772393D01*
X153445506Y-109851745D01*
X153555820Y-109910710D01*
X153675518Y-109947020D01*
X153800000Y-109959280D01*
X154614250Y-109956208D01*
X154773000Y-109797458D01*
X154773000Y-108348208D01*
X153323750Y-108348208D01*
X153165000Y-108506958D01*
X153161928Y-109321208D01*
X151838072Y-109321208D01*
X151838072Y-107121208D01*
X153161928Y-107121208D01*
X153165000Y-107935458D01*
X153323750Y-108094208D01*
X154773000Y-108094208D01*
X154773000Y-106644958D01*
X154614250Y-106486208D01*
X153800000Y-106483136D01*
X153675518Y-106495396D01*
X153555820Y-106531706D01*
X153445506Y-106590671D01*
X153348815Y-106670023D01*
X153269463Y-106766714D01*
X153210498Y-106877028D01*
X153174188Y-106996726D01*
X153161928Y-107121208D01*
X151838072Y-107121208D01*
X151825812Y-106996726D01*
X151789502Y-106877028D01*
X151730537Y-106766714D01*
X151651185Y-106670023D01*
X151554494Y-106590671D01*
X151444180Y-106531706D01*
X151324482Y-106495396D01*
X151200000Y-106483136D01*
X149000000Y-106483136D01*
X148875518Y-106495396D01*
X148755820Y-106531706D01*
X148645506Y-106590671D01*
X148548815Y-106670023D01*
X148469463Y-106766714D01*
X148410498Y-106877028D01*
X148374188Y-106996726D01*
X148361928Y-107121208D01*
X148361928Y-109321208D01*
X148374188Y-109445690D01*
X148410498Y-109565388D01*
X148469463Y-109675702D01*
X148548815Y-109772393D01*
X148645506Y-109851745D01*
X148710123Y-109886284D01*
X148612407Y-109984000D01*
X137090178Y-109984000D01*
X136965475Y-109797368D01*
X136758632Y-109590525D01*
X136584240Y-109474000D01*
X136758632Y-109357475D01*
X136965475Y-109150632D01*
X137127990Y-108907411D01*
X137239932Y-108637158D01*
X137297000Y-108350260D01*
X137297000Y-108057740D01*
X137239932Y-107770842D01*
X137127990Y-107500589D01*
X136965475Y-107257368D01*
X136829315Y-107121208D01*
X143861928Y-107121208D01*
X143861928Y-109321208D01*
X143874188Y-109445690D01*
X143910498Y-109565388D01*
X143969463Y-109675702D01*
X144048815Y-109772393D01*
X144145506Y-109851745D01*
X144255820Y-109910710D01*
X144375518Y-109947020D01*
X144500000Y-109959280D01*
X146700000Y-109959280D01*
X146824482Y-109947020D01*
X146944180Y-109910710D01*
X147054494Y-109851745D01*
X147151185Y-109772393D01*
X147230537Y-109675702D01*
X147289502Y-109565388D01*
X147325812Y-109445690D01*
X147338072Y-109321208D01*
X147338072Y-107121208D01*
X147325812Y-106996726D01*
X147289502Y-106877028D01*
X147230537Y-106766714D01*
X147151185Y-106670023D01*
X147054494Y-106590671D01*
X146944180Y-106531706D01*
X146824482Y-106495396D01*
X146700000Y-106483136D01*
X144500000Y-106483136D01*
X144375518Y-106495396D01*
X144255820Y-106531706D01*
X144145506Y-106590671D01*
X144048815Y-106670023D01*
X143969463Y-106766714D01*
X143910498Y-106877028D01*
X143874188Y-106996726D01*
X143861928Y-107121208D01*
X136829315Y-107121208D01*
X136758632Y-107050525D01*
X136584240Y-106934000D01*
X136758632Y-106817475D01*
X136965475Y-106610632D01*
X137127990Y-106367411D01*
X137239932Y-106097158D01*
X137297000Y-105810260D01*
X137297000Y-105517740D01*
X137239932Y-105230842D01*
X137127990Y-104960589D01*
X136965475Y-104717368D01*
X136758632Y-104510525D01*
X136584240Y-104394000D01*
X136758632Y-104277475D01*
X136965475Y-104070632D01*
X137090178Y-103884000D01*
X146357235Y-103884000D01*
X146394557Y-103887676D01*
X146431879Y-103884000D01*
X146431890Y-103884000D01*
X146543543Y-103873003D01*
X146686804Y-103829546D01*
X146818833Y-103758974D01*
X146934558Y-103664001D01*
X146958361Y-103634997D01*
X150611003Y-99982356D01*
X150640001Y-99958558D01*
X150734974Y-99842833D01*
X150754326Y-99806629D01*
X151200000Y-99806629D01*
X151324482Y-99794369D01*
X151444180Y-99758059D01*
X151554494Y-99699094D01*
X151651185Y-99619742D01*
X151730537Y-99523051D01*
X151789502Y-99412737D01*
X151825812Y-99293039D01*
X151838072Y-99168557D01*
X153161928Y-99168557D01*
X153174188Y-99293039D01*
X153210498Y-99412737D01*
X153269463Y-99523051D01*
X153348815Y-99619742D01*
X153445506Y-99699094D01*
X153555820Y-99758059D01*
X153675518Y-99794369D01*
X153800000Y-99806629D01*
X154614250Y-99803557D01*
X154773000Y-99644807D01*
X154773000Y-98195557D01*
X153323750Y-98195557D01*
X153165000Y-98354307D01*
X153161928Y-99168557D01*
X151838072Y-99168557D01*
X151838072Y-96968557D01*
X153161928Y-96968557D01*
X153165000Y-97782807D01*
X153323750Y-97941557D01*
X154773000Y-97941557D01*
X154773000Y-96492307D01*
X154614250Y-96333557D01*
X153800000Y-96330485D01*
X153675518Y-96342745D01*
X153555820Y-96379055D01*
X153445506Y-96438020D01*
X153348815Y-96517372D01*
X153269463Y-96614063D01*
X153210498Y-96724377D01*
X153174188Y-96844075D01*
X153161928Y-96968557D01*
X151838072Y-96968557D01*
X151825812Y-96844075D01*
X151789502Y-96724377D01*
X151730537Y-96614063D01*
X151651185Y-96517372D01*
X151554494Y-96438020D01*
X151444180Y-96379055D01*
X151324482Y-96342745D01*
X151200000Y-96330485D01*
X149000000Y-96330485D01*
X148875518Y-96342745D01*
X148755820Y-96379055D01*
X148645506Y-96438020D01*
X148548815Y-96517372D01*
X148469463Y-96614063D01*
X148410498Y-96724377D01*
X148374188Y-96844075D01*
X148361928Y-96968557D01*
X148361928Y-99168557D01*
X148374188Y-99293039D01*
X148410498Y-99412737D01*
X148469463Y-99523051D01*
X148548815Y-99619742D01*
X148645506Y-99699094D01*
X148710122Y-99733633D01*
X146079756Y-102364000D01*
X137090178Y-102364000D01*
X136965475Y-102177368D01*
X136758632Y-101970525D01*
X136584240Y-101854000D01*
X136758632Y-101737475D01*
X136965475Y-101530632D01*
X137127990Y-101287411D01*
X137239932Y-101017158D01*
X137297000Y-100730260D01*
X137297000Y-100437740D01*
X137239932Y-100150842D01*
X137127990Y-99880589D01*
X136965475Y-99637368D01*
X136758632Y-99430525D01*
X136584240Y-99314000D01*
X136758632Y-99197475D01*
X136965475Y-98990632D01*
X137090178Y-98804000D01*
X138584584Y-98804000D01*
X138621906Y-98807676D01*
X138659228Y-98804000D01*
X138659239Y-98804000D01*
X138770892Y-98793003D01*
X138914153Y-98749546D01*
X139046182Y-98678974D01*
X139161907Y-98584001D01*
X139185710Y-98554997D01*
X140772150Y-96968557D01*
X143861928Y-96968557D01*
X143861928Y-99168557D01*
X143874188Y-99293039D01*
X143910498Y-99412737D01*
X143969463Y-99523051D01*
X144048815Y-99619742D01*
X144145506Y-99699094D01*
X144255820Y-99758059D01*
X144375518Y-99794369D01*
X144500000Y-99806629D01*
X146700000Y-99806629D01*
X146824482Y-99794369D01*
X146944180Y-99758059D01*
X147054494Y-99699094D01*
X147151185Y-99619742D01*
X147230537Y-99523051D01*
X147289502Y-99412737D01*
X147325812Y-99293039D01*
X147338072Y-99168557D01*
X147338072Y-96968557D01*
X147325812Y-96844075D01*
X147289502Y-96724377D01*
X147230537Y-96614063D01*
X147151185Y-96517372D01*
X147054494Y-96438020D01*
X146944180Y-96379055D01*
X146824482Y-96342745D01*
X146700000Y-96330485D01*
X144500000Y-96330485D01*
X144375518Y-96342745D01*
X144255820Y-96379055D01*
X144145506Y-96438020D01*
X144048815Y-96517372D01*
X143969463Y-96614063D01*
X143910498Y-96724377D01*
X143874188Y-96844075D01*
X143861928Y-96968557D01*
X140772150Y-96968557D01*
X148434924Y-89305784D01*
X148469463Y-89370400D01*
X148548815Y-89467091D01*
X148645506Y-89546443D01*
X148755820Y-89605408D01*
X148875518Y-89641718D01*
X149000000Y-89653978D01*
X151200000Y-89653978D01*
X151324482Y-89641718D01*
X151444180Y-89605408D01*
X151554494Y-89546443D01*
X151651185Y-89467091D01*
X151730537Y-89370400D01*
X151789502Y-89260086D01*
X151825812Y-89140388D01*
X151838072Y-89015906D01*
X153161928Y-89015906D01*
X153174188Y-89140388D01*
X153210498Y-89260086D01*
X153269463Y-89370400D01*
X153348815Y-89467091D01*
X153445506Y-89546443D01*
X153555820Y-89605408D01*
X153675518Y-89641718D01*
X153800000Y-89653978D01*
X154614250Y-89650906D01*
X154773000Y-89492156D01*
X154773000Y-88042906D01*
X153323750Y-88042906D01*
X153165000Y-88201656D01*
X153161928Y-89015906D01*
X151838072Y-89015906D01*
X151838072Y-86815906D01*
X153161928Y-86815906D01*
X153165000Y-87630156D01*
X153323750Y-87788906D01*
X154773000Y-87788906D01*
X154773000Y-86339656D01*
X154614250Y-86180906D01*
X153800000Y-86177834D01*
X153675518Y-86190094D01*
X153555820Y-86226404D01*
X153445506Y-86285369D01*
X153348815Y-86364721D01*
X153269463Y-86461412D01*
X153210498Y-86571726D01*
X153174188Y-86691424D01*
X153161928Y-86815906D01*
X151838072Y-86815906D01*
X151825812Y-86691424D01*
X151789502Y-86571726D01*
X151730537Y-86461412D01*
X151651185Y-86364721D01*
X151554494Y-86285369D01*
X151444180Y-86226404D01*
X151324482Y-86190094D01*
X151200000Y-86177834D01*
X149000000Y-86177834D01*
X148875518Y-86190094D01*
X148755820Y-86226404D01*
X148645506Y-86285369D01*
X148548815Y-86364721D01*
X148469463Y-86461412D01*
X148410498Y-86571726D01*
X148374188Y-86691424D01*
X148361928Y-86815906D01*
X148361928Y-87261580D01*
X148325723Y-87280932D01*
X148242083Y-87349574D01*
X148209999Y-87375905D01*
X148186201Y-87404903D01*
X147338072Y-88253032D01*
X147338072Y-86815906D01*
X147325812Y-86691424D01*
X147289502Y-86571726D01*
X147230537Y-86461412D01*
X147151185Y-86364721D01*
X147054494Y-86285369D01*
X146944180Y-86226404D01*
X146824482Y-86190094D01*
X146700000Y-86177834D01*
X144946967Y-86177834D01*
X150611004Y-80513798D01*
X150640001Y-80490001D01*
X150734974Y-80374276D01*
X150805546Y-80242247D01*
X150849003Y-80098986D01*
X150860000Y-79987333D01*
X150860000Y-79987325D01*
X150863676Y-79950000D01*
X150860000Y-79912675D01*
X150860000Y-79501327D01*
X151200000Y-79501327D01*
X151324482Y-79489067D01*
X151444180Y-79452757D01*
X151554494Y-79393792D01*
X151651185Y-79314440D01*
X151730537Y-79217749D01*
X151789502Y-79107435D01*
X151825812Y-78987737D01*
X151838072Y-78863255D01*
X153161928Y-78863255D01*
X153174188Y-78987737D01*
X153210498Y-79107435D01*
X153269463Y-79217749D01*
X153348815Y-79314440D01*
X153445506Y-79393792D01*
X153555820Y-79452757D01*
X153675518Y-79489067D01*
X153800000Y-79501327D01*
X154614250Y-79498255D01*
X154773000Y-79339505D01*
X154773000Y-77890255D01*
X153323750Y-77890255D01*
X153165000Y-78049005D01*
X153161928Y-78863255D01*
X151838072Y-78863255D01*
X151838072Y-76663255D01*
X153161928Y-76663255D01*
X153165000Y-77477505D01*
X153323750Y-77636255D01*
X154773000Y-77636255D01*
X154773000Y-76187005D01*
X154614250Y-76028255D01*
X153800000Y-76025183D01*
X153675518Y-76037443D01*
X153555820Y-76073753D01*
X153445506Y-76132718D01*
X153348815Y-76212070D01*
X153269463Y-76308761D01*
X153210498Y-76419075D01*
X153174188Y-76538773D01*
X153161928Y-76663255D01*
X151838072Y-76663255D01*
X151825812Y-76538773D01*
X151789502Y-76419075D01*
X151730537Y-76308761D01*
X151651185Y-76212070D01*
X151554494Y-76132718D01*
X151444180Y-76073753D01*
X151324482Y-76037443D01*
X151200000Y-76025183D01*
X149000000Y-76025183D01*
X148875518Y-76037443D01*
X148755820Y-76073753D01*
X148645506Y-76132718D01*
X148548815Y-76212070D01*
X148469463Y-76308761D01*
X148410498Y-76419075D01*
X148374188Y-76538773D01*
X148361928Y-76663255D01*
X148361928Y-78863255D01*
X148374188Y-78987737D01*
X148410498Y-79107435D01*
X148469463Y-79217749D01*
X148548815Y-79314440D01*
X148645506Y-79393792D01*
X148755820Y-79452757D01*
X148875518Y-79489067D01*
X149000000Y-79501327D01*
X149340000Y-79501327D01*
X149340000Y-79635198D01*
X144934999Y-84040200D01*
X144934999Y-79501327D01*
X146700000Y-79501327D01*
X146824482Y-79489067D01*
X146944180Y-79452757D01*
X147054494Y-79393792D01*
X147151185Y-79314440D01*
X147230537Y-79217749D01*
X147289502Y-79107435D01*
X147325812Y-78987737D01*
X147338072Y-78863255D01*
X147338072Y-76663255D01*
X147325812Y-76538773D01*
X147289502Y-76419075D01*
X147230537Y-76308761D01*
X147151185Y-76212070D01*
X147054494Y-76132718D01*
X146944180Y-76073753D01*
X146824482Y-76037443D01*
X146700000Y-76025183D01*
X144934999Y-76025183D01*
X144934999Y-72500406D01*
X148434925Y-69000482D01*
X148469463Y-69065098D01*
X148548815Y-69161789D01*
X148645506Y-69241141D01*
X148755820Y-69300106D01*
X148875518Y-69336416D01*
X149000000Y-69348676D01*
X151200000Y-69348676D01*
X151324482Y-69336416D01*
X151444180Y-69300106D01*
X151554494Y-69241141D01*
X151651185Y-69161789D01*
X151730537Y-69065098D01*
X151789502Y-68954784D01*
X151825812Y-68835086D01*
X151838072Y-68710604D01*
X153161928Y-68710604D01*
X153174188Y-68835086D01*
X153210498Y-68954784D01*
X153269463Y-69065098D01*
X153348815Y-69161789D01*
X153445506Y-69241141D01*
X153555820Y-69300106D01*
X153675518Y-69336416D01*
X153800000Y-69348676D01*
X154614250Y-69345604D01*
X154773000Y-69186854D01*
X154773000Y-67737604D01*
X153323750Y-67737604D01*
X153165000Y-67896354D01*
X153161928Y-68710604D01*
X151838072Y-68710604D01*
X151838072Y-66510604D01*
X153161928Y-66510604D01*
X153165000Y-67324854D01*
X153323750Y-67483604D01*
X154773000Y-67483604D01*
X154773000Y-66034354D01*
X154614250Y-65875604D01*
X153800000Y-65872532D01*
X153675518Y-65884792D01*
X153555820Y-65921102D01*
X153445506Y-65980067D01*
X153348815Y-66059419D01*
X153269463Y-66156110D01*
X153210498Y-66266424D01*
X153174188Y-66386122D01*
X153161928Y-66510604D01*
X151838072Y-66510604D01*
X151825812Y-66386122D01*
X151789502Y-66266424D01*
X151730537Y-66156110D01*
X151651185Y-66059419D01*
X151554494Y-65980067D01*
X151444180Y-65921102D01*
X151324482Y-65884792D01*
X151200000Y-65872532D01*
X149000000Y-65872532D01*
X148875518Y-65884792D01*
X148755820Y-65921102D01*
X148645506Y-65980067D01*
X148548815Y-66059419D01*
X148469463Y-66156110D01*
X148410498Y-66266424D01*
X148374188Y-66386122D01*
X148361928Y-66510604D01*
X148361928Y-66956278D01*
X148325724Y-66975630D01*
X148325722Y-66975631D01*
X148325723Y-66975631D01*
X148238996Y-67046805D01*
X148238992Y-67046809D01*
X148209999Y-67070603D01*
X148186205Y-67099596D01*
X147338072Y-67947729D01*
X147338072Y-66510604D01*
X147325812Y-66386122D01*
X147289502Y-66266424D01*
X147230537Y-66156110D01*
X147151185Y-66059419D01*
X147054494Y-65980067D01*
X146944180Y-65921102D01*
X146824482Y-65884792D01*
X146700000Y-65872532D01*
X144500000Y-65872532D01*
X144375518Y-65884792D01*
X144255820Y-65921102D01*
X144145506Y-65980067D01*
X144048815Y-66059419D01*
X143969463Y-66156110D01*
X143910498Y-66266424D01*
X143874188Y-66386122D01*
X143861928Y-66510604D01*
X143861928Y-68710604D01*
X143874188Y-68835086D01*
X143910498Y-68954784D01*
X143969463Y-69065098D01*
X144048815Y-69161789D01*
X144145506Y-69241141D01*
X144255820Y-69300106D01*
X144375518Y-69336416D01*
X144500000Y-69348676D01*
X145937126Y-69348676D01*
X143664002Y-71621801D01*
X143634998Y-71645604D01*
X143579870Y-71712779D01*
X143540025Y-71761329D01*
X143469454Y-71893358D01*
X143469453Y-71893359D01*
X143425996Y-72036620D01*
X143414999Y-72148273D01*
X143414999Y-72148283D01*
X143411323Y-72185605D01*
X143414999Y-72222927D01*
X143415000Y-84286197D01*
X137297000Y-90404199D01*
X137297000Y-90277740D01*
X137239932Y-89990842D01*
X137127990Y-89720589D01*
X136965475Y-89477368D01*
X136758632Y-89270525D01*
X136584240Y-89154000D01*
X136758632Y-89037475D01*
X136965475Y-88830632D01*
X137127990Y-88587411D01*
X137239932Y-88317158D01*
X137297000Y-88030260D01*
X137297000Y-87737740D01*
X137239932Y-87450842D01*
X137127990Y-87180589D01*
X136965475Y-86937368D01*
X136758632Y-86730525D01*
X136584240Y-86614000D01*
X136758632Y-86497475D01*
X136965475Y-86290632D01*
X137127990Y-86047411D01*
X137239932Y-85777158D01*
X137297000Y-85490260D01*
X137297000Y-85197740D01*
X137253209Y-84977592D01*
X143011003Y-79219799D01*
X143040001Y-79196001D01*
X143134974Y-79080276D01*
X143205546Y-78948247D01*
X143249003Y-78804986D01*
X143260000Y-78693333D01*
X143260000Y-78693324D01*
X143263676Y-78656001D01*
X143260000Y-78618678D01*
X143260000Y-55095374D01*
X150084231Y-55095374D01*
X150384411Y-55533828D01*
X150963356Y-55844296D01*
X151591746Y-56035852D01*
X152245431Y-56101134D01*
X152899293Y-56037634D01*
X153528203Y-55847792D01*
X154107992Y-55538904D01*
X154115589Y-55533828D01*
X154415769Y-55095374D01*
X152250000Y-52929605D01*
X150084231Y-55095374D01*
X143260000Y-55095374D01*
X143260000Y-52745431D01*
X148898866Y-52745431D01*
X148962366Y-53399293D01*
X149152208Y-54028203D01*
X149461096Y-54607992D01*
X149466172Y-54615589D01*
X149904626Y-54915769D01*
X152070395Y-52750000D01*
X152429605Y-52750000D01*
X154595374Y-54915769D01*
X155033828Y-54615589D01*
X155344296Y-54036644D01*
X155535852Y-53408254D01*
X155601134Y-52754569D01*
X155537634Y-52100707D01*
X155347792Y-51471797D01*
X155038904Y-50892008D01*
X155033828Y-50884411D01*
X154595374Y-50584231D01*
X152429605Y-52750000D01*
X152070395Y-52750000D01*
X149904626Y-50584231D01*
X149466172Y-50884411D01*
X149155704Y-51463356D01*
X148964148Y-52091746D01*
X148898866Y-52745431D01*
X143260000Y-52745431D01*
X143260000Y-50404626D01*
X150084231Y-50404626D01*
X152250000Y-52570395D01*
X154415769Y-50404626D01*
X154115589Y-49966172D01*
X153536644Y-49655704D01*
X152908254Y-49464148D01*
X152254569Y-49398866D01*
X151600707Y-49462366D01*
X150971797Y-49652208D01*
X150392008Y-49961096D01*
X150384411Y-49966172D01*
X150084231Y-50404626D01*
X143260000Y-50404626D01*
X143260000Y-43717452D01*
X148434924Y-38542529D01*
X148469463Y-38607145D01*
X148548815Y-38703836D01*
X148645506Y-38783188D01*
X148755820Y-38842153D01*
X148875518Y-38878463D01*
X149000000Y-38890723D01*
X151200000Y-38890723D01*
X151324482Y-38878463D01*
X151444180Y-38842153D01*
X151554494Y-38783188D01*
X151651185Y-38703836D01*
X151730537Y-38607145D01*
X151789502Y-38496831D01*
X151825812Y-38377133D01*
X151838072Y-38252651D01*
X153161928Y-38252651D01*
X153174188Y-38377133D01*
X153210498Y-38496831D01*
X153269463Y-38607145D01*
X153348815Y-38703836D01*
X153445506Y-38783188D01*
X153555820Y-38842153D01*
X153675518Y-38878463D01*
X153800000Y-38890723D01*
X154614250Y-38887651D01*
X154773000Y-38728901D01*
X154773000Y-37279651D01*
X153323750Y-37279651D01*
X153165000Y-37438401D01*
X153161928Y-38252651D01*
X151838072Y-38252651D01*
X151838072Y-36052651D01*
X153161928Y-36052651D01*
X153165000Y-36866901D01*
X153323750Y-37025651D01*
X154773000Y-37025651D01*
X154773000Y-35576401D01*
X154614250Y-35417651D01*
X153800000Y-35414579D01*
X153675518Y-35426839D01*
X153555820Y-35463149D01*
X153445506Y-35522114D01*
X153348815Y-35601466D01*
X153269463Y-35698157D01*
X153210498Y-35808471D01*
X153174188Y-35928169D01*
X153161928Y-36052651D01*
X151838072Y-36052651D01*
X151825812Y-35928169D01*
X151789502Y-35808471D01*
X151730537Y-35698157D01*
X151651185Y-35601466D01*
X151554494Y-35522114D01*
X151444180Y-35463149D01*
X151324482Y-35426839D01*
X151200000Y-35414579D01*
X149000000Y-35414579D01*
X148875518Y-35426839D01*
X148755820Y-35463149D01*
X148645506Y-35522114D01*
X148548815Y-35601466D01*
X148469463Y-35698157D01*
X148410498Y-35808471D01*
X148374188Y-35928169D01*
X148361928Y-36052651D01*
X148361928Y-36498325D01*
X148325724Y-36517677D01*
X148209999Y-36612650D01*
X148186201Y-36641648D01*
X147338072Y-37489777D01*
X147338072Y-36052651D01*
X147325812Y-35928169D01*
X147289502Y-35808471D01*
X147230537Y-35698157D01*
X147151185Y-35601466D01*
X147054494Y-35522114D01*
X146944180Y-35463149D01*
X146824482Y-35426839D01*
X146700000Y-35414579D01*
X144500000Y-35414579D01*
X144375518Y-35426839D01*
X144255820Y-35463149D01*
X144145506Y-35522114D01*
X144048815Y-35601466D01*
X143969463Y-35698157D01*
X143910498Y-35808471D01*
X143874188Y-35928169D01*
X143861928Y-36052651D01*
X143861928Y-38252651D01*
X143874188Y-38377133D01*
X143910498Y-38496831D01*
X143969463Y-38607145D01*
X144048815Y-38703836D01*
X144145506Y-38783188D01*
X144255820Y-38842153D01*
X144375518Y-38878463D01*
X144500000Y-38890723D01*
X145937126Y-38890723D01*
X141989003Y-42838847D01*
X141959999Y-42862650D01*
X141904871Y-42929825D01*
X141865026Y-42978375D01*
X141794455Y-43110404D01*
X141794454Y-43110405D01*
X141750997Y-43253666D01*
X141740000Y-43365319D01*
X141740000Y-43365329D01*
X141736324Y-43402651D01*
X141740000Y-43439973D01*
X141740001Y-78341197D01*
X141560000Y-78521198D01*
X141560000Y-35264801D01*
X148434924Y-28389878D01*
X148469463Y-28454494D01*
X148548815Y-28551185D01*
X148645506Y-28630537D01*
X148755820Y-28689502D01*
X148875518Y-28725812D01*
X149000000Y-28738072D01*
X151200000Y-28738072D01*
X151324482Y-28725812D01*
X151444180Y-28689502D01*
X151554494Y-28630537D01*
X151651185Y-28551185D01*
X151730537Y-28454494D01*
X151789502Y-28344180D01*
X151825812Y-28224482D01*
X151838072Y-28100000D01*
X153161928Y-28100000D01*
X153174188Y-28224482D01*
X153210498Y-28344180D01*
X153269463Y-28454494D01*
X153348815Y-28551185D01*
X153445506Y-28630537D01*
X153555820Y-28689502D01*
X153675518Y-28725812D01*
X153800000Y-28738072D01*
X154614250Y-28735000D01*
X154773000Y-28576250D01*
X154773000Y-27127000D01*
X153323750Y-27127000D01*
X153165000Y-27285750D01*
X153161928Y-28100000D01*
X151838072Y-28100000D01*
X151838072Y-25900000D01*
X153161928Y-25900000D01*
X153165000Y-26714250D01*
X153323750Y-26873000D01*
X154773000Y-26873000D01*
X154773000Y-25423750D01*
X154614250Y-25265000D01*
X153800000Y-25261928D01*
X153675518Y-25274188D01*
X153555820Y-25310498D01*
X153445506Y-25369463D01*
X153348815Y-25448815D01*
X153269463Y-25545506D01*
X153210498Y-25655820D01*
X153174188Y-25775518D01*
X153161928Y-25900000D01*
X151838072Y-25900000D01*
X151825812Y-25775518D01*
X151789502Y-25655820D01*
X151730537Y-25545506D01*
X151651185Y-25448815D01*
X151554494Y-25369463D01*
X151444180Y-25310498D01*
X151324482Y-25274188D01*
X151200000Y-25261928D01*
X149000000Y-25261928D01*
X148875518Y-25274188D01*
X148755820Y-25310498D01*
X148645506Y-25369463D01*
X148548815Y-25448815D01*
X148469463Y-25545506D01*
X148410498Y-25655820D01*
X148374188Y-25775518D01*
X148361928Y-25900000D01*
X148361928Y-26345674D01*
X148325724Y-26365026D01*
X148209999Y-26459999D01*
X148186201Y-26488997D01*
X147338072Y-27337126D01*
X147338072Y-25900000D01*
X147325812Y-25775518D01*
X147289502Y-25655820D01*
X147230537Y-25545506D01*
X147151185Y-25448815D01*
X147054494Y-25369463D01*
X146944180Y-25310498D01*
X146824482Y-25274188D01*
X146700000Y-25261928D01*
X144500000Y-25261928D01*
X144375518Y-25274188D01*
X144255820Y-25310498D01*
X144145506Y-25369463D01*
X144048815Y-25448815D01*
X143969463Y-25545506D01*
X143910498Y-25655820D01*
X143874188Y-25775518D01*
X143861928Y-25900000D01*
X143861928Y-28100000D01*
X143874188Y-28224482D01*
X143910498Y-28344180D01*
X143969463Y-28454494D01*
X144048815Y-28551185D01*
X144145506Y-28630537D01*
X144255820Y-28689502D01*
X144375518Y-28725812D01*
X144500000Y-28738072D01*
X145937126Y-28738072D01*
X140288998Y-34386201D01*
X140260000Y-34409999D01*
X140236202Y-34438997D01*
X140236201Y-34438998D01*
X140165026Y-34525724D01*
X140094454Y-34657754D01*
X140050998Y-34801015D01*
X140036324Y-34950000D01*
X140040001Y-34987333D01*
X140040000Y-78601198D01*
X137124543Y-81516655D01*
X137113185Y-81502815D01*
X137016494Y-81423463D01*
X136906180Y-81364498D01*
X136786482Y-81328188D01*
X136662000Y-81315928D01*
X134962000Y-81315928D01*
X134837518Y-81328188D01*
X134717820Y-81364498D01*
X134607506Y-81423463D01*
X134510815Y-81502815D01*
X134431463Y-81599506D01*
X134372498Y-81709820D01*
X134360000Y-81751020D01*
X134360000Y-77664801D01*
X135811003Y-76213799D01*
X135840001Y-76190001D01*
X135887012Y-76132718D01*
X135934974Y-76074277D01*
X136005546Y-75942247D01*
X136049003Y-75798986D01*
X136060000Y-75687333D01*
X136060000Y-75687324D01*
X136063676Y-75650001D01*
X136060000Y-75612678D01*
X136060000Y-58557953D01*
X136161928Y-58557953D01*
X136174188Y-58682435D01*
X136210498Y-58802133D01*
X136269463Y-58912447D01*
X136348815Y-59009138D01*
X136445506Y-59088490D01*
X136555820Y-59147455D01*
X136675518Y-59183765D01*
X136800000Y-59196025D01*
X137614250Y-59192953D01*
X137773000Y-59034203D01*
X137773000Y-57584953D01*
X138027000Y-57584953D01*
X138027000Y-59034203D01*
X138185750Y-59192953D01*
X139000000Y-59196025D01*
X139124482Y-59183765D01*
X139244180Y-59147455D01*
X139354494Y-59088490D01*
X139451185Y-59009138D01*
X139530537Y-58912447D01*
X139589502Y-58802133D01*
X139625812Y-58682435D01*
X139638072Y-58557953D01*
X139635000Y-57743703D01*
X139476250Y-57584953D01*
X138027000Y-57584953D01*
X137773000Y-57584953D01*
X136323750Y-57584953D01*
X136165000Y-57743703D01*
X136161928Y-58557953D01*
X136060000Y-58557953D01*
X136060000Y-56357953D01*
X136161928Y-56357953D01*
X136165000Y-57172203D01*
X136323750Y-57330953D01*
X137773000Y-57330953D01*
X137773000Y-55881703D01*
X138027000Y-55881703D01*
X138027000Y-57330953D01*
X139476250Y-57330953D01*
X139635000Y-57172203D01*
X139638072Y-56357953D01*
X139625812Y-56233471D01*
X139589502Y-56113773D01*
X139530537Y-56003459D01*
X139451185Y-55906768D01*
X139354494Y-55827416D01*
X139244180Y-55768451D01*
X139124482Y-55732141D01*
X139000000Y-55719881D01*
X138185750Y-55722953D01*
X138027000Y-55881703D01*
X137773000Y-55881703D01*
X137614250Y-55722953D01*
X136800000Y-55719881D01*
X136675518Y-55732141D01*
X136555820Y-55768451D01*
X136445506Y-55827416D01*
X136348815Y-55906768D01*
X136269463Y-56003459D01*
X136210498Y-56113773D01*
X136174188Y-56233471D01*
X136161928Y-56357953D01*
X136060000Y-56357953D01*
X136060000Y-48300000D01*
X136161928Y-48300000D01*
X136174188Y-48424482D01*
X136210498Y-48544180D01*
X136269463Y-48654494D01*
X136348815Y-48751185D01*
X136445506Y-48830537D01*
X136555820Y-48889502D01*
X136675518Y-48925812D01*
X136800000Y-48938072D01*
X137614250Y-48935000D01*
X137773000Y-48776250D01*
X137773000Y-47327000D01*
X138027000Y-47327000D01*
X138027000Y-48776250D01*
X138185750Y-48935000D01*
X139000000Y-48938072D01*
X139124482Y-48925812D01*
X139244180Y-48889502D01*
X139354494Y-48830537D01*
X139451185Y-48751185D01*
X139530537Y-48654494D01*
X139589502Y-48544180D01*
X139625812Y-48424482D01*
X139638072Y-48300000D01*
X139635000Y-47485750D01*
X139476250Y-47327000D01*
X138027000Y-47327000D01*
X137773000Y-47327000D01*
X136323750Y-47327000D01*
X136165000Y-47485750D01*
X136161928Y-48300000D01*
X136060000Y-48300000D01*
X136060000Y-48087333D01*
X136063677Y-48050000D01*
X136049003Y-47901014D01*
X136005546Y-47757753D01*
X135934974Y-47625724D01*
X135863799Y-47538997D01*
X135840001Y-47509999D01*
X135811004Y-47486202D01*
X135013803Y-46689002D01*
X134990001Y-46659999D01*
X134874276Y-46565026D01*
X134838072Y-46545674D01*
X134838072Y-46100000D01*
X136161928Y-46100000D01*
X136165000Y-46914250D01*
X136323750Y-47073000D01*
X137773000Y-47073000D01*
X137773000Y-45623750D01*
X138027000Y-45623750D01*
X138027000Y-47073000D01*
X139476250Y-47073000D01*
X139635000Y-46914250D01*
X139638072Y-46100000D01*
X139625812Y-45975518D01*
X139589502Y-45855820D01*
X139530537Y-45745506D01*
X139451185Y-45648815D01*
X139354494Y-45569463D01*
X139244180Y-45510498D01*
X139124482Y-45474188D01*
X139000000Y-45461928D01*
X138185750Y-45465000D01*
X138027000Y-45623750D01*
X137773000Y-45623750D01*
X137614250Y-45465000D01*
X136800000Y-45461928D01*
X136675518Y-45474188D01*
X136555820Y-45510498D01*
X136445506Y-45569463D01*
X136348815Y-45648815D01*
X136269463Y-45745506D01*
X136210498Y-45855820D01*
X136174188Y-45975518D01*
X136161928Y-46100000D01*
X134838072Y-46100000D01*
X134825812Y-45975518D01*
X134789502Y-45855820D01*
X134730537Y-45745506D01*
X134651185Y-45648815D01*
X134554494Y-45569463D01*
X134444180Y-45510498D01*
X134324482Y-45474188D01*
X134200000Y-45461928D01*
X132000000Y-45461928D01*
X131875518Y-45474188D01*
X131755820Y-45510498D01*
X131645506Y-45569463D01*
X131548815Y-45648815D01*
X131469463Y-45745506D01*
X131410498Y-45855820D01*
X131374188Y-45975518D01*
X131361928Y-46100000D01*
X130338072Y-46100000D01*
X130325812Y-45975518D01*
X130289502Y-45855820D01*
X130230537Y-45745506D01*
X130151185Y-45648815D01*
X130054494Y-45569463D01*
X129944180Y-45510498D01*
X129824482Y-45474188D01*
X129700000Y-45461928D01*
X127709385Y-45461928D01*
X127709981Y-22210000D01*
X156290001Y-22210000D01*
X156290001Y-25334990D01*
%TD*%
M02*
