M48
; DRILL file {KiCad 5.1.5+dfsg1-2build2} date tor 17 sep 2020 10:38:15
; FORMAT={-:-/ absolute / inch / decimal}
; #@! TF.CreationDate,2020-09-17T10:38:15+02:00
; #@! TF.GenerationSoftware,Kicad,Pcbnew,5.1.5+dfsg1-2build2
; #@! TF.FileFunction,Plated,1,2,PTH
FMAT,2
INCH
T1C0.0394
T2C0.0591
T3C0.0787
T4C0.1063
%
G90
G05
T1
X5.3469Y-3.26
X5.3469Y-3.36
X5.3469Y-3.46
X5.3469Y-3.56
X5.3469Y-3.66
X5.3469Y-3.76
X5.3469Y-3.86
X5.3469Y-3.96
X5.3469Y-4.06
X5.3469Y-4.16
X5.3469Y-4.26
X5.3469Y-4.36
X5.3469Y-4.46
X5.3469Y-4.56
X5.3469Y-4.66
X5.3469Y-4.76
X5.3469Y-4.86
X5.3469Y-4.96
X5.3469Y-5.06
X5.3469Y-5.16
T3
X5.6811Y-5.8031
T4
X5.9941Y-5.8169
X5.9941Y-2.0768
T2
G00X5.7323Y-5.0483
M15
G01X5.7323Y-5.0719
M16
G05
G00X5.9094Y-5.0483
M15
G01X5.9094Y-5.0719
M16
G05
G00X6.0984Y-5.0483
M15
G01X6.0984Y-5.0719
M16
G05
G00X5.7323Y-4.2489
M15
G01X5.7323Y-4.2725
M16
G05
G00X5.9094Y-4.2489
M15
G01X5.9094Y-4.2725
M16
G05
G00X6.0984Y-4.2489
M15
G01X6.0984Y-4.2725
M16
G05
G00X5.7323Y-4.6486
M15
G01X5.7323Y-4.6722
M16
G05
G00X5.9094Y-4.6486
M15
G01X5.9094Y-4.6722
M16
G05
G00X6.0984Y-4.6486
M15
G01X6.0984Y-4.6722
M16
G05
G00X5.7323Y-6.1693
M15
G01X5.7323Y-6.1929
M16
G05
G00X5.9094Y-6.1693
M15
G01X5.9094Y-6.1929
M16
G05
G00X6.0984Y-6.1693
M15
G01X6.0984Y-6.1929
M16
G05
G00X5.7323Y-3.0497
M15
G01X5.7323Y-3.0734
M16
G05
G00X5.9094Y-3.0497
M15
G01X5.9094Y-3.0734
M16
G05
G00X6.0984Y-3.0497
M15
G01X6.0984Y-3.0734
M16
G05
G00X5.7323Y-1.4509
M15
G01X5.7323Y-1.4745
M16
G05
G00X5.9094Y-1.4509
M15
G01X5.9094Y-1.4745
M16
G05
G00X6.0984Y-1.4509
M15
G01X6.0984Y-1.4745
M16
G05
G00X5.7323Y-3.4494
M15
G01X5.7323Y-3.4731
M16
G05
G00X5.9094Y-3.4494
M15
G01X5.9094Y-3.4731
M16
G05
G00X6.0984Y-3.4494
M15
G01X6.0984Y-3.4731
M16
G05
G00X5.063Y-1.8465
M15
G01X5.063Y-1.8701
M16
G05
G00X5.2402Y-1.8465
M15
G01X5.2402Y-1.8701
M16
G05
G00X5.4291Y-1.8465
M15
G01X5.4291Y-1.8701
M16
G05
G00X5.7323Y-2.65
M15
G01X5.7323Y-2.6736
M16
G05
G00X5.9094Y-2.65
M15
G01X5.9094Y-2.6736
M16
G05
G00X6.0984Y-2.65
M15
G01X6.0984Y-2.6736
M16
G05
G00X5.7323Y-5.448
M15
G01X5.7323Y-5.4716
M16
G05
G00X5.9094Y-5.448
M15
G01X5.9094Y-5.4716
M16
G05
G00X6.0984Y-5.448
M15
G01X6.0984Y-5.4716
M16
G05
G00X5.063Y-2.2503
M15
G01X5.063Y-2.2739
M16
G05
G00X5.2402Y-2.2503
M15
G01X5.2402Y-2.2739
M16
G05
G00X5.4291Y-2.2503
M15
G01X5.4291Y-2.2739
M16
G05
G00X5.7323Y-3.8492
M15
G01X5.7323Y-3.8728
M16
G05
G00X5.9094Y-3.8492
M15
G01X5.9094Y-3.8728
M16
G05
G00X6.0984Y-3.8492
M15
G01X6.0984Y-3.8728
M16
G05
G00X5.7323Y-1.0512
M15
G01X5.7323Y-1.0748
M16
G05
G00X5.9094Y-1.0512
M15
G01X5.9094Y-1.0748
M16
G05
G00X6.0984Y-1.0512
M15
G01X6.0984Y-1.0748
M16
G05
T0
M30
