M48
; DRILL file {KiCad (5.1.6-0-10_14)} date Wednesday, September 16, 2020 at 10:10:39 AM
; FORMAT={-:-/ absolute / metric / decimal}
; #@! TF.CreationDate,2020-09-16T10:10:39+02:00
; #@! TF.GenerationSoftware,Kicad,Pcbnew,(5.1.6-0-10_14)
FMAT,2
METRIC
T1C1.000
T2C1.500
T3C2.000
T4C2.700
%
G90
G05
T1
X135.812Y-82.804
X135.812Y-85.344
X135.812Y-87.884
X135.812Y-90.424
X135.812Y-92.964
X135.812Y-95.504
X135.812Y-98.044
X135.812Y-100.584
X135.812Y-103.124
X135.812Y-105.664
X135.812Y-108.204
X135.812Y-110.744
X135.812Y-113.284
X135.812Y-115.824
X135.812Y-118.364
X135.812Y-120.904
X135.812Y-123.444
X135.812Y-125.984
X135.812Y-128.524
X135.812Y-131.064
T2
X145.6Y-90.7
X150.1Y-90.7
X154.9Y-90.7
X145.6Y-115.425
X150.1Y-115.425
X154.9Y-115.425
X145.6Y-140.15
X150.1Y-140.15
X154.9Y-140.15
X145.6Y-74.217
X150.1Y-74.217
X154.9Y-74.217
X145.6Y-82.458
X150.1Y-82.458
X154.9Y-82.458
X145.6Y-107.183
X150.1Y-107.183
X154.9Y-107.183
X145.6Y-65.975
X150.1Y-65.975
X154.9Y-65.975
X145.6Y-98.942
X150.1Y-98.942
X154.9Y-98.942
X145.6Y-41.25
X150.1Y-41.25
X154.9Y-41.25
X145.6Y-131.908
X150.1Y-131.908
X154.9Y-131.908
X145.6Y-123.667
X150.1Y-123.667
X154.9Y-123.667
X145.6Y-49.492
X150.1Y-49.492
X154.9Y-49.492
X145.6Y-57.733
X150.1Y-57.733
X154.9Y-57.733
T3
X136.5Y-147.0
T4
X152.25Y-147.75
T0
M30
