%TF.GenerationSoftware,KiCad,Pcbnew,(5.1.6-0-10_14)*%
%TF.CreationDate,2020-08-23T22:04:21+02:00*%
%TF.ProjectId,cv_expander,63765f65-7870-4616-9e64-65722e6b6963,rev?*%
%TF.SameCoordinates,Original*%
%TF.FileFunction,Soldermask,Bot*%
%TF.FilePolarity,Negative*%
%FSLAX46Y46*%
G04 Gerber Fmt 4.6, Leading zero omitted, Abs format (unit mm)*
G04 Created by KiCad (PCBNEW (5.1.6-0-10_14)) date 2020-08-23 22:04:21*
%MOMM*%
%LPD*%
G01*
G04 APERTURE LIST*
%ADD10C,1.700000*%
%ADD11C,3.000000*%
%ADD12O,1.700000X1.700000*%
%ADD13R,1.700000X1.700000*%
%ADD14C,5.400000*%
G04 APERTURE END LIST*
D10*
%TO.C,J7*%
X155100000Y-106791665D03*
X150300000Y-106791665D03*
X145800000Y-106791665D03*
%TD*%
%TO.C,J6*%
X155100000Y-101833332D03*
X150300000Y-101833332D03*
X145800000Y-101833332D03*
%TD*%
%TO.C,J5*%
X155100000Y-96874999D03*
X150300000Y-96874999D03*
X145800000Y-96874999D03*
%TD*%
%TO.C,J4*%
X155100000Y-91916666D03*
X150300000Y-91916666D03*
X145800000Y-91916666D03*
%TD*%
%TO.C,J3*%
X155100000Y-86958333D03*
X150300000Y-86958333D03*
X145800000Y-86958333D03*
%TD*%
%TO.C,J2*%
X155100000Y-82000000D03*
X150300000Y-82000000D03*
X145800000Y-82000000D03*
%TD*%
%TO.C,J14*%
X155100000Y-141500000D03*
X150300000Y-141500000D03*
X145800000Y-141500000D03*
%TD*%
%TO.C,J13*%
X155100000Y-136541663D03*
X150300000Y-136541663D03*
X145800000Y-136541663D03*
%TD*%
%TO.C,J12*%
X155100000Y-131583330D03*
X150300000Y-131583330D03*
X145800000Y-131583330D03*
%TD*%
%TO.C,J11*%
X155100000Y-126624997D03*
X150300000Y-126624997D03*
X145800000Y-126624997D03*
%TD*%
%TO.C,J10*%
X155100000Y-121666664D03*
X150300000Y-121666664D03*
X145800000Y-121666664D03*
%TD*%
%TO.C,J9*%
X155100000Y-116708331D03*
X150300000Y-116708331D03*
X145800000Y-116708331D03*
%TD*%
%TO.C,J8*%
X155100000Y-111749998D03*
X150300000Y-111749998D03*
X145800000Y-111749998D03*
%TD*%
D11*
%TO.C,GND*%
X136500000Y-147000000D03*
%TD*%
D12*
%TO.C,J1*%
X135812000Y-131064000D03*
X135812000Y-128524000D03*
X135812000Y-125984000D03*
X135812000Y-123444000D03*
X135812000Y-120904000D03*
X135812000Y-118364000D03*
X135812000Y-115824000D03*
X135812000Y-113284000D03*
X135812000Y-110744000D03*
X135812000Y-108204000D03*
X135812000Y-105664000D03*
X135812000Y-103124000D03*
X135812000Y-100584000D03*
X135812000Y-98044000D03*
X135812000Y-95504000D03*
X135812000Y-92964000D03*
X135812000Y-90424000D03*
X135812000Y-87884000D03*
X135812000Y-85344000D03*
D13*
X135812000Y-82804000D03*
%TD*%
D14*
%TO.C,H1*%
X152250000Y-147750000D03*
%TD*%
M02*
