M48
; DRILL file {KiCad (5.1.6-0-10_14)} date Sunday, August 23, 2020 at 10:04:23 PM
; FORMAT={-:-/ absolute / metric / decimal}
; #@! TF.CreationDate,2020-08-23T22:04:23+02:00
; #@! TF.GenerationSoftware,Kicad,Pcbnew,(5.1.6-0-10_14)
FMAT,2
METRIC
T1C1.000
T2C1.100
T3C2.000
T4C2.700
%
G90
G05
T1
X135.812Y-82.804
X135.812Y-85.344
X135.812Y-87.884
X135.812Y-90.424
X135.812Y-92.964
X135.812Y-95.504
X135.812Y-98.044
X135.812Y-100.584
X135.812Y-103.124
X135.812Y-105.664
X135.812Y-108.204
X135.812Y-110.744
X135.812Y-113.284
X135.812Y-115.824
X135.812Y-118.364
X135.812Y-120.904
X135.812Y-123.444
X135.812Y-125.984
X135.812Y-128.524
X135.812Y-131.064
T2
X145.8Y-106.792
X150.3Y-106.792
X155.1Y-106.792
X145.8Y-126.625
X150.3Y-126.625
X155.1Y-126.625
X145.8Y-116.708
X150.3Y-116.708
X155.1Y-116.708
X145.8Y-141.5
X150.3Y-141.5
X155.1Y-141.5
X145.8Y-101.833
X150.3Y-101.833
X155.1Y-101.833
X145.8Y-136.542
X150.3Y-136.542
X155.1Y-136.542
X145.8Y-86.958
X150.3Y-86.958
X155.1Y-86.958
X145.8Y-96.875
X150.3Y-96.875
X155.1Y-96.875
X145.8Y-121.667
X150.3Y-121.667
X155.1Y-121.667
X145.8Y-131.583
X150.3Y-131.583
X155.1Y-131.583
X145.8Y-111.75
X150.3Y-111.75
X155.1Y-111.75
X145.8Y-82.0
X150.3Y-82.0
X155.1Y-82.0
X145.8Y-91.917
X150.3Y-91.917
X155.1Y-91.917
T3
X136.5Y-147.0
T4
X152.25Y-147.75
T0
M30
