%TF.GenerationSoftware,KiCad,Pcbnew,(5.1.6-0-10_14)*%
%TF.CreationDate,2020-08-23T22:04:21+02:00*%
%TF.ProjectId,cv_expander,63765f65-7870-4616-9e64-65722e6b6963,rev?*%
%TF.SameCoordinates,Original*%
%TF.FileFunction,Legend,Top*%
%TF.FilePolarity,Positive*%
%FSLAX46Y46*%
G04 Gerber Fmt 4.6, Leading zero omitted, Abs format (unit mm)*
G04 Created by KiCad (PCBNEW (5.1.6-0-10_14)) date 2020-08-23 22:04:21*
%MOMM*%
%LPD*%
G01*
G04 APERTURE LIST*
%ADD10C,0.150000*%
%ADD11C,0.125000*%
%ADD12C,0.120000*%
G04 APERTURE END LIST*
D10*
X132000000Y-144250000D02*
X157000000Y-144250000D01*
D11*
X140857142Y-143089285D02*
X140428571Y-143089285D01*
X140642857Y-143089285D02*
X140642857Y-142339285D01*
X140571428Y-142446428D01*
X140500000Y-142517857D01*
X140428571Y-142553571D01*
X141107142Y-142339285D02*
X141571428Y-142339285D01*
X141321428Y-142625000D01*
X141428571Y-142625000D01*
X141500000Y-142660714D01*
X141535714Y-142696428D01*
X141571428Y-142767857D01*
X141571428Y-142946428D01*
X141535714Y-143017857D01*
X141500000Y-143053571D01*
X141428571Y-143089285D01*
X141214285Y-143089285D01*
X141142857Y-143053571D01*
X141107142Y-143017857D01*
X140857142Y-138339285D02*
X140428571Y-138339285D01*
X140642857Y-138339285D02*
X140642857Y-137589285D01*
X140571428Y-137696428D01*
X140500000Y-137767857D01*
X140428571Y-137803571D01*
X141142857Y-137660714D02*
X141178571Y-137625000D01*
X141250000Y-137589285D01*
X141428571Y-137589285D01*
X141500000Y-137625000D01*
X141535714Y-137660714D01*
X141571428Y-137732142D01*
X141571428Y-137803571D01*
X141535714Y-137910714D01*
X141107142Y-138339285D01*
X141571428Y-138339285D01*
X140857142Y-133339285D02*
X140428571Y-133339285D01*
X140642857Y-133339285D02*
X140642857Y-132589285D01*
X140571428Y-132696428D01*
X140500000Y-132767857D01*
X140428571Y-132803571D01*
X141571428Y-133339285D02*
X141142857Y-133339285D01*
X141357142Y-133339285D02*
X141357142Y-132589285D01*
X141285714Y-132696428D01*
X141214285Y-132767857D01*
X141142857Y-132803571D01*
X140857142Y-128339285D02*
X140428571Y-128339285D01*
X140642857Y-128339285D02*
X140642857Y-127589285D01*
X140571428Y-127696428D01*
X140500000Y-127767857D01*
X140428571Y-127803571D01*
X141321428Y-127589285D02*
X141392857Y-127589285D01*
X141464285Y-127625000D01*
X141500000Y-127660714D01*
X141535714Y-127732142D01*
X141571428Y-127875000D01*
X141571428Y-128053571D01*
X141535714Y-128196428D01*
X141500000Y-128267857D01*
X141464285Y-128303571D01*
X141392857Y-128339285D01*
X141321428Y-128339285D01*
X141250000Y-128303571D01*
X141214285Y-128267857D01*
X141178571Y-128196428D01*
X141142857Y-128053571D01*
X141142857Y-127875000D01*
X141178571Y-127732142D01*
X141214285Y-127660714D01*
X141250000Y-127625000D01*
X141321428Y-127589285D01*
X140857142Y-123589285D02*
X141000000Y-123589285D01*
X141071428Y-123553571D01*
X141107142Y-123517857D01*
X141178571Y-123410714D01*
X141214285Y-123267857D01*
X141214285Y-122982142D01*
X141178571Y-122910714D01*
X141142857Y-122875000D01*
X141071428Y-122839285D01*
X140928571Y-122839285D01*
X140857142Y-122875000D01*
X140821428Y-122910714D01*
X140785714Y-122982142D01*
X140785714Y-123160714D01*
X140821428Y-123232142D01*
X140857142Y-123267857D01*
X140928571Y-123303571D01*
X141071428Y-123303571D01*
X141142857Y-123267857D01*
X141178571Y-123232142D01*
X141214285Y-123160714D01*
X140928571Y-118160714D02*
X140857142Y-118125000D01*
X140821428Y-118089285D01*
X140785714Y-118017857D01*
X140785714Y-117982142D01*
X140821428Y-117910714D01*
X140857142Y-117875000D01*
X140928571Y-117839285D01*
X141071428Y-117839285D01*
X141142857Y-117875000D01*
X141178571Y-117910714D01*
X141214285Y-117982142D01*
X141214285Y-118017857D01*
X141178571Y-118089285D01*
X141142857Y-118125000D01*
X141071428Y-118160714D01*
X140928571Y-118160714D01*
X140857142Y-118196428D01*
X140821428Y-118232142D01*
X140785714Y-118303571D01*
X140785714Y-118446428D01*
X140821428Y-118517857D01*
X140857142Y-118553571D01*
X140928571Y-118589285D01*
X141071428Y-118589285D01*
X141142857Y-118553571D01*
X141178571Y-118517857D01*
X141214285Y-118446428D01*
X141214285Y-118303571D01*
X141178571Y-118232142D01*
X141142857Y-118196428D01*
X141071428Y-118160714D01*
X140750000Y-112839285D02*
X141250000Y-112839285D01*
X140928571Y-113589285D01*
X141142857Y-108089285D02*
X141000000Y-108089285D01*
X140928571Y-108125000D01*
X140892857Y-108160714D01*
X140821428Y-108267857D01*
X140785714Y-108410714D01*
X140785714Y-108696428D01*
X140821428Y-108767857D01*
X140857142Y-108803571D01*
X140928571Y-108839285D01*
X141071428Y-108839285D01*
X141142857Y-108803571D01*
X141178571Y-108767857D01*
X141214285Y-108696428D01*
X141214285Y-108517857D01*
X141178571Y-108446428D01*
X141142857Y-108410714D01*
X141071428Y-108375000D01*
X140928571Y-108375000D01*
X140857142Y-108410714D01*
X140821428Y-108446428D01*
X140785714Y-108517857D01*
X141178571Y-102839285D02*
X140821428Y-102839285D01*
X140785714Y-103196428D01*
X140821428Y-103160714D01*
X140892857Y-103125000D01*
X141071428Y-103125000D01*
X141142857Y-103160714D01*
X141178571Y-103196428D01*
X141214285Y-103267857D01*
X141214285Y-103446428D01*
X141178571Y-103517857D01*
X141142857Y-103553571D01*
X141071428Y-103589285D01*
X140892857Y-103589285D01*
X140821428Y-103553571D01*
X140785714Y-103517857D01*
X141142857Y-98339285D02*
X141142857Y-98839285D01*
X140964285Y-98053571D02*
X140785714Y-98589285D01*
X141250000Y-98589285D01*
X140750000Y-93339285D02*
X141214285Y-93339285D01*
X140964285Y-93625000D01*
X141071428Y-93625000D01*
X141142857Y-93660714D01*
X141178571Y-93696428D01*
X141214285Y-93767857D01*
X141214285Y-93946428D01*
X141178571Y-94017857D01*
X141142857Y-94053571D01*
X141071428Y-94089285D01*
X140857142Y-94089285D01*
X140785714Y-94053571D01*
X140750000Y-94017857D01*
X140785714Y-88160714D02*
X140821428Y-88125000D01*
X140892857Y-88089285D01*
X141071428Y-88089285D01*
X141142857Y-88125000D01*
X141178571Y-88160714D01*
X141214285Y-88232142D01*
X141214285Y-88303571D01*
X141178571Y-88410714D01*
X140750000Y-88839285D01*
X141214285Y-88839285D01*
X141214285Y-84089285D02*
X140785714Y-84089285D01*
X141000000Y-84089285D02*
X141000000Y-83339285D01*
X140928571Y-83446428D01*
X140857142Y-83517857D01*
X140785714Y-83553571D01*
X132857142Y-130339285D02*
X132428571Y-130339285D01*
X132642857Y-130339285D02*
X132642857Y-129589285D01*
X132571428Y-129696428D01*
X132500000Y-129767857D01*
X132428571Y-129803571D01*
X133107142Y-129589285D02*
X133571428Y-129589285D01*
X133321428Y-129875000D01*
X133428571Y-129875000D01*
X133500000Y-129910714D01*
X133535714Y-129946428D01*
X133571428Y-130017857D01*
X133571428Y-130196428D01*
X133535714Y-130267857D01*
X133500000Y-130303571D01*
X133428571Y-130339285D01*
X133214285Y-130339285D01*
X133142857Y-130303571D01*
X133107142Y-130267857D01*
X132857142Y-125339285D02*
X132428571Y-125339285D01*
X132642857Y-125339285D02*
X132642857Y-124589285D01*
X132571428Y-124696428D01*
X132500000Y-124767857D01*
X132428571Y-124803571D01*
X133142857Y-124660714D02*
X133178571Y-124625000D01*
X133250000Y-124589285D01*
X133428571Y-124589285D01*
X133500000Y-124625000D01*
X133535714Y-124660714D01*
X133571428Y-124732142D01*
X133571428Y-124803571D01*
X133535714Y-124910714D01*
X133107142Y-125339285D01*
X133571428Y-125339285D01*
X132857142Y-120339285D02*
X132428571Y-120339285D01*
X132642857Y-120339285D02*
X132642857Y-119589285D01*
X132571428Y-119696428D01*
X132500000Y-119767857D01*
X132428571Y-119803571D01*
X133571428Y-120339285D02*
X133142857Y-120339285D01*
X133357142Y-120339285D02*
X133357142Y-119589285D01*
X133285714Y-119696428D01*
X133214285Y-119767857D01*
X133142857Y-119803571D01*
X132857142Y-115339285D02*
X132428571Y-115339285D01*
X132642857Y-115339285D02*
X132642857Y-114589285D01*
X132571428Y-114696428D01*
X132500000Y-114767857D01*
X132428571Y-114803571D01*
X133321428Y-114589285D02*
X133392857Y-114589285D01*
X133464285Y-114625000D01*
X133500000Y-114660714D01*
X133535714Y-114732142D01*
X133571428Y-114875000D01*
X133571428Y-115053571D01*
X133535714Y-115196428D01*
X133500000Y-115267857D01*
X133464285Y-115303571D01*
X133392857Y-115339285D01*
X133321428Y-115339285D01*
X133250000Y-115303571D01*
X133214285Y-115267857D01*
X133178571Y-115196428D01*
X133142857Y-115053571D01*
X133142857Y-114875000D01*
X133178571Y-114732142D01*
X133214285Y-114660714D01*
X133250000Y-114625000D01*
X133321428Y-114589285D01*
X133357142Y-109839285D02*
X133500000Y-109839285D01*
X133571428Y-109803571D01*
X133607142Y-109767857D01*
X133678571Y-109660714D01*
X133714285Y-109517857D01*
X133714285Y-109232142D01*
X133678571Y-109160714D01*
X133642857Y-109125000D01*
X133571428Y-109089285D01*
X133428571Y-109089285D01*
X133357142Y-109125000D01*
X133321428Y-109160714D01*
X133285714Y-109232142D01*
X133285714Y-109410714D01*
X133321428Y-109482142D01*
X133357142Y-109517857D01*
X133428571Y-109553571D01*
X133571428Y-109553571D01*
X133642857Y-109517857D01*
X133678571Y-109482142D01*
X133714285Y-109410714D01*
X133428571Y-104410714D02*
X133357142Y-104375000D01*
X133321428Y-104339285D01*
X133285714Y-104267857D01*
X133285714Y-104232142D01*
X133321428Y-104160714D01*
X133357142Y-104125000D01*
X133428571Y-104089285D01*
X133571428Y-104089285D01*
X133642857Y-104125000D01*
X133678571Y-104160714D01*
X133714285Y-104232142D01*
X133714285Y-104267857D01*
X133678571Y-104339285D01*
X133642857Y-104375000D01*
X133571428Y-104410714D01*
X133428571Y-104410714D01*
X133357142Y-104446428D01*
X133321428Y-104482142D01*
X133285714Y-104553571D01*
X133285714Y-104696428D01*
X133321428Y-104767857D01*
X133357142Y-104803571D01*
X133428571Y-104839285D01*
X133571428Y-104839285D01*
X133642857Y-104803571D01*
X133678571Y-104767857D01*
X133714285Y-104696428D01*
X133714285Y-104553571D01*
X133678571Y-104482142D01*
X133642857Y-104446428D01*
X133571428Y-104410714D01*
X133250000Y-99089285D02*
X133750000Y-99089285D01*
X133428571Y-99839285D01*
D10*
X133190476Y-95202380D02*
X133000000Y-95202380D01*
X132904761Y-95250000D01*
X132857142Y-95297619D01*
X132761904Y-95440476D01*
X132714285Y-95630952D01*
X132714285Y-96011904D01*
X132761904Y-96107142D01*
X132809523Y-96154761D01*
X132904761Y-96202380D01*
X133095238Y-96202380D01*
X133190476Y-96154761D01*
X133238095Y-96107142D01*
X133285714Y-96011904D01*
X133285714Y-95773809D01*
X133238095Y-95678571D01*
X133190476Y-95630952D01*
X133095238Y-95583333D01*
X132904761Y-95583333D01*
X132809523Y-95630952D01*
X132761904Y-95678571D01*
X132714285Y-95773809D01*
X133238095Y-92602380D02*
X132761904Y-92602380D01*
X132714285Y-93078571D01*
X132761904Y-93030952D01*
X132857142Y-92983333D01*
X133095238Y-92983333D01*
X133190476Y-93030952D01*
X133238095Y-93078571D01*
X133285714Y-93173809D01*
X133285714Y-93411904D01*
X133238095Y-93507142D01*
X133190476Y-93554761D01*
X133095238Y-93602380D01*
X132857142Y-93602380D01*
X132761904Y-93554761D01*
X132714285Y-93507142D01*
X133190476Y-90335714D02*
X133190476Y-91002380D01*
X132952380Y-89954761D02*
X132714285Y-90669047D01*
X133333333Y-90669047D01*
X132666666Y-87402380D02*
X133285714Y-87402380D01*
X132952380Y-87783333D01*
X133095238Y-87783333D01*
X133190476Y-87830952D01*
X133238095Y-87878571D01*
X133285714Y-87973809D01*
X133285714Y-88211904D01*
X133238095Y-88307142D01*
X133190476Y-88354761D01*
X133095238Y-88402380D01*
X132809523Y-88402380D01*
X132714285Y-88354761D01*
X132666666Y-88307142D01*
X132714285Y-84897619D02*
X132761904Y-84850000D01*
X132857142Y-84802380D01*
X133095238Y-84802380D01*
X133190476Y-84850000D01*
X133238095Y-84897619D01*
X133285714Y-84992857D01*
X133285714Y-85088095D01*
X133238095Y-85230952D01*
X132666666Y-85802380D01*
X133285714Y-85802380D01*
X133285714Y-83202380D02*
X132714285Y-83202380D01*
X133000000Y-83202380D02*
X133000000Y-82202380D01*
X132904761Y-82345238D01*
X132809523Y-82440476D01*
X132714285Y-82488095D01*
X133000000Y-99000000D02*
X133500000Y-98500000D01*
X133000000Y-100000000D02*
X133500000Y-100500000D01*
X133000000Y-101000000D02*
X133500000Y-100500000D01*
X133000000Y-101000000D02*
X133000000Y-98000000D01*
X133000000Y-98000000D02*
X133500000Y-98500000D01*
X133000000Y-104000000D02*
X133500000Y-103500000D01*
X133000000Y-105000000D02*
X133500000Y-105500000D01*
X133000000Y-106000000D02*
X133500000Y-105500000D01*
X133000000Y-106000000D02*
X133000000Y-103000000D01*
X133000000Y-103000000D02*
X133500000Y-103500000D01*
X133000000Y-109000000D02*
X133500000Y-108500000D01*
X133000000Y-110000000D02*
X133500000Y-110500000D01*
X133000000Y-111000000D02*
X133500000Y-110500000D01*
X133000000Y-111000000D02*
X133000000Y-108000000D01*
X133000000Y-108000000D02*
X133500000Y-108500000D01*
X133000000Y-114500000D02*
X133500000Y-114000000D01*
X133000000Y-115500000D02*
X133500000Y-116000000D01*
X133000000Y-116500000D02*
X133500000Y-116000000D01*
X133000000Y-116500000D02*
X133000000Y-113500000D01*
X133000000Y-113500000D02*
X133500000Y-114000000D01*
X133000000Y-119500000D02*
X133500000Y-119000000D01*
X133000000Y-120500000D02*
X133500000Y-121000000D01*
X133000000Y-121500000D02*
X133500000Y-121000000D01*
X133000000Y-121500000D02*
X133000000Y-118500000D01*
X133000000Y-118500000D02*
X133500000Y-119000000D01*
X133000000Y-124500000D02*
X133500000Y-124000000D01*
X133000000Y-125500000D02*
X133500000Y-126000000D01*
X133000000Y-126500000D02*
X133500000Y-126000000D01*
X133000000Y-126500000D02*
X133000000Y-123500000D01*
X133000000Y-123500000D02*
X133500000Y-124000000D01*
X133000000Y-130500000D02*
X133500000Y-131000000D01*
X133000000Y-131500000D02*
X133500000Y-131000000D01*
X133000000Y-129500000D02*
X133500000Y-129000000D01*
X133000000Y-128500000D02*
X133500000Y-129000000D01*
X133000000Y-131500000D02*
X133000000Y-128500000D01*
D11*
X134797619Y-149803571D02*
X134773809Y-149827380D01*
X134702380Y-149851190D01*
X134654761Y-149851190D01*
X134583333Y-149827380D01*
X134535714Y-149779761D01*
X134511904Y-149732142D01*
X134488095Y-149636904D01*
X134488095Y-149565476D01*
X134511904Y-149470238D01*
X134535714Y-149422619D01*
X134583333Y-149375000D01*
X134654761Y-149351190D01*
X134702380Y-149351190D01*
X134773809Y-149375000D01*
X134797619Y-149398809D01*
X134940476Y-149351190D02*
X135107142Y-149851190D01*
X135273809Y-149351190D01*
X135821428Y-149589285D02*
X135988095Y-149589285D01*
X136059523Y-149851190D02*
X135821428Y-149851190D01*
X135821428Y-149351190D01*
X136059523Y-149351190D01*
X136226190Y-149851190D02*
X136488095Y-149517857D01*
X136226190Y-149517857D02*
X136488095Y-149851190D01*
X136678571Y-149517857D02*
X136678571Y-150017857D01*
X136678571Y-149541666D02*
X136726190Y-149517857D01*
X136821428Y-149517857D01*
X136869047Y-149541666D01*
X136892857Y-149565476D01*
X136916666Y-149613095D01*
X136916666Y-149755952D01*
X136892857Y-149803571D01*
X136869047Y-149827380D01*
X136821428Y-149851190D01*
X136726190Y-149851190D01*
X136678571Y-149827380D01*
X137345238Y-149851190D02*
X137345238Y-149589285D01*
X137321428Y-149541666D01*
X137273809Y-149517857D01*
X137178571Y-149517857D01*
X137130952Y-149541666D01*
X137345238Y-149827380D02*
X137297619Y-149851190D01*
X137178571Y-149851190D01*
X137130952Y-149827380D01*
X137107142Y-149779761D01*
X137107142Y-149732142D01*
X137130952Y-149684523D01*
X137178571Y-149660714D01*
X137297619Y-149660714D01*
X137345238Y-149636904D01*
X137583333Y-149517857D02*
X137583333Y-149851190D01*
X137583333Y-149565476D02*
X137607142Y-149541666D01*
X137654761Y-149517857D01*
X137726190Y-149517857D01*
X137773809Y-149541666D01*
X137797619Y-149589285D01*
X137797619Y-149851190D01*
X138250000Y-149851190D02*
X138250000Y-149351190D01*
X138250000Y-149827380D02*
X138202380Y-149851190D01*
X138107142Y-149851190D01*
X138059523Y-149827380D01*
X138035714Y-149803571D01*
X138011904Y-149755952D01*
X138011904Y-149613095D01*
X138035714Y-149565476D01*
X138059523Y-149541666D01*
X138107142Y-149517857D01*
X138202380Y-149517857D01*
X138250000Y-149541666D01*
X138678571Y-149827380D02*
X138630952Y-149851190D01*
X138535714Y-149851190D01*
X138488095Y-149827380D01*
X138464285Y-149779761D01*
X138464285Y-149589285D01*
X138488095Y-149541666D01*
X138535714Y-149517857D01*
X138630952Y-149517857D01*
X138678571Y-149541666D01*
X138702380Y-149589285D01*
X138702380Y-149636904D01*
X138464285Y-149684523D01*
X138916666Y-149851190D02*
X138916666Y-149517857D01*
X138916666Y-149613095D02*
X138940476Y-149565476D01*
X138964285Y-149541666D01*
X139011904Y-149517857D01*
X139059523Y-149517857D01*
X139535714Y-149517857D02*
X139726190Y-149517857D01*
X139607142Y-149851190D02*
X139607142Y-149422619D01*
X139630952Y-149375000D01*
X139678571Y-149351190D01*
X139726190Y-149351190D01*
X139964285Y-149851190D02*
X139916666Y-149827380D01*
X139892857Y-149803571D01*
X139869047Y-149755952D01*
X139869047Y-149613095D01*
X139892857Y-149565476D01*
X139916666Y-149541666D01*
X139964285Y-149517857D01*
X140035714Y-149517857D01*
X140083333Y-149541666D01*
X140107142Y-149565476D01*
X140130952Y-149613095D01*
X140130952Y-149755952D01*
X140107142Y-149803571D01*
X140083333Y-149827380D01*
X140035714Y-149851190D01*
X139964285Y-149851190D01*
X140345238Y-149851190D02*
X140345238Y-149517857D01*
X140345238Y-149613095D02*
X140369047Y-149565476D01*
X140392857Y-149541666D01*
X140440476Y-149517857D01*
X140488095Y-149517857D01*
X141035714Y-149851190D02*
X141035714Y-149351190D01*
X141202380Y-149708333D01*
X141369047Y-149351190D01*
X141369047Y-149851190D01*
X141678571Y-149851190D02*
X141630952Y-149827380D01*
X141607142Y-149803571D01*
X141583333Y-149755952D01*
X141583333Y-149613095D01*
X141607142Y-149565476D01*
X141630952Y-149541666D01*
X141678571Y-149517857D01*
X141750000Y-149517857D01*
X141797619Y-149541666D01*
X141821428Y-149565476D01*
X141845238Y-149613095D01*
X141845238Y-149755952D01*
X141821428Y-149803571D01*
X141797619Y-149827380D01*
X141750000Y-149851190D01*
X141678571Y-149851190D01*
X142130952Y-149851190D02*
X142083333Y-149827380D01*
X142059523Y-149803571D01*
X142035714Y-149755952D01*
X142035714Y-149613095D01*
X142059523Y-149565476D01*
X142083333Y-149541666D01*
X142130952Y-149517857D01*
X142202380Y-149517857D01*
X142250000Y-149541666D01*
X142273809Y-149565476D01*
X142297619Y-149613095D01*
X142297619Y-149755952D01*
X142273809Y-149803571D01*
X142250000Y-149827380D01*
X142202380Y-149851190D01*
X142130952Y-149851190D01*
X142726190Y-149517857D02*
X142726190Y-149922619D01*
X142702380Y-149970238D01*
X142678571Y-149994047D01*
X142630952Y-150017857D01*
X142559523Y-150017857D01*
X142511904Y-149994047D01*
X142726190Y-149827380D02*
X142678571Y-149851190D01*
X142583333Y-149851190D01*
X142535714Y-149827380D01*
X142511904Y-149803571D01*
X142488095Y-149755952D01*
X142488095Y-149613095D01*
X142511904Y-149565476D01*
X142535714Y-149541666D01*
X142583333Y-149517857D01*
X142678571Y-149517857D01*
X142726190Y-149541666D01*
X143297619Y-149351190D02*
X143416666Y-149851190D01*
X143511904Y-149494047D01*
X143607142Y-149851190D01*
X143726190Y-149351190D01*
X144107142Y-149827380D02*
X144059523Y-149851190D01*
X143964285Y-149851190D01*
X143916666Y-149827380D01*
X143892857Y-149779761D01*
X143892857Y-149589285D01*
X143916666Y-149541666D01*
X143964285Y-149517857D01*
X144059523Y-149517857D01*
X144107142Y-149541666D01*
X144130952Y-149589285D01*
X144130952Y-149636904D01*
X143892857Y-149684523D01*
X144345238Y-149851190D02*
X144345238Y-149517857D01*
X144345238Y-149613095D02*
X144369047Y-149565476D01*
X144392857Y-149541666D01*
X144440476Y-149517857D01*
X144488095Y-149517857D01*
X144654761Y-149851190D02*
X144654761Y-149351190D01*
X144702380Y-149660714D02*
X144845238Y-149851190D01*
X144845238Y-149517857D02*
X144654761Y-149708333D01*
X145035714Y-149827380D02*
X145083333Y-149851190D01*
X145178571Y-149851190D01*
X145226190Y-149827380D01*
X145250000Y-149779761D01*
X145250000Y-149755952D01*
X145226190Y-149708333D01*
X145178571Y-149684523D01*
X145107142Y-149684523D01*
X145059523Y-149660714D01*
X145035714Y-149613095D01*
X145035714Y-149589285D01*
X145059523Y-149541666D01*
X145107142Y-149517857D01*
X145178571Y-149517857D01*
X145226190Y-149541666D01*
X145392857Y-149517857D02*
X145583333Y-149517857D01*
X145464285Y-149351190D02*
X145464285Y-149779761D01*
X145488095Y-149827380D01*
X145535714Y-149851190D01*
X145583333Y-149851190D01*
X145964285Y-149851190D02*
X145964285Y-149589285D01*
X145940476Y-149541666D01*
X145892857Y-149517857D01*
X145797619Y-149517857D01*
X145750000Y-149541666D01*
X145964285Y-149827380D02*
X145916666Y-149851190D01*
X145797619Y-149851190D01*
X145750000Y-149827380D01*
X145726190Y-149779761D01*
X145726190Y-149732142D01*
X145750000Y-149684523D01*
X145797619Y-149660714D01*
X145916666Y-149660714D01*
X145964285Y-149636904D01*
X146130952Y-149517857D02*
X146321428Y-149517857D01*
X146202380Y-149351190D02*
X146202380Y-149779761D01*
X146226190Y-149827380D01*
X146273809Y-149851190D01*
X146321428Y-149851190D01*
X146416666Y-149517857D02*
X146607142Y-149517857D01*
X146488095Y-149351190D02*
X146488095Y-149779761D01*
X146511904Y-149827380D01*
X146559523Y-149851190D01*
X146607142Y-149851190D01*
X146773809Y-149660714D02*
X147154761Y-149660714D01*
X147488095Y-149351190D02*
X147535714Y-149351190D01*
X147583333Y-149375000D01*
X147607142Y-149398809D01*
X147630952Y-149446428D01*
X147654761Y-149541666D01*
X147654761Y-149660714D01*
X147630952Y-149755952D01*
X147607142Y-149803571D01*
X147583333Y-149827380D01*
X147535714Y-149851190D01*
X147488095Y-149851190D01*
X147440476Y-149827380D01*
X147416666Y-149803571D01*
X147392857Y-149755952D01*
X147369047Y-149660714D01*
X147369047Y-149541666D01*
X147392857Y-149446428D01*
X147416666Y-149398809D01*
X147440476Y-149375000D01*
X147488095Y-149351190D01*
X148130952Y-149851190D02*
X147845238Y-149851190D01*
X147988095Y-149851190D02*
X147988095Y-149351190D01*
X147940476Y-149422619D01*
X147892857Y-149470238D01*
X147845238Y-149494047D01*
X137178571Y-150345238D02*
X137130952Y-150321428D01*
X137035714Y-150321428D01*
X136988095Y-150345238D01*
X136940476Y-150392857D01*
X136916666Y-150440476D01*
X136916666Y-150535714D01*
X136940476Y-150583333D01*
X136988095Y-150630952D01*
X137035714Y-150654761D01*
X137130952Y-150654761D01*
X137178571Y-150630952D01*
X137083333Y-150154761D02*
X136964285Y-150178571D01*
X136845238Y-150250000D01*
X136773809Y-150369047D01*
X136750000Y-150488095D01*
X136773809Y-150607142D01*
X136845238Y-150726190D01*
X136964285Y-150797619D01*
X137083333Y-150821428D01*
X137202380Y-150797619D01*
X137321428Y-150726190D01*
X137392857Y-150607142D01*
X137416666Y-150488095D01*
X137392857Y-150369047D01*
X137321428Y-150250000D01*
X137202380Y-150178571D01*
X137083333Y-150154761D01*
X138011904Y-150726190D02*
X138011904Y-150226190D01*
X138297619Y-150726190D02*
X138083333Y-150440476D01*
X138297619Y-150226190D02*
X138011904Y-150511904D01*
X138726190Y-150726190D02*
X138726190Y-150464285D01*
X138702380Y-150416666D01*
X138654761Y-150392857D01*
X138559523Y-150392857D01*
X138511904Y-150416666D01*
X138726190Y-150702380D02*
X138678571Y-150726190D01*
X138559523Y-150726190D01*
X138511904Y-150702380D01*
X138488095Y-150654761D01*
X138488095Y-150607142D01*
X138511904Y-150559523D01*
X138559523Y-150535714D01*
X138678571Y-150535714D01*
X138726190Y-150511904D01*
X138964285Y-150726190D02*
X138964285Y-150392857D01*
X138964285Y-150488095D02*
X138988095Y-150440476D01*
X139011904Y-150416666D01*
X139059523Y-150392857D01*
X139107142Y-150392857D01*
X139345238Y-150726190D02*
X139297619Y-150702380D01*
X139273809Y-150654761D01*
X139273809Y-150226190D01*
X140059523Y-150226190D02*
X140059523Y-150583333D01*
X140035714Y-150654761D01*
X139988095Y-150702380D01*
X139916666Y-150726190D01*
X139869047Y-150726190D01*
X140369047Y-150726190D02*
X140321428Y-150702380D01*
X140297619Y-150678571D01*
X140273809Y-150630952D01*
X140273809Y-150488095D01*
X140297619Y-150440476D01*
X140321428Y-150416666D01*
X140369047Y-150392857D01*
X140440476Y-150392857D01*
X140488095Y-150416666D01*
X140511904Y-150440476D01*
X140535714Y-150488095D01*
X140535714Y-150630952D01*
X140511904Y-150678571D01*
X140488095Y-150702380D01*
X140440476Y-150726190D01*
X140369047Y-150726190D01*
X140750000Y-150726190D02*
X140750000Y-150226190D01*
X140964285Y-150726190D02*
X140964285Y-150464285D01*
X140940476Y-150416666D01*
X140892857Y-150392857D01*
X140821428Y-150392857D01*
X140773809Y-150416666D01*
X140750000Y-150440476D01*
X141416666Y-150726190D02*
X141416666Y-150464285D01*
X141392857Y-150416666D01*
X141345238Y-150392857D01*
X141250000Y-150392857D01*
X141202380Y-150416666D01*
X141416666Y-150702380D02*
X141369047Y-150726190D01*
X141250000Y-150726190D01*
X141202380Y-150702380D01*
X141178571Y-150654761D01*
X141178571Y-150607142D01*
X141202380Y-150559523D01*
X141250000Y-150535714D01*
X141369047Y-150535714D01*
X141416666Y-150511904D01*
X141654761Y-150392857D02*
X141654761Y-150726190D01*
X141654761Y-150440476D02*
X141678571Y-150416666D01*
X141726190Y-150392857D01*
X141797619Y-150392857D01*
X141845238Y-150416666D01*
X141869047Y-150464285D01*
X141869047Y-150726190D01*
X142107142Y-150392857D02*
X142107142Y-150726190D01*
X142107142Y-150440476D02*
X142130952Y-150416666D01*
X142178571Y-150392857D01*
X142250000Y-150392857D01*
X142297619Y-150416666D01*
X142321428Y-150464285D01*
X142321428Y-150726190D01*
X142750000Y-150702380D02*
X142702380Y-150726190D01*
X142607142Y-150726190D01*
X142559523Y-150702380D01*
X142535714Y-150654761D01*
X142535714Y-150464285D01*
X142559523Y-150416666D01*
X142607142Y-150392857D01*
X142702380Y-150392857D01*
X142750000Y-150416666D01*
X142773809Y-150464285D01*
X142773809Y-150511904D01*
X142535714Y-150559523D01*
X142964285Y-150702380D02*
X143011904Y-150726190D01*
X143107142Y-150726190D01*
X143154761Y-150702380D01*
X143178571Y-150654761D01*
X143178571Y-150630952D01*
X143154761Y-150583333D01*
X143107142Y-150559523D01*
X143035714Y-150559523D01*
X142988095Y-150535714D01*
X142964285Y-150488095D01*
X142964285Y-150464285D01*
X142988095Y-150416666D01*
X143035714Y-150392857D01*
X143107142Y-150392857D01*
X143154761Y-150416666D01*
X143916666Y-150226190D02*
X143916666Y-150583333D01*
X143892857Y-150654761D01*
X143845238Y-150702380D01*
X143773809Y-150726190D01*
X143726190Y-150726190D01*
X144226190Y-150726190D02*
X144178571Y-150702380D01*
X144154761Y-150678571D01*
X144130952Y-150630952D01*
X144130952Y-150488095D01*
X144154761Y-150440476D01*
X144178571Y-150416666D01*
X144226190Y-150392857D01*
X144297619Y-150392857D01*
X144345238Y-150416666D01*
X144369047Y-150440476D01*
X144392857Y-150488095D01*
X144392857Y-150630952D01*
X144369047Y-150678571D01*
X144345238Y-150702380D01*
X144297619Y-150726190D01*
X144226190Y-150726190D01*
X144607142Y-150392857D02*
X144607142Y-150726190D01*
X144607142Y-150440476D02*
X144630952Y-150416666D01*
X144678571Y-150392857D01*
X144750000Y-150392857D01*
X144797619Y-150416666D01*
X144821428Y-150464285D01*
X144821428Y-150726190D01*
X145273809Y-150726190D02*
X145273809Y-150226190D01*
X145273809Y-150702380D02*
X145226190Y-150726190D01*
X145130952Y-150726190D01*
X145083333Y-150702380D01*
X145059523Y-150678571D01*
X145035714Y-150630952D01*
X145035714Y-150488095D01*
X145059523Y-150440476D01*
X145083333Y-150416666D01*
X145130952Y-150392857D01*
X145226190Y-150392857D01*
X145273809Y-150416666D01*
X145702380Y-150702380D02*
X145654761Y-150726190D01*
X145559523Y-150726190D01*
X145511904Y-150702380D01*
X145488095Y-150654761D01*
X145488095Y-150464285D01*
X145511904Y-150416666D01*
X145559523Y-150392857D01*
X145654761Y-150392857D01*
X145702380Y-150416666D01*
X145726190Y-150464285D01*
X145726190Y-150511904D01*
X145488095Y-150559523D01*
X146011904Y-150726190D02*
X145964285Y-150702380D01*
X145940476Y-150654761D01*
X145940476Y-150226190D01*
X146273809Y-150726190D02*
X146226190Y-150702380D01*
X146202380Y-150654761D01*
X146202380Y-150226190D01*
X140238095Y-151267857D02*
X140357142Y-151601190D01*
X140476190Y-151267857D01*
X140666666Y-151553571D02*
X140690476Y-151577380D01*
X140666666Y-151601190D01*
X140642857Y-151577380D01*
X140666666Y-151553571D01*
X140666666Y-151601190D01*
X141380952Y-151101190D02*
X141428571Y-151101190D01*
X141476190Y-151125000D01*
X141500000Y-151148809D01*
X141523809Y-151196428D01*
X141547619Y-151291666D01*
X141547619Y-151410714D01*
X141523809Y-151505952D01*
X141500000Y-151553571D01*
X141476190Y-151577380D01*
X141428571Y-151601190D01*
X141380952Y-151601190D01*
X141333333Y-151577380D01*
X141309523Y-151553571D01*
X141285714Y-151505952D01*
X141261904Y-151410714D01*
X141261904Y-151291666D01*
X141285714Y-151196428D01*
X141309523Y-151148809D01*
X141333333Y-151125000D01*
X141380952Y-151101190D01*
X141761904Y-151553571D02*
X141785714Y-151577380D01*
X141761904Y-151601190D01*
X141738095Y-151577380D01*
X141761904Y-151553571D01*
X141761904Y-151601190D01*
X142095238Y-151101190D02*
X142142857Y-151101190D01*
X142190476Y-151125000D01*
X142214285Y-151148809D01*
X142238095Y-151196428D01*
X142261904Y-151291666D01*
X142261904Y-151410714D01*
X142238095Y-151505952D01*
X142214285Y-151553571D01*
X142190476Y-151577380D01*
X142142857Y-151601190D01*
X142095238Y-151601190D01*
X142047619Y-151577380D01*
X142023809Y-151553571D01*
X142000000Y-151505952D01*
X141976190Y-151410714D01*
X141976190Y-151291666D01*
X142000000Y-151196428D01*
X142023809Y-151148809D01*
X142047619Y-151125000D01*
X142095238Y-151101190D01*
X142738095Y-151601190D02*
X142452380Y-151601190D01*
X142595238Y-151601190D02*
X142595238Y-151101190D01*
X142547619Y-151172619D01*
X142500000Y-151220238D01*
X142452380Y-151244047D01*
D12*
%TO.C,TP2*%
X140800000Y-145800000D02*
X143200000Y-145800000D01*
X143200000Y-145800000D02*
X143200000Y-148200000D01*
X143200000Y-148200000D02*
X140800000Y-148200000D01*
X140800000Y-148200000D02*
X140800000Y-145800000D01*
%TO.C,GND*%
X138200000Y-147000000D02*
G75*
G03*
X138200000Y-147000000I-1700000J0D01*
G01*
%TO.C,J1*%
X134482000Y-81474000D02*
X135812000Y-81474000D01*
X134482000Y-82804000D02*
X134482000Y-81474000D01*
X134482000Y-84074000D02*
X137142000Y-84074000D01*
X137142000Y-84074000D02*
X137142000Y-132394000D01*
X134482000Y-84074000D02*
X134482000Y-132394000D01*
X134482000Y-132394000D02*
X137142000Y-132394000D01*
%TO.C,J7*%
X137964285Y-106672615D02*
X138214285Y-107422615D01*
X138464285Y-106672615D01*
X139142857Y-107351187D02*
X139107142Y-107386901D01*
X139000000Y-107422615D01*
X138928571Y-107422615D01*
X138821428Y-107386901D01*
X138750000Y-107315472D01*
X138714285Y-107244044D01*
X138678571Y-107101187D01*
X138678571Y-106994044D01*
X138714285Y-106851187D01*
X138750000Y-106779758D01*
X138821428Y-106708330D01*
X138928571Y-106672615D01*
X139000000Y-106672615D01*
X139107142Y-106708330D01*
X139142857Y-106744044D01*
X139714285Y-107029758D02*
X139464285Y-107029758D01*
X139464285Y-107422615D02*
X139464285Y-106672615D01*
X139821428Y-106672615D01*
X140642857Y-107208330D02*
X141000000Y-107208330D01*
X140571428Y-107422615D02*
X140821428Y-106672615D01*
X141071428Y-107422615D01*
X141642857Y-106922615D02*
X141642857Y-107422615D01*
X141321428Y-106922615D02*
X141321428Y-107315472D01*
X141357142Y-107386901D01*
X141428571Y-107422615D01*
X141535714Y-107422615D01*
X141607142Y-107386901D01*
X141642857Y-107351187D01*
X142321428Y-107422615D02*
X142321428Y-106672615D01*
X142321428Y-107386901D02*
X142250000Y-107422615D01*
X142107142Y-107422615D01*
X142035714Y-107386901D01*
X142000000Y-107351187D01*
X141964285Y-107279758D01*
X141964285Y-107065472D01*
X142000000Y-106994044D01*
X142035714Y-106958330D01*
X142107142Y-106922615D01*
X142250000Y-106922615D01*
X142321428Y-106958330D01*
X143250000Y-107422615D02*
X143250000Y-106922615D01*
X143250000Y-106672615D02*
X143214285Y-106708330D01*
X143250000Y-106744044D01*
X143285714Y-106708330D01*
X143250000Y-106672615D01*
X143250000Y-106744044D01*
X143607142Y-106922615D02*
X143607142Y-107422615D01*
X143607142Y-106994044D02*
X143642857Y-106958330D01*
X143714285Y-106922615D01*
X143821428Y-106922615D01*
X143892857Y-106958330D01*
X143928571Y-107029758D01*
X143928571Y-107422615D01*
%TO.C,J6*%
X139714285Y-102505949D02*
X139357142Y-102505949D01*
X139357142Y-101755949D01*
X140214285Y-102113092D02*
X139964285Y-102113092D01*
X139964285Y-102505949D02*
X139964285Y-101755949D01*
X140321428Y-101755949D01*
X140750000Y-101755949D02*
X140892857Y-101755949D01*
X140964285Y-101791664D01*
X141035714Y-101863092D01*
X141071428Y-102005949D01*
X141071428Y-102255949D01*
X141035714Y-102398806D01*
X140964285Y-102470235D01*
X140892857Y-102505949D01*
X140750000Y-102505949D01*
X140678571Y-102470235D01*
X140607142Y-102398806D01*
X140571428Y-102255949D01*
X140571428Y-102005949D01*
X140607142Y-101863092D01*
X140678571Y-101791664D01*
X140750000Y-101755949D01*
X141964285Y-102505949D02*
X141964285Y-102005949D01*
X141964285Y-101755949D02*
X141928571Y-101791664D01*
X141964285Y-101827378D01*
X142000000Y-101791664D01*
X141964285Y-101755949D01*
X141964285Y-101827378D01*
X142321428Y-102005949D02*
X142321428Y-102505949D01*
X142321428Y-102077378D02*
X142357142Y-102041664D01*
X142428571Y-102005949D01*
X142535714Y-102005949D01*
X142607142Y-102041664D01*
X142642857Y-102113092D01*
X142642857Y-102505949D01*
%TO.C,J5*%
X137910714Y-96839283D02*
X138160714Y-97589283D01*
X138410714Y-96839283D01*
X139089285Y-97517855D02*
X139053571Y-97553569D01*
X138946428Y-97589283D01*
X138875000Y-97589283D01*
X138767857Y-97553569D01*
X138696428Y-97482140D01*
X138660714Y-97410712D01*
X138625000Y-97267855D01*
X138625000Y-97160712D01*
X138660714Y-97017855D01*
X138696428Y-96946426D01*
X138767857Y-96874998D01*
X138875000Y-96839283D01*
X138946428Y-96839283D01*
X139053571Y-96874998D01*
X139089285Y-96910712D01*
X139553571Y-96839283D02*
X139696428Y-96839283D01*
X139767857Y-96874998D01*
X139839285Y-96946426D01*
X139875000Y-97089283D01*
X139875000Y-97339283D01*
X139839285Y-97482140D01*
X139767857Y-97553569D01*
X139696428Y-97589283D01*
X139553571Y-97589283D01*
X139482142Y-97553569D01*
X139410714Y-97482140D01*
X139375000Y-97339283D01*
X139375000Y-97089283D01*
X139410714Y-96946426D01*
X139482142Y-96874998D01*
X139553571Y-96839283D01*
X140767857Y-97196426D02*
X141017857Y-97196426D01*
X141125000Y-97589283D02*
X140767857Y-97589283D01*
X140767857Y-96839283D01*
X141125000Y-96839283D01*
X141375000Y-97589283D02*
X141767857Y-97089283D01*
X141375000Y-97089283D02*
X141767857Y-97589283D01*
X142053571Y-97089283D02*
X142053571Y-97839283D01*
X142053571Y-97124998D02*
X142125000Y-97089283D01*
X142267857Y-97089283D01*
X142339285Y-97124998D01*
X142375000Y-97160712D01*
X142410714Y-97232140D01*
X142410714Y-97446426D01*
X142375000Y-97517855D01*
X142339285Y-97553569D01*
X142267857Y-97589283D01*
X142125000Y-97589283D01*
X142053571Y-97553569D01*
X143303571Y-97589283D02*
X143303571Y-97089283D01*
X143303571Y-96839283D02*
X143267857Y-96874998D01*
X143303571Y-96910712D01*
X143339285Y-96874998D01*
X143303571Y-96839283D01*
X143303571Y-96910712D01*
X143660714Y-97089283D02*
X143660714Y-97589283D01*
X143660714Y-97160712D02*
X143696428Y-97124998D01*
X143767857Y-97089283D01*
X143875000Y-97089283D01*
X143946428Y-97124998D01*
X143982142Y-97196426D01*
X143982142Y-97589283D01*
%TO.C,J4*%
X138071428Y-91964284D02*
X138321428Y-92714284D01*
X138571428Y-91964284D01*
X139250000Y-92642856D02*
X139214285Y-92678570D01*
X139107142Y-92714284D01*
X139035714Y-92714284D01*
X138928571Y-92678570D01*
X138857142Y-92607141D01*
X138821428Y-92535713D01*
X138785714Y-92392856D01*
X138785714Y-92285713D01*
X138821428Y-92142856D01*
X138857142Y-92071427D01*
X138928571Y-91999999D01*
X139035714Y-91964284D01*
X139107142Y-91964284D01*
X139214285Y-91999999D01*
X139250000Y-92035713D01*
X139714285Y-91964284D02*
X139857142Y-91964284D01*
X139928571Y-91999999D01*
X140000000Y-92071427D01*
X140035714Y-92214284D01*
X140035714Y-92464284D01*
X140000000Y-92607141D01*
X139928571Y-92678570D01*
X139857142Y-92714284D01*
X139714285Y-92714284D01*
X139642857Y-92678570D01*
X139571428Y-92607141D01*
X139535714Y-92464284D01*
X139535714Y-92214284D01*
X139571428Y-92071427D01*
X139642857Y-91999999D01*
X139714285Y-91964284D01*
X141285714Y-92714284D02*
X140928571Y-92714284D01*
X140928571Y-91964284D01*
X141535714Y-92714284D02*
X141535714Y-92214284D01*
X141535714Y-91964284D02*
X141500000Y-91999999D01*
X141535714Y-92035713D01*
X141571428Y-91999999D01*
X141535714Y-91964284D01*
X141535714Y-92035713D01*
X141892857Y-92214284D02*
X141892857Y-92714284D01*
X141892857Y-92285713D02*
X141928571Y-92249999D01*
X142000000Y-92214284D01*
X142107142Y-92214284D01*
X142178571Y-92249999D01*
X142214285Y-92321427D01*
X142214285Y-92714284D01*
X143142857Y-92714284D02*
X143142857Y-91964284D01*
X143500000Y-92214284D02*
X143500000Y-92714284D01*
X143500000Y-92285713D02*
X143535714Y-92249999D01*
X143607142Y-92214284D01*
X143714285Y-92214284D01*
X143785714Y-92249999D01*
X143821428Y-92321427D01*
X143821428Y-92714284D01*
%TO.C,J3*%
X139250000Y-86964284D02*
X139500000Y-87714284D01*
X139750000Y-86964284D01*
X140428571Y-87642856D02*
X140392857Y-87678570D01*
X140285714Y-87714284D01*
X140214285Y-87714284D01*
X140107142Y-87678570D01*
X140035714Y-87607141D01*
X140000000Y-87535713D01*
X139964285Y-87392856D01*
X139964285Y-87285713D01*
X140000000Y-87142856D01*
X140035714Y-87071427D01*
X140107142Y-86999999D01*
X140214285Y-86964284D01*
X140285714Y-86964284D01*
X140392857Y-86999999D01*
X140428571Y-87035713D01*
X141000000Y-87321427D02*
X140750000Y-87321427D01*
X140750000Y-87714284D02*
X140750000Y-86964284D01*
X141107142Y-86964284D01*
X141964285Y-87714284D02*
X141964285Y-86964284D01*
X142321428Y-87214284D02*
X142321428Y-87714284D01*
X142321428Y-87285713D02*
X142357142Y-87249999D01*
X142428571Y-87214284D01*
X142535714Y-87214284D01*
X142607142Y-87249999D01*
X142642857Y-87321427D01*
X142642857Y-87714284D01*
%TO.C,J2*%
X139250000Y-82089285D02*
X139500000Y-82839285D01*
X139750000Y-82089285D01*
X140428571Y-82767857D02*
X140392857Y-82803571D01*
X140285714Y-82839285D01*
X140214285Y-82839285D01*
X140107142Y-82803571D01*
X140035714Y-82732142D01*
X140000000Y-82660714D01*
X139964285Y-82517857D01*
X139964285Y-82410714D01*
X140000000Y-82267857D01*
X140035714Y-82196428D01*
X140107142Y-82125000D01*
X140214285Y-82089285D01*
X140285714Y-82089285D01*
X140392857Y-82125000D01*
X140428571Y-82160714D01*
X140714285Y-82625000D02*
X141071428Y-82625000D01*
X140642857Y-82839285D02*
X140892857Y-82089285D01*
X141142857Y-82839285D01*
X141964285Y-82839285D02*
X141964285Y-82089285D01*
X142321428Y-82339285D02*
X142321428Y-82839285D01*
X142321428Y-82410714D02*
X142357142Y-82375000D01*
X142428571Y-82339285D01*
X142535714Y-82339285D01*
X142607142Y-82375000D01*
X142642857Y-82446428D01*
X142642857Y-82839285D01*
%TO.C,J14*%
X138803571Y-141089285D02*
X139053571Y-141839285D01*
X139303571Y-141089285D01*
X139982142Y-141767857D02*
X139946428Y-141803571D01*
X139839285Y-141839285D01*
X139767857Y-141839285D01*
X139660714Y-141803571D01*
X139589285Y-141732142D01*
X139553571Y-141660714D01*
X139517857Y-141517857D01*
X139517857Y-141410714D01*
X139553571Y-141267857D01*
X139589285Y-141196428D01*
X139660714Y-141125000D01*
X139767857Y-141089285D01*
X139839285Y-141089285D01*
X139946428Y-141125000D01*
X139982142Y-141160714D01*
X140446428Y-141089285D02*
X140589285Y-141089285D01*
X140660714Y-141125000D01*
X140732142Y-141196428D01*
X140767857Y-141339285D01*
X140767857Y-141589285D01*
X140732142Y-141732142D01*
X140660714Y-141803571D01*
X140589285Y-141839285D01*
X140446428Y-141839285D01*
X140375000Y-141803571D01*
X140303571Y-141732142D01*
X140267857Y-141589285D01*
X140267857Y-141339285D01*
X140303571Y-141196428D01*
X140375000Y-141125000D01*
X140446428Y-141089285D01*
X141767857Y-141839285D02*
X141696428Y-141803571D01*
X141660714Y-141767857D01*
X141625000Y-141696428D01*
X141625000Y-141482142D01*
X141660714Y-141410714D01*
X141696428Y-141375000D01*
X141767857Y-141339285D01*
X141875000Y-141339285D01*
X141946428Y-141375000D01*
X141982142Y-141410714D01*
X142017857Y-141482142D01*
X142017857Y-141696428D01*
X141982142Y-141767857D01*
X141946428Y-141803571D01*
X141875000Y-141839285D01*
X141767857Y-141839285D01*
X142660714Y-141339285D02*
X142660714Y-141839285D01*
X142339285Y-141339285D02*
X142339285Y-141732142D01*
X142375000Y-141803571D01*
X142446428Y-141839285D01*
X142553571Y-141839285D01*
X142625000Y-141803571D01*
X142660714Y-141767857D01*
X142910714Y-141339285D02*
X143196428Y-141339285D01*
X143017857Y-141089285D02*
X143017857Y-141732142D01*
X143053571Y-141803571D01*
X143125000Y-141839285D01*
X143196428Y-141839285D01*
%TO.C,J13*%
X138821428Y-136172611D02*
X139071428Y-136922611D01*
X139321428Y-136172611D01*
X140000000Y-136851183D02*
X139964285Y-136886897D01*
X139857142Y-136922611D01*
X139785714Y-136922611D01*
X139678571Y-136886897D01*
X139607142Y-136815468D01*
X139571428Y-136744040D01*
X139535714Y-136601183D01*
X139535714Y-136494040D01*
X139571428Y-136351183D01*
X139607142Y-136279754D01*
X139678571Y-136208326D01*
X139785714Y-136172611D01*
X139857142Y-136172611D01*
X139964285Y-136208326D01*
X140000000Y-136244040D01*
X140571428Y-136529754D02*
X140321428Y-136529754D01*
X140321428Y-136922611D02*
X140321428Y-136172611D01*
X140678571Y-136172611D01*
X141678571Y-136172611D02*
X141821428Y-136172611D01*
X141892857Y-136208326D01*
X141964285Y-136279754D01*
X142000000Y-136422611D01*
X142000000Y-136672611D01*
X141964285Y-136815468D01*
X141892857Y-136886897D01*
X141821428Y-136922611D01*
X141678571Y-136922611D01*
X141607142Y-136886897D01*
X141535714Y-136815468D01*
X141500000Y-136672611D01*
X141500000Y-136422611D01*
X141535714Y-136279754D01*
X141607142Y-136208326D01*
X141678571Y-136172611D01*
X142642857Y-136422611D02*
X142642857Y-136922611D01*
X142321428Y-136422611D02*
X142321428Y-136815468D01*
X142357142Y-136886897D01*
X142428571Y-136922611D01*
X142535714Y-136922611D01*
X142607142Y-136886897D01*
X142642857Y-136851183D01*
X142892857Y-136422611D02*
X143178571Y-136422611D01*
X143000000Y-136172611D02*
X143000000Y-136815468D01*
X143035714Y-136886897D01*
X143107142Y-136922611D01*
X143178571Y-136922611D01*
%TO.C,J12*%
X139285714Y-132005945D02*
X138928571Y-132005945D01*
X138928571Y-131255945D01*
X139785714Y-131613088D02*
X139535714Y-131613088D01*
X139535714Y-132005945D02*
X139535714Y-131255945D01*
X139892857Y-131255945D01*
X140321428Y-131255945D02*
X140464285Y-131255945D01*
X140535714Y-131291660D01*
X140607142Y-131363088D01*
X140642857Y-131505945D01*
X140642857Y-131755945D01*
X140607142Y-131898802D01*
X140535714Y-131970231D01*
X140464285Y-132005945D01*
X140321428Y-132005945D01*
X140250000Y-131970231D01*
X140178571Y-131898802D01*
X140142857Y-131755945D01*
X140142857Y-131505945D01*
X140178571Y-131363088D01*
X140250000Y-131291660D01*
X140321428Y-131255945D01*
X141678571Y-131255945D02*
X141821428Y-131255945D01*
X141892857Y-131291660D01*
X141964285Y-131363088D01*
X142000000Y-131505945D01*
X142000000Y-131755945D01*
X141964285Y-131898802D01*
X141892857Y-131970231D01*
X141821428Y-132005945D01*
X141678571Y-132005945D01*
X141607142Y-131970231D01*
X141535714Y-131898802D01*
X141500000Y-131755945D01*
X141500000Y-131505945D01*
X141535714Y-131363088D01*
X141607142Y-131291660D01*
X141678571Y-131255945D01*
X142642857Y-131505945D02*
X142642857Y-132005945D01*
X142321428Y-131505945D02*
X142321428Y-131898802D01*
X142357142Y-131970231D01*
X142428571Y-132005945D01*
X142535714Y-132005945D01*
X142607142Y-131970231D01*
X142642857Y-131934517D01*
X142892857Y-131505945D02*
X143178571Y-131505945D01*
X143000000Y-131255945D02*
X143000000Y-131898802D01*
X143035714Y-131970231D01*
X143107142Y-132005945D01*
X143178571Y-132005945D01*
%TO.C,J11*%
X139285714Y-126696422D02*
X139535714Y-126696422D01*
X139642857Y-127089279D02*
X139285714Y-127089279D01*
X139285714Y-126339279D01*
X139642857Y-126339279D01*
X140357142Y-126374994D02*
X140285714Y-126339279D01*
X140178571Y-126339279D01*
X140071428Y-126374994D01*
X140000000Y-126446422D01*
X139964285Y-126517851D01*
X139928571Y-126660708D01*
X139928571Y-126767851D01*
X139964285Y-126910708D01*
X140000000Y-126982136D01*
X140071428Y-127053565D01*
X140178571Y-127089279D01*
X140250000Y-127089279D01*
X140357142Y-127053565D01*
X140392857Y-127017851D01*
X140392857Y-126767851D01*
X140250000Y-126767851D01*
X141392857Y-127089279D02*
X141321428Y-127053565D01*
X141285714Y-127017851D01*
X141250000Y-126946422D01*
X141250000Y-126732136D01*
X141285714Y-126660708D01*
X141321428Y-126624994D01*
X141392857Y-126589279D01*
X141500000Y-126589279D01*
X141571428Y-126624994D01*
X141607142Y-126660708D01*
X141642857Y-126732136D01*
X141642857Y-126946422D01*
X141607142Y-127017851D01*
X141571428Y-127053565D01*
X141500000Y-127089279D01*
X141392857Y-127089279D01*
X142285714Y-126589279D02*
X142285714Y-127089279D01*
X141964285Y-126589279D02*
X141964285Y-126982136D01*
X142000000Y-127053565D01*
X142071428Y-127089279D01*
X142178571Y-127089279D01*
X142250000Y-127053565D01*
X142285714Y-127017851D01*
X142535714Y-126589279D02*
X142821428Y-126589279D01*
X142642857Y-126339279D02*
X142642857Y-126982136D01*
X142678571Y-127053565D01*
X142750000Y-127089279D01*
X142821428Y-127089279D01*
%TO.C,J10*%
X139142857Y-121458328D02*
X139071428Y-121422613D01*
X138964285Y-121422613D01*
X138857142Y-121458328D01*
X138785714Y-121529756D01*
X138750000Y-121601185D01*
X138714285Y-121744042D01*
X138714285Y-121851185D01*
X138750000Y-121994042D01*
X138785714Y-122065470D01*
X138857142Y-122136899D01*
X138964285Y-122172613D01*
X139035714Y-122172613D01*
X139142857Y-122136899D01*
X139178571Y-122101185D01*
X139178571Y-121851185D01*
X139035714Y-121851185D01*
X139821428Y-122172613D02*
X139821428Y-121779756D01*
X139785714Y-121708328D01*
X139714285Y-121672613D01*
X139571428Y-121672613D01*
X139500000Y-121708328D01*
X139821428Y-122136899D02*
X139750000Y-122172613D01*
X139571428Y-122172613D01*
X139500000Y-122136899D01*
X139464285Y-122065470D01*
X139464285Y-121994042D01*
X139500000Y-121922613D01*
X139571428Y-121886899D01*
X139750000Y-121886899D01*
X139821428Y-121851185D01*
X140071428Y-121672613D02*
X140357142Y-121672613D01*
X140178571Y-121422613D02*
X140178571Y-122065470D01*
X140214285Y-122136899D01*
X140285714Y-122172613D01*
X140357142Y-122172613D01*
X140892857Y-122136899D02*
X140821428Y-122172613D01*
X140678571Y-122172613D01*
X140607142Y-122136899D01*
X140571428Y-122065470D01*
X140571428Y-121779756D01*
X140607142Y-121708328D01*
X140678571Y-121672613D01*
X140821428Y-121672613D01*
X140892857Y-121708328D01*
X140928571Y-121779756D01*
X140928571Y-121851185D01*
X140571428Y-121922613D01*
X141928571Y-122172613D02*
X141857142Y-122136899D01*
X141821428Y-122101185D01*
X141785714Y-122029756D01*
X141785714Y-121815470D01*
X141821428Y-121744042D01*
X141857142Y-121708328D01*
X141928571Y-121672613D01*
X142035714Y-121672613D01*
X142107142Y-121708328D01*
X142142857Y-121744042D01*
X142178571Y-121815470D01*
X142178571Y-122029756D01*
X142142857Y-122101185D01*
X142107142Y-122136899D01*
X142035714Y-122172613D01*
X141928571Y-122172613D01*
X142821428Y-121672613D02*
X142821428Y-122172613D01*
X142500000Y-121672613D02*
X142500000Y-122065470D01*
X142535714Y-122136899D01*
X142607142Y-122172613D01*
X142714285Y-122172613D01*
X142785714Y-122136899D01*
X142821428Y-122101185D01*
X143071428Y-121672613D02*
X143357142Y-121672613D01*
X143178571Y-121422613D02*
X143178571Y-122065470D01*
X143214285Y-122136899D01*
X143285714Y-122172613D01*
X143357142Y-122172613D01*
%TO.C,J9*%
X138803571Y-116505947D02*
X139232142Y-116505947D01*
X139017857Y-117255947D02*
X139017857Y-116505947D01*
X139482142Y-117255947D02*
X139482142Y-116755947D01*
X139482142Y-116898804D02*
X139517857Y-116827376D01*
X139553571Y-116791662D01*
X139625000Y-116755947D01*
X139696428Y-116755947D01*
X139946428Y-117255947D02*
X139946428Y-116755947D01*
X139946428Y-116505947D02*
X139910714Y-116541662D01*
X139946428Y-116577376D01*
X139982142Y-116541662D01*
X139946428Y-116505947D01*
X139946428Y-116577376D01*
X140625000Y-116755947D02*
X140625000Y-117363090D01*
X140589285Y-117434519D01*
X140553571Y-117470233D01*
X140482142Y-117505947D01*
X140375000Y-117505947D01*
X140303571Y-117470233D01*
X140625000Y-117220233D02*
X140553571Y-117255947D01*
X140410714Y-117255947D01*
X140339285Y-117220233D01*
X140303571Y-117184519D01*
X140267857Y-117113090D01*
X140267857Y-116898804D01*
X140303571Y-116827376D01*
X140339285Y-116791662D01*
X140410714Y-116755947D01*
X140553571Y-116755947D01*
X140625000Y-116791662D01*
X141696428Y-116505947D02*
X141839285Y-116505947D01*
X141910714Y-116541662D01*
X141982142Y-116613090D01*
X142017857Y-116755947D01*
X142017857Y-117005947D01*
X141982142Y-117148804D01*
X141910714Y-117220233D01*
X141839285Y-117255947D01*
X141696428Y-117255947D01*
X141625000Y-117220233D01*
X141553571Y-117148804D01*
X141517857Y-117005947D01*
X141517857Y-116755947D01*
X141553571Y-116613090D01*
X141625000Y-116541662D01*
X141696428Y-116505947D01*
X142660714Y-116755947D02*
X142660714Y-117255947D01*
X142339285Y-116755947D02*
X142339285Y-117148804D01*
X142375000Y-117220233D01*
X142446428Y-117255947D01*
X142553571Y-117255947D01*
X142625000Y-117220233D01*
X142660714Y-117184519D01*
X142910714Y-116755947D02*
X143196428Y-116755947D01*
X143017857Y-116505947D02*
X143017857Y-117148804D01*
X143053571Y-117220233D01*
X143125000Y-117255947D01*
X143196428Y-117255947D01*
%TO.C,J8*%
X138267857Y-112339281D02*
X138267857Y-111589281D01*
X138696428Y-112339281D02*
X138375000Y-111910710D01*
X138696428Y-111589281D02*
X138267857Y-112017853D01*
X139267857Y-111946424D02*
X139375000Y-111982138D01*
X139410714Y-112017853D01*
X139446428Y-112089281D01*
X139446428Y-112196424D01*
X139410714Y-112267853D01*
X139375000Y-112303567D01*
X139303571Y-112339281D01*
X139017857Y-112339281D01*
X139017857Y-111589281D01*
X139267857Y-111589281D01*
X139339285Y-111624996D01*
X139375000Y-111660710D01*
X139410714Y-111732138D01*
X139410714Y-111803567D01*
X139375000Y-111874996D01*
X139339285Y-111910710D01*
X139267857Y-111946424D01*
X139017857Y-111946424D01*
X140767857Y-112267853D02*
X140732142Y-112303567D01*
X140625000Y-112339281D01*
X140553571Y-112339281D01*
X140446428Y-112303567D01*
X140375000Y-112232138D01*
X140339285Y-112160710D01*
X140303571Y-112017853D01*
X140303571Y-111910710D01*
X140339285Y-111767853D01*
X140375000Y-111696424D01*
X140446428Y-111624996D01*
X140553571Y-111589281D01*
X140625000Y-111589281D01*
X140732142Y-111624996D01*
X140767857Y-111660710D01*
X140982142Y-111589281D02*
X141232142Y-112339281D01*
X141482142Y-111589281D01*
X142410714Y-112339281D02*
X142339285Y-112303567D01*
X142303571Y-112267853D01*
X142267857Y-112196424D01*
X142267857Y-111982138D01*
X142303571Y-111910710D01*
X142339285Y-111874996D01*
X142410714Y-111839281D01*
X142517857Y-111839281D01*
X142589285Y-111874996D01*
X142625000Y-111910710D01*
X142660714Y-111982138D01*
X142660714Y-112196424D01*
X142625000Y-112267853D01*
X142589285Y-112303567D01*
X142517857Y-112339281D01*
X142410714Y-112339281D01*
X143303571Y-111839281D02*
X143303571Y-112339281D01*
X142982142Y-111839281D02*
X142982142Y-112232138D01*
X143017857Y-112303567D01*
X143089285Y-112339281D01*
X143196428Y-112339281D01*
X143267857Y-112303567D01*
X143303571Y-112267853D01*
X143553571Y-111839281D02*
X143839285Y-111839281D01*
X143660714Y-111589281D02*
X143660714Y-112232138D01*
X143696428Y-112303567D01*
X143767857Y-112339281D01*
X143839285Y-112339281D01*
%TO.C,GND*%
D10*
X145738095Y-146500000D02*
X145642857Y-146452380D01*
X145500000Y-146452380D01*
X145357142Y-146500000D01*
X145261904Y-146595238D01*
X145214285Y-146690476D01*
X145166666Y-146880952D01*
X145166666Y-147023809D01*
X145214285Y-147214285D01*
X145261904Y-147309523D01*
X145357142Y-147404761D01*
X145500000Y-147452380D01*
X145595238Y-147452380D01*
X145738095Y-147404761D01*
X145785714Y-147357142D01*
X145785714Y-147023809D01*
X145595238Y-147023809D01*
X146214285Y-147452380D02*
X146214285Y-146452380D01*
X146785714Y-147452380D01*
X146785714Y-146452380D01*
X147261904Y-147452380D02*
X147261904Y-146452380D01*
X147500000Y-146452380D01*
X147642857Y-146500000D01*
X147738095Y-146595238D01*
X147785714Y-146690476D01*
X147833333Y-146880952D01*
X147833333Y-147023809D01*
X147785714Y-147214285D01*
X147738095Y-147309523D01*
X147642857Y-147404761D01*
X147500000Y-147452380D01*
X147261904Y-147452380D01*
%TD*%
M02*
