%TF.GenerationSoftware,KiCad,Pcbnew,5.1.5+dfsg1-2build2*%
%TF.CreationDate,2020-08-29T23:55:17+02:00*%
%TF.ProjectId,sequencer-pcb,73657175-656e-4636-9572-2d7063622e6b,rev?*%
%TF.SameCoordinates,Original*%
%TF.FileFunction,Soldermask,Bot*%
%TF.FilePolarity,Negative*%
%FSLAX46Y46*%
G04 Gerber Fmt 4.6, Leading zero omitted, Abs format (unit mm)*
G04 Created by KiCad (PCBNEW 5.1.5+dfsg1-2build2) date 2020-08-29 23:55:17*
%MOMM*%
%LPD*%
G04 APERTURE LIST*
%ADD10R,2.600000X2.600000*%
%ADD11O,1.800000X1.800000*%
%ADD12R,1.800000X1.800000*%
%ADD13C,1.900000*%
%ADD14C,4.100000*%
%ADD15C,1.800000*%
%ADD16C,0.100000*%
%ADD17C,2.800000*%
%ADD18O,1.827200X1.827200*%
%ADD19R,1.827200X1.827200*%
%ADD20C,2.100000*%
%ADD21C,5.500000*%
%ADD22R,1.900000X1.900000*%
G04 APERTURE END LIST*
D10*
%TO.C,+5V*%
X100950000Y-75250000D03*
%TD*%
%TO.C,GND*%
X100900000Y-70475000D03*
%TD*%
%TO.C,+3V3*%
X100950000Y-65700000D03*
%TD*%
D11*
%TO.C,PWR*%
X105600000Y-70830000D03*
X105600000Y-68290000D03*
D12*
X105600000Y-65750000D03*
%TD*%
D13*
%TO.C,RV1*%
X118838000Y-97930000D03*
X121338000Y-97930000D03*
X123838000Y-97930000D03*
D14*
X116938000Y-90930000D03*
X125738000Y-90930000D03*
%TD*%
D15*
%TO.C,J2*%
X105560000Y-125860000D03*
X105560000Y-123320000D03*
X105560000Y-120780000D03*
X105560000Y-118240000D03*
X105560000Y-115700000D03*
X105560000Y-113160000D03*
X105560000Y-110620000D03*
X105560000Y-108080000D03*
X105560000Y-105540000D03*
X105560000Y-103000000D03*
X108100000Y-125860000D03*
X108100000Y-123320000D03*
X108100000Y-120780000D03*
X108100000Y-118240000D03*
X108100000Y-115700000D03*
X108100000Y-113160000D03*
X108100000Y-110620000D03*
X108100000Y-108080000D03*
X108100000Y-105540000D03*
D16*
G36*
X108761240Y-102101275D02*
G01*
X108786936Y-102105086D01*
X108812134Y-102111398D01*
X108836593Y-102120150D01*
X108860076Y-102131256D01*
X108882357Y-102144611D01*
X108903222Y-102160085D01*
X108922469Y-102177531D01*
X108939915Y-102196778D01*
X108955389Y-102217643D01*
X108968744Y-102239924D01*
X108979850Y-102263407D01*
X108988602Y-102287866D01*
X108994914Y-102313064D01*
X108998725Y-102338760D01*
X109000000Y-102364706D01*
X109000000Y-103635294D01*
X108998725Y-103661240D01*
X108994914Y-103686936D01*
X108988602Y-103712134D01*
X108979850Y-103736593D01*
X108968744Y-103760076D01*
X108955389Y-103782357D01*
X108939915Y-103803222D01*
X108922469Y-103822469D01*
X108903222Y-103839915D01*
X108882357Y-103855389D01*
X108860076Y-103868744D01*
X108836593Y-103879850D01*
X108812134Y-103888602D01*
X108786936Y-103894914D01*
X108761240Y-103898725D01*
X108735294Y-103900000D01*
X107464706Y-103900000D01*
X107438760Y-103898725D01*
X107413064Y-103894914D01*
X107387866Y-103888602D01*
X107363407Y-103879850D01*
X107339924Y-103868744D01*
X107317643Y-103855389D01*
X107296778Y-103839915D01*
X107277531Y-103822469D01*
X107260085Y-103803222D01*
X107244611Y-103782357D01*
X107231256Y-103760076D01*
X107220150Y-103736593D01*
X107211398Y-103712134D01*
X107205086Y-103686936D01*
X107201275Y-103661240D01*
X107200000Y-103635294D01*
X107200000Y-102364706D01*
X107201275Y-102338760D01*
X107205086Y-102313064D01*
X107211398Y-102287866D01*
X107220150Y-102263407D01*
X107231256Y-102239924D01*
X107244611Y-102217643D01*
X107260085Y-102196778D01*
X107277531Y-102177531D01*
X107296778Y-102160085D01*
X107317643Y-102144611D01*
X107339924Y-102131256D01*
X107363407Y-102120150D01*
X107387866Y-102111398D01*
X107413064Y-102105086D01*
X107438760Y-102101275D01*
X107464706Y-102100000D01*
X108735294Y-102100000D01*
X108761240Y-102101275D01*
G37*
%TD*%
%TO.C,J1*%
G36*
X182457240Y-101603275D02*
G01*
X182482936Y-101607086D01*
X182508134Y-101613398D01*
X182532593Y-101622150D01*
X182556076Y-101633256D01*
X182578357Y-101646611D01*
X182599222Y-101662085D01*
X182618469Y-101679531D01*
X182635915Y-101698778D01*
X182651389Y-101719643D01*
X182664744Y-101741924D01*
X182675850Y-101765407D01*
X182684602Y-101789866D01*
X182690914Y-101815064D01*
X182694725Y-101840760D01*
X182696000Y-101866706D01*
X182696000Y-103137294D01*
X182694725Y-103163240D01*
X182690914Y-103188936D01*
X182684602Y-103214134D01*
X182675850Y-103238593D01*
X182664744Y-103262076D01*
X182651389Y-103284357D01*
X182635915Y-103305222D01*
X182618469Y-103324469D01*
X182599222Y-103341915D01*
X182578357Y-103357389D01*
X182556076Y-103370744D01*
X182532593Y-103381850D01*
X182508134Y-103390602D01*
X182482936Y-103396914D01*
X182457240Y-103400725D01*
X182431294Y-103402000D01*
X181160706Y-103402000D01*
X181134760Y-103400725D01*
X181109064Y-103396914D01*
X181083866Y-103390602D01*
X181059407Y-103381850D01*
X181035924Y-103370744D01*
X181013643Y-103357389D01*
X180992778Y-103341915D01*
X180973531Y-103324469D01*
X180956085Y-103305222D01*
X180940611Y-103284357D01*
X180927256Y-103262076D01*
X180916150Y-103238593D01*
X180907398Y-103214134D01*
X180901086Y-103188936D01*
X180897275Y-103163240D01*
X180896000Y-103137294D01*
X180896000Y-101866706D01*
X180897275Y-101840760D01*
X180901086Y-101815064D01*
X180907398Y-101789866D01*
X180916150Y-101765407D01*
X180927256Y-101741924D01*
X180940611Y-101719643D01*
X180956085Y-101698778D01*
X180973531Y-101679531D01*
X180992778Y-101662085D01*
X181013643Y-101646611D01*
X181035924Y-101633256D01*
X181059407Y-101622150D01*
X181083866Y-101613398D01*
X181109064Y-101607086D01*
X181134760Y-101603275D01*
X181160706Y-101602000D01*
X182431294Y-101602000D01*
X182457240Y-101603275D01*
G37*
D15*
X181796000Y-105042000D03*
X181796000Y-107582000D03*
X181796000Y-110122000D03*
X181796000Y-112662000D03*
X181796000Y-115202000D03*
X181796000Y-117742000D03*
X181796000Y-120282000D03*
X181796000Y-122822000D03*
X181796000Y-125362000D03*
X179256000Y-102502000D03*
X179256000Y-105042000D03*
X179256000Y-107582000D03*
X179256000Y-110122000D03*
X179256000Y-112662000D03*
X179256000Y-115202000D03*
X179256000Y-117742000D03*
X179256000Y-120282000D03*
X179256000Y-122822000D03*
X179256000Y-125362000D03*
%TD*%
D16*
%TO.C,R15*%
G36*
X173510188Y-113451280D02*
G01*
X173535997Y-113455109D01*
X173561307Y-113461448D01*
X173585873Y-113470238D01*
X173609459Y-113481394D01*
X173631839Y-113494808D01*
X173652795Y-113510350D01*
X173672128Y-113527872D01*
X173689650Y-113547205D01*
X173705192Y-113568161D01*
X173718606Y-113590541D01*
X173729762Y-113614127D01*
X173738552Y-113638693D01*
X173744891Y-113664003D01*
X173748720Y-113689812D01*
X173750000Y-113715872D01*
X173750000Y-114859128D01*
X173748720Y-114885188D01*
X173744891Y-114910997D01*
X173738552Y-114936307D01*
X173729762Y-114960873D01*
X173718606Y-114984459D01*
X173705192Y-115006839D01*
X173689650Y-115027795D01*
X173672128Y-115047128D01*
X173652795Y-115064650D01*
X173631839Y-115080192D01*
X173609459Y-115093606D01*
X173585873Y-115104762D01*
X173561307Y-115113552D01*
X173535997Y-115119891D01*
X173510188Y-115123720D01*
X173484128Y-115125000D01*
X172115872Y-115125000D01*
X172089812Y-115123720D01*
X172064003Y-115119891D01*
X172038693Y-115113552D01*
X172014127Y-115104762D01*
X171990541Y-115093606D01*
X171968161Y-115080192D01*
X171947205Y-115064650D01*
X171927872Y-115047128D01*
X171910350Y-115027795D01*
X171894808Y-115006839D01*
X171881394Y-114984459D01*
X171870238Y-114960873D01*
X171861448Y-114936307D01*
X171855109Y-114910997D01*
X171851280Y-114885188D01*
X171850000Y-114859128D01*
X171850000Y-113715872D01*
X171851280Y-113689812D01*
X171855109Y-113664003D01*
X171861448Y-113638693D01*
X171870238Y-113614127D01*
X171881394Y-113590541D01*
X171894808Y-113568161D01*
X171910350Y-113547205D01*
X171927872Y-113527872D01*
X171947205Y-113510350D01*
X171968161Y-113494808D01*
X171990541Y-113481394D01*
X172014127Y-113470238D01*
X172038693Y-113461448D01*
X172064003Y-113455109D01*
X172089812Y-113451280D01*
X172115872Y-113450000D01*
X173484128Y-113450000D01*
X173510188Y-113451280D01*
G37*
G36*
X173510188Y-109276280D02*
G01*
X173535997Y-109280109D01*
X173561307Y-109286448D01*
X173585873Y-109295238D01*
X173609459Y-109306394D01*
X173631839Y-109319808D01*
X173652795Y-109335350D01*
X173672128Y-109352872D01*
X173689650Y-109372205D01*
X173705192Y-109393161D01*
X173718606Y-109415541D01*
X173729762Y-109439127D01*
X173738552Y-109463693D01*
X173744891Y-109489003D01*
X173748720Y-109514812D01*
X173750000Y-109540872D01*
X173750000Y-110684128D01*
X173748720Y-110710188D01*
X173744891Y-110735997D01*
X173738552Y-110761307D01*
X173729762Y-110785873D01*
X173718606Y-110809459D01*
X173705192Y-110831839D01*
X173689650Y-110852795D01*
X173672128Y-110872128D01*
X173652795Y-110889650D01*
X173631839Y-110905192D01*
X173609459Y-110918606D01*
X173585873Y-110929762D01*
X173561307Y-110938552D01*
X173535997Y-110944891D01*
X173510188Y-110948720D01*
X173484128Y-110950000D01*
X172115872Y-110950000D01*
X172089812Y-110948720D01*
X172064003Y-110944891D01*
X172038693Y-110938552D01*
X172014127Y-110929762D01*
X171990541Y-110918606D01*
X171968161Y-110905192D01*
X171947205Y-110889650D01*
X171927872Y-110872128D01*
X171910350Y-110852795D01*
X171894808Y-110831839D01*
X171881394Y-110809459D01*
X171870238Y-110785873D01*
X171861448Y-110761307D01*
X171855109Y-110735997D01*
X171851280Y-110710188D01*
X171850000Y-110684128D01*
X171850000Y-109540872D01*
X171851280Y-109514812D01*
X171855109Y-109489003D01*
X171861448Y-109463693D01*
X171870238Y-109439127D01*
X171881394Y-109415541D01*
X171894808Y-109393161D01*
X171910350Y-109372205D01*
X171927872Y-109352872D01*
X171947205Y-109335350D01*
X171968161Y-109319808D01*
X171990541Y-109306394D01*
X172014127Y-109295238D01*
X172038693Y-109286448D01*
X172064003Y-109280109D01*
X172089812Y-109276280D01*
X172115872Y-109275000D01*
X173484128Y-109275000D01*
X173510188Y-109276280D01*
G37*
%TD*%
%TO.C,R22*%
G36*
X188810188Y-82517946D02*
G01*
X188835997Y-82521775D01*
X188861307Y-82528114D01*
X188885873Y-82536904D01*
X188909459Y-82548060D01*
X188931839Y-82561474D01*
X188952795Y-82577016D01*
X188972128Y-82594538D01*
X188989650Y-82613871D01*
X189005192Y-82634827D01*
X189018606Y-82657207D01*
X189029762Y-82680793D01*
X189038552Y-82705359D01*
X189044891Y-82730669D01*
X189048720Y-82756478D01*
X189050000Y-82782538D01*
X189050000Y-83925794D01*
X189048720Y-83951854D01*
X189044891Y-83977663D01*
X189038552Y-84002973D01*
X189029762Y-84027539D01*
X189018606Y-84051125D01*
X189005192Y-84073505D01*
X188989650Y-84094461D01*
X188972128Y-84113794D01*
X188952795Y-84131316D01*
X188931839Y-84146858D01*
X188909459Y-84160272D01*
X188885873Y-84171428D01*
X188861307Y-84180218D01*
X188835997Y-84186557D01*
X188810188Y-84190386D01*
X188784128Y-84191666D01*
X187415872Y-84191666D01*
X187389812Y-84190386D01*
X187364003Y-84186557D01*
X187338693Y-84180218D01*
X187314127Y-84171428D01*
X187290541Y-84160272D01*
X187268161Y-84146858D01*
X187247205Y-84131316D01*
X187227872Y-84113794D01*
X187210350Y-84094461D01*
X187194808Y-84073505D01*
X187181394Y-84051125D01*
X187170238Y-84027539D01*
X187161448Y-84002973D01*
X187155109Y-83977663D01*
X187151280Y-83951854D01*
X187150000Y-83925794D01*
X187150000Y-82782538D01*
X187151280Y-82756478D01*
X187155109Y-82730669D01*
X187161448Y-82705359D01*
X187170238Y-82680793D01*
X187181394Y-82657207D01*
X187194808Y-82634827D01*
X187210350Y-82613871D01*
X187227872Y-82594538D01*
X187247205Y-82577016D01*
X187268161Y-82561474D01*
X187290541Y-82548060D01*
X187314127Y-82536904D01*
X187338693Y-82528114D01*
X187364003Y-82521775D01*
X187389812Y-82517946D01*
X187415872Y-82516666D01*
X188784128Y-82516666D01*
X188810188Y-82517946D01*
G37*
G36*
X188810188Y-78342946D02*
G01*
X188835997Y-78346775D01*
X188861307Y-78353114D01*
X188885873Y-78361904D01*
X188909459Y-78373060D01*
X188931839Y-78386474D01*
X188952795Y-78402016D01*
X188972128Y-78419538D01*
X188989650Y-78438871D01*
X189005192Y-78459827D01*
X189018606Y-78482207D01*
X189029762Y-78505793D01*
X189038552Y-78530359D01*
X189044891Y-78555669D01*
X189048720Y-78581478D01*
X189050000Y-78607538D01*
X189050000Y-79750794D01*
X189048720Y-79776854D01*
X189044891Y-79802663D01*
X189038552Y-79827973D01*
X189029762Y-79852539D01*
X189018606Y-79876125D01*
X189005192Y-79898505D01*
X188989650Y-79919461D01*
X188972128Y-79938794D01*
X188952795Y-79956316D01*
X188931839Y-79971858D01*
X188909459Y-79985272D01*
X188885873Y-79996428D01*
X188861307Y-80005218D01*
X188835997Y-80011557D01*
X188810188Y-80015386D01*
X188784128Y-80016666D01*
X187415872Y-80016666D01*
X187389812Y-80015386D01*
X187364003Y-80011557D01*
X187338693Y-80005218D01*
X187314127Y-79996428D01*
X187290541Y-79985272D01*
X187268161Y-79971858D01*
X187247205Y-79956316D01*
X187227872Y-79938794D01*
X187210350Y-79919461D01*
X187194808Y-79898505D01*
X187181394Y-79876125D01*
X187170238Y-79852539D01*
X187161448Y-79827973D01*
X187155109Y-79802663D01*
X187151280Y-79776854D01*
X187150000Y-79750794D01*
X187150000Y-78607538D01*
X187151280Y-78581478D01*
X187155109Y-78555669D01*
X187161448Y-78530359D01*
X187170238Y-78505793D01*
X187181394Y-78482207D01*
X187194808Y-78459827D01*
X187210350Y-78438871D01*
X187227872Y-78419538D01*
X187247205Y-78402016D01*
X187268161Y-78386474D01*
X187290541Y-78373060D01*
X187314127Y-78361904D01*
X187338693Y-78353114D01*
X187364003Y-78346775D01*
X187389812Y-78342946D01*
X187415872Y-78341666D01*
X188784128Y-78341666D01*
X188810188Y-78342946D01*
G37*
%TD*%
%TO.C,R21*%
G36*
X188810188Y-73284613D02*
G01*
X188835997Y-73288442D01*
X188861307Y-73294781D01*
X188885873Y-73303571D01*
X188909459Y-73314727D01*
X188931839Y-73328141D01*
X188952795Y-73343683D01*
X188972128Y-73361205D01*
X188989650Y-73380538D01*
X189005192Y-73401494D01*
X189018606Y-73423874D01*
X189029762Y-73447460D01*
X189038552Y-73472026D01*
X189044891Y-73497336D01*
X189048720Y-73523145D01*
X189050000Y-73549205D01*
X189050000Y-74692461D01*
X189048720Y-74718521D01*
X189044891Y-74744330D01*
X189038552Y-74769640D01*
X189029762Y-74794206D01*
X189018606Y-74817792D01*
X189005192Y-74840172D01*
X188989650Y-74861128D01*
X188972128Y-74880461D01*
X188952795Y-74897983D01*
X188931839Y-74913525D01*
X188909459Y-74926939D01*
X188885873Y-74938095D01*
X188861307Y-74946885D01*
X188835997Y-74953224D01*
X188810188Y-74957053D01*
X188784128Y-74958333D01*
X187415872Y-74958333D01*
X187389812Y-74957053D01*
X187364003Y-74953224D01*
X187338693Y-74946885D01*
X187314127Y-74938095D01*
X187290541Y-74926939D01*
X187268161Y-74913525D01*
X187247205Y-74897983D01*
X187227872Y-74880461D01*
X187210350Y-74861128D01*
X187194808Y-74840172D01*
X187181394Y-74817792D01*
X187170238Y-74794206D01*
X187161448Y-74769640D01*
X187155109Y-74744330D01*
X187151280Y-74718521D01*
X187150000Y-74692461D01*
X187150000Y-73549205D01*
X187151280Y-73523145D01*
X187155109Y-73497336D01*
X187161448Y-73472026D01*
X187170238Y-73447460D01*
X187181394Y-73423874D01*
X187194808Y-73401494D01*
X187210350Y-73380538D01*
X187227872Y-73361205D01*
X187247205Y-73343683D01*
X187268161Y-73328141D01*
X187290541Y-73314727D01*
X187314127Y-73303571D01*
X187338693Y-73294781D01*
X187364003Y-73288442D01*
X187389812Y-73284613D01*
X187415872Y-73283333D01*
X188784128Y-73283333D01*
X188810188Y-73284613D01*
G37*
G36*
X188810188Y-69109613D02*
G01*
X188835997Y-69113442D01*
X188861307Y-69119781D01*
X188885873Y-69128571D01*
X188909459Y-69139727D01*
X188931839Y-69153141D01*
X188952795Y-69168683D01*
X188972128Y-69186205D01*
X188989650Y-69205538D01*
X189005192Y-69226494D01*
X189018606Y-69248874D01*
X189029762Y-69272460D01*
X189038552Y-69297026D01*
X189044891Y-69322336D01*
X189048720Y-69348145D01*
X189050000Y-69374205D01*
X189050000Y-70517461D01*
X189048720Y-70543521D01*
X189044891Y-70569330D01*
X189038552Y-70594640D01*
X189029762Y-70619206D01*
X189018606Y-70642792D01*
X189005192Y-70665172D01*
X188989650Y-70686128D01*
X188972128Y-70705461D01*
X188952795Y-70722983D01*
X188931839Y-70738525D01*
X188909459Y-70751939D01*
X188885873Y-70763095D01*
X188861307Y-70771885D01*
X188835997Y-70778224D01*
X188810188Y-70782053D01*
X188784128Y-70783333D01*
X187415872Y-70783333D01*
X187389812Y-70782053D01*
X187364003Y-70778224D01*
X187338693Y-70771885D01*
X187314127Y-70763095D01*
X187290541Y-70751939D01*
X187268161Y-70738525D01*
X187247205Y-70722983D01*
X187227872Y-70705461D01*
X187210350Y-70686128D01*
X187194808Y-70665172D01*
X187181394Y-70642792D01*
X187170238Y-70619206D01*
X187161448Y-70594640D01*
X187155109Y-70569330D01*
X187151280Y-70543521D01*
X187150000Y-70517461D01*
X187150000Y-69374205D01*
X187151280Y-69348145D01*
X187155109Y-69322336D01*
X187161448Y-69297026D01*
X187170238Y-69272460D01*
X187181394Y-69248874D01*
X187194808Y-69226494D01*
X187210350Y-69205538D01*
X187227872Y-69186205D01*
X187247205Y-69168683D01*
X187268161Y-69153141D01*
X187290541Y-69139727D01*
X187314127Y-69128571D01*
X187338693Y-69119781D01*
X187364003Y-69113442D01*
X187389812Y-69109613D01*
X187415872Y-69108333D01*
X188784128Y-69108333D01*
X188810188Y-69109613D01*
G37*
%TD*%
%TO.C,R20*%
G36*
X174010188Y-55151280D02*
G01*
X174035997Y-55155109D01*
X174061307Y-55161448D01*
X174085873Y-55170238D01*
X174109459Y-55181394D01*
X174131839Y-55194808D01*
X174152795Y-55210350D01*
X174172128Y-55227872D01*
X174189650Y-55247205D01*
X174205192Y-55268161D01*
X174218606Y-55290541D01*
X174229762Y-55314127D01*
X174238552Y-55338693D01*
X174244891Y-55364003D01*
X174248720Y-55389812D01*
X174250000Y-55415872D01*
X174250000Y-56559128D01*
X174248720Y-56585188D01*
X174244891Y-56610997D01*
X174238552Y-56636307D01*
X174229762Y-56660873D01*
X174218606Y-56684459D01*
X174205192Y-56706839D01*
X174189650Y-56727795D01*
X174172128Y-56747128D01*
X174152795Y-56764650D01*
X174131839Y-56780192D01*
X174109459Y-56793606D01*
X174085873Y-56804762D01*
X174061307Y-56813552D01*
X174035997Y-56819891D01*
X174010188Y-56823720D01*
X173984128Y-56825000D01*
X172615872Y-56825000D01*
X172589812Y-56823720D01*
X172564003Y-56819891D01*
X172538693Y-56813552D01*
X172514127Y-56804762D01*
X172490541Y-56793606D01*
X172468161Y-56780192D01*
X172447205Y-56764650D01*
X172427872Y-56747128D01*
X172410350Y-56727795D01*
X172394808Y-56706839D01*
X172381394Y-56684459D01*
X172370238Y-56660873D01*
X172361448Y-56636307D01*
X172355109Y-56610997D01*
X172351280Y-56585188D01*
X172350000Y-56559128D01*
X172350000Y-55415872D01*
X172351280Y-55389812D01*
X172355109Y-55364003D01*
X172361448Y-55338693D01*
X172370238Y-55314127D01*
X172381394Y-55290541D01*
X172394808Y-55268161D01*
X172410350Y-55247205D01*
X172427872Y-55227872D01*
X172447205Y-55210350D01*
X172468161Y-55194808D01*
X172490541Y-55181394D01*
X172514127Y-55170238D01*
X172538693Y-55161448D01*
X172564003Y-55155109D01*
X172589812Y-55151280D01*
X172615872Y-55150000D01*
X173984128Y-55150000D01*
X174010188Y-55151280D01*
G37*
G36*
X174010188Y-50976280D02*
G01*
X174035997Y-50980109D01*
X174061307Y-50986448D01*
X174085873Y-50995238D01*
X174109459Y-51006394D01*
X174131839Y-51019808D01*
X174152795Y-51035350D01*
X174172128Y-51052872D01*
X174189650Y-51072205D01*
X174205192Y-51093161D01*
X174218606Y-51115541D01*
X174229762Y-51139127D01*
X174238552Y-51163693D01*
X174244891Y-51189003D01*
X174248720Y-51214812D01*
X174250000Y-51240872D01*
X174250000Y-52384128D01*
X174248720Y-52410188D01*
X174244891Y-52435997D01*
X174238552Y-52461307D01*
X174229762Y-52485873D01*
X174218606Y-52509459D01*
X174205192Y-52531839D01*
X174189650Y-52552795D01*
X174172128Y-52572128D01*
X174152795Y-52589650D01*
X174131839Y-52605192D01*
X174109459Y-52618606D01*
X174085873Y-52629762D01*
X174061307Y-52638552D01*
X174035997Y-52644891D01*
X174010188Y-52648720D01*
X173984128Y-52650000D01*
X172615872Y-52650000D01*
X172589812Y-52648720D01*
X172564003Y-52644891D01*
X172538693Y-52638552D01*
X172514127Y-52629762D01*
X172490541Y-52618606D01*
X172468161Y-52605192D01*
X172447205Y-52589650D01*
X172427872Y-52572128D01*
X172410350Y-52552795D01*
X172394808Y-52531839D01*
X172381394Y-52509459D01*
X172370238Y-52485873D01*
X172361448Y-52461307D01*
X172355109Y-52435997D01*
X172351280Y-52410188D01*
X172350000Y-52384128D01*
X172350000Y-51240872D01*
X172351280Y-51214812D01*
X172355109Y-51189003D01*
X172361448Y-51163693D01*
X172370238Y-51139127D01*
X172381394Y-51115541D01*
X172394808Y-51093161D01*
X172410350Y-51072205D01*
X172427872Y-51052872D01*
X172447205Y-51035350D01*
X172468161Y-51019808D01*
X172490541Y-51006394D01*
X172514127Y-50995238D01*
X172538693Y-50986448D01*
X172564003Y-50980109D01*
X172589812Y-50976280D01*
X172615872Y-50975000D01*
X173984128Y-50975000D01*
X174010188Y-50976280D01*
G37*
%TD*%
%TO.C,R19*%
G36*
X188810188Y-59876280D02*
G01*
X188835997Y-59880109D01*
X188861307Y-59886448D01*
X188885873Y-59895238D01*
X188909459Y-59906394D01*
X188931839Y-59919808D01*
X188952795Y-59935350D01*
X188972128Y-59952872D01*
X188989650Y-59972205D01*
X189005192Y-59993161D01*
X189018606Y-60015541D01*
X189029762Y-60039127D01*
X189038552Y-60063693D01*
X189044891Y-60089003D01*
X189048720Y-60114812D01*
X189050000Y-60140872D01*
X189050000Y-61284128D01*
X189048720Y-61310188D01*
X189044891Y-61335997D01*
X189038552Y-61361307D01*
X189029762Y-61385873D01*
X189018606Y-61409459D01*
X189005192Y-61431839D01*
X188989650Y-61452795D01*
X188972128Y-61472128D01*
X188952795Y-61489650D01*
X188931839Y-61505192D01*
X188909459Y-61518606D01*
X188885873Y-61529762D01*
X188861307Y-61538552D01*
X188835997Y-61544891D01*
X188810188Y-61548720D01*
X188784128Y-61550000D01*
X187415872Y-61550000D01*
X187389812Y-61548720D01*
X187364003Y-61544891D01*
X187338693Y-61538552D01*
X187314127Y-61529762D01*
X187290541Y-61518606D01*
X187268161Y-61505192D01*
X187247205Y-61489650D01*
X187227872Y-61472128D01*
X187210350Y-61452795D01*
X187194808Y-61431839D01*
X187181394Y-61409459D01*
X187170238Y-61385873D01*
X187161448Y-61361307D01*
X187155109Y-61335997D01*
X187151280Y-61310188D01*
X187150000Y-61284128D01*
X187150000Y-60140872D01*
X187151280Y-60114812D01*
X187155109Y-60089003D01*
X187161448Y-60063693D01*
X187170238Y-60039127D01*
X187181394Y-60015541D01*
X187194808Y-59993161D01*
X187210350Y-59972205D01*
X187227872Y-59952872D01*
X187247205Y-59935350D01*
X187268161Y-59919808D01*
X187290541Y-59906394D01*
X187314127Y-59895238D01*
X187338693Y-59886448D01*
X187364003Y-59880109D01*
X187389812Y-59876280D01*
X187415872Y-59875000D01*
X188784128Y-59875000D01*
X188810188Y-59876280D01*
G37*
G36*
X188810188Y-64051280D02*
G01*
X188835997Y-64055109D01*
X188861307Y-64061448D01*
X188885873Y-64070238D01*
X188909459Y-64081394D01*
X188931839Y-64094808D01*
X188952795Y-64110350D01*
X188972128Y-64127872D01*
X188989650Y-64147205D01*
X189005192Y-64168161D01*
X189018606Y-64190541D01*
X189029762Y-64214127D01*
X189038552Y-64238693D01*
X189044891Y-64264003D01*
X189048720Y-64289812D01*
X189050000Y-64315872D01*
X189050000Y-65459128D01*
X189048720Y-65485188D01*
X189044891Y-65510997D01*
X189038552Y-65536307D01*
X189029762Y-65560873D01*
X189018606Y-65584459D01*
X189005192Y-65606839D01*
X188989650Y-65627795D01*
X188972128Y-65647128D01*
X188952795Y-65664650D01*
X188931839Y-65680192D01*
X188909459Y-65693606D01*
X188885873Y-65704762D01*
X188861307Y-65713552D01*
X188835997Y-65719891D01*
X188810188Y-65723720D01*
X188784128Y-65725000D01*
X187415872Y-65725000D01*
X187389812Y-65723720D01*
X187364003Y-65719891D01*
X187338693Y-65713552D01*
X187314127Y-65704762D01*
X187290541Y-65693606D01*
X187268161Y-65680192D01*
X187247205Y-65664650D01*
X187227872Y-65647128D01*
X187210350Y-65627795D01*
X187194808Y-65606839D01*
X187181394Y-65584459D01*
X187170238Y-65560873D01*
X187161448Y-65536307D01*
X187155109Y-65510997D01*
X187151280Y-65485188D01*
X187150000Y-65459128D01*
X187150000Y-64315872D01*
X187151280Y-64289812D01*
X187155109Y-64264003D01*
X187161448Y-64238693D01*
X187170238Y-64214127D01*
X187181394Y-64190541D01*
X187194808Y-64168161D01*
X187210350Y-64147205D01*
X187227872Y-64127872D01*
X187247205Y-64110350D01*
X187268161Y-64094808D01*
X187290541Y-64081394D01*
X187314127Y-64070238D01*
X187338693Y-64061448D01*
X187364003Y-64055109D01*
X187389812Y-64051280D01*
X187415872Y-64050000D01*
X188784128Y-64050000D01*
X188810188Y-64051280D01*
G37*
%TD*%
%TO.C,R18*%
G36*
X188810188Y-91751280D02*
G01*
X188835997Y-91755109D01*
X188861307Y-91761448D01*
X188885873Y-91770238D01*
X188909459Y-91781394D01*
X188931839Y-91794808D01*
X188952795Y-91810350D01*
X188972128Y-91827872D01*
X188989650Y-91847205D01*
X189005192Y-91868161D01*
X189018606Y-91890541D01*
X189029762Y-91914127D01*
X189038552Y-91938693D01*
X189044891Y-91964003D01*
X189048720Y-91989812D01*
X189050000Y-92015872D01*
X189050000Y-93159128D01*
X189048720Y-93185188D01*
X189044891Y-93210997D01*
X189038552Y-93236307D01*
X189029762Y-93260873D01*
X189018606Y-93284459D01*
X189005192Y-93306839D01*
X188989650Y-93327795D01*
X188972128Y-93347128D01*
X188952795Y-93364650D01*
X188931839Y-93380192D01*
X188909459Y-93393606D01*
X188885873Y-93404762D01*
X188861307Y-93413552D01*
X188835997Y-93419891D01*
X188810188Y-93423720D01*
X188784128Y-93425000D01*
X187415872Y-93425000D01*
X187389812Y-93423720D01*
X187364003Y-93419891D01*
X187338693Y-93413552D01*
X187314127Y-93404762D01*
X187290541Y-93393606D01*
X187268161Y-93380192D01*
X187247205Y-93364650D01*
X187227872Y-93347128D01*
X187210350Y-93327795D01*
X187194808Y-93306839D01*
X187181394Y-93284459D01*
X187170238Y-93260873D01*
X187161448Y-93236307D01*
X187155109Y-93210997D01*
X187151280Y-93185188D01*
X187150000Y-93159128D01*
X187150000Y-92015872D01*
X187151280Y-91989812D01*
X187155109Y-91964003D01*
X187161448Y-91938693D01*
X187170238Y-91914127D01*
X187181394Y-91890541D01*
X187194808Y-91868161D01*
X187210350Y-91847205D01*
X187227872Y-91827872D01*
X187247205Y-91810350D01*
X187268161Y-91794808D01*
X187290541Y-91781394D01*
X187314127Y-91770238D01*
X187338693Y-91761448D01*
X187364003Y-91755109D01*
X187389812Y-91751280D01*
X187415872Y-91750000D01*
X188784128Y-91750000D01*
X188810188Y-91751280D01*
G37*
G36*
X188810188Y-87576280D02*
G01*
X188835997Y-87580109D01*
X188861307Y-87586448D01*
X188885873Y-87595238D01*
X188909459Y-87606394D01*
X188931839Y-87619808D01*
X188952795Y-87635350D01*
X188972128Y-87652872D01*
X188989650Y-87672205D01*
X189005192Y-87693161D01*
X189018606Y-87715541D01*
X189029762Y-87739127D01*
X189038552Y-87763693D01*
X189044891Y-87789003D01*
X189048720Y-87814812D01*
X189050000Y-87840872D01*
X189050000Y-88984128D01*
X189048720Y-89010188D01*
X189044891Y-89035997D01*
X189038552Y-89061307D01*
X189029762Y-89085873D01*
X189018606Y-89109459D01*
X189005192Y-89131839D01*
X188989650Y-89152795D01*
X188972128Y-89172128D01*
X188952795Y-89189650D01*
X188931839Y-89205192D01*
X188909459Y-89218606D01*
X188885873Y-89229762D01*
X188861307Y-89238552D01*
X188835997Y-89244891D01*
X188810188Y-89248720D01*
X188784128Y-89250000D01*
X187415872Y-89250000D01*
X187389812Y-89248720D01*
X187364003Y-89244891D01*
X187338693Y-89238552D01*
X187314127Y-89229762D01*
X187290541Y-89218606D01*
X187268161Y-89205192D01*
X187247205Y-89189650D01*
X187227872Y-89172128D01*
X187210350Y-89152795D01*
X187194808Y-89131839D01*
X187181394Y-89109459D01*
X187170238Y-89085873D01*
X187161448Y-89061307D01*
X187155109Y-89035997D01*
X187151280Y-89010188D01*
X187150000Y-88984128D01*
X187150000Y-87840872D01*
X187151280Y-87814812D01*
X187155109Y-87789003D01*
X187161448Y-87763693D01*
X187170238Y-87739127D01*
X187181394Y-87715541D01*
X187194808Y-87693161D01*
X187210350Y-87672205D01*
X187227872Y-87652872D01*
X187247205Y-87635350D01*
X187268161Y-87619808D01*
X187290541Y-87606394D01*
X187314127Y-87595238D01*
X187338693Y-87586448D01*
X187364003Y-87580109D01*
X187389812Y-87576280D01*
X187415872Y-87575000D01*
X188784128Y-87575000D01*
X188810188Y-87576280D01*
G37*
%TD*%
D17*
%TO.C,OLED Display*%
X139450000Y-70550000D03*
X139450000Y-55550000D03*
X111450000Y-70550000D03*
X111450000Y-55550000D03*
D18*
X133090000Y-54550000D03*
X128010000Y-54550000D03*
X130550000Y-54550000D03*
D19*
X117850000Y-54550000D03*
D18*
X125470000Y-54550000D03*
X120390000Y-54550000D03*
X122930000Y-54550000D03*
%TD*%
D13*
%TO.C,SP3*%
X104150000Y-94900000D03*
X106650000Y-94900000D03*
X109150000Y-94900000D03*
D14*
X102250000Y-87900000D03*
X111050000Y-87900000D03*
%TD*%
%TO.C,SP2*%
X171723000Y-67026000D03*
X162923000Y-67026000D03*
D13*
X169823000Y-74026000D03*
X167323000Y-74026000D03*
X164823000Y-74026000D03*
%TD*%
%TO.C,SP1*%
X149110000Y-74026000D03*
X151610000Y-74026000D03*
X154110000Y-74026000D03*
D14*
X147210000Y-67026000D03*
X156010000Y-67026000D03*
%TD*%
%TO.C,RV8*%
X171723000Y-122426000D03*
X162923000Y-122426000D03*
D13*
X169823000Y-129426000D03*
X167323000Y-129426000D03*
X164823000Y-129426000D03*
%TD*%
%TO.C,RV7*%
X149364000Y-129426000D03*
X151864000Y-129426000D03*
X154364000Y-129426000D03*
D14*
X147464000Y-122426000D03*
X156264000Y-122426000D03*
%TD*%
D13*
%TO.C,RV6*%
X134597000Y-129426000D03*
X137097000Y-129426000D03*
X139597000Y-129426000D03*
D14*
X132697000Y-122426000D03*
X141497000Y-122426000D03*
%TD*%
D13*
%TO.C,RV5*%
X118838000Y-129426000D03*
X121338000Y-129426000D03*
X123838000Y-129426000D03*
D14*
X116938000Y-122426000D03*
X125738000Y-122426000D03*
%TD*%
%TO.C,RV4*%
X171723000Y-90930000D03*
X162923000Y-90930000D03*
D13*
X169823000Y-97930000D03*
X167323000Y-97930000D03*
X164823000Y-97930000D03*
%TD*%
%TO.C,RV3*%
X149364000Y-97930000D03*
X151864000Y-97930000D03*
X154364000Y-97930000D03*
D14*
X147464000Y-90930000D03*
X156264000Y-90930000D03*
%TD*%
D13*
%TO.C,RV2*%
X134597000Y-97930000D03*
X137097000Y-97930000D03*
X139597000Y-97930000D03*
D14*
X132697000Y-90930000D03*
X141497000Y-90930000D03*
%TD*%
D20*
%TO.C,SSW5*%
X183073000Y-51800000D03*
X183073000Y-56300000D03*
X176573000Y-51800000D03*
X176573000Y-56300000D03*
%TD*%
%TO.C,SSW1*%
X183828000Y-88278000D03*
X183828000Y-92778000D03*
X177328000Y-88278000D03*
X177328000Y-92778000D03*
%TD*%
%TO.C,SSW3*%
X183724000Y-69820666D03*
X183724000Y-74320666D03*
X177224000Y-69820666D03*
X177224000Y-74320666D03*
%TD*%
%TO.C,SSW2*%
X183724000Y-79049332D03*
X183724000Y-83549332D03*
X177224000Y-79049332D03*
X177224000Y-83549332D03*
%TD*%
%TO.C,SSW4*%
X183724000Y-60592000D03*
X183724000Y-65092000D03*
X177224000Y-60592000D03*
X177224000Y-65092000D03*
%TD*%
%TO.C,SW8*%
X164073000Y-137482000D03*
X164073000Y-132982000D03*
X170573000Y-137482000D03*
X170573000Y-132982000D03*
%TD*%
%TO.C,SW7*%
X155114000Y-132982000D03*
X155114000Y-137482000D03*
X148614000Y-132982000D03*
X148614000Y-137482000D03*
%TD*%
%TO.C,SW6*%
X140347000Y-132982000D03*
X140347000Y-137482000D03*
X133847000Y-132982000D03*
X133847000Y-137482000D03*
%TD*%
%TO.C,SW5*%
X124588000Y-132982000D03*
X124588000Y-137482000D03*
X118088000Y-132982000D03*
X118088000Y-137482000D03*
%TD*%
%TO.C,SW4*%
X164073000Y-105986000D03*
X164073000Y-101486000D03*
X170573000Y-105986000D03*
X170573000Y-101486000D03*
%TD*%
%TO.C,SW3*%
X155114000Y-101486000D03*
X155114000Y-105986000D03*
X148614000Y-101486000D03*
X148614000Y-105986000D03*
%TD*%
%TO.C,SW2*%
X140347000Y-101486000D03*
X140347000Y-105986000D03*
X133847000Y-101486000D03*
X133847000Y-105986000D03*
%TD*%
%TO.C,SW1*%
X124588000Y-101486000D03*
X124588000Y-105986000D03*
X118088000Y-101486000D03*
X118088000Y-105986000D03*
%TD*%
D16*
%TO.C,R17*%
G36*
X160310188Y-132276280D02*
G01*
X160335997Y-132280109D01*
X160361307Y-132286448D01*
X160385873Y-132295238D01*
X160409459Y-132306394D01*
X160431839Y-132319808D01*
X160452795Y-132335350D01*
X160472128Y-132352872D01*
X160489650Y-132372205D01*
X160505192Y-132393161D01*
X160518606Y-132415541D01*
X160529762Y-132439127D01*
X160538552Y-132463693D01*
X160544891Y-132489003D01*
X160548720Y-132514812D01*
X160550000Y-132540872D01*
X160550000Y-133684128D01*
X160548720Y-133710188D01*
X160544891Y-133735997D01*
X160538552Y-133761307D01*
X160529762Y-133785873D01*
X160518606Y-133809459D01*
X160505192Y-133831839D01*
X160489650Y-133852795D01*
X160472128Y-133872128D01*
X160452795Y-133889650D01*
X160431839Y-133905192D01*
X160409459Y-133918606D01*
X160385873Y-133929762D01*
X160361307Y-133938552D01*
X160335997Y-133944891D01*
X160310188Y-133948720D01*
X160284128Y-133950000D01*
X158915872Y-133950000D01*
X158889812Y-133948720D01*
X158864003Y-133944891D01*
X158838693Y-133938552D01*
X158814127Y-133929762D01*
X158790541Y-133918606D01*
X158768161Y-133905192D01*
X158747205Y-133889650D01*
X158727872Y-133872128D01*
X158710350Y-133852795D01*
X158694808Y-133831839D01*
X158681394Y-133809459D01*
X158670238Y-133785873D01*
X158661448Y-133761307D01*
X158655109Y-133735997D01*
X158651280Y-133710188D01*
X158650000Y-133684128D01*
X158650000Y-132540872D01*
X158651280Y-132514812D01*
X158655109Y-132489003D01*
X158661448Y-132463693D01*
X158670238Y-132439127D01*
X158681394Y-132415541D01*
X158694808Y-132393161D01*
X158710350Y-132372205D01*
X158727872Y-132352872D01*
X158747205Y-132335350D01*
X158768161Y-132319808D01*
X158790541Y-132306394D01*
X158814127Y-132295238D01*
X158838693Y-132286448D01*
X158864003Y-132280109D01*
X158889812Y-132276280D01*
X158915872Y-132275000D01*
X160284128Y-132275000D01*
X160310188Y-132276280D01*
G37*
G36*
X160310188Y-136451280D02*
G01*
X160335997Y-136455109D01*
X160361307Y-136461448D01*
X160385873Y-136470238D01*
X160409459Y-136481394D01*
X160431839Y-136494808D01*
X160452795Y-136510350D01*
X160472128Y-136527872D01*
X160489650Y-136547205D01*
X160505192Y-136568161D01*
X160518606Y-136590541D01*
X160529762Y-136614127D01*
X160538552Y-136638693D01*
X160544891Y-136664003D01*
X160548720Y-136689812D01*
X160550000Y-136715872D01*
X160550000Y-137859128D01*
X160548720Y-137885188D01*
X160544891Y-137910997D01*
X160538552Y-137936307D01*
X160529762Y-137960873D01*
X160518606Y-137984459D01*
X160505192Y-138006839D01*
X160489650Y-138027795D01*
X160472128Y-138047128D01*
X160452795Y-138064650D01*
X160431839Y-138080192D01*
X160409459Y-138093606D01*
X160385873Y-138104762D01*
X160361307Y-138113552D01*
X160335997Y-138119891D01*
X160310188Y-138123720D01*
X160284128Y-138125000D01*
X158915872Y-138125000D01*
X158889812Y-138123720D01*
X158864003Y-138119891D01*
X158838693Y-138113552D01*
X158814127Y-138104762D01*
X158790541Y-138093606D01*
X158768161Y-138080192D01*
X158747205Y-138064650D01*
X158727872Y-138047128D01*
X158710350Y-138027795D01*
X158694808Y-138006839D01*
X158681394Y-137984459D01*
X158670238Y-137960873D01*
X158661448Y-137936307D01*
X158655109Y-137910997D01*
X158651280Y-137885188D01*
X158650000Y-137859128D01*
X158650000Y-136715872D01*
X158651280Y-136689812D01*
X158655109Y-136664003D01*
X158661448Y-136638693D01*
X158670238Y-136614127D01*
X158681394Y-136590541D01*
X158694808Y-136568161D01*
X158710350Y-136547205D01*
X158727872Y-136527872D01*
X158747205Y-136510350D01*
X158768161Y-136494808D01*
X158790541Y-136481394D01*
X158814127Y-136470238D01*
X158838693Y-136461448D01*
X158864003Y-136455109D01*
X158889812Y-136451280D01*
X158915872Y-136450000D01*
X160284128Y-136450000D01*
X160310188Y-136451280D01*
G37*
%TD*%
%TO.C,R16*%
G36*
X145310188Y-136451280D02*
G01*
X145335997Y-136455109D01*
X145361307Y-136461448D01*
X145385873Y-136470238D01*
X145409459Y-136481394D01*
X145431839Y-136494808D01*
X145452795Y-136510350D01*
X145472128Y-136527872D01*
X145489650Y-136547205D01*
X145505192Y-136568161D01*
X145518606Y-136590541D01*
X145529762Y-136614127D01*
X145538552Y-136638693D01*
X145544891Y-136664003D01*
X145548720Y-136689812D01*
X145550000Y-136715872D01*
X145550000Y-137859128D01*
X145548720Y-137885188D01*
X145544891Y-137910997D01*
X145538552Y-137936307D01*
X145529762Y-137960873D01*
X145518606Y-137984459D01*
X145505192Y-138006839D01*
X145489650Y-138027795D01*
X145472128Y-138047128D01*
X145452795Y-138064650D01*
X145431839Y-138080192D01*
X145409459Y-138093606D01*
X145385873Y-138104762D01*
X145361307Y-138113552D01*
X145335997Y-138119891D01*
X145310188Y-138123720D01*
X145284128Y-138125000D01*
X143915872Y-138125000D01*
X143889812Y-138123720D01*
X143864003Y-138119891D01*
X143838693Y-138113552D01*
X143814127Y-138104762D01*
X143790541Y-138093606D01*
X143768161Y-138080192D01*
X143747205Y-138064650D01*
X143727872Y-138047128D01*
X143710350Y-138027795D01*
X143694808Y-138006839D01*
X143681394Y-137984459D01*
X143670238Y-137960873D01*
X143661448Y-137936307D01*
X143655109Y-137910997D01*
X143651280Y-137885188D01*
X143650000Y-137859128D01*
X143650000Y-136715872D01*
X143651280Y-136689812D01*
X143655109Y-136664003D01*
X143661448Y-136638693D01*
X143670238Y-136614127D01*
X143681394Y-136590541D01*
X143694808Y-136568161D01*
X143710350Y-136547205D01*
X143727872Y-136527872D01*
X143747205Y-136510350D01*
X143768161Y-136494808D01*
X143790541Y-136481394D01*
X143814127Y-136470238D01*
X143838693Y-136461448D01*
X143864003Y-136455109D01*
X143889812Y-136451280D01*
X143915872Y-136450000D01*
X145284128Y-136450000D01*
X145310188Y-136451280D01*
G37*
G36*
X145310188Y-132276280D02*
G01*
X145335997Y-132280109D01*
X145361307Y-132286448D01*
X145385873Y-132295238D01*
X145409459Y-132306394D01*
X145431839Y-132319808D01*
X145452795Y-132335350D01*
X145472128Y-132352872D01*
X145489650Y-132372205D01*
X145505192Y-132393161D01*
X145518606Y-132415541D01*
X145529762Y-132439127D01*
X145538552Y-132463693D01*
X145544891Y-132489003D01*
X145548720Y-132514812D01*
X145550000Y-132540872D01*
X145550000Y-133684128D01*
X145548720Y-133710188D01*
X145544891Y-133735997D01*
X145538552Y-133761307D01*
X145529762Y-133785873D01*
X145518606Y-133809459D01*
X145505192Y-133831839D01*
X145489650Y-133852795D01*
X145472128Y-133872128D01*
X145452795Y-133889650D01*
X145431839Y-133905192D01*
X145409459Y-133918606D01*
X145385873Y-133929762D01*
X145361307Y-133938552D01*
X145335997Y-133944891D01*
X145310188Y-133948720D01*
X145284128Y-133950000D01*
X143915872Y-133950000D01*
X143889812Y-133948720D01*
X143864003Y-133944891D01*
X143838693Y-133938552D01*
X143814127Y-133929762D01*
X143790541Y-133918606D01*
X143768161Y-133905192D01*
X143747205Y-133889650D01*
X143727872Y-133872128D01*
X143710350Y-133852795D01*
X143694808Y-133831839D01*
X143681394Y-133809459D01*
X143670238Y-133785873D01*
X143661448Y-133761307D01*
X143655109Y-133735997D01*
X143651280Y-133710188D01*
X143650000Y-133684128D01*
X143650000Y-132540872D01*
X143651280Y-132514812D01*
X143655109Y-132489003D01*
X143661448Y-132463693D01*
X143670238Y-132439127D01*
X143681394Y-132415541D01*
X143694808Y-132393161D01*
X143710350Y-132372205D01*
X143727872Y-132352872D01*
X143747205Y-132335350D01*
X143768161Y-132319808D01*
X143790541Y-132306394D01*
X143814127Y-132295238D01*
X143838693Y-132286448D01*
X143864003Y-132280109D01*
X143889812Y-132276280D01*
X143915872Y-132275000D01*
X145284128Y-132275000D01*
X145310188Y-132276280D01*
G37*
%TD*%
%TO.C,R14*%
G36*
X157710188Y-109276280D02*
G01*
X157735997Y-109280109D01*
X157761307Y-109286448D01*
X157785873Y-109295238D01*
X157809459Y-109306394D01*
X157831839Y-109319808D01*
X157852795Y-109335350D01*
X157872128Y-109352872D01*
X157889650Y-109372205D01*
X157905192Y-109393161D01*
X157918606Y-109415541D01*
X157929762Y-109439127D01*
X157938552Y-109463693D01*
X157944891Y-109489003D01*
X157948720Y-109514812D01*
X157950000Y-109540872D01*
X157950000Y-110684128D01*
X157948720Y-110710188D01*
X157944891Y-110735997D01*
X157938552Y-110761307D01*
X157929762Y-110785873D01*
X157918606Y-110809459D01*
X157905192Y-110831839D01*
X157889650Y-110852795D01*
X157872128Y-110872128D01*
X157852795Y-110889650D01*
X157831839Y-110905192D01*
X157809459Y-110918606D01*
X157785873Y-110929762D01*
X157761307Y-110938552D01*
X157735997Y-110944891D01*
X157710188Y-110948720D01*
X157684128Y-110950000D01*
X156315872Y-110950000D01*
X156289812Y-110948720D01*
X156264003Y-110944891D01*
X156238693Y-110938552D01*
X156214127Y-110929762D01*
X156190541Y-110918606D01*
X156168161Y-110905192D01*
X156147205Y-110889650D01*
X156127872Y-110872128D01*
X156110350Y-110852795D01*
X156094808Y-110831839D01*
X156081394Y-110809459D01*
X156070238Y-110785873D01*
X156061448Y-110761307D01*
X156055109Y-110735997D01*
X156051280Y-110710188D01*
X156050000Y-110684128D01*
X156050000Y-109540872D01*
X156051280Y-109514812D01*
X156055109Y-109489003D01*
X156061448Y-109463693D01*
X156070238Y-109439127D01*
X156081394Y-109415541D01*
X156094808Y-109393161D01*
X156110350Y-109372205D01*
X156127872Y-109352872D01*
X156147205Y-109335350D01*
X156168161Y-109319808D01*
X156190541Y-109306394D01*
X156214127Y-109295238D01*
X156238693Y-109286448D01*
X156264003Y-109280109D01*
X156289812Y-109276280D01*
X156315872Y-109275000D01*
X157684128Y-109275000D01*
X157710188Y-109276280D01*
G37*
G36*
X157710188Y-113451280D02*
G01*
X157735997Y-113455109D01*
X157761307Y-113461448D01*
X157785873Y-113470238D01*
X157809459Y-113481394D01*
X157831839Y-113494808D01*
X157852795Y-113510350D01*
X157872128Y-113527872D01*
X157889650Y-113547205D01*
X157905192Y-113568161D01*
X157918606Y-113590541D01*
X157929762Y-113614127D01*
X157938552Y-113638693D01*
X157944891Y-113664003D01*
X157948720Y-113689812D01*
X157950000Y-113715872D01*
X157950000Y-114859128D01*
X157948720Y-114885188D01*
X157944891Y-114910997D01*
X157938552Y-114936307D01*
X157929762Y-114960873D01*
X157918606Y-114984459D01*
X157905192Y-115006839D01*
X157889650Y-115027795D01*
X157872128Y-115047128D01*
X157852795Y-115064650D01*
X157831839Y-115080192D01*
X157809459Y-115093606D01*
X157785873Y-115104762D01*
X157761307Y-115113552D01*
X157735997Y-115119891D01*
X157710188Y-115123720D01*
X157684128Y-115125000D01*
X156315872Y-115125000D01*
X156289812Y-115123720D01*
X156264003Y-115119891D01*
X156238693Y-115113552D01*
X156214127Y-115104762D01*
X156190541Y-115093606D01*
X156168161Y-115080192D01*
X156147205Y-115064650D01*
X156127872Y-115047128D01*
X156110350Y-115027795D01*
X156094808Y-115006839D01*
X156081394Y-114984459D01*
X156070238Y-114960873D01*
X156061448Y-114936307D01*
X156055109Y-114910997D01*
X156051280Y-114885188D01*
X156050000Y-114859128D01*
X156050000Y-113715872D01*
X156051280Y-113689812D01*
X156055109Y-113664003D01*
X156061448Y-113638693D01*
X156070238Y-113614127D01*
X156081394Y-113590541D01*
X156094808Y-113568161D01*
X156110350Y-113547205D01*
X156127872Y-113527872D01*
X156147205Y-113510350D01*
X156168161Y-113494808D01*
X156190541Y-113481394D01*
X156214127Y-113470238D01*
X156238693Y-113461448D01*
X156264003Y-113455109D01*
X156289812Y-113451280D01*
X156315872Y-113450000D01*
X157684128Y-113450000D01*
X157710188Y-113451280D01*
G37*
%TD*%
%TO.C,R13*%
G36*
X130010188Y-136551280D02*
G01*
X130035997Y-136555109D01*
X130061307Y-136561448D01*
X130085873Y-136570238D01*
X130109459Y-136581394D01*
X130131839Y-136594808D01*
X130152795Y-136610350D01*
X130172128Y-136627872D01*
X130189650Y-136647205D01*
X130205192Y-136668161D01*
X130218606Y-136690541D01*
X130229762Y-136714127D01*
X130238552Y-136738693D01*
X130244891Y-136764003D01*
X130248720Y-136789812D01*
X130250000Y-136815872D01*
X130250000Y-137959128D01*
X130248720Y-137985188D01*
X130244891Y-138010997D01*
X130238552Y-138036307D01*
X130229762Y-138060873D01*
X130218606Y-138084459D01*
X130205192Y-138106839D01*
X130189650Y-138127795D01*
X130172128Y-138147128D01*
X130152795Y-138164650D01*
X130131839Y-138180192D01*
X130109459Y-138193606D01*
X130085873Y-138204762D01*
X130061307Y-138213552D01*
X130035997Y-138219891D01*
X130010188Y-138223720D01*
X129984128Y-138225000D01*
X128615872Y-138225000D01*
X128589812Y-138223720D01*
X128564003Y-138219891D01*
X128538693Y-138213552D01*
X128514127Y-138204762D01*
X128490541Y-138193606D01*
X128468161Y-138180192D01*
X128447205Y-138164650D01*
X128427872Y-138147128D01*
X128410350Y-138127795D01*
X128394808Y-138106839D01*
X128381394Y-138084459D01*
X128370238Y-138060873D01*
X128361448Y-138036307D01*
X128355109Y-138010997D01*
X128351280Y-137985188D01*
X128350000Y-137959128D01*
X128350000Y-136815872D01*
X128351280Y-136789812D01*
X128355109Y-136764003D01*
X128361448Y-136738693D01*
X128370238Y-136714127D01*
X128381394Y-136690541D01*
X128394808Y-136668161D01*
X128410350Y-136647205D01*
X128427872Y-136627872D01*
X128447205Y-136610350D01*
X128468161Y-136594808D01*
X128490541Y-136581394D01*
X128514127Y-136570238D01*
X128538693Y-136561448D01*
X128564003Y-136555109D01*
X128589812Y-136551280D01*
X128615872Y-136550000D01*
X129984128Y-136550000D01*
X130010188Y-136551280D01*
G37*
G36*
X130010188Y-132376280D02*
G01*
X130035997Y-132380109D01*
X130061307Y-132386448D01*
X130085873Y-132395238D01*
X130109459Y-132406394D01*
X130131839Y-132419808D01*
X130152795Y-132435350D01*
X130172128Y-132452872D01*
X130189650Y-132472205D01*
X130205192Y-132493161D01*
X130218606Y-132515541D01*
X130229762Y-132539127D01*
X130238552Y-132563693D01*
X130244891Y-132589003D01*
X130248720Y-132614812D01*
X130250000Y-132640872D01*
X130250000Y-133784128D01*
X130248720Y-133810188D01*
X130244891Y-133835997D01*
X130238552Y-133861307D01*
X130229762Y-133885873D01*
X130218606Y-133909459D01*
X130205192Y-133931839D01*
X130189650Y-133952795D01*
X130172128Y-133972128D01*
X130152795Y-133989650D01*
X130131839Y-134005192D01*
X130109459Y-134018606D01*
X130085873Y-134029762D01*
X130061307Y-134038552D01*
X130035997Y-134044891D01*
X130010188Y-134048720D01*
X129984128Y-134050000D01*
X128615872Y-134050000D01*
X128589812Y-134048720D01*
X128564003Y-134044891D01*
X128538693Y-134038552D01*
X128514127Y-134029762D01*
X128490541Y-134018606D01*
X128468161Y-134005192D01*
X128447205Y-133989650D01*
X128427872Y-133972128D01*
X128410350Y-133952795D01*
X128394808Y-133931839D01*
X128381394Y-133909459D01*
X128370238Y-133885873D01*
X128361448Y-133861307D01*
X128355109Y-133835997D01*
X128351280Y-133810188D01*
X128350000Y-133784128D01*
X128350000Y-132640872D01*
X128351280Y-132614812D01*
X128355109Y-132589003D01*
X128361448Y-132563693D01*
X128370238Y-132539127D01*
X128381394Y-132515541D01*
X128394808Y-132493161D01*
X128410350Y-132472205D01*
X128427872Y-132452872D01*
X128447205Y-132435350D01*
X128468161Y-132419808D01*
X128490541Y-132406394D01*
X128514127Y-132395238D01*
X128538693Y-132386448D01*
X128564003Y-132380109D01*
X128589812Y-132376280D01*
X128615872Y-132375000D01*
X129984128Y-132375000D01*
X130010188Y-132376280D01*
G37*
%TD*%
%TO.C,R12*%
G36*
X114810188Y-136751280D02*
G01*
X114835997Y-136755109D01*
X114861307Y-136761448D01*
X114885873Y-136770238D01*
X114909459Y-136781394D01*
X114931839Y-136794808D01*
X114952795Y-136810350D01*
X114972128Y-136827872D01*
X114989650Y-136847205D01*
X115005192Y-136868161D01*
X115018606Y-136890541D01*
X115029762Y-136914127D01*
X115038552Y-136938693D01*
X115044891Y-136964003D01*
X115048720Y-136989812D01*
X115050000Y-137015872D01*
X115050000Y-138159128D01*
X115048720Y-138185188D01*
X115044891Y-138210997D01*
X115038552Y-138236307D01*
X115029762Y-138260873D01*
X115018606Y-138284459D01*
X115005192Y-138306839D01*
X114989650Y-138327795D01*
X114972128Y-138347128D01*
X114952795Y-138364650D01*
X114931839Y-138380192D01*
X114909459Y-138393606D01*
X114885873Y-138404762D01*
X114861307Y-138413552D01*
X114835997Y-138419891D01*
X114810188Y-138423720D01*
X114784128Y-138425000D01*
X113415872Y-138425000D01*
X113389812Y-138423720D01*
X113364003Y-138419891D01*
X113338693Y-138413552D01*
X113314127Y-138404762D01*
X113290541Y-138393606D01*
X113268161Y-138380192D01*
X113247205Y-138364650D01*
X113227872Y-138347128D01*
X113210350Y-138327795D01*
X113194808Y-138306839D01*
X113181394Y-138284459D01*
X113170238Y-138260873D01*
X113161448Y-138236307D01*
X113155109Y-138210997D01*
X113151280Y-138185188D01*
X113150000Y-138159128D01*
X113150000Y-137015872D01*
X113151280Y-136989812D01*
X113155109Y-136964003D01*
X113161448Y-136938693D01*
X113170238Y-136914127D01*
X113181394Y-136890541D01*
X113194808Y-136868161D01*
X113210350Y-136847205D01*
X113227872Y-136827872D01*
X113247205Y-136810350D01*
X113268161Y-136794808D01*
X113290541Y-136781394D01*
X113314127Y-136770238D01*
X113338693Y-136761448D01*
X113364003Y-136755109D01*
X113389812Y-136751280D01*
X113415872Y-136750000D01*
X114784128Y-136750000D01*
X114810188Y-136751280D01*
G37*
G36*
X114810188Y-132576280D02*
G01*
X114835997Y-132580109D01*
X114861307Y-132586448D01*
X114885873Y-132595238D01*
X114909459Y-132606394D01*
X114931839Y-132619808D01*
X114952795Y-132635350D01*
X114972128Y-132652872D01*
X114989650Y-132672205D01*
X115005192Y-132693161D01*
X115018606Y-132715541D01*
X115029762Y-132739127D01*
X115038552Y-132763693D01*
X115044891Y-132789003D01*
X115048720Y-132814812D01*
X115050000Y-132840872D01*
X115050000Y-133984128D01*
X115048720Y-134010188D01*
X115044891Y-134035997D01*
X115038552Y-134061307D01*
X115029762Y-134085873D01*
X115018606Y-134109459D01*
X115005192Y-134131839D01*
X114989650Y-134152795D01*
X114972128Y-134172128D01*
X114952795Y-134189650D01*
X114931839Y-134205192D01*
X114909459Y-134218606D01*
X114885873Y-134229762D01*
X114861307Y-134238552D01*
X114835997Y-134244891D01*
X114810188Y-134248720D01*
X114784128Y-134250000D01*
X113415872Y-134250000D01*
X113389812Y-134248720D01*
X113364003Y-134244891D01*
X113338693Y-134238552D01*
X113314127Y-134229762D01*
X113290541Y-134218606D01*
X113268161Y-134205192D01*
X113247205Y-134189650D01*
X113227872Y-134172128D01*
X113210350Y-134152795D01*
X113194808Y-134131839D01*
X113181394Y-134109459D01*
X113170238Y-134085873D01*
X113161448Y-134061307D01*
X113155109Y-134035997D01*
X113151280Y-134010188D01*
X113150000Y-133984128D01*
X113150000Y-132840872D01*
X113151280Y-132814812D01*
X113155109Y-132789003D01*
X113161448Y-132763693D01*
X113170238Y-132739127D01*
X113181394Y-132715541D01*
X113194808Y-132693161D01*
X113210350Y-132672205D01*
X113227872Y-132652872D01*
X113247205Y-132635350D01*
X113268161Y-132619808D01*
X113290541Y-132606394D01*
X113314127Y-132595238D01*
X113338693Y-132586448D01*
X113364003Y-132580109D01*
X113389812Y-132576280D01*
X113415872Y-132575000D01*
X114784128Y-132575000D01*
X114810188Y-132576280D01*
G37*
%TD*%
%TO.C,R11*%
G36*
X132910188Y-113251280D02*
G01*
X132935997Y-113255109D01*
X132961307Y-113261448D01*
X132985873Y-113270238D01*
X133009459Y-113281394D01*
X133031839Y-113294808D01*
X133052795Y-113310350D01*
X133072128Y-113327872D01*
X133089650Y-113347205D01*
X133105192Y-113368161D01*
X133118606Y-113390541D01*
X133129762Y-113414127D01*
X133138552Y-113438693D01*
X133144891Y-113464003D01*
X133148720Y-113489812D01*
X133150000Y-113515872D01*
X133150000Y-114659128D01*
X133148720Y-114685188D01*
X133144891Y-114710997D01*
X133138552Y-114736307D01*
X133129762Y-114760873D01*
X133118606Y-114784459D01*
X133105192Y-114806839D01*
X133089650Y-114827795D01*
X133072128Y-114847128D01*
X133052795Y-114864650D01*
X133031839Y-114880192D01*
X133009459Y-114893606D01*
X132985873Y-114904762D01*
X132961307Y-114913552D01*
X132935997Y-114919891D01*
X132910188Y-114923720D01*
X132884128Y-114925000D01*
X131515872Y-114925000D01*
X131489812Y-114923720D01*
X131464003Y-114919891D01*
X131438693Y-114913552D01*
X131414127Y-114904762D01*
X131390541Y-114893606D01*
X131368161Y-114880192D01*
X131347205Y-114864650D01*
X131327872Y-114847128D01*
X131310350Y-114827795D01*
X131294808Y-114806839D01*
X131281394Y-114784459D01*
X131270238Y-114760873D01*
X131261448Y-114736307D01*
X131255109Y-114710997D01*
X131251280Y-114685188D01*
X131250000Y-114659128D01*
X131250000Y-113515872D01*
X131251280Y-113489812D01*
X131255109Y-113464003D01*
X131261448Y-113438693D01*
X131270238Y-113414127D01*
X131281394Y-113390541D01*
X131294808Y-113368161D01*
X131310350Y-113347205D01*
X131327872Y-113327872D01*
X131347205Y-113310350D01*
X131368161Y-113294808D01*
X131390541Y-113281394D01*
X131414127Y-113270238D01*
X131438693Y-113261448D01*
X131464003Y-113255109D01*
X131489812Y-113251280D01*
X131515872Y-113250000D01*
X132884128Y-113250000D01*
X132910188Y-113251280D01*
G37*
G36*
X132910188Y-109076280D02*
G01*
X132935997Y-109080109D01*
X132961307Y-109086448D01*
X132985873Y-109095238D01*
X133009459Y-109106394D01*
X133031839Y-109119808D01*
X133052795Y-109135350D01*
X133072128Y-109152872D01*
X133089650Y-109172205D01*
X133105192Y-109193161D01*
X133118606Y-109215541D01*
X133129762Y-109239127D01*
X133138552Y-109263693D01*
X133144891Y-109289003D01*
X133148720Y-109314812D01*
X133150000Y-109340872D01*
X133150000Y-110484128D01*
X133148720Y-110510188D01*
X133144891Y-110535997D01*
X133138552Y-110561307D01*
X133129762Y-110585873D01*
X133118606Y-110609459D01*
X133105192Y-110631839D01*
X133089650Y-110652795D01*
X133072128Y-110672128D01*
X133052795Y-110689650D01*
X133031839Y-110705192D01*
X133009459Y-110718606D01*
X132985873Y-110729762D01*
X132961307Y-110738552D01*
X132935997Y-110744891D01*
X132910188Y-110748720D01*
X132884128Y-110750000D01*
X131515872Y-110750000D01*
X131489812Y-110748720D01*
X131464003Y-110744891D01*
X131438693Y-110738552D01*
X131414127Y-110729762D01*
X131390541Y-110718606D01*
X131368161Y-110705192D01*
X131347205Y-110689650D01*
X131327872Y-110672128D01*
X131310350Y-110652795D01*
X131294808Y-110631839D01*
X131281394Y-110609459D01*
X131270238Y-110585873D01*
X131261448Y-110561307D01*
X131255109Y-110535997D01*
X131251280Y-110510188D01*
X131250000Y-110484128D01*
X131250000Y-109340872D01*
X131251280Y-109314812D01*
X131255109Y-109289003D01*
X131261448Y-109263693D01*
X131270238Y-109239127D01*
X131281394Y-109215541D01*
X131294808Y-109193161D01*
X131310350Y-109172205D01*
X131327872Y-109152872D01*
X131347205Y-109135350D01*
X131368161Y-109119808D01*
X131390541Y-109106394D01*
X131414127Y-109095238D01*
X131438693Y-109086448D01*
X131464003Y-109080109D01*
X131489812Y-109076280D01*
X131515872Y-109075000D01*
X132884128Y-109075000D01*
X132910188Y-109076280D01*
G37*
%TD*%
%TO.C,R10*%
G36*
X117110188Y-109176280D02*
G01*
X117135997Y-109180109D01*
X117161307Y-109186448D01*
X117185873Y-109195238D01*
X117209459Y-109206394D01*
X117231839Y-109219808D01*
X117252795Y-109235350D01*
X117272128Y-109252872D01*
X117289650Y-109272205D01*
X117305192Y-109293161D01*
X117318606Y-109315541D01*
X117329762Y-109339127D01*
X117338552Y-109363693D01*
X117344891Y-109389003D01*
X117348720Y-109414812D01*
X117350000Y-109440872D01*
X117350000Y-110584128D01*
X117348720Y-110610188D01*
X117344891Y-110635997D01*
X117338552Y-110661307D01*
X117329762Y-110685873D01*
X117318606Y-110709459D01*
X117305192Y-110731839D01*
X117289650Y-110752795D01*
X117272128Y-110772128D01*
X117252795Y-110789650D01*
X117231839Y-110805192D01*
X117209459Y-110818606D01*
X117185873Y-110829762D01*
X117161307Y-110838552D01*
X117135997Y-110844891D01*
X117110188Y-110848720D01*
X117084128Y-110850000D01*
X115715872Y-110850000D01*
X115689812Y-110848720D01*
X115664003Y-110844891D01*
X115638693Y-110838552D01*
X115614127Y-110829762D01*
X115590541Y-110818606D01*
X115568161Y-110805192D01*
X115547205Y-110789650D01*
X115527872Y-110772128D01*
X115510350Y-110752795D01*
X115494808Y-110731839D01*
X115481394Y-110709459D01*
X115470238Y-110685873D01*
X115461448Y-110661307D01*
X115455109Y-110635997D01*
X115451280Y-110610188D01*
X115450000Y-110584128D01*
X115450000Y-109440872D01*
X115451280Y-109414812D01*
X115455109Y-109389003D01*
X115461448Y-109363693D01*
X115470238Y-109339127D01*
X115481394Y-109315541D01*
X115494808Y-109293161D01*
X115510350Y-109272205D01*
X115527872Y-109252872D01*
X115547205Y-109235350D01*
X115568161Y-109219808D01*
X115590541Y-109206394D01*
X115614127Y-109195238D01*
X115638693Y-109186448D01*
X115664003Y-109180109D01*
X115689812Y-109176280D01*
X115715872Y-109175000D01*
X117084128Y-109175000D01*
X117110188Y-109176280D01*
G37*
G36*
X117110188Y-113351280D02*
G01*
X117135997Y-113355109D01*
X117161307Y-113361448D01*
X117185873Y-113370238D01*
X117209459Y-113381394D01*
X117231839Y-113394808D01*
X117252795Y-113410350D01*
X117272128Y-113427872D01*
X117289650Y-113447205D01*
X117305192Y-113468161D01*
X117318606Y-113490541D01*
X117329762Y-113514127D01*
X117338552Y-113538693D01*
X117344891Y-113564003D01*
X117348720Y-113589812D01*
X117350000Y-113615872D01*
X117350000Y-114759128D01*
X117348720Y-114785188D01*
X117344891Y-114810997D01*
X117338552Y-114836307D01*
X117329762Y-114860873D01*
X117318606Y-114884459D01*
X117305192Y-114906839D01*
X117289650Y-114927795D01*
X117272128Y-114947128D01*
X117252795Y-114964650D01*
X117231839Y-114980192D01*
X117209459Y-114993606D01*
X117185873Y-115004762D01*
X117161307Y-115013552D01*
X117135997Y-115019891D01*
X117110188Y-115023720D01*
X117084128Y-115025000D01*
X115715872Y-115025000D01*
X115689812Y-115023720D01*
X115664003Y-115019891D01*
X115638693Y-115013552D01*
X115614127Y-115004762D01*
X115590541Y-114993606D01*
X115568161Y-114980192D01*
X115547205Y-114964650D01*
X115527872Y-114947128D01*
X115510350Y-114927795D01*
X115494808Y-114906839D01*
X115481394Y-114884459D01*
X115470238Y-114860873D01*
X115461448Y-114836307D01*
X115455109Y-114810997D01*
X115451280Y-114785188D01*
X115450000Y-114759128D01*
X115450000Y-113615872D01*
X115451280Y-113589812D01*
X115455109Y-113564003D01*
X115461448Y-113538693D01*
X115470238Y-113514127D01*
X115481394Y-113490541D01*
X115494808Y-113468161D01*
X115510350Y-113447205D01*
X115527872Y-113427872D01*
X115547205Y-113410350D01*
X115568161Y-113394808D01*
X115590541Y-113381394D01*
X115614127Y-113370238D01*
X115638693Y-113361448D01*
X115664003Y-113355109D01*
X115689812Y-113351280D01*
X115715872Y-113350000D01*
X117084128Y-113350000D01*
X117110188Y-113351280D01*
G37*
%TD*%
%TO.C,R8*%
G36*
X160310188Y-100876280D02*
G01*
X160335997Y-100880109D01*
X160361307Y-100886448D01*
X160385873Y-100895238D01*
X160409459Y-100906394D01*
X160431839Y-100919808D01*
X160452795Y-100935350D01*
X160472128Y-100952872D01*
X160489650Y-100972205D01*
X160505192Y-100993161D01*
X160518606Y-101015541D01*
X160529762Y-101039127D01*
X160538552Y-101063693D01*
X160544891Y-101089003D01*
X160548720Y-101114812D01*
X160550000Y-101140872D01*
X160550000Y-102284128D01*
X160548720Y-102310188D01*
X160544891Y-102335997D01*
X160538552Y-102361307D01*
X160529762Y-102385873D01*
X160518606Y-102409459D01*
X160505192Y-102431839D01*
X160489650Y-102452795D01*
X160472128Y-102472128D01*
X160452795Y-102489650D01*
X160431839Y-102505192D01*
X160409459Y-102518606D01*
X160385873Y-102529762D01*
X160361307Y-102538552D01*
X160335997Y-102544891D01*
X160310188Y-102548720D01*
X160284128Y-102550000D01*
X158915872Y-102550000D01*
X158889812Y-102548720D01*
X158864003Y-102544891D01*
X158838693Y-102538552D01*
X158814127Y-102529762D01*
X158790541Y-102518606D01*
X158768161Y-102505192D01*
X158747205Y-102489650D01*
X158727872Y-102472128D01*
X158710350Y-102452795D01*
X158694808Y-102431839D01*
X158681394Y-102409459D01*
X158670238Y-102385873D01*
X158661448Y-102361307D01*
X158655109Y-102335997D01*
X158651280Y-102310188D01*
X158650000Y-102284128D01*
X158650000Y-101140872D01*
X158651280Y-101114812D01*
X158655109Y-101089003D01*
X158661448Y-101063693D01*
X158670238Y-101039127D01*
X158681394Y-101015541D01*
X158694808Y-100993161D01*
X158710350Y-100972205D01*
X158727872Y-100952872D01*
X158747205Y-100935350D01*
X158768161Y-100919808D01*
X158790541Y-100906394D01*
X158814127Y-100895238D01*
X158838693Y-100886448D01*
X158864003Y-100880109D01*
X158889812Y-100876280D01*
X158915872Y-100875000D01*
X160284128Y-100875000D01*
X160310188Y-100876280D01*
G37*
G36*
X160310188Y-105051280D02*
G01*
X160335997Y-105055109D01*
X160361307Y-105061448D01*
X160385873Y-105070238D01*
X160409459Y-105081394D01*
X160431839Y-105094808D01*
X160452795Y-105110350D01*
X160472128Y-105127872D01*
X160489650Y-105147205D01*
X160505192Y-105168161D01*
X160518606Y-105190541D01*
X160529762Y-105214127D01*
X160538552Y-105238693D01*
X160544891Y-105264003D01*
X160548720Y-105289812D01*
X160550000Y-105315872D01*
X160550000Y-106459128D01*
X160548720Y-106485188D01*
X160544891Y-106510997D01*
X160538552Y-106536307D01*
X160529762Y-106560873D01*
X160518606Y-106584459D01*
X160505192Y-106606839D01*
X160489650Y-106627795D01*
X160472128Y-106647128D01*
X160452795Y-106664650D01*
X160431839Y-106680192D01*
X160409459Y-106693606D01*
X160385873Y-106704762D01*
X160361307Y-106713552D01*
X160335997Y-106719891D01*
X160310188Y-106723720D01*
X160284128Y-106725000D01*
X158915872Y-106725000D01*
X158889812Y-106723720D01*
X158864003Y-106719891D01*
X158838693Y-106713552D01*
X158814127Y-106704762D01*
X158790541Y-106693606D01*
X158768161Y-106680192D01*
X158747205Y-106664650D01*
X158727872Y-106647128D01*
X158710350Y-106627795D01*
X158694808Y-106606839D01*
X158681394Y-106584459D01*
X158670238Y-106560873D01*
X158661448Y-106536307D01*
X158655109Y-106510997D01*
X158651280Y-106485188D01*
X158650000Y-106459128D01*
X158650000Y-105315872D01*
X158651280Y-105289812D01*
X158655109Y-105264003D01*
X158661448Y-105238693D01*
X158670238Y-105214127D01*
X158681394Y-105190541D01*
X158694808Y-105168161D01*
X158710350Y-105147205D01*
X158727872Y-105127872D01*
X158747205Y-105110350D01*
X158768161Y-105094808D01*
X158790541Y-105081394D01*
X158814127Y-105070238D01*
X158838693Y-105061448D01*
X158864003Y-105055109D01*
X158889812Y-105051280D01*
X158915872Y-105050000D01*
X160284128Y-105050000D01*
X160310188Y-105051280D01*
G37*
%TD*%
%TO.C,R7*%
G36*
X145168188Y-100876280D02*
G01*
X145193997Y-100880109D01*
X145219307Y-100886448D01*
X145243873Y-100895238D01*
X145267459Y-100906394D01*
X145289839Y-100919808D01*
X145310795Y-100935350D01*
X145330128Y-100952872D01*
X145347650Y-100972205D01*
X145363192Y-100993161D01*
X145376606Y-101015541D01*
X145387762Y-101039127D01*
X145396552Y-101063693D01*
X145402891Y-101089003D01*
X145406720Y-101114812D01*
X145408000Y-101140872D01*
X145408000Y-102284128D01*
X145406720Y-102310188D01*
X145402891Y-102335997D01*
X145396552Y-102361307D01*
X145387762Y-102385873D01*
X145376606Y-102409459D01*
X145363192Y-102431839D01*
X145347650Y-102452795D01*
X145330128Y-102472128D01*
X145310795Y-102489650D01*
X145289839Y-102505192D01*
X145267459Y-102518606D01*
X145243873Y-102529762D01*
X145219307Y-102538552D01*
X145193997Y-102544891D01*
X145168188Y-102548720D01*
X145142128Y-102550000D01*
X143773872Y-102550000D01*
X143747812Y-102548720D01*
X143722003Y-102544891D01*
X143696693Y-102538552D01*
X143672127Y-102529762D01*
X143648541Y-102518606D01*
X143626161Y-102505192D01*
X143605205Y-102489650D01*
X143585872Y-102472128D01*
X143568350Y-102452795D01*
X143552808Y-102431839D01*
X143539394Y-102409459D01*
X143528238Y-102385873D01*
X143519448Y-102361307D01*
X143513109Y-102335997D01*
X143509280Y-102310188D01*
X143508000Y-102284128D01*
X143508000Y-101140872D01*
X143509280Y-101114812D01*
X143513109Y-101089003D01*
X143519448Y-101063693D01*
X143528238Y-101039127D01*
X143539394Y-101015541D01*
X143552808Y-100993161D01*
X143568350Y-100972205D01*
X143585872Y-100952872D01*
X143605205Y-100935350D01*
X143626161Y-100919808D01*
X143648541Y-100906394D01*
X143672127Y-100895238D01*
X143696693Y-100886448D01*
X143722003Y-100880109D01*
X143747812Y-100876280D01*
X143773872Y-100875000D01*
X145142128Y-100875000D01*
X145168188Y-100876280D01*
G37*
G36*
X145168188Y-105051280D02*
G01*
X145193997Y-105055109D01*
X145219307Y-105061448D01*
X145243873Y-105070238D01*
X145267459Y-105081394D01*
X145289839Y-105094808D01*
X145310795Y-105110350D01*
X145330128Y-105127872D01*
X145347650Y-105147205D01*
X145363192Y-105168161D01*
X145376606Y-105190541D01*
X145387762Y-105214127D01*
X145396552Y-105238693D01*
X145402891Y-105264003D01*
X145406720Y-105289812D01*
X145408000Y-105315872D01*
X145408000Y-106459128D01*
X145406720Y-106485188D01*
X145402891Y-106510997D01*
X145396552Y-106536307D01*
X145387762Y-106560873D01*
X145376606Y-106584459D01*
X145363192Y-106606839D01*
X145347650Y-106627795D01*
X145330128Y-106647128D01*
X145310795Y-106664650D01*
X145289839Y-106680192D01*
X145267459Y-106693606D01*
X145243873Y-106704762D01*
X145219307Y-106713552D01*
X145193997Y-106719891D01*
X145168188Y-106723720D01*
X145142128Y-106725000D01*
X143773872Y-106725000D01*
X143747812Y-106723720D01*
X143722003Y-106719891D01*
X143696693Y-106713552D01*
X143672127Y-106704762D01*
X143648541Y-106693606D01*
X143626161Y-106680192D01*
X143605205Y-106664650D01*
X143585872Y-106647128D01*
X143568350Y-106627795D01*
X143552808Y-106606839D01*
X143539394Y-106584459D01*
X143528238Y-106560873D01*
X143519448Y-106536307D01*
X143513109Y-106510997D01*
X143509280Y-106485188D01*
X143508000Y-106459128D01*
X143508000Y-105315872D01*
X143509280Y-105289812D01*
X143513109Y-105264003D01*
X143519448Y-105238693D01*
X143528238Y-105214127D01*
X143539394Y-105190541D01*
X143552808Y-105168161D01*
X143568350Y-105147205D01*
X143585872Y-105127872D01*
X143605205Y-105110350D01*
X143626161Y-105094808D01*
X143648541Y-105081394D01*
X143672127Y-105070238D01*
X143696693Y-105061448D01*
X143722003Y-105055109D01*
X143747812Y-105051280D01*
X143773872Y-105050000D01*
X145142128Y-105050000D01*
X145168188Y-105051280D01*
G37*
%TD*%
%TO.C,R6*%
G36*
X173110188Y-77876280D02*
G01*
X173135997Y-77880109D01*
X173161307Y-77886448D01*
X173185873Y-77895238D01*
X173209459Y-77906394D01*
X173231839Y-77919808D01*
X173252795Y-77935350D01*
X173272128Y-77952872D01*
X173289650Y-77972205D01*
X173305192Y-77993161D01*
X173318606Y-78015541D01*
X173329762Y-78039127D01*
X173338552Y-78063693D01*
X173344891Y-78089003D01*
X173348720Y-78114812D01*
X173350000Y-78140872D01*
X173350000Y-79284128D01*
X173348720Y-79310188D01*
X173344891Y-79335997D01*
X173338552Y-79361307D01*
X173329762Y-79385873D01*
X173318606Y-79409459D01*
X173305192Y-79431839D01*
X173289650Y-79452795D01*
X173272128Y-79472128D01*
X173252795Y-79489650D01*
X173231839Y-79505192D01*
X173209459Y-79518606D01*
X173185873Y-79529762D01*
X173161307Y-79538552D01*
X173135997Y-79544891D01*
X173110188Y-79548720D01*
X173084128Y-79550000D01*
X171715872Y-79550000D01*
X171689812Y-79548720D01*
X171664003Y-79544891D01*
X171638693Y-79538552D01*
X171614127Y-79529762D01*
X171590541Y-79518606D01*
X171568161Y-79505192D01*
X171547205Y-79489650D01*
X171527872Y-79472128D01*
X171510350Y-79452795D01*
X171494808Y-79431839D01*
X171481394Y-79409459D01*
X171470238Y-79385873D01*
X171461448Y-79361307D01*
X171455109Y-79335997D01*
X171451280Y-79310188D01*
X171450000Y-79284128D01*
X171450000Y-78140872D01*
X171451280Y-78114812D01*
X171455109Y-78089003D01*
X171461448Y-78063693D01*
X171470238Y-78039127D01*
X171481394Y-78015541D01*
X171494808Y-77993161D01*
X171510350Y-77972205D01*
X171527872Y-77952872D01*
X171547205Y-77935350D01*
X171568161Y-77919808D01*
X171590541Y-77906394D01*
X171614127Y-77895238D01*
X171638693Y-77886448D01*
X171664003Y-77880109D01*
X171689812Y-77876280D01*
X171715872Y-77875000D01*
X173084128Y-77875000D01*
X173110188Y-77876280D01*
G37*
G36*
X173110188Y-82051280D02*
G01*
X173135997Y-82055109D01*
X173161307Y-82061448D01*
X173185873Y-82070238D01*
X173209459Y-82081394D01*
X173231839Y-82094808D01*
X173252795Y-82110350D01*
X173272128Y-82127872D01*
X173289650Y-82147205D01*
X173305192Y-82168161D01*
X173318606Y-82190541D01*
X173329762Y-82214127D01*
X173338552Y-82238693D01*
X173344891Y-82264003D01*
X173348720Y-82289812D01*
X173350000Y-82315872D01*
X173350000Y-83459128D01*
X173348720Y-83485188D01*
X173344891Y-83510997D01*
X173338552Y-83536307D01*
X173329762Y-83560873D01*
X173318606Y-83584459D01*
X173305192Y-83606839D01*
X173289650Y-83627795D01*
X173272128Y-83647128D01*
X173252795Y-83664650D01*
X173231839Y-83680192D01*
X173209459Y-83693606D01*
X173185873Y-83704762D01*
X173161307Y-83713552D01*
X173135997Y-83719891D01*
X173110188Y-83723720D01*
X173084128Y-83725000D01*
X171715872Y-83725000D01*
X171689812Y-83723720D01*
X171664003Y-83719891D01*
X171638693Y-83713552D01*
X171614127Y-83704762D01*
X171590541Y-83693606D01*
X171568161Y-83680192D01*
X171547205Y-83664650D01*
X171527872Y-83647128D01*
X171510350Y-83627795D01*
X171494808Y-83606839D01*
X171481394Y-83584459D01*
X171470238Y-83560873D01*
X171461448Y-83536307D01*
X171455109Y-83510997D01*
X171451280Y-83485188D01*
X171450000Y-83459128D01*
X171450000Y-82315872D01*
X171451280Y-82289812D01*
X171455109Y-82264003D01*
X171461448Y-82238693D01*
X171470238Y-82214127D01*
X171481394Y-82190541D01*
X171494808Y-82168161D01*
X171510350Y-82147205D01*
X171527872Y-82127872D01*
X171547205Y-82110350D01*
X171568161Y-82094808D01*
X171590541Y-82081394D01*
X171614127Y-82070238D01*
X171638693Y-82061448D01*
X171664003Y-82055109D01*
X171689812Y-82051280D01*
X171715872Y-82050000D01*
X173084128Y-82050000D01*
X173110188Y-82051280D01*
G37*
%TD*%
%TO.C,R5*%
G36*
X157510188Y-77976280D02*
G01*
X157535997Y-77980109D01*
X157561307Y-77986448D01*
X157585873Y-77995238D01*
X157609459Y-78006394D01*
X157631839Y-78019808D01*
X157652795Y-78035350D01*
X157672128Y-78052872D01*
X157689650Y-78072205D01*
X157705192Y-78093161D01*
X157718606Y-78115541D01*
X157729762Y-78139127D01*
X157738552Y-78163693D01*
X157744891Y-78189003D01*
X157748720Y-78214812D01*
X157750000Y-78240872D01*
X157750000Y-79384128D01*
X157748720Y-79410188D01*
X157744891Y-79435997D01*
X157738552Y-79461307D01*
X157729762Y-79485873D01*
X157718606Y-79509459D01*
X157705192Y-79531839D01*
X157689650Y-79552795D01*
X157672128Y-79572128D01*
X157652795Y-79589650D01*
X157631839Y-79605192D01*
X157609459Y-79618606D01*
X157585873Y-79629762D01*
X157561307Y-79638552D01*
X157535997Y-79644891D01*
X157510188Y-79648720D01*
X157484128Y-79650000D01*
X156115872Y-79650000D01*
X156089812Y-79648720D01*
X156064003Y-79644891D01*
X156038693Y-79638552D01*
X156014127Y-79629762D01*
X155990541Y-79618606D01*
X155968161Y-79605192D01*
X155947205Y-79589650D01*
X155927872Y-79572128D01*
X155910350Y-79552795D01*
X155894808Y-79531839D01*
X155881394Y-79509459D01*
X155870238Y-79485873D01*
X155861448Y-79461307D01*
X155855109Y-79435997D01*
X155851280Y-79410188D01*
X155850000Y-79384128D01*
X155850000Y-78240872D01*
X155851280Y-78214812D01*
X155855109Y-78189003D01*
X155861448Y-78163693D01*
X155870238Y-78139127D01*
X155881394Y-78115541D01*
X155894808Y-78093161D01*
X155910350Y-78072205D01*
X155927872Y-78052872D01*
X155947205Y-78035350D01*
X155968161Y-78019808D01*
X155990541Y-78006394D01*
X156014127Y-77995238D01*
X156038693Y-77986448D01*
X156064003Y-77980109D01*
X156089812Y-77976280D01*
X156115872Y-77975000D01*
X157484128Y-77975000D01*
X157510188Y-77976280D01*
G37*
G36*
X157510188Y-82151280D02*
G01*
X157535997Y-82155109D01*
X157561307Y-82161448D01*
X157585873Y-82170238D01*
X157609459Y-82181394D01*
X157631839Y-82194808D01*
X157652795Y-82210350D01*
X157672128Y-82227872D01*
X157689650Y-82247205D01*
X157705192Y-82268161D01*
X157718606Y-82290541D01*
X157729762Y-82314127D01*
X157738552Y-82338693D01*
X157744891Y-82364003D01*
X157748720Y-82389812D01*
X157750000Y-82415872D01*
X157750000Y-83559128D01*
X157748720Y-83585188D01*
X157744891Y-83610997D01*
X157738552Y-83636307D01*
X157729762Y-83660873D01*
X157718606Y-83684459D01*
X157705192Y-83706839D01*
X157689650Y-83727795D01*
X157672128Y-83747128D01*
X157652795Y-83764650D01*
X157631839Y-83780192D01*
X157609459Y-83793606D01*
X157585873Y-83804762D01*
X157561307Y-83813552D01*
X157535997Y-83819891D01*
X157510188Y-83823720D01*
X157484128Y-83825000D01*
X156115872Y-83825000D01*
X156089812Y-83823720D01*
X156064003Y-83819891D01*
X156038693Y-83813552D01*
X156014127Y-83804762D01*
X155990541Y-83793606D01*
X155968161Y-83780192D01*
X155947205Y-83764650D01*
X155927872Y-83747128D01*
X155910350Y-83727795D01*
X155894808Y-83706839D01*
X155881394Y-83684459D01*
X155870238Y-83660873D01*
X155861448Y-83636307D01*
X155855109Y-83610997D01*
X155851280Y-83585188D01*
X155850000Y-83559128D01*
X155850000Y-82415872D01*
X155851280Y-82389812D01*
X155855109Y-82364003D01*
X155861448Y-82338693D01*
X155870238Y-82314127D01*
X155881394Y-82290541D01*
X155894808Y-82268161D01*
X155910350Y-82247205D01*
X155927872Y-82227872D01*
X155947205Y-82210350D01*
X155968161Y-82194808D01*
X155990541Y-82181394D01*
X156014127Y-82170238D01*
X156038693Y-82161448D01*
X156064003Y-82155109D01*
X156089812Y-82151280D01*
X156115872Y-82150000D01*
X157484128Y-82150000D01*
X157510188Y-82151280D01*
G37*
%TD*%
%TO.C,R4*%
G36*
X130010188Y-100976280D02*
G01*
X130035997Y-100980109D01*
X130061307Y-100986448D01*
X130085873Y-100995238D01*
X130109459Y-101006394D01*
X130131839Y-101019808D01*
X130152795Y-101035350D01*
X130172128Y-101052872D01*
X130189650Y-101072205D01*
X130205192Y-101093161D01*
X130218606Y-101115541D01*
X130229762Y-101139127D01*
X130238552Y-101163693D01*
X130244891Y-101189003D01*
X130248720Y-101214812D01*
X130250000Y-101240872D01*
X130250000Y-102384128D01*
X130248720Y-102410188D01*
X130244891Y-102435997D01*
X130238552Y-102461307D01*
X130229762Y-102485873D01*
X130218606Y-102509459D01*
X130205192Y-102531839D01*
X130189650Y-102552795D01*
X130172128Y-102572128D01*
X130152795Y-102589650D01*
X130131839Y-102605192D01*
X130109459Y-102618606D01*
X130085873Y-102629762D01*
X130061307Y-102638552D01*
X130035997Y-102644891D01*
X130010188Y-102648720D01*
X129984128Y-102650000D01*
X128615872Y-102650000D01*
X128589812Y-102648720D01*
X128564003Y-102644891D01*
X128538693Y-102638552D01*
X128514127Y-102629762D01*
X128490541Y-102618606D01*
X128468161Y-102605192D01*
X128447205Y-102589650D01*
X128427872Y-102572128D01*
X128410350Y-102552795D01*
X128394808Y-102531839D01*
X128381394Y-102509459D01*
X128370238Y-102485873D01*
X128361448Y-102461307D01*
X128355109Y-102435997D01*
X128351280Y-102410188D01*
X128350000Y-102384128D01*
X128350000Y-101240872D01*
X128351280Y-101214812D01*
X128355109Y-101189003D01*
X128361448Y-101163693D01*
X128370238Y-101139127D01*
X128381394Y-101115541D01*
X128394808Y-101093161D01*
X128410350Y-101072205D01*
X128427872Y-101052872D01*
X128447205Y-101035350D01*
X128468161Y-101019808D01*
X128490541Y-101006394D01*
X128514127Y-100995238D01*
X128538693Y-100986448D01*
X128564003Y-100980109D01*
X128589812Y-100976280D01*
X128615872Y-100975000D01*
X129984128Y-100975000D01*
X130010188Y-100976280D01*
G37*
G36*
X130010188Y-105151280D02*
G01*
X130035997Y-105155109D01*
X130061307Y-105161448D01*
X130085873Y-105170238D01*
X130109459Y-105181394D01*
X130131839Y-105194808D01*
X130152795Y-105210350D01*
X130172128Y-105227872D01*
X130189650Y-105247205D01*
X130205192Y-105268161D01*
X130218606Y-105290541D01*
X130229762Y-105314127D01*
X130238552Y-105338693D01*
X130244891Y-105364003D01*
X130248720Y-105389812D01*
X130250000Y-105415872D01*
X130250000Y-106559128D01*
X130248720Y-106585188D01*
X130244891Y-106610997D01*
X130238552Y-106636307D01*
X130229762Y-106660873D01*
X130218606Y-106684459D01*
X130205192Y-106706839D01*
X130189650Y-106727795D01*
X130172128Y-106747128D01*
X130152795Y-106764650D01*
X130131839Y-106780192D01*
X130109459Y-106793606D01*
X130085873Y-106804762D01*
X130061307Y-106813552D01*
X130035997Y-106819891D01*
X130010188Y-106823720D01*
X129984128Y-106825000D01*
X128615872Y-106825000D01*
X128589812Y-106823720D01*
X128564003Y-106819891D01*
X128538693Y-106813552D01*
X128514127Y-106804762D01*
X128490541Y-106793606D01*
X128468161Y-106780192D01*
X128447205Y-106764650D01*
X128427872Y-106747128D01*
X128410350Y-106727795D01*
X128394808Y-106706839D01*
X128381394Y-106684459D01*
X128370238Y-106660873D01*
X128361448Y-106636307D01*
X128355109Y-106610997D01*
X128351280Y-106585188D01*
X128350000Y-106559128D01*
X128350000Y-105415872D01*
X128351280Y-105389812D01*
X128355109Y-105364003D01*
X128361448Y-105338693D01*
X128370238Y-105314127D01*
X128381394Y-105290541D01*
X128394808Y-105268161D01*
X128410350Y-105247205D01*
X128427872Y-105227872D01*
X128447205Y-105210350D01*
X128468161Y-105194808D01*
X128490541Y-105181394D01*
X128514127Y-105170238D01*
X128538693Y-105161448D01*
X128564003Y-105155109D01*
X128589812Y-105151280D01*
X128615872Y-105150000D01*
X129984128Y-105150000D01*
X130010188Y-105151280D01*
G37*
%TD*%
%TO.C,R3*%
G36*
X114810188Y-105051280D02*
G01*
X114835997Y-105055109D01*
X114861307Y-105061448D01*
X114885873Y-105070238D01*
X114909459Y-105081394D01*
X114931839Y-105094808D01*
X114952795Y-105110350D01*
X114972128Y-105127872D01*
X114989650Y-105147205D01*
X115005192Y-105168161D01*
X115018606Y-105190541D01*
X115029762Y-105214127D01*
X115038552Y-105238693D01*
X115044891Y-105264003D01*
X115048720Y-105289812D01*
X115050000Y-105315872D01*
X115050000Y-106459128D01*
X115048720Y-106485188D01*
X115044891Y-106510997D01*
X115038552Y-106536307D01*
X115029762Y-106560873D01*
X115018606Y-106584459D01*
X115005192Y-106606839D01*
X114989650Y-106627795D01*
X114972128Y-106647128D01*
X114952795Y-106664650D01*
X114931839Y-106680192D01*
X114909459Y-106693606D01*
X114885873Y-106704762D01*
X114861307Y-106713552D01*
X114835997Y-106719891D01*
X114810188Y-106723720D01*
X114784128Y-106725000D01*
X113415872Y-106725000D01*
X113389812Y-106723720D01*
X113364003Y-106719891D01*
X113338693Y-106713552D01*
X113314127Y-106704762D01*
X113290541Y-106693606D01*
X113268161Y-106680192D01*
X113247205Y-106664650D01*
X113227872Y-106647128D01*
X113210350Y-106627795D01*
X113194808Y-106606839D01*
X113181394Y-106584459D01*
X113170238Y-106560873D01*
X113161448Y-106536307D01*
X113155109Y-106510997D01*
X113151280Y-106485188D01*
X113150000Y-106459128D01*
X113150000Y-105315872D01*
X113151280Y-105289812D01*
X113155109Y-105264003D01*
X113161448Y-105238693D01*
X113170238Y-105214127D01*
X113181394Y-105190541D01*
X113194808Y-105168161D01*
X113210350Y-105147205D01*
X113227872Y-105127872D01*
X113247205Y-105110350D01*
X113268161Y-105094808D01*
X113290541Y-105081394D01*
X113314127Y-105070238D01*
X113338693Y-105061448D01*
X113364003Y-105055109D01*
X113389812Y-105051280D01*
X113415872Y-105050000D01*
X114784128Y-105050000D01*
X114810188Y-105051280D01*
G37*
G36*
X114810188Y-100876280D02*
G01*
X114835997Y-100880109D01*
X114861307Y-100886448D01*
X114885873Y-100895238D01*
X114909459Y-100906394D01*
X114931839Y-100919808D01*
X114952795Y-100935350D01*
X114972128Y-100952872D01*
X114989650Y-100972205D01*
X115005192Y-100993161D01*
X115018606Y-101015541D01*
X115029762Y-101039127D01*
X115038552Y-101063693D01*
X115044891Y-101089003D01*
X115048720Y-101114812D01*
X115050000Y-101140872D01*
X115050000Y-102284128D01*
X115048720Y-102310188D01*
X115044891Y-102335997D01*
X115038552Y-102361307D01*
X115029762Y-102385873D01*
X115018606Y-102409459D01*
X115005192Y-102431839D01*
X114989650Y-102452795D01*
X114972128Y-102472128D01*
X114952795Y-102489650D01*
X114931839Y-102505192D01*
X114909459Y-102518606D01*
X114885873Y-102529762D01*
X114861307Y-102538552D01*
X114835997Y-102544891D01*
X114810188Y-102548720D01*
X114784128Y-102550000D01*
X113415872Y-102550000D01*
X113389812Y-102548720D01*
X113364003Y-102544891D01*
X113338693Y-102538552D01*
X113314127Y-102529762D01*
X113290541Y-102518606D01*
X113268161Y-102505192D01*
X113247205Y-102489650D01*
X113227872Y-102472128D01*
X113210350Y-102452795D01*
X113194808Y-102431839D01*
X113181394Y-102409459D01*
X113170238Y-102385873D01*
X113161448Y-102361307D01*
X113155109Y-102335997D01*
X113151280Y-102310188D01*
X113150000Y-102284128D01*
X113150000Y-101140872D01*
X113151280Y-101114812D01*
X113155109Y-101089003D01*
X113161448Y-101063693D01*
X113170238Y-101039127D01*
X113181394Y-101015541D01*
X113194808Y-100993161D01*
X113210350Y-100972205D01*
X113227872Y-100952872D01*
X113247205Y-100935350D01*
X113268161Y-100919808D01*
X113290541Y-100906394D01*
X113314127Y-100895238D01*
X113338693Y-100886448D01*
X113364003Y-100880109D01*
X113389812Y-100876280D01*
X113415872Y-100875000D01*
X114784128Y-100875000D01*
X114810188Y-100876280D01*
G37*
%TD*%
%TO.C,R2*%
G36*
X133010188Y-81951280D02*
G01*
X133035997Y-81955109D01*
X133061307Y-81961448D01*
X133085873Y-81970238D01*
X133109459Y-81981394D01*
X133131839Y-81994808D01*
X133152795Y-82010350D01*
X133172128Y-82027872D01*
X133189650Y-82047205D01*
X133205192Y-82068161D01*
X133218606Y-82090541D01*
X133229762Y-82114127D01*
X133238552Y-82138693D01*
X133244891Y-82164003D01*
X133248720Y-82189812D01*
X133250000Y-82215872D01*
X133250000Y-83359128D01*
X133248720Y-83385188D01*
X133244891Y-83410997D01*
X133238552Y-83436307D01*
X133229762Y-83460873D01*
X133218606Y-83484459D01*
X133205192Y-83506839D01*
X133189650Y-83527795D01*
X133172128Y-83547128D01*
X133152795Y-83564650D01*
X133131839Y-83580192D01*
X133109459Y-83593606D01*
X133085873Y-83604762D01*
X133061307Y-83613552D01*
X133035997Y-83619891D01*
X133010188Y-83623720D01*
X132984128Y-83625000D01*
X131615872Y-83625000D01*
X131589812Y-83623720D01*
X131564003Y-83619891D01*
X131538693Y-83613552D01*
X131514127Y-83604762D01*
X131490541Y-83593606D01*
X131468161Y-83580192D01*
X131447205Y-83564650D01*
X131427872Y-83547128D01*
X131410350Y-83527795D01*
X131394808Y-83506839D01*
X131381394Y-83484459D01*
X131370238Y-83460873D01*
X131361448Y-83436307D01*
X131355109Y-83410997D01*
X131351280Y-83385188D01*
X131350000Y-83359128D01*
X131350000Y-82215872D01*
X131351280Y-82189812D01*
X131355109Y-82164003D01*
X131361448Y-82138693D01*
X131370238Y-82114127D01*
X131381394Y-82090541D01*
X131394808Y-82068161D01*
X131410350Y-82047205D01*
X131427872Y-82027872D01*
X131447205Y-82010350D01*
X131468161Y-81994808D01*
X131490541Y-81981394D01*
X131514127Y-81970238D01*
X131538693Y-81961448D01*
X131564003Y-81955109D01*
X131589812Y-81951280D01*
X131615872Y-81950000D01*
X132984128Y-81950000D01*
X133010188Y-81951280D01*
G37*
G36*
X133010188Y-77776280D02*
G01*
X133035997Y-77780109D01*
X133061307Y-77786448D01*
X133085873Y-77795238D01*
X133109459Y-77806394D01*
X133131839Y-77819808D01*
X133152795Y-77835350D01*
X133172128Y-77852872D01*
X133189650Y-77872205D01*
X133205192Y-77893161D01*
X133218606Y-77915541D01*
X133229762Y-77939127D01*
X133238552Y-77963693D01*
X133244891Y-77989003D01*
X133248720Y-78014812D01*
X133250000Y-78040872D01*
X133250000Y-79184128D01*
X133248720Y-79210188D01*
X133244891Y-79235997D01*
X133238552Y-79261307D01*
X133229762Y-79285873D01*
X133218606Y-79309459D01*
X133205192Y-79331839D01*
X133189650Y-79352795D01*
X133172128Y-79372128D01*
X133152795Y-79389650D01*
X133131839Y-79405192D01*
X133109459Y-79418606D01*
X133085873Y-79429762D01*
X133061307Y-79438552D01*
X133035997Y-79444891D01*
X133010188Y-79448720D01*
X132984128Y-79450000D01*
X131615872Y-79450000D01*
X131589812Y-79448720D01*
X131564003Y-79444891D01*
X131538693Y-79438552D01*
X131514127Y-79429762D01*
X131490541Y-79418606D01*
X131468161Y-79405192D01*
X131447205Y-79389650D01*
X131427872Y-79372128D01*
X131410350Y-79352795D01*
X131394808Y-79331839D01*
X131381394Y-79309459D01*
X131370238Y-79285873D01*
X131361448Y-79261307D01*
X131355109Y-79235997D01*
X131351280Y-79210188D01*
X131350000Y-79184128D01*
X131350000Y-78040872D01*
X131351280Y-78014812D01*
X131355109Y-77989003D01*
X131361448Y-77963693D01*
X131370238Y-77939127D01*
X131381394Y-77915541D01*
X131394808Y-77893161D01*
X131410350Y-77872205D01*
X131427872Y-77852872D01*
X131447205Y-77835350D01*
X131468161Y-77819808D01*
X131490541Y-77806394D01*
X131514127Y-77795238D01*
X131538693Y-77786448D01*
X131564003Y-77780109D01*
X131589812Y-77776280D01*
X131615872Y-77775000D01*
X132984128Y-77775000D01*
X133010188Y-77776280D01*
G37*
%TD*%
%TO.C,R1*%
G36*
X117410188Y-77776280D02*
G01*
X117435997Y-77780109D01*
X117461307Y-77786448D01*
X117485873Y-77795238D01*
X117509459Y-77806394D01*
X117531839Y-77819808D01*
X117552795Y-77835350D01*
X117572128Y-77852872D01*
X117589650Y-77872205D01*
X117605192Y-77893161D01*
X117618606Y-77915541D01*
X117629762Y-77939127D01*
X117638552Y-77963693D01*
X117644891Y-77989003D01*
X117648720Y-78014812D01*
X117650000Y-78040872D01*
X117650000Y-79184128D01*
X117648720Y-79210188D01*
X117644891Y-79235997D01*
X117638552Y-79261307D01*
X117629762Y-79285873D01*
X117618606Y-79309459D01*
X117605192Y-79331839D01*
X117589650Y-79352795D01*
X117572128Y-79372128D01*
X117552795Y-79389650D01*
X117531839Y-79405192D01*
X117509459Y-79418606D01*
X117485873Y-79429762D01*
X117461307Y-79438552D01*
X117435997Y-79444891D01*
X117410188Y-79448720D01*
X117384128Y-79450000D01*
X116015872Y-79450000D01*
X115989812Y-79448720D01*
X115964003Y-79444891D01*
X115938693Y-79438552D01*
X115914127Y-79429762D01*
X115890541Y-79418606D01*
X115868161Y-79405192D01*
X115847205Y-79389650D01*
X115827872Y-79372128D01*
X115810350Y-79352795D01*
X115794808Y-79331839D01*
X115781394Y-79309459D01*
X115770238Y-79285873D01*
X115761448Y-79261307D01*
X115755109Y-79235997D01*
X115751280Y-79210188D01*
X115750000Y-79184128D01*
X115750000Y-78040872D01*
X115751280Y-78014812D01*
X115755109Y-77989003D01*
X115761448Y-77963693D01*
X115770238Y-77939127D01*
X115781394Y-77915541D01*
X115794808Y-77893161D01*
X115810350Y-77872205D01*
X115827872Y-77852872D01*
X115847205Y-77835350D01*
X115868161Y-77819808D01*
X115890541Y-77806394D01*
X115914127Y-77795238D01*
X115938693Y-77786448D01*
X115964003Y-77780109D01*
X115989812Y-77776280D01*
X116015872Y-77775000D01*
X117384128Y-77775000D01*
X117410188Y-77776280D01*
G37*
G36*
X117410188Y-81951280D02*
G01*
X117435997Y-81955109D01*
X117461307Y-81961448D01*
X117485873Y-81970238D01*
X117509459Y-81981394D01*
X117531839Y-81994808D01*
X117552795Y-82010350D01*
X117572128Y-82027872D01*
X117589650Y-82047205D01*
X117605192Y-82068161D01*
X117618606Y-82090541D01*
X117629762Y-82114127D01*
X117638552Y-82138693D01*
X117644891Y-82164003D01*
X117648720Y-82189812D01*
X117650000Y-82215872D01*
X117650000Y-83359128D01*
X117648720Y-83385188D01*
X117644891Y-83410997D01*
X117638552Y-83436307D01*
X117629762Y-83460873D01*
X117618606Y-83484459D01*
X117605192Y-83506839D01*
X117589650Y-83527795D01*
X117572128Y-83547128D01*
X117552795Y-83564650D01*
X117531839Y-83580192D01*
X117509459Y-83593606D01*
X117485873Y-83604762D01*
X117461307Y-83613552D01*
X117435997Y-83619891D01*
X117410188Y-83623720D01*
X117384128Y-83625000D01*
X116015872Y-83625000D01*
X115989812Y-83623720D01*
X115964003Y-83619891D01*
X115938693Y-83613552D01*
X115914127Y-83604762D01*
X115890541Y-83593606D01*
X115868161Y-83580192D01*
X115847205Y-83564650D01*
X115827872Y-83547128D01*
X115810350Y-83527795D01*
X115794808Y-83506839D01*
X115781394Y-83484459D01*
X115770238Y-83460873D01*
X115761448Y-83436307D01*
X115755109Y-83410997D01*
X115751280Y-83385188D01*
X115750000Y-83359128D01*
X115750000Y-82215872D01*
X115751280Y-82189812D01*
X115755109Y-82164003D01*
X115761448Y-82138693D01*
X115770238Y-82114127D01*
X115781394Y-82090541D01*
X115794808Y-82068161D01*
X115810350Y-82047205D01*
X115827872Y-82027872D01*
X115847205Y-82010350D01*
X115868161Y-81994808D01*
X115890541Y-81981394D01*
X115914127Y-81970238D01*
X115938693Y-81961448D01*
X115964003Y-81955109D01*
X115989812Y-81951280D01*
X116015872Y-81950000D01*
X117384128Y-81950000D01*
X117410188Y-81951280D01*
G37*
%TD*%
D21*
%TO.C,GND*%
X100500000Y-53500000D03*
%TD*%
D17*
%TO.C,H3*%
X188000000Y-53500000D03*
%TD*%
%TO.C,H2*%
X188000000Y-136000000D03*
%TD*%
%TO.C,H1*%
X100500000Y-136000000D03*
%TD*%
D13*
%TO.C,D9*%
X158710000Y-55050000D03*
D22*
X161250000Y-55050000D03*
%TD*%
D13*
%TO.C,D8*%
X168588000Y-112154000D03*
D22*
X166048000Y-112154000D03*
%TD*%
%TO.C,D7*%
X150589000Y-112154000D03*
D13*
X153129000Y-112154000D03*
%TD*%
D22*
%TO.C,D6*%
X138372000Y-112000000D03*
D13*
X135832000Y-112000000D03*
%TD*%
D22*
%TO.C,D5*%
X122613000Y-112100000D03*
D13*
X120073000Y-112100000D03*
%TD*%
%TO.C,D4*%
X168588000Y-80658000D03*
D22*
X166048000Y-80658000D03*
%TD*%
%TO.C,D3*%
X150589000Y-80658000D03*
D13*
X153129000Y-80658000D03*
%TD*%
D22*
%TO.C,D2*%
X138300000Y-80700000D03*
D13*
X135760000Y-80700000D03*
%TD*%
D22*
%TO.C,D1*%
X122613000Y-80658000D03*
D13*
X120073000Y-80658000D03*
%TD*%
M02*
