%TF.GenerationSoftware,KiCad,Pcbnew,5.1.5+dfsg1-2build2*%
%TF.CreationDate,2020-08-29T23:55:17+02:00*%
%TF.ProjectId,sequencer-pcb,73657175-656e-4636-9572-2d7063622e6b,rev?*%
%TF.SameCoordinates,Original*%
%TF.FileFunction,Paste,Top*%
%TF.FilePolarity,Positive*%
%FSLAX46Y46*%
G04 Gerber Fmt 4.6, Leading zero omitted, Abs format (unit mm)*
G04 Created by KiCad (PCBNEW 5.1.5+dfsg1-2build2) date 2020-08-29 23:55:17*
%MOMM*%
%LPD*%
G04 APERTURE LIST*
%ADD10C,0.100000*%
G04 APERTURE END LIST*
D10*
%TO.C,R9*%
G36*
X151424505Y-54151204D02*
G01*
X151448773Y-54154804D01*
X151472572Y-54160765D01*
X151495671Y-54169030D01*
X151517850Y-54179520D01*
X151538893Y-54192132D01*
X151558599Y-54206747D01*
X151576777Y-54223223D01*
X151593253Y-54241401D01*
X151607868Y-54261107D01*
X151620480Y-54282150D01*
X151630970Y-54304329D01*
X151639235Y-54327428D01*
X151645196Y-54351227D01*
X151648796Y-54375495D01*
X151650000Y-54399999D01*
X151650000Y-55700001D01*
X151648796Y-55724505D01*
X151645196Y-55748773D01*
X151639235Y-55772572D01*
X151630970Y-55795671D01*
X151620480Y-55817850D01*
X151607868Y-55838893D01*
X151593253Y-55858599D01*
X151576777Y-55876777D01*
X151558599Y-55893253D01*
X151538893Y-55907868D01*
X151517850Y-55920480D01*
X151495671Y-55930970D01*
X151472572Y-55939235D01*
X151448773Y-55945196D01*
X151424505Y-55948796D01*
X151400001Y-55950000D01*
X150324999Y-55950000D01*
X150300495Y-55948796D01*
X150276227Y-55945196D01*
X150252428Y-55939235D01*
X150229329Y-55930970D01*
X150207150Y-55920480D01*
X150186107Y-55907868D01*
X150166401Y-55893253D01*
X150148223Y-55876777D01*
X150131747Y-55858599D01*
X150117132Y-55838893D01*
X150104520Y-55817850D01*
X150094030Y-55795671D01*
X150085765Y-55772572D01*
X150079804Y-55748773D01*
X150076204Y-55724505D01*
X150075000Y-55700001D01*
X150075000Y-54399999D01*
X150076204Y-54375495D01*
X150079804Y-54351227D01*
X150085765Y-54327428D01*
X150094030Y-54304329D01*
X150104520Y-54282150D01*
X150117132Y-54261107D01*
X150131747Y-54241401D01*
X150148223Y-54223223D01*
X150166401Y-54206747D01*
X150186107Y-54192132D01*
X150207150Y-54179520D01*
X150229329Y-54169030D01*
X150252428Y-54160765D01*
X150276227Y-54154804D01*
X150300495Y-54151204D01*
X150324999Y-54150000D01*
X151400001Y-54150000D01*
X151424505Y-54151204D01*
G37*
G36*
X155599505Y-54151204D02*
G01*
X155623773Y-54154804D01*
X155647572Y-54160765D01*
X155670671Y-54169030D01*
X155692850Y-54179520D01*
X155713893Y-54192132D01*
X155733599Y-54206747D01*
X155751777Y-54223223D01*
X155768253Y-54241401D01*
X155782868Y-54261107D01*
X155795480Y-54282150D01*
X155805970Y-54304329D01*
X155814235Y-54327428D01*
X155820196Y-54351227D01*
X155823796Y-54375495D01*
X155825000Y-54399999D01*
X155825000Y-55700001D01*
X155823796Y-55724505D01*
X155820196Y-55748773D01*
X155814235Y-55772572D01*
X155805970Y-55795671D01*
X155795480Y-55817850D01*
X155782868Y-55838893D01*
X155768253Y-55858599D01*
X155751777Y-55876777D01*
X155733599Y-55893253D01*
X155713893Y-55907868D01*
X155692850Y-55920480D01*
X155670671Y-55930970D01*
X155647572Y-55939235D01*
X155623773Y-55945196D01*
X155599505Y-55948796D01*
X155575001Y-55950000D01*
X154499999Y-55950000D01*
X154475495Y-55948796D01*
X154451227Y-55945196D01*
X154427428Y-55939235D01*
X154404329Y-55930970D01*
X154382150Y-55920480D01*
X154361107Y-55907868D01*
X154341401Y-55893253D01*
X154323223Y-55876777D01*
X154306747Y-55858599D01*
X154292132Y-55838893D01*
X154279520Y-55817850D01*
X154269030Y-55795671D01*
X154260765Y-55772572D01*
X154254804Y-55748773D01*
X154251204Y-55724505D01*
X154250000Y-55700001D01*
X154250000Y-54399999D01*
X154251204Y-54375495D01*
X154254804Y-54351227D01*
X154260765Y-54327428D01*
X154269030Y-54304329D01*
X154279520Y-54282150D01*
X154292132Y-54261107D01*
X154306747Y-54241401D01*
X154323223Y-54223223D01*
X154341401Y-54206747D01*
X154361107Y-54192132D01*
X154382150Y-54179520D01*
X154404329Y-54169030D01*
X154427428Y-54160765D01*
X154451227Y-54154804D01*
X154475495Y-54151204D01*
X154499999Y-54150000D01*
X155575001Y-54150000D01*
X155599505Y-54151204D01*
G37*
%TD*%
M02*
