%TF.GenerationSoftware,KiCad,Pcbnew,(5.1.6-0-10_14)*%
%TF.CreationDate,2020-09-17T09:32:26+02:00*%
%TF.ProjectId,cv_expander,63765f65-7870-4616-9e64-65722e6b6963,rev?*%
%TF.SameCoordinates,Original*%
%TF.FileFunction,Soldermask,Bot*%
%TF.FilePolarity,Negative*%
%FSLAX46Y46*%
G04 Gerber Fmt 4.6, Leading zero omitted, Abs format (unit mm)*
G04 Created by KiCad (PCBNEW (5.1.6-0-10_14)) date 2020-09-17 09:32:26*
%MOMM*%
%LPD*%
G01*
G04 APERTURE LIST*
%ADD10R,2.200000X2.200000*%
%ADD11C,5.400000*%
%ADD12O,1.700000X1.700000*%
%ADD13R,1.700000X1.700000*%
%ADD14C,3.000000*%
G04 APERTURE END LIST*
D10*
%TO.C,J14*%
X154900000Y-157000000D03*
X150100000Y-157000000D03*
X145600000Y-157000000D03*
%TD*%
D11*
%TO.C,GND*%
X152250000Y-52750000D03*
%TD*%
D10*
%TO.C,J10*%
X154900000Y-108221208D03*
X150100000Y-108221208D03*
X145600000Y-108221208D03*
%TD*%
D12*
%TO.C,J1*%
X135812000Y-131064000D03*
X135812000Y-128524000D03*
X135812000Y-125984000D03*
X135812000Y-123444000D03*
X135812000Y-120904000D03*
X135812000Y-118364000D03*
X135812000Y-115824000D03*
X135812000Y-113284000D03*
X135812000Y-110744000D03*
X135812000Y-108204000D03*
X135812000Y-105664000D03*
X135812000Y-103124000D03*
X135812000Y-100584000D03*
X135812000Y-98044000D03*
X135812000Y-95504000D03*
X135812000Y-92964000D03*
X135812000Y-90424000D03*
X135812000Y-87884000D03*
X135812000Y-85344000D03*
D13*
X135812000Y-82804000D03*
%TD*%
D10*
%TO.C,J7*%
X154900000Y-77763255D03*
X150100000Y-77763255D03*
X145600000Y-77763255D03*
%TD*%
%TO.C,J6*%
X154900000Y-67610604D03*
X150100000Y-67610604D03*
X145600000Y-67610604D03*
%TD*%
%TO.C,J5*%
X137900000Y-57457953D03*
X133100000Y-57457953D03*
X128600000Y-57457953D03*
%TD*%
%TO.C,J4*%
X137900000Y-47200000D03*
X133100000Y-47200000D03*
X128600000Y-47200000D03*
%TD*%
%TO.C,J3*%
X154900000Y-37152651D03*
X150100000Y-37152651D03*
X145600000Y-37152651D03*
%TD*%
%TO.C,J2*%
X154900000Y-27000000D03*
X150100000Y-27000000D03*
X145600000Y-27000000D03*
%TD*%
%TO.C,J13*%
X154900000Y-138679163D03*
X150100000Y-138679163D03*
X145600000Y-138679163D03*
%TD*%
%TO.C,J12*%
X154900000Y-128526510D03*
X150100000Y-128526510D03*
X145600000Y-128526510D03*
%TD*%
%TO.C,J11*%
X154900000Y-118373859D03*
X150100000Y-118373859D03*
X145600000Y-118373859D03*
%TD*%
%TO.C,J9*%
X154900000Y-98068557D03*
X150100000Y-98068557D03*
X145600000Y-98068557D03*
%TD*%
%TO.C,J8*%
X154900000Y-87915906D03*
X150100000Y-87915906D03*
X145600000Y-87915906D03*
%TD*%
D14*
%TO.C,GND*%
X144300000Y-147400000D03*
%TD*%
D11*
%TO.C,H1*%
X152250000Y-147750000D03*
%TD*%
M02*
