%TF.GenerationSoftware,KiCad,Pcbnew,(5.1.6-0-10_14)*%
%TF.CreationDate,2020-09-17T09:32:26+02:00*%
%TF.ProjectId,cv_expander,63765f65-7870-4616-9e64-65722e6b6963,rev?*%
%TF.SameCoordinates,Original*%
%TF.FileFunction,Legend,Top*%
%TF.FilePolarity,Positive*%
%FSLAX46Y46*%
G04 Gerber Fmt 4.6, Leading zero omitted, Abs format (unit mm)*
G04 Created by KiCad (PCBNEW (5.1.6-0-10_14)) date 2020-09-17 09:32:26*
%MOMM*%
%LPD*%
G01*
G04 APERTURE LIST*
%ADD10C,0.150000*%
%ADD11C,0.125000*%
%ADD12C,0.120000*%
G04 APERTURE END LIST*
D10*
X128700000Y-144300000D02*
X157000000Y-144300000D01*
D11*
X140857142Y-158539285D02*
X140428571Y-158539285D01*
X140642857Y-158539285D02*
X140642857Y-157789285D01*
X140571428Y-157896428D01*
X140500000Y-157967857D01*
X140428571Y-158003571D01*
X141107142Y-157789285D02*
X141571428Y-157789285D01*
X141321428Y-158075000D01*
X141428571Y-158075000D01*
X141500000Y-158110714D01*
X141535714Y-158146428D01*
X141571428Y-158217857D01*
X141571428Y-158396428D01*
X141535714Y-158467857D01*
X141500000Y-158503571D01*
X141428571Y-158539285D01*
X141214285Y-158539285D01*
X141142857Y-158503571D01*
X141107142Y-158467857D01*
X140657142Y-139739285D02*
X140228571Y-139739285D01*
X140442857Y-139739285D02*
X140442857Y-138989285D01*
X140371428Y-139096428D01*
X140300000Y-139167857D01*
X140228571Y-139203571D01*
X140942857Y-139060714D02*
X140978571Y-139025000D01*
X141050000Y-138989285D01*
X141228571Y-138989285D01*
X141300000Y-139025000D01*
X141335714Y-139060714D01*
X141371428Y-139132142D01*
X141371428Y-139203571D01*
X141335714Y-139310714D01*
X140907142Y-139739285D01*
X141371428Y-139739285D01*
X140857142Y-129939285D02*
X140428571Y-129939285D01*
X140642857Y-129939285D02*
X140642857Y-129189285D01*
X140571428Y-129296428D01*
X140500000Y-129367857D01*
X140428571Y-129403571D01*
X141571428Y-129939285D02*
X141142857Y-129939285D01*
X141357142Y-129939285D02*
X141357142Y-129189285D01*
X141285714Y-129296428D01*
X141214285Y-129367857D01*
X141142857Y-129403571D01*
X140657142Y-119939285D02*
X140228571Y-119939285D01*
X140442857Y-119939285D02*
X140442857Y-119189285D01*
X140371428Y-119296428D01*
X140300000Y-119367857D01*
X140228571Y-119403571D01*
X141121428Y-119189285D02*
X141192857Y-119189285D01*
X141264285Y-119225000D01*
X141300000Y-119260714D01*
X141335714Y-119332142D01*
X141371428Y-119475000D01*
X141371428Y-119653571D01*
X141335714Y-119796428D01*
X141300000Y-119867857D01*
X141264285Y-119903571D01*
X141192857Y-119939285D01*
X141121428Y-119939285D01*
X141050000Y-119903571D01*
X141014285Y-119867857D01*
X140978571Y-119796428D01*
X140942857Y-119653571D01*
X140942857Y-119475000D01*
X140978571Y-119332142D01*
X141014285Y-119260714D01*
X141050000Y-119225000D01*
X141121428Y-119189285D01*
X140657142Y-109739285D02*
X140800000Y-109739285D01*
X140871428Y-109703571D01*
X140907142Y-109667857D01*
X140978571Y-109560714D01*
X141014285Y-109417857D01*
X141014285Y-109132142D01*
X140978571Y-109060714D01*
X140942857Y-109025000D01*
X140871428Y-108989285D01*
X140728571Y-108989285D01*
X140657142Y-109025000D01*
X140621428Y-109060714D01*
X140585714Y-109132142D01*
X140585714Y-109310714D01*
X140621428Y-109382142D01*
X140657142Y-109417857D01*
X140728571Y-109453571D01*
X140871428Y-109453571D01*
X140942857Y-109417857D01*
X140978571Y-109382142D01*
X141014285Y-109310714D01*
X140678571Y-99310714D02*
X140607142Y-99275000D01*
X140571428Y-99239285D01*
X140535714Y-99167857D01*
X140535714Y-99132142D01*
X140571428Y-99060714D01*
X140607142Y-99025000D01*
X140678571Y-98989285D01*
X140821428Y-98989285D01*
X140892857Y-99025000D01*
X140928571Y-99060714D01*
X140964285Y-99132142D01*
X140964285Y-99167857D01*
X140928571Y-99239285D01*
X140892857Y-99275000D01*
X140821428Y-99310714D01*
X140678571Y-99310714D01*
X140607142Y-99346428D01*
X140571428Y-99382142D01*
X140535714Y-99453571D01*
X140535714Y-99596428D01*
X140571428Y-99667857D01*
X140607142Y-99703571D01*
X140678571Y-99739285D01*
X140821428Y-99739285D01*
X140892857Y-99703571D01*
X140928571Y-99667857D01*
X140964285Y-99596428D01*
X140964285Y-99453571D01*
X140928571Y-99382142D01*
X140892857Y-99346428D01*
X140821428Y-99310714D01*
X140950000Y-88989285D02*
X141450000Y-88989285D01*
X141128571Y-89739285D01*
X140742857Y-78789285D02*
X140600000Y-78789285D01*
X140528571Y-78825000D01*
X140492857Y-78860714D01*
X140421428Y-78967857D01*
X140385714Y-79110714D01*
X140385714Y-79396428D01*
X140421428Y-79467857D01*
X140457142Y-79503571D01*
X140528571Y-79539285D01*
X140671428Y-79539285D01*
X140742857Y-79503571D01*
X140778571Y-79467857D01*
X140814285Y-79396428D01*
X140814285Y-79217857D01*
X140778571Y-79146428D01*
X140742857Y-79110714D01*
X140671428Y-79075000D01*
X140528571Y-79075000D01*
X140457142Y-79110714D01*
X140421428Y-79146428D01*
X140385714Y-79217857D01*
X140378571Y-68789285D02*
X140021428Y-68789285D01*
X139985714Y-69146428D01*
X140021428Y-69110714D01*
X140092857Y-69075000D01*
X140271428Y-69075000D01*
X140342857Y-69110714D01*
X140378571Y-69146428D01*
X140414285Y-69217857D01*
X140414285Y-69396428D01*
X140378571Y-69467857D01*
X140342857Y-69503571D01*
X140271428Y-69539285D01*
X140092857Y-69539285D01*
X140021428Y-69503571D01*
X139985714Y-69467857D01*
X135942857Y-63239285D02*
X135942857Y-63739285D01*
X135764285Y-62953571D02*
X135585714Y-63489285D01*
X136050000Y-63489285D01*
X135550000Y-40989285D02*
X136014285Y-40989285D01*
X135764285Y-41275000D01*
X135871428Y-41275000D01*
X135942857Y-41310714D01*
X135978571Y-41346428D01*
X136014285Y-41417857D01*
X136014285Y-41596428D01*
X135978571Y-41667857D01*
X135942857Y-41703571D01*
X135871428Y-41739285D01*
X135657142Y-41739285D01*
X135585714Y-41703571D01*
X135550000Y-41667857D01*
X140585714Y-38060714D02*
X140621428Y-38025000D01*
X140692857Y-37989285D01*
X140871428Y-37989285D01*
X140942857Y-38025000D01*
X140978571Y-38060714D01*
X141014285Y-38132142D01*
X141014285Y-38203571D01*
X140978571Y-38310714D01*
X140550000Y-38739285D01*
X141014285Y-38739285D01*
X141014285Y-28539285D02*
X140585714Y-28539285D01*
X140800000Y-28539285D02*
X140800000Y-27789285D01*
X140728571Y-27896428D01*
X140657142Y-27967857D01*
X140585714Y-28003571D01*
X132857142Y-130339285D02*
X132428571Y-130339285D01*
X132642857Y-130339285D02*
X132642857Y-129589285D01*
X132571428Y-129696428D01*
X132500000Y-129767857D01*
X132428571Y-129803571D01*
X133107142Y-129589285D02*
X133571428Y-129589285D01*
X133321428Y-129875000D01*
X133428571Y-129875000D01*
X133500000Y-129910714D01*
X133535714Y-129946428D01*
X133571428Y-130017857D01*
X133571428Y-130196428D01*
X133535714Y-130267857D01*
X133500000Y-130303571D01*
X133428571Y-130339285D01*
X133214285Y-130339285D01*
X133142857Y-130303571D01*
X133107142Y-130267857D01*
X132857142Y-125339285D02*
X132428571Y-125339285D01*
X132642857Y-125339285D02*
X132642857Y-124589285D01*
X132571428Y-124696428D01*
X132500000Y-124767857D01*
X132428571Y-124803571D01*
X133142857Y-124660714D02*
X133178571Y-124625000D01*
X133250000Y-124589285D01*
X133428571Y-124589285D01*
X133500000Y-124625000D01*
X133535714Y-124660714D01*
X133571428Y-124732142D01*
X133571428Y-124803571D01*
X133535714Y-124910714D01*
X133107142Y-125339285D01*
X133571428Y-125339285D01*
X132857142Y-120339285D02*
X132428571Y-120339285D01*
X132642857Y-120339285D02*
X132642857Y-119589285D01*
X132571428Y-119696428D01*
X132500000Y-119767857D01*
X132428571Y-119803571D01*
X133571428Y-120339285D02*
X133142857Y-120339285D01*
X133357142Y-120339285D02*
X133357142Y-119589285D01*
X133285714Y-119696428D01*
X133214285Y-119767857D01*
X133142857Y-119803571D01*
X132857142Y-115339285D02*
X132428571Y-115339285D01*
X132642857Y-115339285D02*
X132642857Y-114589285D01*
X132571428Y-114696428D01*
X132500000Y-114767857D01*
X132428571Y-114803571D01*
X133321428Y-114589285D02*
X133392857Y-114589285D01*
X133464285Y-114625000D01*
X133500000Y-114660714D01*
X133535714Y-114732142D01*
X133571428Y-114875000D01*
X133571428Y-115053571D01*
X133535714Y-115196428D01*
X133500000Y-115267857D01*
X133464285Y-115303571D01*
X133392857Y-115339285D01*
X133321428Y-115339285D01*
X133250000Y-115303571D01*
X133214285Y-115267857D01*
X133178571Y-115196428D01*
X133142857Y-115053571D01*
X133142857Y-114875000D01*
X133178571Y-114732142D01*
X133214285Y-114660714D01*
X133250000Y-114625000D01*
X133321428Y-114589285D01*
X133357142Y-109839285D02*
X133500000Y-109839285D01*
X133571428Y-109803571D01*
X133607142Y-109767857D01*
X133678571Y-109660714D01*
X133714285Y-109517857D01*
X133714285Y-109232142D01*
X133678571Y-109160714D01*
X133642857Y-109125000D01*
X133571428Y-109089285D01*
X133428571Y-109089285D01*
X133357142Y-109125000D01*
X133321428Y-109160714D01*
X133285714Y-109232142D01*
X133285714Y-109410714D01*
X133321428Y-109482142D01*
X133357142Y-109517857D01*
X133428571Y-109553571D01*
X133571428Y-109553571D01*
X133642857Y-109517857D01*
X133678571Y-109482142D01*
X133714285Y-109410714D01*
X133428571Y-104410714D02*
X133357142Y-104375000D01*
X133321428Y-104339285D01*
X133285714Y-104267857D01*
X133285714Y-104232142D01*
X133321428Y-104160714D01*
X133357142Y-104125000D01*
X133428571Y-104089285D01*
X133571428Y-104089285D01*
X133642857Y-104125000D01*
X133678571Y-104160714D01*
X133714285Y-104232142D01*
X133714285Y-104267857D01*
X133678571Y-104339285D01*
X133642857Y-104375000D01*
X133571428Y-104410714D01*
X133428571Y-104410714D01*
X133357142Y-104446428D01*
X133321428Y-104482142D01*
X133285714Y-104553571D01*
X133285714Y-104696428D01*
X133321428Y-104767857D01*
X133357142Y-104803571D01*
X133428571Y-104839285D01*
X133571428Y-104839285D01*
X133642857Y-104803571D01*
X133678571Y-104767857D01*
X133714285Y-104696428D01*
X133714285Y-104553571D01*
X133678571Y-104482142D01*
X133642857Y-104446428D01*
X133571428Y-104410714D01*
X133250000Y-99089285D02*
X133750000Y-99089285D01*
X133428571Y-99839285D01*
D10*
X133190476Y-95202380D02*
X133000000Y-95202380D01*
X132904761Y-95250000D01*
X132857142Y-95297619D01*
X132761904Y-95440476D01*
X132714285Y-95630952D01*
X132714285Y-96011904D01*
X132761904Y-96107142D01*
X132809523Y-96154761D01*
X132904761Y-96202380D01*
X133095238Y-96202380D01*
X133190476Y-96154761D01*
X133238095Y-96107142D01*
X133285714Y-96011904D01*
X133285714Y-95773809D01*
X133238095Y-95678571D01*
X133190476Y-95630952D01*
X133095238Y-95583333D01*
X132904761Y-95583333D01*
X132809523Y-95630952D01*
X132761904Y-95678571D01*
X132714285Y-95773809D01*
X133238095Y-92602380D02*
X132761904Y-92602380D01*
X132714285Y-93078571D01*
X132761904Y-93030952D01*
X132857142Y-92983333D01*
X133095238Y-92983333D01*
X133190476Y-93030952D01*
X133238095Y-93078571D01*
X133285714Y-93173809D01*
X133285714Y-93411904D01*
X133238095Y-93507142D01*
X133190476Y-93554761D01*
X133095238Y-93602380D01*
X132857142Y-93602380D01*
X132761904Y-93554761D01*
X132714285Y-93507142D01*
X133190476Y-90335714D02*
X133190476Y-91002380D01*
X132952380Y-89954761D02*
X132714285Y-90669047D01*
X133333333Y-90669047D01*
X132666666Y-87402380D02*
X133285714Y-87402380D01*
X132952380Y-87783333D01*
X133095238Y-87783333D01*
X133190476Y-87830952D01*
X133238095Y-87878571D01*
X133285714Y-87973809D01*
X133285714Y-88211904D01*
X133238095Y-88307142D01*
X133190476Y-88354761D01*
X133095238Y-88402380D01*
X132809523Y-88402380D01*
X132714285Y-88354761D01*
X132666666Y-88307142D01*
X132714285Y-84897619D02*
X132761904Y-84850000D01*
X132857142Y-84802380D01*
X133095238Y-84802380D01*
X133190476Y-84850000D01*
X133238095Y-84897619D01*
X133285714Y-84992857D01*
X133285714Y-85088095D01*
X133238095Y-85230952D01*
X132666666Y-85802380D01*
X133285714Y-85802380D01*
X133285714Y-83202380D02*
X132714285Y-83202380D01*
X133000000Y-83202380D02*
X133000000Y-82202380D01*
X132904761Y-82345238D01*
X132809523Y-82440476D01*
X132714285Y-82488095D01*
X133000000Y-99000000D02*
X133500000Y-98500000D01*
X133000000Y-100000000D02*
X133500000Y-100500000D01*
X133000000Y-101000000D02*
X133500000Y-100500000D01*
X133000000Y-101000000D02*
X133000000Y-98000000D01*
X133000000Y-98000000D02*
X133500000Y-98500000D01*
X133000000Y-104000000D02*
X133500000Y-103500000D01*
X133000000Y-105000000D02*
X133500000Y-105500000D01*
X133000000Y-106000000D02*
X133500000Y-105500000D01*
X133000000Y-106000000D02*
X133000000Y-103000000D01*
X133000000Y-103000000D02*
X133500000Y-103500000D01*
X133000000Y-109000000D02*
X133500000Y-108500000D01*
X133000000Y-110000000D02*
X133500000Y-110500000D01*
X133000000Y-111000000D02*
X133500000Y-110500000D01*
X133000000Y-111000000D02*
X133000000Y-108000000D01*
X133000000Y-108000000D02*
X133500000Y-108500000D01*
X133000000Y-114500000D02*
X133500000Y-114000000D01*
X133000000Y-115500000D02*
X133500000Y-116000000D01*
X133000000Y-116500000D02*
X133500000Y-116000000D01*
X133000000Y-116500000D02*
X133000000Y-113500000D01*
X133000000Y-113500000D02*
X133500000Y-114000000D01*
X133000000Y-119500000D02*
X133500000Y-119000000D01*
X133000000Y-120500000D02*
X133500000Y-121000000D01*
X133000000Y-121500000D02*
X133500000Y-121000000D01*
X133000000Y-121500000D02*
X133000000Y-118500000D01*
X133000000Y-118500000D02*
X133500000Y-119000000D01*
X133000000Y-124500000D02*
X133500000Y-124000000D01*
X133000000Y-125500000D02*
X133500000Y-126000000D01*
X133000000Y-126500000D02*
X133500000Y-126000000D01*
X133000000Y-126500000D02*
X133000000Y-123500000D01*
X133000000Y-123500000D02*
X133500000Y-124000000D01*
X133000000Y-130500000D02*
X133500000Y-131000000D01*
X133000000Y-131500000D02*
X133500000Y-131000000D01*
X133000000Y-129500000D02*
X133500000Y-129000000D01*
X133000000Y-128500000D02*
X133500000Y-129000000D01*
X133000000Y-131500000D02*
X133000000Y-128500000D01*
D11*
X133732142Y-134766071D02*
X133708333Y-134789880D01*
X133636904Y-134813690D01*
X133589285Y-134813690D01*
X133517857Y-134789880D01*
X133470238Y-134742261D01*
X133446428Y-134694642D01*
X133422619Y-134599404D01*
X133422619Y-134527976D01*
X133446428Y-134432738D01*
X133470238Y-134385119D01*
X133517857Y-134337500D01*
X133589285Y-134313690D01*
X133636904Y-134313690D01*
X133708333Y-134337500D01*
X133732142Y-134361309D01*
X133875000Y-134313690D02*
X134041666Y-134813690D01*
X134208333Y-134313690D01*
X134755952Y-134551785D02*
X134922619Y-134551785D01*
X134994047Y-134813690D02*
X134755952Y-134813690D01*
X134755952Y-134313690D01*
X134994047Y-134313690D01*
X135160714Y-134813690D02*
X135422619Y-134480357D01*
X135160714Y-134480357D02*
X135422619Y-134813690D01*
X135613095Y-134480357D02*
X135613095Y-134980357D01*
X135613095Y-134504166D02*
X135660714Y-134480357D01*
X135755952Y-134480357D01*
X135803571Y-134504166D01*
X135827380Y-134527976D01*
X135851190Y-134575595D01*
X135851190Y-134718452D01*
X135827380Y-134766071D01*
X135803571Y-134789880D01*
X135755952Y-134813690D01*
X135660714Y-134813690D01*
X135613095Y-134789880D01*
X136279761Y-134813690D02*
X136279761Y-134551785D01*
X136255952Y-134504166D01*
X136208333Y-134480357D01*
X136113095Y-134480357D01*
X136065476Y-134504166D01*
X136279761Y-134789880D02*
X136232142Y-134813690D01*
X136113095Y-134813690D01*
X136065476Y-134789880D01*
X136041666Y-134742261D01*
X136041666Y-134694642D01*
X136065476Y-134647023D01*
X136113095Y-134623214D01*
X136232142Y-134623214D01*
X136279761Y-134599404D01*
X136517857Y-134480357D02*
X136517857Y-134813690D01*
X136517857Y-134527976D02*
X136541666Y-134504166D01*
X136589285Y-134480357D01*
X136660714Y-134480357D01*
X136708333Y-134504166D01*
X136732142Y-134551785D01*
X136732142Y-134813690D01*
X137184523Y-134813690D02*
X137184523Y-134313690D01*
X137184523Y-134789880D02*
X137136904Y-134813690D01*
X137041666Y-134813690D01*
X136994047Y-134789880D01*
X136970238Y-134766071D01*
X136946428Y-134718452D01*
X136946428Y-134575595D01*
X136970238Y-134527976D01*
X136994047Y-134504166D01*
X137041666Y-134480357D01*
X137136904Y-134480357D01*
X137184523Y-134504166D01*
X137613095Y-134789880D02*
X137565476Y-134813690D01*
X137470238Y-134813690D01*
X137422619Y-134789880D01*
X137398809Y-134742261D01*
X137398809Y-134551785D01*
X137422619Y-134504166D01*
X137470238Y-134480357D01*
X137565476Y-134480357D01*
X137613095Y-134504166D01*
X137636904Y-134551785D01*
X137636904Y-134599404D01*
X137398809Y-134647023D01*
X137851190Y-134813690D02*
X137851190Y-134480357D01*
X137851190Y-134575595D02*
X137875000Y-134527976D01*
X137898809Y-134504166D01*
X137946428Y-134480357D01*
X137994047Y-134480357D01*
X131363095Y-135355357D02*
X131553571Y-135355357D01*
X131434523Y-135688690D02*
X131434523Y-135260119D01*
X131458333Y-135212500D01*
X131505952Y-135188690D01*
X131553571Y-135188690D01*
X131791666Y-135688690D02*
X131744047Y-135664880D01*
X131720238Y-135641071D01*
X131696428Y-135593452D01*
X131696428Y-135450595D01*
X131720238Y-135402976D01*
X131744047Y-135379166D01*
X131791666Y-135355357D01*
X131863095Y-135355357D01*
X131910714Y-135379166D01*
X131934523Y-135402976D01*
X131958333Y-135450595D01*
X131958333Y-135593452D01*
X131934523Y-135641071D01*
X131910714Y-135664880D01*
X131863095Y-135688690D01*
X131791666Y-135688690D01*
X132172619Y-135688690D02*
X132172619Y-135355357D01*
X132172619Y-135450595D02*
X132196428Y-135402976D01*
X132220238Y-135379166D01*
X132267857Y-135355357D01*
X132315476Y-135355357D01*
X132863095Y-135688690D02*
X132863095Y-135188690D01*
X133029761Y-135545833D01*
X133196428Y-135188690D01*
X133196428Y-135688690D01*
X133505952Y-135688690D02*
X133458333Y-135664880D01*
X133434523Y-135641071D01*
X133410714Y-135593452D01*
X133410714Y-135450595D01*
X133434523Y-135402976D01*
X133458333Y-135379166D01*
X133505952Y-135355357D01*
X133577380Y-135355357D01*
X133625000Y-135379166D01*
X133648809Y-135402976D01*
X133672619Y-135450595D01*
X133672619Y-135593452D01*
X133648809Y-135641071D01*
X133625000Y-135664880D01*
X133577380Y-135688690D01*
X133505952Y-135688690D01*
X133958333Y-135688690D02*
X133910714Y-135664880D01*
X133886904Y-135641071D01*
X133863095Y-135593452D01*
X133863095Y-135450595D01*
X133886904Y-135402976D01*
X133910714Y-135379166D01*
X133958333Y-135355357D01*
X134029761Y-135355357D01*
X134077380Y-135379166D01*
X134101190Y-135402976D01*
X134125000Y-135450595D01*
X134125000Y-135593452D01*
X134101190Y-135641071D01*
X134077380Y-135664880D01*
X134029761Y-135688690D01*
X133958333Y-135688690D01*
X134553571Y-135355357D02*
X134553571Y-135760119D01*
X134529761Y-135807738D01*
X134505952Y-135831547D01*
X134458333Y-135855357D01*
X134386904Y-135855357D01*
X134339285Y-135831547D01*
X134553571Y-135664880D02*
X134505952Y-135688690D01*
X134410714Y-135688690D01*
X134363095Y-135664880D01*
X134339285Y-135641071D01*
X134315476Y-135593452D01*
X134315476Y-135450595D01*
X134339285Y-135402976D01*
X134363095Y-135379166D01*
X134410714Y-135355357D01*
X134505952Y-135355357D01*
X134553571Y-135379166D01*
X135125000Y-135188690D02*
X135244047Y-135688690D01*
X135339285Y-135331547D01*
X135434523Y-135688690D01*
X135553571Y-135188690D01*
X135934523Y-135664880D02*
X135886904Y-135688690D01*
X135791666Y-135688690D01*
X135744047Y-135664880D01*
X135720238Y-135617261D01*
X135720238Y-135426785D01*
X135744047Y-135379166D01*
X135791666Y-135355357D01*
X135886904Y-135355357D01*
X135934523Y-135379166D01*
X135958333Y-135426785D01*
X135958333Y-135474404D01*
X135720238Y-135522023D01*
X136172619Y-135688690D02*
X136172619Y-135355357D01*
X136172619Y-135450595D02*
X136196428Y-135402976D01*
X136220238Y-135379166D01*
X136267857Y-135355357D01*
X136315476Y-135355357D01*
X136482142Y-135688690D02*
X136482142Y-135188690D01*
X136529761Y-135498214D02*
X136672619Y-135688690D01*
X136672619Y-135355357D02*
X136482142Y-135545833D01*
X136863095Y-135664880D02*
X136910714Y-135688690D01*
X137005952Y-135688690D01*
X137053571Y-135664880D01*
X137077380Y-135617261D01*
X137077380Y-135593452D01*
X137053571Y-135545833D01*
X137005952Y-135522023D01*
X136934523Y-135522023D01*
X136886904Y-135498214D01*
X136863095Y-135450595D01*
X136863095Y-135426785D01*
X136886904Y-135379166D01*
X136934523Y-135355357D01*
X137005952Y-135355357D01*
X137053571Y-135379166D01*
X137220238Y-135355357D02*
X137410714Y-135355357D01*
X137291666Y-135188690D02*
X137291666Y-135617261D01*
X137315476Y-135664880D01*
X137363095Y-135688690D01*
X137410714Y-135688690D01*
X137791666Y-135688690D02*
X137791666Y-135426785D01*
X137767857Y-135379166D01*
X137720238Y-135355357D01*
X137625000Y-135355357D01*
X137577380Y-135379166D01*
X137791666Y-135664880D02*
X137744047Y-135688690D01*
X137625000Y-135688690D01*
X137577380Y-135664880D01*
X137553571Y-135617261D01*
X137553571Y-135569642D01*
X137577380Y-135522023D01*
X137625000Y-135498214D01*
X137744047Y-135498214D01*
X137791666Y-135474404D01*
X137958333Y-135355357D02*
X138148809Y-135355357D01*
X138029761Y-135188690D02*
X138029761Y-135617261D01*
X138053571Y-135664880D01*
X138101190Y-135688690D01*
X138148809Y-135688690D01*
X138244047Y-135355357D02*
X138434523Y-135355357D01*
X138315476Y-135188690D02*
X138315476Y-135617261D01*
X138339285Y-135664880D01*
X138386904Y-135688690D01*
X138434523Y-135688690D01*
X138601190Y-135498214D02*
X138982142Y-135498214D01*
X139315476Y-135188690D02*
X139363095Y-135188690D01*
X139410714Y-135212500D01*
X139434523Y-135236309D01*
X139458333Y-135283928D01*
X139482142Y-135379166D01*
X139482142Y-135498214D01*
X139458333Y-135593452D01*
X139434523Y-135641071D01*
X139410714Y-135664880D01*
X139363095Y-135688690D01*
X139315476Y-135688690D01*
X139267857Y-135664880D01*
X139244047Y-135641071D01*
X139220238Y-135593452D01*
X139196428Y-135498214D01*
X139196428Y-135379166D01*
X139220238Y-135283928D01*
X139244047Y-135236309D01*
X139267857Y-135212500D01*
X139315476Y-135188690D01*
X139958333Y-135688690D02*
X139672619Y-135688690D01*
X139815476Y-135688690D02*
X139815476Y-135188690D01*
X139767857Y-135260119D01*
X139720238Y-135307738D01*
X139672619Y-135331547D01*
X131553571Y-136182738D02*
X131505952Y-136158928D01*
X131410714Y-136158928D01*
X131363095Y-136182738D01*
X131315476Y-136230357D01*
X131291666Y-136277976D01*
X131291666Y-136373214D01*
X131315476Y-136420833D01*
X131363095Y-136468452D01*
X131410714Y-136492261D01*
X131505952Y-136492261D01*
X131553571Y-136468452D01*
X131458333Y-135992261D02*
X131339285Y-136016071D01*
X131220238Y-136087500D01*
X131148809Y-136206547D01*
X131125000Y-136325595D01*
X131148809Y-136444642D01*
X131220238Y-136563690D01*
X131339285Y-136635119D01*
X131458333Y-136658928D01*
X131577380Y-136635119D01*
X131696428Y-136563690D01*
X131767857Y-136444642D01*
X131791666Y-136325595D01*
X131767857Y-136206547D01*
X131696428Y-136087500D01*
X131577380Y-136016071D01*
X131458333Y-135992261D01*
X132386904Y-136563690D02*
X132386904Y-136063690D01*
X132672619Y-136563690D02*
X132458333Y-136277976D01*
X132672619Y-136063690D02*
X132386904Y-136349404D01*
X133101190Y-136563690D02*
X133101190Y-136301785D01*
X133077380Y-136254166D01*
X133029761Y-136230357D01*
X132934523Y-136230357D01*
X132886904Y-136254166D01*
X133101190Y-136539880D02*
X133053571Y-136563690D01*
X132934523Y-136563690D01*
X132886904Y-136539880D01*
X132863095Y-136492261D01*
X132863095Y-136444642D01*
X132886904Y-136397023D01*
X132934523Y-136373214D01*
X133053571Y-136373214D01*
X133101190Y-136349404D01*
X133339285Y-136563690D02*
X133339285Y-136230357D01*
X133339285Y-136325595D02*
X133363095Y-136277976D01*
X133386904Y-136254166D01*
X133434523Y-136230357D01*
X133482142Y-136230357D01*
X133720238Y-136563690D02*
X133672619Y-136539880D01*
X133648809Y-136492261D01*
X133648809Y-136063690D01*
X134434523Y-136063690D02*
X134434523Y-136420833D01*
X134410714Y-136492261D01*
X134363095Y-136539880D01*
X134291666Y-136563690D01*
X134244047Y-136563690D01*
X134744047Y-136563690D02*
X134696428Y-136539880D01*
X134672619Y-136516071D01*
X134648809Y-136468452D01*
X134648809Y-136325595D01*
X134672619Y-136277976D01*
X134696428Y-136254166D01*
X134744047Y-136230357D01*
X134815476Y-136230357D01*
X134863095Y-136254166D01*
X134886904Y-136277976D01*
X134910714Y-136325595D01*
X134910714Y-136468452D01*
X134886904Y-136516071D01*
X134863095Y-136539880D01*
X134815476Y-136563690D01*
X134744047Y-136563690D01*
X135125000Y-136563690D02*
X135125000Y-136063690D01*
X135339285Y-136563690D02*
X135339285Y-136301785D01*
X135315476Y-136254166D01*
X135267857Y-136230357D01*
X135196428Y-136230357D01*
X135148809Y-136254166D01*
X135125000Y-136277976D01*
X135791666Y-136563690D02*
X135791666Y-136301785D01*
X135767857Y-136254166D01*
X135720238Y-136230357D01*
X135625000Y-136230357D01*
X135577380Y-136254166D01*
X135791666Y-136539880D02*
X135744047Y-136563690D01*
X135625000Y-136563690D01*
X135577380Y-136539880D01*
X135553571Y-136492261D01*
X135553571Y-136444642D01*
X135577380Y-136397023D01*
X135625000Y-136373214D01*
X135744047Y-136373214D01*
X135791666Y-136349404D01*
X136029761Y-136230357D02*
X136029761Y-136563690D01*
X136029761Y-136277976D02*
X136053571Y-136254166D01*
X136101190Y-136230357D01*
X136172619Y-136230357D01*
X136220238Y-136254166D01*
X136244047Y-136301785D01*
X136244047Y-136563690D01*
X136482142Y-136230357D02*
X136482142Y-136563690D01*
X136482142Y-136277976D02*
X136505952Y-136254166D01*
X136553571Y-136230357D01*
X136625000Y-136230357D01*
X136672619Y-136254166D01*
X136696428Y-136301785D01*
X136696428Y-136563690D01*
X137125000Y-136539880D02*
X137077380Y-136563690D01*
X136982142Y-136563690D01*
X136934523Y-136539880D01*
X136910714Y-136492261D01*
X136910714Y-136301785D01*
X136934523Y-136254166D01*
X136982142Y-136230357D01*
X137077380Y-136230357D01*
X137125000Y-136254166D01*
X137148809Y-136301785D01*
X137148809Y-136349404D01*
X136910714Y-136397023D01*
X137339285Y-136539880D02*
X137386904Y-136563690D01*
X137482142Y-136563690D01*
X137529761Y-136539880D01*
X137553571Y-136492261D01*
X137553571Y-136468452D01*
X137529761Y-136420833D01*
X137482142Y-136397023D01*
X137410714Y-136397023D01*
X137363095Y-136373214D01*
X137339285Y-136325595D01*
X137339285Y-136301785D01*
X137363095Y-136254166D01*
X137410714Y-136230357D01*
X137482142Y-136230357D01*
X137529761Y-136254166D01*
X138291666Y-136063690D02*
X138291666Y-136420833D01*
X138267857Y-136492261D01*
X138220238Y-136539880D01*
X138148809Y-136563690D01*
X138101190Y-136563690D01*
X138601190Y-136563690D02*
X138553571Y-136539880D01*
X138529761Y-136516071D01*
X138505952Y-136468452D01*
X138505952Y-136325595D01*
X138529761Y-136277976D01*
X138553571Y-136254166D01*
X138601190Y-136230357D01*
X138672619Y-136230357D01*
X138720238Y-136254166D01*
X138744047Y-136277976D01*
X138767857Y-136325595D01*
X138767857Y-136468452D01*
X138744047Y-136516071D01*
X138720238Y-136539880D01*
X138672619Y-136563690D01*
X138601190Y-136563690D01*
X138982142Y-136230357D02*
X138982142Y-136563690D01*
X138982142Y-136277976D02*
X139005952Y-136254166D01*
X139053571Y-136230357D01*
X139125000Y-136230357D01*
X139172619Y-136254166D01*
X139196428Y-136301785D01*
X139196428Y-136563690D01*
X139648809Y-136563690D02*
X139648809Y-136063690D01*
X139648809Y-136539880D02*
X139601190Y-136563690D01*
X139505952Y-136563690D01*
X139458333Y-136539880D01*
X139434523Y-136516071D01*
X139410714Y-136468452D01*
X139410714Y-136325595D01*
X139434523Y-136277976D01*
X139458333Y-136254166D01*
X139505952Y-136230357D01*
X139601190Y-136230357D01*
X139648809Y-136254166D01*
X140077380Y-136539880D02*
X140029761Y-136563690D01*
X139934523Y-136563690D01*
X139886904Y-136539880D01*
X139863095Y-136492261D01*
X139863095Y-136301785D01*
X139886904Y-136254166D01*
X139934523Y-136230357D01*
X140029761Y-136230357D01*
X140077380Y-136254166D01*
X140101190Y-136301785D01*
X140101190Y-136349404D01*
X139863095Y-136397023D01*
X140386904Y-136563690D02*
X140339285Y-136539880D01*
X140315476Y-136492261D01*
X140315476Y-136063690D01*
X140648809Y-136563690D02*
X140601190Y-136539880D01*
X140577380Y-136492261D01*
X140577380Y-136063690D01*
X132922619Y-137105357D02*
X133041666Y-137438690D01*
X133160714Y-137105357D01*
X133351190Y-137391071D02*
X133375000Y-137414880D01*
X133351190Y-137438690D01*
X133327380Y-137414880D01*
X133351190Y-137391071D01*
X133351190Y-137438690D01*
X134065476Y-136938690D02*
X134113095Y-136938690D01*
X134160714Y-136962500D01*
X134184523Y-136986309D01*
X134208333Y-137033928D01*
X134232142Y-137129166D01*
X134232142Y-137248214D01*
X134208333Y-137343452D01*
X134184523Y-137391071D01*
X134160714Y-137414880D01*
X134113095Y-137438690D01*
X134065476Y-137438690D01*
X134017857Y-137414880D01*
X133994047Y-137391071D01*
X133970238Y-137343452D01*
X133946428Y-137248214D01*
X133946428Y-137129166D01*
X133970238Y-137033928D01*
X133994047Y-136986309D01*
X134017857Y-136962500D01*
X134065476Y-136938690D01*
X134446428Y-137391071D02*
X134470238Y-137414880D01*
X134446428Y-137438690D01*
X134422619Y-137414880D01*
X134446428Y-137391071D01*
X134446428Y-137438690D01*
X134779761Y-136938690D02*
X134827380Y-136938690D01*
X134875000Y-136962500D01*
X134898809Y-136986309D01*
X134922619Y-137033928D01*
X134946428Y-137129166D01*
X134946428Y-137248214D01*
X134922619Y-137343452D01*
X134898809Y-137391071D01*
X134875000Y-137414880D01*
X134827380Y-137438690D01*
X134779761Y-137438690D01*
X134732142Y-137414880D01*
X134708333Y-137391071D01*
X134684523Y-137343452D01*
X134660714Y-137248214D01*
X134660714Y-137129166D01*
X134684523Y-137033928D01*
X134708333Y-136986309D01*
X134732142Y-136962500D01*
X134779761Y-136938690D01*
X135136904Y-136986309D02*
X135160714Y-136962500D01*
X135208333Y-136938690D01*
X135327380Y-136938690D01*
X135375000Y-136962500D01*
X135398809Y-136986309D01*
X135422619Y-137033928D01*
X135422619Y-137081547D01*
X135398809Y-137152976D01*
X135113095Y-137438690D01*
X135422619Y-137438690D01*
X135994047Y-136914880D02*
X135565476Y-137557738D01*
X136422619Y-137438690D02*
X136136904Y-137438690D01*
X136279761Y-137438690D02*
X136279761Y-136938690D01*
X136232142Y-137010119D01*
X136184523Y-137057738D01*
X136136904Y-137081547D01*
X136851190Y-136938690D02*
X136755952Y-136938690D01*
X136708333Y-136962500D01*
X136684523Y-136986309D01*
X136636904Y-137057738D01*
X136613095Y-137152976D01*
X136613095Y-137343452D01*
X136636904Y-137391071D01*
X136660714Y-137414880D01*
X136708333Y-137438690D01*
X136803571Y-137438690D01*
X136851190Y-137414880D01*
X136875000Y-137391071D01*
X136898809Y-137343452D01*
X136898809Y-137224404D01*
X136875000Y-137176785D01*
X136851190Y-137152976D01*
X136803571Y-137129166D01*
X136708333Y-137129166D01*
X136660714Y-137152976D01*
X136636904Y-137176785D01*
X136613095Y-137224404D01*
X137208333Y-136938690D02*
X137255952Y-136938690D01*
X137303571Y-136962500D01*
X137327380Y-136986309D01*
X137351190Y-137033928D01*
X137375000Y-137129166D01*
X137375000Y-137248214D01*
X137351190Y-137343452D01*
X137327380Y-137391071D01*
X137303571Y-137414880D01*
X137255952Y-137438690D01*
X137208333Y-137438690D01*
X137160714Y-137414880D01*
X137136904Y-137391071D01*
X137113095Y-137343452D01*
X137089285Y-137248214D01*
X137089285Y-137129166D01*
X137113095Y-137033928D01*
X137136904Y-136986309D01*
X137160714Y-136962500D01*
X137208333Y-136938690D01*
X137613095Y-137438690D02*
X137708333Y-137438690D01*
X137755952Y-137414880D01*
X137779761Y-137391071D01*
X137827380Y-137319642D01*
X137851190Y-137224404D01*
X137851190Y-137033928D01*
X137827380Y-136986309D01*
X137803571Y-136962500D01*
X137755952Y-136938690D01*
X137660714Y-136938690D01*
X137613095Y-136962500D01*
X137589285Y-136986309D01*
X137565476Y-137033928D01*
X137565476Y-137152976D01*
X137589285Y-137200595D01*
X137613095Y-137224404D01*
X137660714Y-137248214D01*
X137755952Y-137248214D01*
X137803571Y-137224404D01*
X137827380Y-137200595D01*
X137851190Y-137152976D01*
X138041666Y-136986309D02*
X138065476Y-136962500D01*
X138113095Y-136938690D01*
X138232142Y-136938690D01*
X138279761Y-136962500D01*
X138303571Y-136986309D01*
X138327380Y-137033928D01*
X138327380Y-137081547D01*
X138303571Y-137152976D01*
X138017857Y-137438690D01*
X138327380Y-137438690D01*
X138636904Y-136938690D02*
X138684523Y-136938690D01*
X138732142Y-136962500D01*
X138755952Y-136986309D01*
X138779761Y-137033928D01*
X138803571Y-137129166D01*
X138803571Y-137248214D01*
X138779761Y-137343452D01*
X138755952Y-137391071D01*
X138732142Y-137414880D01*
X138684523Y-137438690D01*
X138636904Y-137438690D01*
X138589285Y-137414880D01*
X138565476Y-137391071D01*
X138541666Y-137343452D01*
X138517857Y-137248214D01*
X138517857Y-137129166D01*
X138541666Y-137033928D01*
X138565476Y-136986309D01*
X138589285Y-136962500D01*
X138636904Y-136938690D01*
D12*
%TO.C,J1*%
X134482000Y-132394000D02*
X137142000Y-132394000D01*
X134482000Y-84074000D02*
X134482000Y-132394000D01*
X137142000Y-84074000D02*
X137142000Y-132394000D01*
X134482000Y-84074000D02*
X137142000Y-84074000D01*
X134482000Y-82804000D02*
X134482000Y-81474000D01*
X134482000Y-81474000D02*
X135812000Y-81474000D01*
%TO.C,TP2*%
X135000000Y-146200000D02*
X137400000Y-146200000D01*
X137400000Y-146200000D02*
X137400000Y-148600000D01*
X137400000Y-148600000D02*
X135000000Y-148600000D01*
X135000000Y-148600000D02*
X135000000Y-146200000D01*
%TO.C,GND*%
X146000000Y-147400000D02*
G75*
G03*
X146000000Y-147400000I-1700000J0D01*
G01*
%TO.C,J14*%
X138603571Y-156589285D02*
X138853571Y-157339285D01*
X139103571Y-156589285D01*
X139782142Y-157267857D02*
X139746428Y-157303571D01*
X139639285Y-157339285D01*
X139567857Y-157339285D01*
X139460714Y-157303571D01*
X139389285Y-157232142D01*
X139353571Y-157160714D01*
X139317857Y-157017857D01*
X139317857Y-156910714D01*
X139353571Y-156767857D01*
X139389285Y-156696428D01*
X139460714Y-156625000D01*
X139567857Y-156589285D01*
X139639285Y-156589285D01*
X139746428Y-156625000D01*
X139782142Y-156660714D01*
X140246428Y-156589285D02*
X140389285Y-156589285D01*
X140460714Y-156625000D01*
X140532142Y-156696428D01*
X140567857Y-156839285D01*
X140567857Y-157089285D01*
X140532142Y-157232142D01*
X140460714Y-157303571D01*
X140389285Y-157339285D01*
X140246428Y-157339285D01*
X140175000Y-157303571D01*
X140103571Y-157232142D01*
X140067857Y-157089285D01*
X140067857Y-156839285D01*
X140103571Y-156696428D01*
X140175000Y-156625000D01*
X140246428Y-156589285D01*
X141567857Y-157339285D02*
X141496428Y-157303571D01*
X141460714Y-157267857D01*
X141425000Y-157196428D01*
X141425000Y-156982142D01*
X141460714Y-156910714D01*
X141496428Y-156875000D01*
X141567857Y-156839285D01*
X141675000Y-156839285D01*
X141746428Y-156875000D01*
X141782142Y-156910714D01*
X141817857Y-156982142D01*
X141817857Y-157196428D01*
X141782142Y-157267857D01*
X141746428Y-157303571D01*
X141675000Y-157339285D01*
X141567857Y-157339285D01*
X142460714Y-156839285D02*
X142460714Y-157339285D01*
X142139285Y-156839285D02*
X142139285Y-157232142D01*
X142175000Y-157303571D01*
X142246428Y-157339285D01*
X142353571Y-157339285D01*
X142425000Y-157303571D01*
X142460714Y-157267857D01*
X142710714Y-156839285D02*
X142996428Y-156839285D01*
X142817857Y-156589285D02*
X142817857Y-157232142D01*
X142853571Y-157303571D01*
X142925000Y-157339285D01*
X142996428Y-157339285D01*
%TO.C,J10*%
X138742857Y-107862880D02*
X138671428Y-107827165D01*
X138564285Y-107827165D01*
X138457142Y-107862880D01*
X138385714Y-107934308D01*
X138350000Y-108005737D01*
X138314285Y-108148594D01*
X138314285Y-108255737D01*
X138350000Y-108398594D01*
X138385714Y-108470022D01*
X138457142Y-108541451D01*
X138564285Y-108577165D01*
X138635714Y-108577165D01*
X138742857Y-108541451D01*
X138778571Y-108505737D01*
X138778571Y-108255737D01*
X138635714Y-108255737D01*
X139421428Y-108577165D02*
X139421428Y-108184308D01*
X139385714Y-108112880D01*
X139314285Y-108077165D01*
X139171428Y-108077165D01*
X139100000Y-108112880D01*
X139421428Y-108541451D02*
X139350000Y-108577165D01*
X139171428Y-108577165D01*
X139100000Y-108541451D01*
X139064285Y-108470022D01*
X139064285Y-108398594D01*
X139100000Y-108327165D01*
X139171428Y-108291451D01*
X139350000Y-108291451D01*
X139421428Y-108255737D01*
X139671428Y-108077165D02*
X139957142Y-108077165D01*
X139778571Y-107827165D02*
X139778571Y-108470022D01*
X139814285Y-108541451D01*
X139885714Y-108577165D01*
X139957142Y-108577165D01*
X140492857Y-108541451D02*
X140421428Y-108577165D01*
X140278571Y-108577165D01*
X140207142Y-108541451D01*
X140171428Y-108470022D01*
X140171428Y-108184308D01*
X140207142Y-108112880D01*
X140278571Y-108077165D01*
X140421428Y-108077165D01*
X140492857Y-108112880D01*
X140528571Y-108184308D01*
X140528571Y-108255737D01*
X140171428Y-108327165D01*
X141528571Y-108577165D02*
X141457142Y-108541451D01*
X141421428Y-108505737D01*
X141385714Y-108434308D01*
X141385714Y-108220022D01*
X141421428Y-108148594D01*
X141457142Y-108112880D01*
X141528571Y-108077165D01*
X141635714Y-108077165D01*
X141707142Y-108112880D01*
X141742857Y-108148594D01*
X141778571Y-108220022D01*
X141778571Y-108434308D01*
X141742857Y-108505737D01*
X141707142Y-108541451D01*
X141635714Y-108577165D01*
X141528571Y-108577165D01*
X142421428Y-108077165D02*
X142421428Y-108577165D01*
X142100000Y-108077165D02*
X142100000Y-108470022D01*
X142135714Y-108541451D01*
X142207142Y-108577165D01*
X142314285Y-108577165D01*
X142385714Y-108541451D01*
X142421428Y-108505737D01*
X142671428Y-108077165D02*
X142957142Y-108077165D01*
X142778571Y-107827165D02*
X142778571Y-108470022D01*
X142814285Y-108541451D01*
X142885714Y-108577165D01*
X142957142Y-108577165D01*
%TO.C,J7*%
X137664285Y-77294210D02*
X137914285Y-78044210D01*
X138164285Y-77294210D01*
X138842857Y-77972782D02*
X138807142Y-78008496D01*
X138700000Y-78044210D01*
X138628571Y-78044210D01*
X138521428Y-78008496D01*
X138450000Y-77937067D01*
X138414285Y-77865639D01*
X138378571Y-77722782D01*
X138378571Y-77615639D01*
X138414285Y-77472782D01*
X138450000Y-77401353D01*
X138521428Y-77329925D01*
X138628571Y-77294210D01*
X138700000Y-77294210D01*
X138807142Y-77329925D01*
X138842857Y-77365639D01*
X139414285Y-77651353D02*
X139164285Y-77651353D01*
X139164285Y-78044210D02*
X139164285Y-77294210D01*
X139521428Y-77294210D01*
X140342857Y-77829925D02*
X140700000Y-77829925D01*
X140271428Y-78044210D02*
X140521428Y-77294210D01*
X140771428Y-78044210D01*
X141342857Y-77544210D02*
X141342857Y-78044210D01*
X141021428Y-77544210D02*
X141021428Y-77937067D01*
X141057142Y-78008496D01*
X141128571Y-78044210D01*
X141235714Y-78044210D01*
X141307142Y-78008496D01*
X141342857Y-77972782D01*
X142021428Y-78044210D02*
X142021428Y-77294210D01*
X142021428Y-78008496D02*
X141950000Y-78044210D01*
X141807142Y-78044210D01*
X141735714Y-78008496D01*
X141700000Y-77972782D01*
X141664285Y-77901353D01*
X141664285Y-77687067D01*
X141700000Y-77615639D01*
X141735714Y-77579925D01*
X141807142Y-77544210D01*
X141950000Y-77544210D01*
X142021428Y-77579925D01*
X142950000Y-78044210D02*
X142950000Y-77544210D01*
X142950000Y-77294210D02*
X142914285Y-77329925D01*
X142950000Y-77365639D01*
X142985714Y-77329925D01*
X142950000Y-77294210D01*
X142950000Y-77365639D01*
X143307142Y-77544210D02*
X143307142Y-78044210D01*
X143307142Y-77615639D02*
X143342857Y-77579925D01*
X143414285Y-77544210D01*
X143521428Y-77544210D01*
X143592857Y-77579925D01*
X143628571Y-77651353D01*
X143628571Y-78044210D01*
%TO.C,J6*%
X139114285Y-67939285D02*
X138757142Y-67939285D01*
X138757142Y-67189285D01*
X139614285Y-67546428D02*
X139364285Y-67546428D01*
X139364285Y-67939285D02*
X139364285Y-67189285D01*
X139721428Y-67189285D01*
X140150000Y-67189285D02*
X140292857Y-67189285D01*
X140364285Y-67225000D01*
X140435714Y-67296428D01*
X140471428Y-67439285D01*
X140471428Y-67689285D01*
X140435714Y-67832142D01*
X140364285Y-67903571D01*
X140292857Y-67939285D01*
X140150000Y-67939285D01*
X140078571Y-67903571D01*
X140007142Y-67832142D01*
X139971428Y-67689285D01*
X139971428Y-67439285D01*
X140007142Y-67296428D01*
X140078571Y-67225000D01*
X140150000Y-67189285D01*
X141364285Y-67939285D02*
X141364285Y-67439285D01*
X141364285Y-67189285D02*
X141328571Y-67225000D01*
X141364285Y-67260714D01*
X141400000Y-67225000D01*
X141364285Y-67189285D01*
X141364285Y-67260714D01*
X141721428Y-67439285D02*
X141721428Y-67939285D01*
X141721428Y-67510714D02*
X141757142Y-67475000D01*
X141828571Y-67439285D01*
X141935714Y-67439285D01*
X142007142Y-67475000D01*
X142042857Y-67546428D01*
X142042857Y-67939285D01*
%TO.C,J5*%
X128510714Y-62989285D02*
X128760714Y-63739285D01*
X129010714Y-62989285D01*
X129689285Y-63667857D02*
X129653571Y-63703571D01*
X129546428Y-63739285D01*
X129475000Y-63739285D01*
X129367857Y-63703571D01*
X129296428Y-63632142D01*
X129260714Y-63560714D01*
X129225000Y-63417857D01*
X129225000Y-63310714D01*
X129260714Y-63167857D01*
X129296428Y-63096428D01*
X129367857Y-63025000D01*
X129475000Y-62989285D01*
X129546428Y-62989285D01*
X129653571Y-63025000D01*
X129689285Y-63060714D01*
X130153571Y-62989285D02*
X130296428Y-62989285D01*
X130367857Y-63025000D01*
X130439285Y-63096428D01*
X130475000Y-63239285D01*
X130475000Y-63489285D01*
X130439285Y-63632142D01*
X130367857Y-63703571D01*
X130296428Y-63739285D01*
X130153571Y-63739285D01*
X130082142Y-63703571D01*
X130010714Y-63632142D01*
X129975000Y-63489285D01*
X129975000Y-63239285D01*
X130010714Y-63096428D01*
X130082142Y-63025000D01*
X130153571Y-62989285D01*
X131367857Y-63346428D02*
X131617857Y-63346428D01*
X131725000Y-63739285D02*
X131367857Y-63739285D01*
X131367857Y-62989285D01*
X131725000Y-62989285D01*
X131975000Y-63739285D02*
X132367857Y-63239285D01*
X131975000Y-63239285D02*
X132367857Y-63739285D01*
X132653571Y-63239285D02*
X132653571Y-63989285D01*
X132653571Y-63275000D02*
X132725000Y-63239285D01*
X132867857Y-63239285D01*
X132939285Y-63275000D01*
X132975000Y-63310714D01*
X133010714Y-63382142D01*
X133010714Y-63596428D01*
X132975000Y-63667857D01*
X132939285Y-63703571D01*
X132867857Y-63739285D01*
X132725000Y-63739285D01*
X132653571Y-63703571D01*
X133903571Y-63739285D02*
X133903571Y-63239285D01*
X133903571Y-62989285D02*
X133867857Y-63025000D01*
X133903571Y-63060714D01*
X133939285Y-63025000D01*
X133903571Y-62989285D01*
X133903571Y-63060714D01*
X134260714Y-63239285D02*
X134260714Y-63739285D01*
X134260714Y-63310714D02*
X134296428Y-63275000D01*
X134367857Y-63239285D01*
X134475000Y-63239285D01*
X134546428Y-63275000D01*
X134582142Y-63346428D01*
X134582142Y-63739285D01*
%TO.C,J4*%
X128371428Y-40983983D02*
X128621428Y-41733983D01*
X128871428Y-40983983D01*
X129550000Y-41662555D02*
X129514285Y-41698269D01*
X129407142Y-41733983D01*
X129335714Y-41733983D01*
X129228571Y-41698269D01*
X129157142Y-41626840D01*
X129121428Y-41555412D01*
X129085714Y-41412555D01*
X129085714Y-41305412D01*
X129121428Y-41162555D01*
X129157142Y-41091126D01*
X129228571Y-41019698D01*
X129335714Y-40983983D01*
X129407142Y-40983983D01*
X129514285Y-41019698D01*
X129550000Y-41055412D01*
X130014285Y-40983983D02*
X130157142Y-40983983D01*
X130228571Y-41019698D01*
X130300000Y-41091126D01*
X130335714Y-41233983D01*
X130335714Y-41483983D01*
X130300000Y-41626840D01*
X130228571Y-41698269D01*
X130157142Y-41733983D01*
X130014285Y-41733983D01*
X129942857Y-41698269D01*
X129871428Y-41626840D01*
X129835714Y-41483983D01*
X129835714Y-41233983D01*
X129871428Y-41091126D01*
X129942857Y-41019698D01*
X130014285Y-40983983D01*
X131585714Y-41733983D02*
X131228571Y-41733983D01*
X131228571Y-40983983D01*
X131835714Y-41733983D02*
X131835714Y-41233983D01*
X131835714Y-40983983D02*
X131800000Y-41019698D01*
X131835714Y-41055412D01*
X131871428Y-41019698D01*
X131835714Y-40983983D01*
X131835714Y-41055412D01*
X132192857Y-41233983D02*
X132192857Y-41733983D01*
X132192857Y-41305412D02*
X132228571Y-41269698D01*
X132300000Y-41233983D01*
X132407142Y-41233983D01*
X132478571Y-41269698D01*
X132514285Y-41341126D01*
X132514285Y-41733983D01*
X133442857Y-41733983D02*
X133442857Y-40983983D01*
X133800000Y-41233983D02*
X133800000Y-41733983D01*
X133800000Y-41305412D02*
X133835714Y-41269698D01*
X133907142Y-41233983D01*
X134014285Y-41233983D01*
X134085714Y-41269698D01*
X134121428Y-41341126D01*
X134121428Y-41733983D01*
%TO.C,J3*%
X139050000Y-36771103D02*
X139300000Y-37521103D01*
X139550000Y-36771103D01*
X140228571Y-37449675D02*
X140192857Y-37485389D01*
X140085714Y-37521103D01*
X140014285Y-37521103D01*
X139907142Y-37485389D01*
X139835714Y-37413960D01*
X139800000Y-37342532D01*
X139764285Y-37199675D01*
X139764285Y-37092532D01*
X139800000Y-36949675D01*
X139835714Y-36878246D01*
X139907142Y-36806818D01*
X140014285Y-36771103D01*
X140085714Y-36771103D01*
X140192857Y-36806818D01*
X140228571Y-36842532D01*
X140800000Y-37128246D02*
X140550000Y-37128246D01*
X140550000Y-37521103D02*
X140550000Y-36771103D01*
X140907142Y-36771103D01*
X141764285Y-37521103D02*
X141764285Y-36771103D01*
X142121428Y-37021103D02*
X142121428Y-37521103D01*
X142121428Y-37092532D02*
X142157142Y-37056818D01*
X142228571Y-37021103D01*
X142335714Y-37021103D01*
X142407142Y-37056818D01*
X142442857Y-37128246D01*
X142442857Y-37521103D01*
%TO.C,J2*%
X138950000Y-26639285D02*
X139200000Y-27389285D01*
X139450000Y-26639285D01*
X140128571Y-27317857D02*
X140092857Y-27353571D01*
X139985714Y-27389285D01*
X139914285Y-27389285D01*
X139807142Y-27353571D01*
X139735714Y-27282142D01*
X139700000Y-27210714D01*
X139664285Y-27067857D01*
X139664285Y-26960714D01*
X139700000Y-26817857D01*
X139735714Y-26746428D01*
X139807142Y-26675000D01*
X139914285Y-26639285D01*
X139985714Y-26639285D01*
X140092857Y-26675000D01*
X140128571Y-26710714D01*
X140414285Y-27175000D02*
X140771428Y-27175000D01*
X140342857Y-27389285D02*
X140592857Y-26639285D01*
X140842857Y-27389285D01*
X141664285Y-27389285D02*
X141664285Y-26639285D01*
X142021428Y-26889285D02*
X142021428Y-27389285D01*
X142021428Y-26960714D02*
X142057142Y-26925000D01*
X142128571Y-26889285D01*
X142235714Y-26889285D01*
X142307142Y-26925000D01*
X142342857Y-26996428D01*
X142342857Y-27389285D01*
%TO.C,J13*%
X138421428Y-138060122D02*
X138671428Y-138810122D01*
X138921428Y-138060122D01*
X139600000Y-138738694D02*
X139564285Y-138774408D01*
X139457142Y-138810122D01*
X139385714Y-138810122D01*
X139278571Y-138774408D01*
X139207142Y-138702979D01*
X139171428Y-138631551D01*
X139135714Y-138488694D01*
X139135714Y-138381551D01*
X139171428Y-138238694D01*
X139207142Y-138167265D01*
X139278571Y-138095837D01*
X139385714Y-138060122D01*
X139457142Y-138060122D01*
X139564285Y-138095837D01*
X139600000Y-138131551D01*
X140171428Y-138417265D02*
X139921428Y-138417265D01*
X139921428Y-138810122D02*
X139921428Y-138060122D01*
X140278571Y-138060122D01*
X141278571Y-138060122D02*
X141421428Y-138060122D01*
X141492857Y-138095837D01*
X141564285Y-138167265D01*
X141600000Y-138310122D01*
X141600000Y-138560122D01*
X141564285Y-138702979D01*
X141492857Y-138774408D01*
X141421428Y-138810122D01*
X141278571Y-138810122D01*
X141207142Y-138774408D01*
X141135714Y-138702979D01*
X141100000Y-138560122D01*
X141100000Y-138310122D01*
X141135714Y-138167265D01*
X141207142Y-138095837D01*
X141278571Y-138060122D01*
X142242857Y-138310122D02*
X142242857Y-138810122D01*
X141921428Y-138310122D02*
X141921428Y-138702979D01*
X141957142Y-138774408D01*
X142028571Y-138810122D01*
X142135714Y-138810122D01*
X142207142Y-138774408D01*
X142242857Y-138738694D01*
X142492857Y-138310122D02*
X142778571Y-138310122D01*
X142600000Y-138060122D02*
X142600000Y-138702979D01*
X142635714Y-138774408D01*
X142707142Y-138810122D01*
X142778571Y-138810122D01*
%TO.C,J12*%
X138885714Y-128799135D02*
X138528571Y-128799135D01*
X138528571Y-128049135D01*
X139385714Y-128406278D02*
X139135714Y-128406278D01*
X139135714Y-128799135D02*
X139135714Y-128049135D01*
X139492857Y-128049135D01*
X139921428Y-128049135D02*
X140064285Y-128049135D01*
X140135714Y-128084850D01*
X140207142Y-128156278D01*
X140242857Y-128299135D01*
X140242857Y-128549135D01*
X140207142Y-128691992D01*
X140135714Y-128763421D01*
X140064285Y-128799135D01*
X139921428Y-128799135D01*
X139850000Y-128763421D01*
X139778571Y-128691992D01*
X139742857Y-128549135D01*
X139742857Y-128299135D01*
X139778571Y-128156278D01*
X139850000Y-128084850D01*
X139921428Y-128049135D01*
X141278571Y-128049135D02*
X141421428Y-128049135D01*
X141492857Y-128084850D01*
X141564285Y-128156278D01*
X141600000Y-128299135D01*
X141600000Y-128549135D01*
X141564285Y-128691992D01*
X141492857Y-128763421D01*
X141421428Y-128799135D01*
X141278571Y-128799135D01*
X141207142Y-128763421D01*
X141135714Y-128691992D01*
X141100000Y-128549135D01*
X141100000Y-128299135D01*
X141135714Y-128156278D01*
X141207142Y-128084850D01*
X141278571Y-128049135D01*
X142242857Y-128299135D02*
X142242857Y-128799135D01*
X141921428Y-128299135D02*
X141921428Y-128691992D01*
X141957142Y-128763421D01*
X142028571Y-128799135D01*
X142135714Y-128799135D01*
X142207142Y-128763421D01*
X142242857Y-128727707D01*
X142492857Y-128299135D02*
X142778571Y-128299135D01*
X142600000Y-128049135D02*
X142600000Y-128691992D01*
X142635714Y-128763421D01*
X142707142Y-128799135D01*
X142778571Y-128799135D01*
%TO.C,J11*%
X138885714Y-118295293D02*
X139135714Y-118295293D01*
X139242857Y-118688150D02*
X138885714Y-118688150D01*
X138885714Y-117938150D01*
X139242857Y-117938150D01*
X139957142Y-117973865D02*
X139885714Y-117938150D01*
X139778571Y-117938150D01*
X139671428Y-117973865D01*
X139600000Y-118045293D01*
X139564285Y-118116722D01*
X139528571Y-118259579D01*
X139528571Y-118366722D01*
X139564285Y-118509579D01*
X139600000Y-118581007D01*
X139671428Y-118652436D01*
X139778571Y-118688150D01*
X139850000Y-118688150D01*
X139957142Y-118652436D01*
X139992857Y-118616722D01*
X139992857Y-118366722D01*
X139850000Y-118366722D01*
X140992857Y-118688150D02*
X140921428Y-118652436D01*
X140885714Y-118616722D01*
X140850000Y-118545293D01*
X140850000Y-118331007D01*
X140885714Y-118259579D01*
X140921428Y-118223865D01*
X140992857Y-118188150D01*
X141100000Y-118188150D01*
X141171428Y-118223865D01*
X141207142Y-118259579D01*
X141242857Y-118331007D01*
X141242857Y-118545293D01*
X141207142Y-118616722D01*
X141171428Y-118652436D01*
X141100000Y-118688150D01*
X140992857Y-118688150D01*
X141885714Y-118188150D02*
X141885714Y-118688150D01*
X141564285Y-118188150D02*
X141564285Y-118581007D01*
X141600000Y-118652436D01*
X141671428Y-118688150D01*
X141778571Y-118688150D01*
X141850000Y-118652436D01*
X141885714Y-118616722D01*
X142135714Y-118188150D02*
X142421428Y-118188150D01*
X142242857Y-117938150D02*
X142242857Y-118581007D01*
X142278571Y-118652436D01*
X142350000Y-118688150D01*
X142421428Y-118688150D01*
%TO.C,J9*%
X138403571Y-97716180D02*
X138832142Y-97716180D01*
X138617857Y-98466180D02*
X138617857Y-97716180D01*
X139082142Y-98466180D02*
X139082142Y-97966180D01*
X139082142Y-98109037D02*
X139117857Y-98037609D01*
X139153571Y-98001895D01*
X139225000Y-97966180D01*
X139296428Y-97966180D01*
X139546428Y-98466180D02*
X139546428Y-97966180D01*
X139546428Y-97716180D02*
X139510714Y-97751895D01*
X139546428Y-97787609D01*
X139582142Y-97751895D01*
X139546428Y-97716180D01*
X139546428Y-97787609D01*
X140225000Y-97966180D02*
X140225000Y-98573323D01*
X140189285Y-98644752D01*
X140153571Y-98680466D01*
X140082142Y-98716180D01*
X139975000Y-98716180D01*
X139903571Y-98680466D01*
X140225000Y-98430466D02*
X140153571Y-98466180D01*
X140010714Y-98466180D01*
X139939285Y-98430466D01*
X139903571Y-98394752D01*
X139867857Y-98323323D01*
X139867857Y-98109037D01*
X139903571Y-98037609D01*
X139939285Y-98001895D01*
X140010714Y-97966180D01*
X140153571Y-97966180D01*
X140225000Y-98001895D01*
X141296428Y-97716180D02*
X141439285Y-97716180D01*
X141510714Y-97751895D01*
X141582142Y-97823323D01*
X141617857Y-97966180D01*
X141617857Y-98216180D01*
X141582142Y-98359037D01*
X141510714Y-98430466D01*
X141439285Y-98466180D01*
X141296428Y-98466180D01*
X141225000Y-98430466D01*
X141153571Y-98359037D01*
X141117857Y-98216180D01*
X141117857Y-97966180D01*
X141153571Y-97823323D01*
X141225000Y-97751895D01*
X141296428Y-97716180D01*
X142260714Y-97966180D02*
X142260714Y-98466180D01*
X141939285Y-97966180D02*
X141939285Y-98359037D01*
X141975000Y-98430466D01*
X142046428Y-98466180D01*
X142153571Y-98466180D01*
X142225000Y-98430466D01*
X142260714Y-98394752D01*
X142510714Y-97966180D02*
X142796428Y-97966180D01*
X142617857Y-97716180D02*
X142617857Y-98359037D01*
X142653571Y-98430466D01*
X142725000Y-98466180D01*
X142796428Y-98466180D01*
%TO.C,J8*%
X137867857Y-88355195D02*
X137867857Y-87605195D01*
X138296428Y-88355195D02*
X137975000Y-87926624D01*
X138296428Y-87605195D02*
X137867857Y-88033767D01*
X138867857Y-87962338D02*
X138975000Y-87998052D01*
X139010714Y-88033767D01*
X139046428Y-88105195D01*
X139046428Y-88212338D01*
X139010714Y-88283767D01*
X138975000Y-88319481D01*
X138903571Y-88355195D01*
X138617857Y-88355195D01*
X138617857Y-87605195D01*
X138867857Y-87605195D01*
X138939285Y-87640910D01*
X138975000Y-87676624D01*
X139010714Y-87748052D01*
X139010714Y-87819481D01*
X138975000Y-87890910D01*
X138939285Y-87926624D01*
X138867857Y-87962338D01*
X138617857Y-87962338D01*
X140367857Y-88283767D02*
X140332142Y-88319481D01*
X140225000Y-88355195D01*
X140153571Y-88355195D01*
X140046428Y-88319481D01*
X139975000Y-88248052D01*
X139939285Y-88176624D01*
X139903571Y-88033767D01*
X139903571Y-87926624D01*
X139939285Y-87783767D01*
X139975000Y-87712338D01*
X140046428Y-87640910D01*
X140153571Y-87605195D01*
X140225000Y-87605195D01*
X140332142Y-87640910D01*
X140367857Y-87676624D01*
X140582142Y-87605195D02*
X140832142Y-88355195D01*
X141082142Y-87605195D01*
X142010714Y-88355195D02*
X141939285Y-88319481D01*
X141903571Y-88283767D01*
X141867857Y-88212338D01*
X141867857Y-87998052D01*
X141903571Y-87926624D01*
X141939285Y-87890910D01*
X142010714Y-87855195D01*
X142117857Y-87855195D01*
X142189285Y-87890910D01*
X142225000Y-87926624D01*
X142260714Y-87998052D01*
X142260714Y-88212338D01*
X142225000Y-88283767D01*
X142189285Y-88319481D01*
X142117857Y-88355195D01*
X142010714Y-88355195D01*
X142903571Y-87855195D02*
X142903571Y-88355195D01*
X142582142Y-87855195D02*
X142582142Y-88248052D01*
X142617857Y-88319481D01*
X142689285Y-88355195D01*
X142796428Y-88355195D01*
X142867857Y-88319481D01*
X142903571Y-88283767D01*
X143153571Y-87855195D02*
X143439285Y-87855195D01*
X143260714Y-87605195D02*
X143260714Y-88248052D01*
X143296428Y-88319481D01*
X143367857Y-88355195D01*
X143439285Y-88355195D01*
%TO.C,GND*%
D10*
X139213095Y-146975000D02*
X139117857Y-146927380D01*
X138975000Y-146927380D01*
X138832142Y-146975000D01*
X138736904Y-147070238D01*
X138689285Y-147165476D01*
X138641666Y-147355952D01*
X138641666Y-147498809D01*
X138689285Y-147689285D01*
X138736904Y-147784523D01*
X138832142Y-147879761D01*
X138975000Y-147927380D01*
X139070238Y-147927380D01*
X139213095Y-147879761D01*
X139260714Y-147832142D01*
X139260714Y-147498809D01*
X139070238Y-147498809D01*
X139689285Y-147927380D02*
X139689285Y-146927380D01*
X140260714Y-147927380D01*
X140260714Y-146927380D01*
X140736904Y-147927380D02*
X140736904Y-146927380D01*
X140975000Y-146927380D01*
X141117857Y-146975000D01*
X141213095Y-147070238D01*
X141260714Y-147165476D01*
X141308333Y-147355952D01*
X141308333Y-147498809D01*
X141260714Y-147689285D01*
X141213095Y-147784523D01*
X141117857Y-147879761D01*
X140975000Y-147927380D01*
X140736904Y-147927380D01*
%TD*%
M02*
