%TF.GenerationSoftware,KiCad,Pcbnew,(5.1.6-0-10_14)*%
%TF.CreationDate,2020-08-30T22:56:52+02:00*%
%TF.ProjectId,sequencer-pcb,73657175-656e-4636-9572-2d7063622e6b,rev?*%
%TF.SameCoordinates,Original*%
%TF.FileFunction,Soldermask,Bot*%
%TF.FilePolarity,Negative*%
%FSLAX46Y46*%
G04 Gerber Fmt 4.6, Leading zero omitted, Abs format (unit mm)*
G04 Created by KiCad (PCBNEW (5.1.6-0-10_14)) date 2020-08-30 22:56:52*
%MOMM*%
%LPD*%
G01*
G04 APERTURE LIST*
%ADD10C,1.900000*%
%ADD11C,4.100000*%
%ADD12R,2.600000X2.600000*%
%ADD13O,1.800000X1.800000*%
%ADD14R,1.800000X1.800000*%
%ADD15C,1.800000*%
%ADD16O,1.827200X1.827200*%
%ADD17R,1.827200X1.827200*%
%ADD18C,2.800000*%
%ADD19C,2.100000*%
%ADD20C,5.500000*%
%ADD21R,1.900000X1.900000*%
G04 APERTURE END LIST*
%TO.C,R22*%
G36*
G01*
X187442544Y-81991666D02*
X188757456Y-81991666D01*
G75*
G02*
X189025000Y-82259210I0J-267544D01*
G01*
X189025000Y-83249122D01*
G75*
G02*
X188757456Y-83516666I-267544J0D01*
G01*
X187442544Y-83516666D01*
G75*
G02*
X187175000Y-83249122I0J267544D01*
G01*
X187175000Y-82259210D01*
G75*
G02*
X187442544Y-81991666I267544J0D01*
G01*
G37*
G36*
G01*
X187442544Y-79016666D02*
X188757456Y-79016666D01*
G75*
G02*
X189025000Y-79284210I0J-267544D01*
G01*
X189025000Y-80274122D01*
G75*
G02*
X188757456Y-80541666I-267544J0D01*
G01*
X187442544Y-80541666D01*
G75*
G02*
X187175000Y-80274122I0J267544D01*
G01*
X187175000Y-79284210D01*
G75*
G02*
X187442544Y-79016666I267544J0D01*
G01*
G37*
%TD*%
%TO.C,R21*%
G36*
G01*
X187442544Y-72758333D02*
X188757456Y-72758333D01*
G75*
G02*
X189025000Y-73025877I0J-267544D01*
G01*
X189025000Y-74015789D01*
G75*
G02*
X188757456Y-74283333I-267544J0D01*
G01*
X187442544Y-74283333D01*
G75*
G02*
X187175000Y-74015789I0J267544D01*
G01*
X187175000Y-73025877D01*
G75*
G02*
X187442544Y-72758333I267544J0D01*
G01*
G37*
G36*
G01*
X187442544Y-69783333D02*
X188757456Y-69783333D01*
G75*
G02*
X189025000Y-70050877I0J-267544D01*
G01*
X189025000Y-71040789D01*
G75*
G02*
X188757456Y-71308333I-267544J0D01*
G01*
X187442544Y-71308333D01*
G75*
G02*
X187175000Y-71040789I0J267544D01*
G01*
X187175000Y-70050877D01*
G75*
G02*
X187442544Y-69783333I267544J0D01*
G01*
G37*
%TD*%
%TO.C,R20*%
G36*
G01*
X172642544Y-54625000D02*
X173957456Y-54625000D01*
G75*
G02*
X174225000Y-54892544I0J-267544D01*
G01*
X174225000Y-55882456D01*
G75*
G02*
X173957456Y-56150000I-267544J0D01*
G01*
X172642544Y-56150000D01*
G75*
G02*
X172375000Y-55882456I0J267544D01*
G01*
X172375000Y-54892544D01*
G75*
G02*
X172642544Y-54625000I267544J0D01*
G01*
G37*
G36*
G01*
X172642544Y-51650000D02*
X173957456Y-51650000D01*
G75*
G02*
X174225000Y-51917544I0J-267544D01*
G01*
X174225000Y-52907456D01*
G75*
G02*
X173957456Y-53175000I-267544J0D01*
G01*
X172642544Y-53175000D01*
G75*
G02*
X172375000Y-52907456I0J267544D01*
G01*
X172375000Y-51917544D01*
G75*
G02*
X172642544Y-51650000I267544J0D01*
G01*
G37*
%TD*%
%TO.C,R19*%
G36*
G01*
X188757456Y-62075000D02*
X187442544Y-62075000D01*
G75*
G02*
X187175000Y-61807456I0J267544D01*
G01*
X187175000Y-60817544D01*
G75*
G02*
X187442544Y-60550000I267544J0D01*
G01*
X188757456Y-60550000D01*
G75*
G02*
X189025000Y-60817544I0J-267544D01*
G01*
X189025000Y-61807456D01*
G75*
G02*
X188757456Y-62075000I-267544J0D01*
G01*
G37*
G36*
G01*
X188757456Y-65050000D02*
X187442544Y-65050000D01*
G75*
G02*
X187175000Y-64782456I0J267544D01*
G01*
X187175000Y-63792544D01*
G75*
G02*
X187442544Y-63525000I267544J0D01*
G01*
X188757456Y-63525000D01*
G75*
G02*
X189025000Y-63792544I0J-267544D01*
G01*
X189025000Y-64782456D01*
G75*
G02*
X188757456Y-65050000I-267544J0D01*
G01*
G37*
%TD*%
%TO.C,R18*%
G36*
G01*
X187442544Y-91225000D02*
X188757456Y-91225000D01*
G75*
G02*
X189025000Y-91492544I0J-267544D01*
G01*
X189025000Y-92482456D01*
G75*
G02*
X188757456Y-92750000I-267544J0D01*
G01*
X187442544Y-92750000D01*
G75*
G02*
X187175000Y-92482456I0J267544D01*
G01*
X187175000Y-91492544D01*
G75*
G02*
X187442544Y-91225000I267544J0D01*
G01*
G37*
G36*
G01*
X187442544Y-88250000D02*
X188757456Y-88250000D01*
G75*
G02*
X189025000Y-88517544I0J-267544D01*
G01*
X189025000Y-89507456D01*
G75*
G02*
X188757456Y-89775000I-267544J0D01*
G01*
X187442544Y-89775000D01*
G75*
G02*
X187175000Y-89507456I0J267544D01*
G01*
X187175000Y-88517544D01*
G75*
G02*
X187442544Y-88250000I267544J0D01*
G01*
G37*
%TD*%
%TO.C,R17*%
G36*
G01*
X160257456Y-134475000D02*
X158942544Y-134475000D01*
G75*
G02*
X158675000Y-134207456I0J267544D01*
G01*
X158675000Y-133217544D01*
G75*
G02*
X158942544Y-132950000I267544J0D01*
G01*
X160257456Y-132950000D01*
G75*
G02*
X160525000Y-133217544I0J-267544D01*
G01*
X160525000Y-134207456D01*
G75*
G02*
X160257456Y-134475000I-267544J0D01*
G01*
G37*
G36*
G01*
X160257456Y-137450000D02*
X158942544Y-137450000D01*
G75*
G02*
X158675000Y-137182456I0J267544D01*
G01*
X158675000Y-136192544D01*
G75*
G02*
X158942544Y-135925000I267544J0D01*
G01*
X160257456Y-135925000D01*
G75*
G02*
X160525000Y-136192544I0J-267544D01*
G01*
X160525000Y-137182456D01*
G75*
G02*
X160257456Y-137450000I-267544J0D01*
G01*
G37*
%TD*%
%TO.C,R16*%
G36*
G01*
X143942544Y-135925000D02*
X145257456Y-135925000D01*
G75*
G02*
X145525000Y-136192544I0J-267544D01*
G01*
X145525000Y-137182456D01*
G75*
G02*
X145257456Y-137450000I-267544J0D01*
G01*
X143942544Y-137450000D01*
G75*
G02*
X143675000Y-137182456I0J267544D01*
G01*
X143675000Y-136192544D01*
G75*
G02*
X143942544Y-135925000I267544J0D01*
G01*
G37*
G36*
G01*
X143942544Y-132950000D02*
X145257456Y-132950000D01*
G75*
G02*
X145525000Y-133217544I0J-267544D01*
G01*
X145525000Y-134207456D01*
G75*
G02*
X145257456Y-134475000I-267544J0D01*
G01*
X143942544Y-134475000D01*
G75*
G02*
X143675000Y-134207456I0J267544D01*
G01*
X143675000Y-133217544D01*
G75*
G02*
X143942544Y-132950000I267544J0D01*
G01*
G37*
%TD*%
%TO.C,R15*%
G36*
G01*
X172142544Y-112925000D02*
X173457456Y-112925000D01*
G75*
G02*
X173725000Y-113192544I0J-267544D01*
G01*
X173725000Y-114182456D01*
G75*
G02*
X173457456Y-114450000I-267544J0D01*
G01*
X172142544Y-114450000D01*
G75*
G02*
X171875000Y-114182456I0J267544D01*
G01*
X171875000Y-113192544D01*
G75*
G02*
X172142544Y-112925000I267544J0D01*
G01*
G37*
G36*
G01*
X172142544Y-109950000D02*
X173457456Y-109950000D01*
G75*
G02*
X173725000Y-110217544I0J-267544D01*
G01*
X173725000Y-111207456D01*
G75*
G02*
X173457456Y-111475000I-267544J0D01*
G01*
X172142544Y-111475000D01*
G75*
G02*
X171875000Y-111207456I0J267544D01*
G01*
X171875000Y-110217544D01*
G75*
G02*
X172142544Y-109950000I267544J0D01*
G01*
G37*
%TD*%
%TO.C,R14*%
G36*
G01*
X157657456Y-111475000D02*
X156342544Y-111475000D01*
G75*
G02*
X156075000Y-111207456I0J267544D01*
G01*
X156075000Y-110217544D01*
G75*
G02*
X156342544Y-109950000I267544J0D01*
G01*
X157657456Y-109950000D01*
G75*
G02*
X157925000Y-110217544I0J-267544D01*
G01*
X157925000Y-111207456D01*
G75*
G02*
X157657456Y-111475000I-267544J0D01*
G01*
G37*
G36*
G01*
X157657456Y-114450000D02*
X156342544Y-114450000D01*
G75*
G02*
X156075000Y-114182456I0J267544D01*
G01*
X156075000Y-113192544D01*
G75*
G02*
X156342544Y-112925000I267544J0D01*
G01*
X157657456Y-112925000D01*
G75*
G02*
X157925000Y-113192544I0J-267544D01*
G01*
X157925000Y-114182456D01*
G75*
G02*
X157657456Y-114450000I-267544J0D01*
G01*
G37*
%TD*%
%TO.C,R13*%
G36*
G01*
X129957456Y-134575000D02*
X128642544Y-134575000D01*
G75*
G02*
X128375000Y-134307456I0J267544D01*
G01*
X128375000Y-133317544D01*
G75*
G02*
X128642544Y-133050000I267544J0D01*
G01*
X129957456Y-133050000D01*
G75*
G02*
X130225000Y-133317544I0J-267544D01*
G01*
X130225000Y-134307456D01*
G75*
G02*
X129957456Y-134575000I-267544J0D01*
G01*
G37*
G36*
G01*
X129957456Y-137550000D02*
X128642544Y-137550000D01*
G75*
G02*
X128375000Y-137282456I0J267544D01*
G01*
X128375000Y-136292544D01*
G75*
G02*
X128642544Y-136025000I267544J0D01*
G01*
X129957456Y-136025000D01*
G75*
G02*
X130225000Y-136292544I0J-267544D01*
G01*
X130225000Y-137282456D01*
G75*
G02*
X129957456Y-137550000I-267544J0D01*
G01*
G37*
%TD*%
%TO.C,R12*%
G36*
G01*
X113442544Y-136225000D02*
X114757456Y-136225000D01*
G75*
G02*
X115025000Y-136492544I0J-267544D01*
G01*
X115025000Y-137482456D01*
G75*
G02*
X114757456Y-137750000I-267544J0D01*
G01*
X113442544Y-137750000D01*
G75*
G02*
X113175000Y-137482456I0J267544D01*
G01*
X113175000Y-136492544D01*
G75*
G02*
X113442544Y-136225000I267544J0D01*
G01*
G37*
G36*
G01*
X113442544Y-133250000D02*
X114757456Y-133250000D01*
G75*
G02*
X115025000Y-133517544I0J-267544D01*
G01*
X115025000Y-134507456D01*
G75*
G02*
X114757456Y-134775000I-267544J0D01*
G01*
X113442544Y-134775000D01*
G75*
G02*
X113175000Y-134507456I0J267544D01*
G01*
X113175000Y-133517544D01*
G75*
G02*
X113442544Y-133250000I267544J0D01*
G01*
G37*
%TD*%
%TO.C,R11*%
G36*
G01*
X131542544Y-112725000D02*
X132857456Y-112725000D01*
G75*
G02*
X133125000Y-112992544I0J-267544D01*
G01*
X133125000Y-113982456D01*
G75*
G02*
X132857456Y-114250000I-267544J0D01*
G01*
X131542544Y-114250000D01*
G75*
G02*
X131275000Y-113982456I0J267544D01*
G01*
X131275000Y-112992544D01*
G75*
G02*
X131542544Y-112725000I267544J0D01*
G01*
G37*
G36*
G01*
X131542544Y-109750000D02*
X132857456Y-109750000D01*
G75*
G02*
X133125000Y-110017544I0J-267544D01*
G01*
X133125000Y-111007456D01*
G75*
G02*
X132857456Y-111275000I-267544J0D01*
G01*
X131542544Y-111275000D01*
G75*
G02*
X131275000Y-111007456I0J267544D01*
G01*
X131275000Y-110017544D01*
G75*
G02*
X131542544Y-109750000I267544J0D01*
G01*
G37*
%TD*%
%TO.C,R10*%
G36*
G01*
X117057456Y-111375000D02*
X115742544Y-111375000D01*
G75*
G02*
X115475000Y-111107456I0J267544D01*
G01*
X115475000Y-110117544D01*
G75*
G02*
X115742544Y-109850000I267544J0D01*
G01*
X117057456Y-109850000D01*
G75*
G02*
X117325000Y-110117544I0J-267544D01*
G01*
X117325000Y-111107456D01*
G75*
G02*
X117057456Y-111375000I-267544J0D01*
G01*
G37*
G36*
G01*
X117057456Y-114350000D02*
X115742544Y-114350000D01*
G75*
G02*
X115475000Y-114082456I0J267544D01*
G01*
X115475000Y-113092544D01*
G75*
G02*
X115742544Y-112825000I267544J0D01*
G01*
X117057456Y-112825000D01*
G75*
G02*
X117325000Y-113092544I0J-267544D01*
G01*
X117325000Y-114082456D01*
G75*
G02*
X117057456Y-114350000I-267544J0D01*
G01*
G37*
%TD*%
%TO.C,R8*%
G36*
G01*
X160257456Y-103075000D02*
X158942544Y-103075000D01*
G75*
G02*
X158675000Y-102807456I0J267544D01*
G01*
X158675000Y-101817544D01*
G75*
G02*
X158942544Y-101550000I267544J0D01*
G01*
X160257456Y-101550000D01*
G75*
G02*
X160525000Y-101817544I0J-267544D01*
G01*
X160525000Y-102807456D01*
G75*
G02*
X160257456Y-103075000I-267544J0D01*
G01*
G37*
G36*
G01*
X160257456Y-106050000D02*
X158942544Y-106050000D01*
G75*
G02*
X158675000Y-105782456I0J267544D01*
G01*
X158675000Y-104792544D01*
G75*
G02*
X158942544Y-104525000I267544J0D01*
G01*
X160257456Y-104525000D01*
G75*
G02*
X160525000Y-104792544I0J-267544D01*
G01*
X160525000Y-105782456D01*
G75*
G02*
X160257456Y-106050000I-267544J0D01*
G01*
G37*
%TD*%
%TO.C,R7*%
G36*
G01*
X143800544Y-104525000D02*
X145115456Y-104525000D01*
G75*
G02*
X145383000Y-104792544I0J-267544D01*
G01*
X145383000Y-105782456D01*
G75*
G02*
X145115456Y-106050000I-267544J0D01*
G01*
X143800544Y-106050000D01*
G75*
G02*
X143533000Y-105782456I0J267544D01*
G01*
X143533000Y-104792544D01*
G75*
G02*
X143800544Y-104525000I267544J0D01*
G01*
G37*
G36*
G01*
X143800544Y-101550000D02*
X145115456Y-101550000D01*
G75*
G02*
X145383000Y-101817544I0J-267544D01*
G01*
X145383000Y-102807456D01*
G75*
G02*
X145115456Y-103075000I-267544J0D01*
G01*
X143800544Y-103075000D01*
G75*
G02*
X143533000Y-102807456I0J267544D01*
G01*
X143533000Y-101817544D01*
G75*
G02*
X143800544Y-101550000I267544J0D01*
G01*
G37*
%TD*%
%TO.C,R6*%
G36*
G01*
X171742544Y-81525000D02*
X173057456Y-81525000D01*
G75*
G02*
X173325000Y-81792544I0J-267544D01*
G01*
X173325000Y-82782456D01*
G75*
G02*
X173057456Y-83050000I-267544J0D01*
G01*
X171742544Y-83050000D01*
G75*
G02*
X171475000Y-82782456I0J267544D01*
G01*
X171475000Y-81792544D01*
G75*
G02*
X171742544Y-81525000I267544J0D01*
G01*
G37*
G36*
G01*
X171742544Y-78550000D02*
X173057456Y-78550000D01*
G75*
G02*
X173325000Y-78817544I0J-267544D01*
G01*
X173325000Y-79807456D01*
G75*
G02*
X173057456Y-80075000I-267544J0D01*
G01*
X171742544Y-80075000D01*
G75*
G02*
X171475000Y-79807456I0J267544D01*
G01*
X171475000Y-78817544D01*
G75*
G02*
X171742544Y-78550000I267544J0D01*
G01*
G37*
%TD*%
%TO.C,R5*%
G36*
G01*
X157457456Y-80175000D02*
X156142544Y-80175000D01*
G75*
G02*
X155875000Y-79907456I0J267544D01*
G01*
X155875000Y-78917544D01*
G75*
G02*
X156142544Y-78650000I267544J0D01*
G01*
X157457456Y-78650000D01*
G75*
G02*
X157725000Y-78917544I0J-267544D01*
G01*
X157725000Y-79907456D01*
G75*
G02*
X157457456Y-80175000I-267544J0D01*
G01*
G37*
G36*
G01*
X157457456Y-83150000D02*
X156142544Y-83150000D01*
G75*
G02*
X155875000Y-82882456I0J267544D01*
G01*
X155875000Y-81892544D01*
G75*
G02*
X156142544Y-81625000I267544J0D01*
G01*
X157457456Y-81625000D01*
G75*
G02*
X157725000Y-81892544I0J-267544D01*
G01*
X157725000Y-82882456D01*
G75*
G02*
X157457456Y-83150000I-267544J0D01*
G01*
G37*
%TD*%
%TO.C,R4*%
G36*
G01*
X129957456Y-103175000D02*
X128642544Y-103175000D01*
G75*
G02*
X128375000Y-102907456I0J267544D01*
G01*
X128375000Y-101917544D01*
G75*
G02*
X128642544Y-101650000I267544J0D01*
G01*
X129957456Y-101650000D01*
G75*
G02*
X130225000Y-101917544I0J-267544D01*
G01*
X130225000Y-102907456D01*
G75*
G02*
X129957456Y-103175000I-267544J0D01*
G01*
G37*
G36*
G01*
X129957456Y-106150000D02*
X128642544Y-106150000D01*
G75*
G02*
X128375000Y-105882456I0J267544D01*
G01*
X128375000Y-104892544D01*
G75*
G02*
X128642544Y-104625000I267544J0D01*
G01*
X129957456Y-104625000D01*
G75*
G02*
X130225000Y-104892544I0J-267544D01*
G01*
X130225000Y-105882456D01*
G75*
G02*
X129957456Y-106150000I-267544J0D01*
G01*
G37*
%TD*%
%TO.C,R3*%
G36*
G01*
X113442544Y-104525000D02*
X114757456Y-104525000D01*
G75*
G02*
X115025000Y-104792544I0J-267544D01*
G01*
X115025000Y-105782456D01*
G75*
G02*
X114757456Y-106050000I-267544J0D01*
G01*
X113442544Y-106050000D01*
G75*
G02*
X113175000Y-105782456I0J267544D01*
G01*
X113175000Y-104792544D01*
G75*
G02*
X113442544Y-104525000I267544J0D01*
G01*
G37*
G36*
G01*
X113442544Y-101550000D02*
X114757456Y-101550000D01*
G75*
G02*
X115025000Y-101817544I0J-267544D01*
G01*
X115025000Y-102807456D01*
G75*
G02*
X114757456Y-103075000I-267544J0D01*
G01*
X113442544Y-103075000D01*
G75*
G02*
X113175000Y-102807456I0J267544D01*
G01*
X113175000Y-101817544D01*
G75*
G02*
X113442544Y-101550000I267544J0D01*
G01*
G37*
%TD*%
%TO.C,R2*%
G36*
G01*
X131642544Y-81425000D02*
X132957456Y-81425000D01*
G75*
G02*
X133225000Y-81692544I0J-267544D01*
G01*
X133225000Y-82682456D01*
G75*
G02*
X132957456Y-82950000I-267544J0D01*
G01*
X131642544Y-82950000D01*
G75*
G02*
X131375000Y-82682456I0J267544D01*
G01*
X131375000Y-81692544D01*
G75*
G02*
X131642544Y-81425000I267544J0D01*
G01*
G37*
G36*
G01*
X131642544Y-78450000D02*
X132957456Y-78450000D01*
G75*
G02*
X133225000Y-78717544I0J-267544D01*
G01*
X133225000Y-79707456D01*
G75*
G02*
X132957456Y-79975000I-267544J0D01*
G01*
X131642544Y-79975000D01*
G75*
G02*
X131375000Y-79707456I0J267544D01*
G01*
X131375000Y-78717544D01*
G75*
G02*
X131642544Y-78450000I267544J0D01*
G01*
G37*
%TD*%
%TO.C,R1*%
G36*
G01*
X117357456Y-79975000D02*
X116042544Y-79975000D01*
G75*
G02*
X115775000Y-79707456I0J267544D01*
G01*
X115775000Y-78717544D01*
G75*
G02*
X116042544Y-78450000I267544J0D01*
G01*
X117357456Y-78450000D01*
G75*
G02*
X117625000Y-78717544I0J-267544D01*
G01*
X117625000Y-79707456D01*
G75*
G02*
X117357456Y-79975000I-267544J0D01*
G01*
G37*
G36*
G01*
X117357456Y-82950000D02*
X116042544Y-82950000D01*
G75*
G02*
X115775000Y-82682456I0J267544D01*
G01*
X115775000Y-81692544D01*
G75*
G02*
X116042544Y-81425000I267544J0D01*
G01*
X117357456Y-81425000D01*
G75*
G02*
X117625000Y-81692544I0J-267544D01*
G01*
X117625000Y-82682456D01*
G75*
G02*
X117357456Y-82950000I-267544J0D01*
G01*
G37*
%TD*%
D10*
%TO.C,SP3*%
X104150000Y-94900000D03*
X106650000Y-94900000D03*
X109150000Y-94900000D03*
D11*
X102250000Y-87900000D03*
X111050000Y-87900000D03*
%TD*%
D10*
%TO.C,SP2*%
X164823000Y-74026000D03*
X167323000Y-74026000D03*
X169823000Y-74026000D03*
D11*
X162923000Y-67026000D03*
X171723000Y-67026000D03*
%TD*%
D10*
%TO.C,SP1*%
X149110000Y-74026000D03*
X151610000Y-74026000D03*
X154110000Y-74026000D03*
D11*
X147210000Y-67026000D03*
X156010000Y-67026000D03*
%TD*%
D10*
%TO.C,RV8*%
X164823000Y-129426000D03*
X167323000Y-129426000D03*
X169823000Y-129426000D03*
D11*
X162923000Y-122426000D03*
X171723000Y-122426000D03*
%TD*%
D10*
%TO.C,RV7*%
X149364000Y-129426000D03*
X151864000Y-129426000D03*
X154364000Y-129426000D03*
D11*
X147464000Y-122426000D03*
X156264000Y-122426000D03*
%TD*%
D10*
%TO.C,RV6*%
X134597000Y-129426000D03*
X137097000Y-129426000D03*
X139597000Y-129426000D03*
D11*
X132697000Y-122426000D03*
X141497000Y-122426000D03*
%TD*%
D10*
%TO.C,RV5*%
X118838000Y-129426000D03*
X121338000Y-129426000D03*
X123838000Y-129426000D03*
D11*
X116938000Y-122426000D03*
X125738000Y-122426000D03*
%TD*%
D10*
%TO.C,RV4*%
X164823000Y-97930000D03*
X167323000Y-97930000D03*
X169823000Y-97930000D03*
D11*
X162923000Y-90930000D03*
X171723000Y-90930000D03*
%TD*%
D10*
%TO.C,RV3*%
X149364000Y-97930000D03*
X151864000Y-97930000D03*
X154364000Y-97930000D03*
D11*
X147464000Y-90930000D03*
X156264000Y-90930000D03*
%TD*%
D10*
%TO.C,RV2*%
X134597000Y-97930000D03*
X137097000Y-97930000D03*
X139597000Y-97930000D03*
D11*
X132697000Y-90930000D03*
X141497000Y-90930000D03*
%TD*%
D10*
%TO.C,RV1*%
X118838000Y-97930000D03*
X121338000Y-97930000D03*
X123838000Y-97930000D03*
D11*
X116938000Y-90930000D03*
X125738000Y-90930000D03*
%TD*%
D12*
%TO.C,+5V*%
X100950000Y-75250000D03*
%TD*%
%TO.C,GND*%
X100900000Y-70475000D03*
%TD*%
%TO.C,+3V3*%
X100950000Y-65700000D03*
%TD*%
D13*
%TO.C,PWR*%
X105600000Y-70830000D03*
X105600000Y-68290000D03*
D14*
X105600000Y-65750000D03*
%TD*%
D15*
%TO.C,J2*%
X105560000Y-125860000D03*
X105560000Y-123320000D03*
X105560000Y-120780000D03*
X105560000Y-118240000D03*
X105560000Y-115700000D03*
X105560000Y-113160000D03*
X105560000Y-110620000D03*
X105560000Y-108080000D03*
X105560000Y-105540000D03*
X105560000Y-103000000D03*
X108100000Y-125860000D03*
X108100000Y-123320000D03*
X108100000Y-120780000D03*
X108100000Y-118240000D03*
X108100000Y-115700000D03*
X108100000Y-113160000D03*
X108100000Y-110620000D03*
X108100000Y-108080000D03*
X108100000Y-105540000D03*
G36*
G01*
X109000000Y-102364706D02*
X109000000Y-103635294D01*
G75*
G02*
X108735294Y-103900000I-264706J0D01*
G01*
X107464706Y-103900000D01*
G75*
G02*
X107200000Y-103635294I0J264706D01*
G01*
X107200000Y-102364706D01*
G75*
G02*
X107464706Y-102100000I264706J0D01*
G01*
X108735294Y-102100000D01*
G75*
G02*
X109000000Y-102364706I0J-264706D01*
G01*
G37*
%TD*%
%TO.C,J1*%
G36*
G01*
X182696000Y-101866706D02*
X182696000Y-103137294D01*
G75*
G02*
X182431294Y-103402000I-264706J0D01*
G01*
X181160706Y-103402000D01*
G75*
G02*
X180896000Y-103137294I0J264706D01*
G01*
X180896000Y-101866706D01*
G75*
G02*
X181160706Y-101602000I264706J0D01*
G01*
X182431294Y-101602000D01*
G75*
G02*
X182696000Y-101866706I0J-264706D01*
G01*
G37*
X181796000Y-105042000D03*
X181796000Y-107582000D03*
X181796000Y-110122000D03*
X181796000Y-112662000D03*
X181796000Y-115202000D03*
X181796000Y-117742000D03*
X181796000Y-120282000D03*
X181796000Y-122822000D03*
X181796000Y-125362000D03*
X179256000Y-102502000D03*
X179256000Y-105042000D03*
X179256000Y-107582000D03*
X179256000Y-110122000D03*
X179256000Y-112662000D03*
X179256000Y-115202000D03*
X179256000Y-117742000D03*
X179256000Y-120282000D03*
X179256000Y-122822000D03*
X179256000Y-125362000D03*
%TD*%
D16*
%TO.C,OLED Display*%
X122930000Y-54550000D03*
X120390000Y-54550000D03*
X125470000Y-54550000D03*
D17*
X117850000Y-54550000D03*
D16*
X130550000Y-54550000D03*
X128010000Y-54550000D03*
X133090000Y-54550000D03*
D18*
X111450000Y-55550000D03*
X111450000Y-70550000D03*
X139450000Y-55550000D03*
X139450000Y-70550000D03*
%TD*%
D19*
%TO.C,SSW5*%
X183073000Y-51800000D03*
X183073000Y-56300000D03*
X176573000Y-51800000D03*
X176573000Y-56300000D03*
%TD*%
%TO.C,SSW1*%
X183828000Y-88278000D03*
X183828000Y-92778000D03*
X177328000Y-88278000D03*
X177328000Y-92778000D03*
%TD*%
%TO.C,SSW3*%
X183724000Y-69820666D03*
X183724000Y-74320666D03*
X177224000Y-69820666D03*
X177224000Y-74320666D03*
%TD*%
%TO.C,SSW2*%
X183724000Y-79049332D03*
X183724000Y-83549332D03*
X177224000Y-79049332D03*
X177224000Y-83549332D03*
%TD*%
%TO.C,SSW4*%
X183724000Y-60592000D03*
X183724000Y-65092000D03*
X177224000Y-60592000D03*
X177224000Y-65092000D03*
%TD*%
%TO.C,SW8*%
X164073000Y-137482000D03*
X164073000Y-132982000D03*
X170573000Y-137482000D03*
X170573000Y-132982000D03*
%TD*%
%TO.C,SW7*%
X155114000Y-132982000D03*
X155114000Y-137482000D03*
X148614000Y-132982000D03*
X148614000Y-137482000D03*
%TD*%
%TO.C,SW6*%
X140347000Y-132982000D03*
X140347000Y-137482000D03*
X133847000Y-132982000D03*
X133847000Y-137482000D03*
%TD*%
%TO.C,SW5*%
X124588000Y-132982000D03*
X124588000Y-137482000D03*
X118088000Y-132982000D03*
X118088000Y-137482000D03*
%TD*%
%TO.C,SW4*%
X164073000Y-105986000D03*
X164073000Y-101486000D03*
X170573000Y-105986000D03*
X170573000Y-101486000D03*
%TD*%
%TO.C,SW3*%
X155114000Y-101486000D03*
X155114000Y-105986000D03*
X148614000Y-101486000D03*
X148614000Y-105986000D03*
%TD*%
%TO.C,SW2*%
X140347000Y-101486000D03*
X140347000Y-105986000D03*
X133847000Y-101486000D03*
X133847000Y-105986000D03*
%TD*%
%TO.C,SW1*%
X124588000Y-101486000D03*
X124588000Y-105986000D03*
X118088000Y-101486000D03*
X118088000Y-105986000D03*
%TD*%
D20*
%TO.C,GND*%
X100500000Y-53500000D03*
%TD*%
D18*
%TO.C,H3*%
X188000000Y-53500000D03*
%TD*%
%TO.C,H2*%
X188000000Y-136000000D03*
%TD*%
%TO.C,H1*%
X100500000Y-136000000D03*
%TD*%
D10*
%TO.C,D8*%
X168588000Y-112154000D03*
D21*
X166048000Y-112154000D03*
%TD*%
%TO.C,D7*%
X150589000Y-112154000D03*
D10*
X153129000Y-112154000D03*
%TD*%
D21*
%TO.C,D6*%
X138372000Y-112000000D03*
D10*
X135832000Y-112000000D03*
%TD*%
D21*
%TO.C,D5*%
X122613000Y-112100000D03*
D10*
X120073000Y-112100000D03*
%TD*%
%TO.C,D4*%
X168588000Y-80658000D03*
D21*
X166048000Y-80658000D03*
%TD*%
%TO.C,D3*%
X150589000Y-80658000D03*
D10*
X153129000Y-80658000D03*
%TD*%
D21*
%TO.C,D2*%
X138300000Y-80700000D03*
D10*
X135760000Y-80700000D03*
%TD*%
D21*
%TO.C,D1*%
X122613000Y-80658000D03*
D10*
X120073000Y-80658000D03*
%TD*%
M02*
