%TF.GenerationSoftware,KiCad,Pcbnew,(5.1.6-0-10_14)*%
%TF.CreationDate,2020-08-30T22:56:52+02:00*%
%TF.ProjectId,sequencer-pcb,73657175-656e-4636-9572-2d7063622e6b,rev?*%
%TF.SameCoordinates,Original*%
%TF.FileFunction,Paste,Bot*%
%TF.FilePolarity,Positive*%
%FSLAX46Y46*%
G04 Gerber Fmt 4.6, Leading zero omitted, Abs format (unit mm)*
G04 Created by KiCad (PCBNEW (5.1.6-0-10_14)) date 2020-08-30 22:56:52*
%MOMM*%
%LPD*%
G01*
G04 APERTURE LIST*
G04 APERTURE END LIST*
%TO.C,R22*%
G36*
G01*
X187475000Y-82041666D02*
X188725000Y-82041666D01*
G75*
G02*
X188975000Y-82291666I0J-250000D01*
G01*
X188975000Y-83216666D01*
G75*
G02*
X188725000Y-83466666I-250000J0D01*
G01*
X187475000Y-83466666D01*
G75*
G02*
X187225000Y-83216666I0J250000D01*
G01*
X187225000Y-82291666D01*
G75*
G02*
X187475000Y-82041666I250000J0D01*
G01*
G37*
G36*
G01*
X187475000Y-79066666D02*
X188725000Y-79066666D01*
G75*
G02*
X188975000Y-79316666I0J-250000D01*
G01*
X188975000Y-80241666D01*
G75*
G02*
X188725000Y-80491666I-250000J0D01*
G01*
X187475000Y-80491666D01*
G75*
G02*
X187225000Y-80241666I0J250000D01*
G01*
X187225000Y-79316666D01*
G75*
G02*
X187475000Y-79066666I250000J0D01*
G01*
G37*
%TD*%
%TO.C,R21*%
G36*
G01*
X187475000Y-72808333D02*
X188725000Y-72808333D01*
G75*
G02*
X188975000Y-73058333I0J-250000D01*
G01*
X188975000Y-73983333D01*
G75*
G02*
X188725000Y-74233333I-250000J0D01*
G01*
X187475000Y-74233333D01*
G75*
G02*
X187225000Y-73983333I0J250000D01*
G01*
X187225000Y-73058333D01*
G75*
G02*
X187475000Y-72808333I250000J0D01*
G01*
G37*
G36*
G01*
X187475000Y-69833333D02*
X188725000Y-69833333D01*
G75*
G02*
X188975000Y-70083333I0J-250000D01*
G01*
X188975000Y-71008333D01*
G75*
G02*
X188725000Y-71258333I-250000J0D01*
G01*
X187475000Y-71258333D01*
G75*
G02*
X187225000Y-71008333I0J250000D01*
G01*
X187225000Y-70083333D01*
G75*
G02*
X187475000Y-69833333I250000J0D01*
G01*
G37*
%TD*%
%TO.C,R20*%
G36*
G01*
X172675000Y-54675000D02*
X173925000Y-54675000D01*
G75*
G02*
X174175000Y-54925000I0J-250000D01*
G01*
X174175000Y-55850000D01*
G75*
G02*
X173925000Y-56100000I-250000J0D01*
G01*
X172675000Y-56100000D01*
G75*
G02*
X172425000Y-55850000I0J250000D01*
G01*
X172425000Y-54925000D01*
G75*
G02*
X172675000Y-54675000I250000J0D01*
G01*
G37*
G36*
G01*
X172675000Y-51700000D02*
X173925000Y-51700000D01*
G75*
G02*
X174175000Y-51950000I0J-250000D01*
G01*
X174175000Y-52875000D01*
G75*
G02*
X173925000Y-53125000I-250000J0D01*
G01*
X172675000Y-53125000D01*
G75*
G02*
X172425000Y-52875000I0J250000D01*
G01*
X172425000Y-51950000D01*
G75*
G02*
X172675000Y-51700000I250000J0D01*
G01*
G37*
%TD*%
%TO.C,R19*%
G36*
G01*
X188725000Y-62025000D02*
X187475000Y-62025000D01*
G75*
G02*
X187225000Y-61775000I0J250000D01*
G01*
X187225000Y-60850000D01*
G75*
G02*
X187475000Y-60600000I250000J0D01*
G01*
X188725000Y-60600000D01*
G75*
G02*
X188975000Y-60850000I0J-250000D01*
G01*
X188975000Y-61775000D01*
G75*
G02*
X188725000Y-62025000I-250000J0D01*
G01*
G37*
G36*
G01*
X188725000Y-65000000D02*
X187475000Y-65000000D01*
G75*
G02*
X187225000Y-64750000I0J250000D01*
G01*
X187225000Y-63825000D01*
G75*
G02*
X187475000Y-63575000I250000J0D01*
G01*
X188725000Y-63575000D01*
G75*
G02*
X188975000Y-63825000I0J-250000D01*
G01*
X188975000Y-64750000D01*
G75*
G02*
X188725000Y-65000000I-250000J0D01*
G01*
G37*
%TD*%
%TO.C,R18*%
G36*
G01*
X187475000Y-91275000D02*
X188725000Y-91275000D01*
G75*
G02*
X188975000Y-91525000I0J-250000D01*
G01*
X188975000Y-92450000D01*
G75*
G02*
X188725000Y-92700000I-250000J0D01*
G01*
X187475000Y-92700000D01*
G75*
G02*
X187225000Y-92450000I0J250000D01*
G01*
X187225000Y-91525000D01*
G75*
G02*
X187475000Y-91275000I250000J0D01*
G01*
G37*
G36*
G01*
X187475000Y-88300000D02*
X188725000Y-88300000D01*
G75*
G02*
X188975000Y-88550000I0J-250000D01*
G01*
X188975000Y-89475000D01*
G75*
G02*
X188725000Y-89725000I-250000J0D01*
G01*
X187475000Y-89725000D01*
G75*
G02*
X187225000Y-89475000I0J250000D01*
G01*
X187225000Y-88550000D01*
G75*
G02*
X187475000Y-88300000I250000J0D01*
G01*
G37*
%TD*%
%TO.C,R17*%
G36*
G01*
X160225000Y-134425000D02*
X158975000Y-134425000D01*
G75*
G02*
X158725000Y-134175000I0J250000D01*
G01*
X158725000Y-133250000D01*
G75*
G02*
X158975000Y-133000000I250000J0D01*
G01*
X160225000Y-133000000D01*
G75*
G02*
X160475000Y-133250000I0J-250000D01*
G01*
X160475000Y-134175000D01*
G75*
G02*
X160225000Y-134425000I-250000J0D01*
G01*
G37*
G36*
G01*
X160225000Y-137400000D02*
X158975000Y-137400000D01*
G75*
G02*
X158725000Y-137150000I0J250000D01*
G01*
X158725000Y-136225000D01*
G75*
G02*
X158975000Y-135975000I250000J0D01*
G01*
X160225000Y-135975000D01*
G75*
G02*
X160475000Y-136225000I0J-250000D01*
G01*
X160475000Y-137150000D01*
G75*
G02*
X160225000Y-137400000I-250000J0D01*
G01*
G37*
%TD*%
%TO.C,R16*%
G36*
G01*
X143975000Y-135975000D02*
X145225000Y-135975000D01*
G75*
G02*
X145475000Y-136225000I0J-250000D01*
G01*
X145475000Y-137150000D01*
G75*
G02*
X145225000Y-137400000I-250000J0D01*
G01*
X143975000Y-137400000D01*
G75*
G02*
X143725000Y-137150000I0J250000D01*
G01*
X143725000Y-136225000D01*
G75*
G02*
X143975000Y-135975000I250000J0D01*
G01*
G37*
G36*
G01*
X143975000Y-133000000D02*
X145225000Y-133000000D01*
G75*
G02*
X145475000Y-133250000I0J-250000D01*
G01*
X145475000Y-134175000D01*
G75*
G02*
X145225000Y-134425000I-250000J0D01*
G01*
X143975000Y-134425000D01*
G75*
G02*
X143725000Y-134175000I0J250000D01*
G01*
X143725000Y-133250000D01*
G75*
G02*
X143975000Y-133000000I250000J0D01*
G01*
G37*
%TD*%
%TO.C,R15*%
G36*
G01*
X172175000Y-112975000D02*
X173425000Y-112975000D01*
G75*
G02*
X173675000Y-113225000I0J-250000D01*
G01*
X173675000Y-114150000D01*
G75*
G02*
X173425000Y-114400000I-250000J0D01*
G01*
X172175000Y-114400000D01*
G75*
G02*
X171925000Y-114150000I0J250000D01*
G01*
X171925000Y-113225000D01*
G75*
G02*
X172175000Y-112975000I250000J0D01*
G01*
G37*
G36*
G01*
X172175000Y-110000000D02*
X173425000Y-110000000D01*
G75*
G02*
X173675000Y-110250000I0J-250000D01*
G01*
X173675000Y-111175000D01*
G75*
G02*
X173425000Y-111425000I-250000J0D01*
G01*
X172175000Y-111425000D01*
G75*
G02*
X171925000Y-111175000I0J250000D01*
G01*
X171925000Y-110250000D01*
G75*
G02*
X172175000Y-110000000I250000J0D01*
G01*
G37*
%TD*%
%TO.C,R14*%
G36*
G01*
X157625000Y-111425000D02*
X156375000Y-111425000D01*
G75*
G02*
X156125000Y-111175000I0J250000D01*
G01*
X156125000Y-110250000D01*
G75*
G02*
X156375000Y-110000000I250000J0D01*
G01*
X157625000Y-110000000D01*
G75*
G02*
X157875000Y-110250000I0J-250000D01*
G01*
X157875000Y-111175000D01*
G75*
G02*
X157625000Y-111425000I-250000J0D01*
G01*
G37*
G36*
G01*
X157625000Y-114400000D02*
X156375000Y-114400000D01*
G75*
G02*
X156125000Y-114150000I0J250000D01*
G01*
X156125000Y-113225000D01*
G75*
G02*
X156375000Y-112975000I250000J0D01*
G01*
X157625000Y-112975000D01*
G75*
G02*
X157875000Y-113225000I0J-250000D01*
G01*
X157875000Y-114150000D01*
G75*
G02*
X157625000Y-114400000I-250000J0D01*
G01*
G37*
%TD*%
%TO.C,R13*%
G36*
G01*
X129925000Y-134525000D02*
X128675000Y-134525000D01*
G75*
G02*
X128425000Y-134275000I0J250000D01*
G01*
X128425000Y-133350000D01*
G75*
G02*
X128675000Y-133100000I250000J0D01*
G01*
X129925000Y-133100000D01*
G75*
G02*
X130175000Y-133350000I0J-250000D01*
G01*
X130175000Y-134275000D01*
G75*
G02*
X129925000Y-134525000I-250000J0D01*
G01*
G37*
G36*
G01*
X129925000Y-137500000D02*
X128675000Y-137500000D01*
G75*
G02*
X128425000Y-137250000I0J250000D01*
G01*
X128425000Y-136325000D01*
G75*
G02*
X128675000Y-136075000I250000J0D01*
G01*
X129925000Y-136075000D01*
G75*
G02*
X130175000Y-136325000I0J-250000D01*
G01*
X130175000Y-137250000D01*
G75*
G02*
X129925000Y-137500000I-250000J0D01*
G01*
G37*
%TD*%
%TO.C,R12*%
G36*
G01*
X113475000Y-136275000D02*
X114725000Y-136275000D01*
G75*
G02*
X114975000Y-136525000I0J-250000D01*
G01*
X114975000Y-137450000D01*
G75*
G02*
X114725000Y-137700000I-250000J0D01*
G01*
X113475000Y-137700000D01*
G75*
G02*
X113225000Y-137450000I0J250000D01*
G01*
X113225000Y-136525000D01*
G75*
G02*
X113475000Y-136275000I250000J0D01*
G01*
G37*
G36*
G01*
X113475000Y-133300000D02*
X114725000Y-133300000D01*
G75*
G02*
X114975000Y-133550000I0J-250000D01*
G01*
X114975000Y-134475000D01*
G75*
G02*
X114725000Y-134725000I-250000J0D01*
G01*
X113475000Y-134725000D01*
G75*
G02*
X113225000Y-134475000I0J250000D01*
G01*
X113225000Y-133550000D01*
G75*
G02*
X113475000Y-133300000I250000J0D01*
G01*
G37*
%TD*%
%TO.C,R11*%
G36*
G01*
X131575000Y-112775000D02*
X132825000Y-112775000D01*
G75*
G02*
X133075000Y-113025000I0J-250000D01*
G01*
X133075000Y-113950000D01*
G75*
G02*
X132825000Y-114200000I-250000J0D01*
G01*
X131575000Y-114200000D01*
G75*
G02*
X131325000Y-113950000I0J250000D01*
G01*
X131325000Y-113025000D01*
G75*
G02*
X131575000Y-112775000I250000J0D01*
G01*
G37*
G36*
G01*
X131575000Y-109800000D02*
X132825000Y-109800000D01*
G75*
G02*
X133075000Y-110050000I0J-250000D01*
G01*
X133075000Y-110975000D01*
G75*
G02*
X132825000Y-111225000I-250000J0D01*
G01*
X131575000Y-111225000D01*
G75*
G02*
X131325000Y-110975000I0J250000D01*
G01*
X131325000Y-110050000D01*
G75*
G02*
X131575000Y-109800000I250000J0D01*
G01*
G37*
%TD*%
%TO.C,R10*%
G36*
G01*
X117025000Y-111325000D02*
X115775000Y-111325000D01*
G75*
G02*
X115525000Y-111075000I0J250000D01*
G01*
X115525000Y-110150000D01*
G75*
G02*
X115775000Y-109900000I250000J0D01*
G01*
X117025000Y-109900000D01*
G75*
G02*
X117275000Y-110150000I0J-250000D01*
G01*
X117275000Y-111075000D01*
G75*
G02*
X117025000Y-111325000I-250000J0D01*
G01*
G37*
G36*
G01*
X117025000Y-114300000D02*
X115775000Y-114300000D01*
G75*
G02*
X115525000Y-114050000I0J250000D01*
G01*
X115525000Y-113125000D01*
G75*
G02*
X115775000Y-112875000I250000J0D01*
G01*
X117025000Y-112875000D01*
G75*
G02*
X117275000Y-113125000I0J-250000D01*
G01*
X117275000Y-114050000D01*
G75*
G02*
X117025000Y-114300000I-250000J0D01*
G01*
G37*
%TD*%
%TO.C,R8*%
G36*
G01*
X160225000Y-103025000D02*
X158975000Y-103025000D01*
G75*
G02*
X158725000Y-102775000I0J250000D01*
G01*
X158725000Y-101850000D01*
G75*
G02*
X158975000Y-101600000I250000J0D01*
G01*
X160225000Y-101600000D01*
G75*
G02*
X160475000Y-101850000I0J-250000D01*
G01*
X160475000Y-102775000D01*
G75*
G02*
X160225000Y-103025000I-250000J0D01*
G01*
G37*
G36*
G01*
X160225000Y-106000000D02*
X158975000Y-106000000D01*
G75*
G02*
X158725000Y-105750000I0J250000D01*
G01*
X158725000Y-104825000D01*
G75*
G02*
X158975000Y-104575000I250000J0D01*
G01*
X160225000Y-104575000D01*
G75*
G02*
X160475000Y-104825000I0J-250000D01*
G01*
X160475000Y-105750000D01*
G75*
G02*
X160225000Y-106000000I-250000J0D01*
G01*
G37*
%TD*%
%TO.C,R7*%
G36*
G01*
X143833000Y-104575000D02*
X145083000Y-104575000D01*
G75*
G02*
X145333000Y-104825000I0J-250000D01*
G01*
X145333000Y-105750000D01*
G75*
G02*
X145083000Y-106000000I-250000J0D01*
G01*
X143833000Y-106000000D01*
G75*
G02*
X143583000Y-105750000I0J250000D01*
G01*
X143583000Y-104825000D01*
G75*
G02*
X143833000Y-104575000I250000J0D01*
G01*
G37*
G36*
G01*
X143833000Y-101600000D02*
X145083000Y-101600000D01*
G75*
G02*
X145333000Y-101850000I0J-250000D01*
G01*
X145333000Y-102775000D01*
G75*
G02*
X145083000Y-103025000I-250000J0D01*
G01*
X143833000Y-103025000D01*
G75*
G02*
X143583000Y-102775000I0J250000D01*
G01*
X143583000Y-101850000D01*
G75*
G02*
X143833000Y-101600000I250000J0D01*
G01*
G37*
%TD*%
%TO.C,R6*%
G36*
G01*
X171775000Y-81575000D02*
X173025000Y-81575000D01*
G75*
G02*
X173275000Y-81825000I0J-250000D01*
G01*
X173275000Y-82750000D01*
G75*
G02*
X173025000Y-83000000I-250000J0D01*
G01*
X171775000Y-83000000D01*
G75*
G02*
X171525000Y-82750000I0J250000D01*
G01*
X171525000Y-81825000D01*
G75*
G02*
X171775000Y-81575000I250000J0D01*
G01*
G37*
G36*
G01*
X171775000Y-78600000D02*
X173025000Y-78600000D01*
G75*
G02*
X173275000Y-78850000I0J-250000D01*
G01*
X173275000Y-79775000D01*
G75*
G02*
X173025000Y-80025000I-250000J0D01*
G01*
X171775000Y-80025000D01*
G75*
G02*
X171525000Y-79775000I0J250000D01*
G01*
X171525000Y-78850000D01*
G75*
G02*
X171775000Y-78600000I250000J0D01*
G01*
G37*
%TD*%
%TO.C,R5*%
G36*
G01*
X157425000Y-80125000D02*
X156175000Y-80125000D01*
G75*
G02*
X155925000Y-79875000I0J250000D01*
G01*
X155925000Y-78950000D01*
G75*
G02*
X156175000Y-78700000I250000J0D01*
G01*
X157425000Y-78700000D01*
G75*
G02*
X157675000Y-78950000I0J-250000D01*
G01*
X157675000Y-79875000D01*
G75*
G02*
X157425000Y-80125000I-250000J0D01*
G01*
G37*
G36*
G01*
X157425000Y-83100000D02*
X156175000Y-83100000D01*
G75*
G02*
X155925000Y-82850000I0J250000D01*
G01*
X155925000Y-81925000D01*
G75*
G02*
X156175000Y-81675000I250000J0D01*
G01*
X157425000Y-81675000D01*
G75*
G02*
X157675000Y-81925000I0J-250000D01*
G01*
X157675000Y-82850000D01*
G75*
G02*
X157425000Y-83100000I-250000J0D01*
G01*
G37*
%TD*%
%TO.C,R4*%
G36*
G01*
X129925000Y-103125000D02*
X128675000Y-103125000D01*
G75*
G02*
X128425000Y-102875000I0J250000D01*
G01*
X128425000Y-101950000D01*
G75*
G02*
X128675000Y-101700000I250000J0D01*
G01*
X129925000Y-101700000D01*
G75*
G02*
X130175000Y-101950000I0J-250000D01*
G01*
X130175000Y-102875000D01*
G75*
G02*
X129925000Y-103125000I-250000J0D01*
G01*
G37*
G36*
G01*
X129925000Y-106100000D02*
X128675000Y-106100000D01*
G75*
G02*
X128425000Y-105850000I0J250000D01*
G01*
X128425000Y-104925000D01*
G75*
G02*
X128675000Y-104675000I250000J0D01*
G01*
X129925000Y-104675000D01*
G75*
G02*
X130175000Y-104925000I0J-250000D01*
G01*
X130175000Y-105850000D01*
G75*
G02*
X129925000Y-106100000I-250000J0D01*
G01*
G37*
%TD*%
%TO.C,R3*%
G36*
G01*
X113475000Y-104575000D02*
X114725000Y-104575000D01*
G75*
G02*
X114975000Y-104825000I0J-250000D01*
G01*
X114975000Y-105750000D01*
G75*
G02*
X114725000Y-106000000I-250000J0D01*
G01*
X113475000Y-106000000D01*
G75*
G02*
X113225000Y-105750000I0J250000D01*
G01*
X113225000Y-104825000D01*
G75*
G02*
X113475000Y-104575000I250000J0D01*
G01*
G37*
G36*
G01*
X113475000Y-101600000D02*
X114725000Y-101600000D01*
G75*
G02*
X114975000Y-101850000I0J-250000D01*
G01*
X114975000Y-102775000D01*
G75*
G02*
X114725000Y-103025000I-250000J0D01*
G01*
X113475000Y-103025000D01*
G75*
G02*
X113225000Y-102775000I0J250000D01*
G01*
X113225000Y-101850000D01*
G75*
G02*
X113475000Y-101600000I250000J0D01*
G01*
G37*
%TD*%
%TO.C,R2*%
G36*
G01*
X131675000Y-81475000D02*
X132925000Y-81475000D01*
G75*
G02*
X133175000Y-81725000I0J-250000D01*
G01*
X133175000Y-82650000D01*
G75*
G02*
X132925000Y-82900000I-250000J0D01*
G01*
X131675000Y-82900000D01*
G75*
G02*
X131425000Y-82650000I0J250000D01*
G01*
X131425000Y-81725000D01*
G75*
G02*
X131675000Y-81475000I250000J0D01*
G01*
G37*
G36*
G01*
X131675000Y-78500000D02*
X132925000Y-78500000D01*
G75*
G02*
X133175000Y-78750000I0J-250000D01*
G01*
X133175000Y-79675000D01*
G75*
G02*
X132925000Y-79925000I-250000J0D01*
G01*
X131675000Y-79925000D01*
G75*
G02*
X131425000Y-79675000I0J250000D01*
G01*
X131425000Y-78750000D01*
G75*
G02*
X131675000Y-78500000I250000J0D01*
G01*
G37*
%TD*%
%TO.C,R1*%
G36*
G01*
X117325000Y-79925000D02*
X116075000Y-79925000D01*
G75*
G02*
X115825000Y-79675000I0J250000D01*
G01*
X115825000Y-78750000D01*
G75*
G02*
X116075000Y-78500000I250000J0D01*
G01*
X117325000Y-78500000D01*
G75*
G02*
X117575000Y-78750000I0J-250000D01*
G01*
X117575000Y-79675000D01*
G75*
G02*
X117325000Y-79925000I-250000J0D01*
G01*
G37*
G36*
G01*
X117325000Y-82900000D02*
X116075000Y-82900000D01*
G75*
G02*
X115825000Y-82650000I0J250000D01*
G01*
X115825000Y-81725000D01*
G75*
G02*
X116075000Y-81475000I250000J0D01*
G01*
X117325000Y-81475000D01*
G75*
G02*
X117575000Y-81725000I0J-250000D01*
G01*
X117575000Y-82650000D01*
G75*
G02*
X117325000Y-82900000I-250000J0D01*
G01*
G37*
%TD*%
M02*
