%TF.GenerationSoftware,KiCad,Pcbnew,5.1.5+dfsg1-2build2*%
%TF.CreationDate,2020-08-29T23:52:12+02:00*%
%TF.ProjectId,sequencer-pcb,73657175-656e-4636-9572-2d7063622e6b,rev?*%
%TF.SameCoordinates,Original*%
%TF.FileFunction,Legend,Bot*%
%TF.FilePolarity,Positive*%
%FSLAX46Y46*%
G04 Gerber Fmt 4.6, Leading zero omitted, Abs format (unit mm)*
G04 Created by KiCad (PCBNEW 5.1.5+dfsg1-2build2) date 2020-08-29 23:52:12*
%MOMM*%
%LPD*%
G04 APERTURE LIST*
%ADD10C,0.120000*%
%ADD11C,0.150000*%
G04 APERTURE END LIST*
D10*
%TO.C,J2*%
X111390000Y-97790000D02*
X102270000Y-97790000D01*
X102270000Y-97790000D02*
X102270000Y-131070000D01*
X102270000Y-131070000D02*
X111390000Y-131070000D01*
X111390000Y-131070000D02*
X111390000Y-97790000D01*
X111390000Y-112380000D02*
X110080000Y-112380000D01*
X110080000Y-112380000D02*
X110080000Y-99090000D01*
X110080000Y-99090000D02*
X103580000Y-99090000D01*
X103580000Y-99090000D02*
X103580000Y-129770000D01*
X103580000Y-129770000D02*
X110080000Y-129770000D01*
X110080000Y-129770000D02*
X110080000Y-116480000D01*
X110080000Y-116480000D02*
X110080000Y-116480000D01*
X110080000Y-116480000D02*
X111390000Y-116480000D01*
X111780000Y-103000000D02*
X112780000Y-102500000D01*
X112780000Y-102500000D02*
X112780000Y-103500000D01*
X112780000Y-103500000D02*
X111780000Y-103000000D01*
%TO.C,J1*%
X186476000Y-103002000D02*
X185476000Y-102502000D01*
X186476000Y-102002000D02*
X186476000Y-103002000D01*
X185476000Y-102502000D02*
X186476000Y-102002000D01*
X183776000Y-115982000D02*
X185086000Y-115982000D01*
X183776000Y-115982000D02*
X183776000Y-115982000D01*
X183776000Y-129272000D02*
X183776000Y-115982000D01*
X177276000Y-129272000D02*
X183776000Y-129272000D01*
X177276000Y-98592000D02*
X177276000Y-129272000D01*
X183776000Y-98592000D02*
X177276000Y-98592000D01*
X183776000Y-111882000D02*
X183776000Y-98592000D01*
X185086000Y-111882000D02*
X183776000Y-111882000D01*
X185086000Y-130572000D02*
X185086000Y-97292000D01*
X175966000Y-130572000D02*
X185086000Y-130572000D01*
X175966000Y-97292000D02*
X175966000Y-130572000D01*
X185086000Y-97292000D02*
X175966000Y-97292000D01*
%TO.C,R15*%
X171890000Y-111088748D02*
X171890000Y-113311252D01*
X173710000Y-111088748D02*
X173710000Y-113311252D01*
%TO.C,R22*%
X189010000Y-80155414D02*
X189010000Y-82377918D01*
X187190000Y-80155414D02*
X187190000Y-82377918D01*
%TO.C,R21*%
X189010000Y-70922081D02*
X189010000Y-73144585D01*
X187190000Y-70922081D02*
X187190000Y-73144585D01*
%TO.C,R20*%
X174210000Y-52788748D02*
X174210000Y-55011252D01*
X172390000Y-52788748D02*
X172390000Y-55011252D01*
%TO.C,R19*%
X187190000Y-63911252D02*
X187190000Y-61688748D01*
X189010000Y-63911252D02*
X189010000Y-61688748D01*
%TO.C,R18*%
X189010000Y-89388748D02*
X189010000Y-91611252D01*
X187190000Y-89388748D02*
X187190000Y-91611252D01*
%TO.C,R17*%
X160510000Y-136311252D02*
X160510000Y-134088748D01*
X158690000Y-136311252D02*
X158690000Y-134088748D01*
%TO.C,R16*%
X143690000Y-134088748D02*
X143690000Y-136311252D01*
X145510000Y-134088748D02*
X145510000Y-136311252D01*
%TO.C,R14*%
X157910000Y-113311252D02*
X157910000Y-111088748D01*
X156090000Y-113311252D02*
X156090000Y-111088748D01*
%TO.C,R13*%
X128390000Y-136411252D02*
X128390000Y-134188748D01*
X130210000Y-136411252D02*
X130210000Y-134188748D01*
%TO.C,R12*%
X113190000Y-134388748D02*
X113190000Y-136611252D01*
X115010000Y-134388748D02*
X115010000Y-136611252D01*
%TO.C,R11*%
X131290000Y-110888748D02*
X131290000Y-113111252D01*
X133110000Y-110888748D02*
X133110000Y-113111252D01*
%TO.C,R10*%
X117310000Y-113211252D02*
X117310000Y-110988748D01*
X115490000Y-113211252D02*
X115490000Y-110988748D01*
%TO.C,R8*%
X160510000Y-104911252D02*
X160510000Y-102688748D01*
X158690000Y-104911252D02*
X158690000Y-102688748D01*
%TO.C,R7*%
X145368000Y-102688748D02*
X145368000Y-104911252D01*
X143548000Y-102688748D02*
X143548000Y-104911252D01*
%TO.C,R6*%
X173310000Y-79688748D02*
X173310000Y-81911252D01*
X171490000Y-79688748D02*
X171490000Y-81911252D01*
%TO.C,R5*%
X157710000Y-82011252D02*
X157710000Y-79788748D01*
X155890000Y-82011252D02*
X155890000Y-79788748D01*
%TO.C,R4*%
X130210000Y-105011252D02*
X130210000Y-102788748D01*
X128390000Y-105011252D02*
X128390000Y-102788748D01*
%TO.C,R3*%
X113190000Y-102688748D02*
X113190000Y-104911252D01*
X115010000Y-102688748D02*
X115010000Y-104911252D01*
%TO.C,R2*%
X131390000Y-79588748D02*
X131390000Y-81811252D01*
X133210000Y-79588748D02*
X133210000Y-81811252D01*
%TO.C,R1*%
X117610000Y-81811252D02*
X117610000Y-79588748D01*
X115790000Y-81811252D02*
X115790000Y-79588748D01*
%TO.C,J2*%
D11*
X107163333Y-96352380D02*
X107163333Y-97066666D01*
X107210952Y-97209523D01*
X107306190Y-97304761D01*
X107449047Y-97352380D01*
X107544285Y-97352380D01*
X106734761Y-96447619D02*
X106687142Y-96400000D01*
X106591904Y-96352380D01*
X106353809Y-96352380D01*
X106258571Y-96400000D01*
X106210952Y-96447619D01*
X106163333Y-96542857D01*
X106163333Y-96638095D01*
X106210952Y-96780952D01*
X106782380Y-97352380D01*
X106163333Y-97352380D01*
%TO.C,J1*%
X180859333Y-95854380D02*
X180859333Y-96568666D01*
X180906952Y-96711523D01*
X181002190Y-96806761D01*
X181145047Y-96854380D01*
X181240285Y-96854380D01*
X179859333Y-96854380D02*
X180430761Y-96854380D01*
X180145047Y-96854380D02*
X180145047Y-95854380D01*
X180240285Y-95997238D01*
X180335523Y-96092476D01*
X180430761Y-96140095D01*
%TO.C,R15*%
X171402380Y-111557142D02*
X170926190Y-111223809D01*
X171402380Y-110985714D02*
X170402380Y-110985714D01*
X170402380Y-111366666D01*
X170450000Y-111461904D01*
X170497619Y-111509523D01*
X170592857Y-111557142D01*
X170735714Y-111557142D01*
X170830952Y-111509523D01*
X170878571Y-111461904D01*
X170926190Y-111366666D01*
X170926190Y-110985714D01*
X171402380Y-112509523D02*
X171402380Y-111938095D01*
X171402380Y-112223809D02*
X170402380Y-112223809D01*
X170545238Y-112128571D01*
X170640476Y-112033333D01*
X170688095Y-111938095D01*
X170402380Y-113414285D02*
X170402380Y-112938095D01*
X170878571Y-112890476D01*
X170830952Y-112938095D01*
X170783333Y-113033333D01*
X170783333Y-113271428D01*
X170830952Y-113366666D01*
X170878571Y-113414285D01*
X170973809Y-113461904D01*
X171211904Y-113461904D01*
X171307142Y-113414285D01*
X171354761Y-113366666D01*
X171402380Y-113271428D01*
X171402380Y-113033333D01*
X171354761Y-112938095D01*
X171307142Y-112890476D01*
%TO.C,R22*%
X186702380Y-80623808D02*
X186226190Y-80290475D01*
X186702380Y-80052380D02*
X185702380Y-80052380D01*
X185702380Y-80433332D01*
X185750000Y-80528570D01*
X185797619Y-80576189D01*
X185892857Y-80623808D01*
X186035714Y-80623808D01*
X186130952Y-80576189D01*
X186178571Y-80528570D01*
X186226190Y-80433332D01*
X186226190Y-80052380D01*
X185797619Y-81004761D02*
X185750000Y-81052380D01*
X185702380Y-81147618D01*
X185702380Y-81385713D01*
X185750000Y-81480951D01*
X185797619Y-81528570D01*
X185892857Y-81576189D01*
X185988095Y-81576189D01*
X186130952Y-81528570D01*
X186702380Y-80957142D01*
X186702380Y-81576189D01*
X185797619Y-81957142D02*
X185750000Y-82004761D01*
X185702380Y-82099999D01*
X185702380Y-82338094D01*
X185750000Y-82433332D01*
X185797619Y-82480951D01*
X185892857Y-82528570D01*
X185988095Y-82528570D01*
X186130952Y-82480951D01*
X186702380Y-81909523D01*
X186702380Y-82528570D01*
%TO.C,R21*%
X186702380Y-71390475D02*
X186226190Y-71057142D01*
X186702380Y-70819047D02*
X185702380Y-70819047D01*
X185702380Y-71199999D01*
X185750000Y-71295237D01*
X185797619Y-71342856D01*
X185892857Y-71390475D01*
X186035714Y-71390475D01*
X186130952Y-71342856D01*
X186178571Y-71295237D01*
X186226190Y-71199999D01*
X186226190Y-70819047D01*
X185797619Y-71771428D02*
X185750000Y-71819047D01*
X185702380Y-71914285D01*
X185702380Y-72152380D01*
X185750000Y-72247618D01*
X185797619Y-72295237D01*
X185892857Y-72342856D01*
X185988095Y-72342856D01*
X186130952Y-72295237D01*
X186702380Y-71723809D01*
X186702380Y-72342856D01*
X186702380Y-73295237D02*
X186702380Y-72723809D01*
X186702380Y-73009523D02*
X185702380Y-73009523D01*
X185845238Y-72914285D01*
X185940476Y-72819047D01*
X185988095Y-72723809D01*
%TO.C,R20*%
X171902380Y-53257142D02*
X171426190Y-52923809D01*
X171902380Y-52685714D02*
X170902380Y-52685714D01*
X170902380Y-53066666D01*
X170950000Y-53161904D01*
X170997619Y-53209523D01*
X171092857Y-53257142D01*
X171235714Y-53257142D01*
X171330952Y-53209523D01*
X171378571Y-53161904D01*
X171426190Y-53066666D01*
X171426190Y-52685714D01*
X170997619Y-53638095D02*
X170950000Y-53685714D01*
X170902380Y-53780952D01*
X170902380Y-54019047D01*
X170950000Y-54114285D01*
X170997619Y-54161904D01*
X171092857Y-54209523D01*
X171188095Y-54209523D01*
X171330952Y-54161904D01*
X171902380Y-53590476D01*
X171902380Y-54209523D01*
X170902380Y-54828571D02*
X170902380Y-54923809D01*
X170950000Y-55019047D01*
X170997619Y-55066666D01*
X171092857Y-55114285D01*
X171283333Y-55161904D01*
X171521428Y-55161904D01*
X171711904Y-55114285D01*
X171807142Y-55066666D01*
X171854761Y-55019047D01*
X171902380Y-54923809D01*
X171902380Y-54828571D01*
X171854761Y-54733333D01*
X171807142Y-54685714D01*
X171711904Y-54638095D01*
X171521428Y-54590476D01*
X171283333Y-54590476D01*
X171092857Y-54638095D01*
X170997619Y-54685714D01*
X170950000Y-54733333D01*
X170902380Y-54828571D01*
%TO.C,R19*%
X190402380Y-62157142D02*
X189926190Y-61823809D01*
X190402380Y-61585714D02*
X189402380Y-61585714D01*
X189402380Y-61966666D01*
X189450000Y-62061904D01*
X189497619Y-62109523D01*
X189592857Y-62157142D01*
X189735714Y-62157142D01*
X189830952Y-62109523D01*
X189878571Y-62061904D01*
X189926190Y-61966666D01*
X189926190Y-61585714D01*
X190402380Y-63109523D02*
X190402380Y-62538095D01*
X190402380Y-62823809D02*
X189402380Y-62823809D01*
X189545238Y-62728571D01*
X189640476Y-62633333D01*
X189688095Y-62538095D01*
X190402380Y-63585714D02*
X190402380Y-63776190D01*
X190354761Y-63871428D01*
X190307142Y-63919047D01*
X190164285Y-64014285D01*
X189973809Y-64061904D01*
X189592857Y-64061904D01*
X189497619Y-64014285D01*
X189450000Y-63966666D01*
X189402380Y-63871428D01*
X189402380Y-63680952D01*
X189450000Y-63585714D01*
X189497619Y-63538095D01*
X189592857Y-63490476D01*
X189830952Y-63490476D01*
X189926190Y-63538095D01*
X189973809Y-63585714D01*
X190021428Y-63680952D01*
X190021428Y-63871428D01*
X189973809Y-63966666D01*
X189926190Y-64014285D01*
X189830952Y-64061904D01*
%TO.C,R18*%
X186702380Y-89857142D02*
X186226190Y-89523809D01*
X186702380Y-89285714D02*
X185702380Y-89285714D01*
X185702380Y-89666666D01*
X185750000Y-89761904D01*
X185797619Y-89809523D01*
X185892857Y-89857142D01*
X186035714Y-89857142D01*
X186130952Y-89809523D01*
X186178571Y-89761904D01*
X186226190Y-89666666D01*
X186226190Y-89285714D01*
X186702380Y-90809523D02*
X186702380Y-90238095D01*
X186702380Y-90523809D02*
X185702380Y-90523809D01*
X185845238Y-90428571D01*
X185940476Y-90333333D01*
X185988095Y-90238095D01*
X186130952Y-91380952D02*
X186083333Y-91285714D01*
X186035714Y-91238095D01*
X185940476Y-91190476D01*
X185892857Y-91190476D01*
X185797619Y-91238095D01*
X185750000Y-91285714D01*
X185702380Y-91380952D01*
X185702380Y-91571428D01*
X185750000Y-91666666D01*
X185797619Y-91714285D01*
X185892857Y-91761904D01*
X185940476Y-91761904D01*
X186035714Y-91714285D01*
X186083333Y-91666666D01*
X186130952Y-91571428D01*
X186130952Y-91380952D01*
X186178571Y-91285714D01*
X186226190Y-91238095D01*
X186321428Y-91190476D01*
X186511904Y-91190476D01*
X186607142Y-91238095D01*
X186654761Y-91285714D01*
X186702380Y-91380952D01*
X186702380Y-91571428D01*
X186654761Y-91666666D01*
X186607142Y-91714285D01*
X186511904Y-91761904D01*
X186321428Y-91761904D01*
X186226190Y-91714285D01*
X186178571Y-91666666D01*
X186130952Y-91571428D01*
%TO.C,R17*%
X161902380Y-134557142D02*
X161426190Y-134223809D01*
X161902380Y-133985714D02*
X160902380Y-133985714D01*
X160902380Y-134366666D01*
X160950000Y-134461904D01*
X160997619Y-134509523D01*
X161092857Y-134557142D01*
X161235714Y-134557142D01*
X161330952Y-134509523D01*
X161378571Y-134461904D01*
X161426190Y-134366666D01*
X161426190Y-133985714D01*
X161902380Y-135509523D02*
X161902380Y-134938095D01*
X161902380Y-135223809D02*
X160902380Y-135223809D01*
X161045238Y-135128571D01*
X161140476Y-135033333D01*
X161188095Y-134938095D01*
X160902380Y-135842857D02*
X160902380Y-136509523D01*
X161902380Y-136080952D01*
%TO.C,R16*%
X143202380Y-134557142D02*
X142726190Y-134223809D01*
X143202380Y-133985714D02*
X142202380Y-133985714D01*
X142202380Y-134366666D01*
X142250000Y-134461904D01*
X142297619Y-134509523D01*
X142392857Y-134557142D01*
X142535714Y-134557142D01*
X142630952Y-134509523D01*
X142678571Y-134461904D01*
X142726190Y-134366666D01*
X142726190Y-133985714D01*
X143202380Y-135509523D02*
X143202380Y-134938095D01*
X143202380Y-135223809D02*
X142202380Y-135223809D01*
X142345238Y-135128571D01*
X142440476Y-135033333D01*
X142488095Y-134938095D01*
X142202380Y-136366666D02*
X142202380Y-136176190D01*
X142250000Y-136080952D01*
X142297619Y-136033333D01*
X142440476Y-135938095D01*
X142630952Y-135890476D01*
X143011904Y-135890476D01*
X143107142Y-135938095D01*
X143154761Y-135985714D01*
X143202380Y-136080952D01*
X143202380Y-136271428D01*
X143154761Y-136366666D01*
X143107142Y-136414285D01*
X143011904Y-136461904D01*
X142773809Y-136461904D01*
X142678571Y-136414285D01*
X142630952Y-136366666D01*
X142583333Y-136271428D01*
X142583333Y-136080952D01*
X142630952Y-135985714D01*
X142678571Y-135938095D01*
X142773809Y-135890476D01*
%TO.C,R14*%
X159302380Y-111557142D02*
X158826190Y-111223809D01*
X159302380Y-110985714D02*
X158302380Y-110985714D01*
X158302380Y-111366666D01*
X158350000Y-111461904D01*
X158397619Y-111509523D01*
X158492857Y-111557142D01*
X158635714Y-111557142D01*
X158730952Y-111509523D01*
X158778571Y-111461904D01*
X158826190Y-111366666D01*
X158826190Y-110985714D01*
X159302380Y-112509523D02*
X159302380Y-111938095D01*
X159302380Y-112223809D02*
X158302380Y-112223809D01*
X158445238Y-112128571D01*
X158540476Y-112033333D01*
X158588095Y-111938095D01*
X158635714Y-113366666D02*
X159302380Y-113366666D01*
X158254761Y-113128571D02*
X158969047Y-112890476D01*
X158969047Y-113509523D01*
%TO.C,R13*%
X131602380Y-134657142D02*
X131126190Y-134323809D01*
X131602380Y-134085714D02*
X130602380Y-134085714D01*
X130602380Y-134466666D01*
X130650000Y-134561904D01*
X130697619Y-134609523D01*
X130792857Y-134657142D01*
X130935714Y-134657142D01*
X131030952Y-134609523D01*
X131078571Y-134561904D01*
X131126190Y-134466666D01*
X131126190Y-134085714D01*
X131602380Y-135609523D02*
X131602380Y-135038095D01*
X131602380Y-135323809D02*
X130602380Y-135323809D01*
X130745238Y-135228571D01*
X130840476Y-135133333D01*
X130888095Y-135038095D01*
X130602380Y-135942857D02*
X130602380Y-136561904D01*
X130983333Y-136228571D01*
X130983333Y-136371428D01*
X131030952Y-136466666D01*
X131078571Y-136514285D01*
X131173809Y-136561904D01*
X131411904Y-136561904D01*
X131507142Y-136514285D01*
X131554761Y-136466666D01*
X131602380Y-136371428D01*
X131602380Y-136085714D01*
X131554761Y-135990476D01*
X131507142Y-135942857D01*
%TO.C,R12*%
X112702380Y-134857142D02*
X112226190Y-134523809D01*
X112702380Y-134285714D02*
X111702380Y-134285714D01*
X111702380Y-134666666D01*
X111750000Y-134761904D01*
X111797619Y-134809523D01*
X111892857Y-134857142D01*
X112035714Y-134857142D01*
X112130952Y-134809523D01*
X112178571Y-134761904D01*
X112226190Y-134666666D01*
X112226190Y-134285714D01*
X112702380Y-135809523D02*
X112702380Y-135238095D01*
X112702380Y-135523809D02*
X111702380Y-135523809D01*
X111845238Y-135428571D01*
X111940476Y-135333333D01*
X111988095Y-135238095D01*
X111797619Y-136190476D02*
X111750000Y-136238095D01*
X111702380Y-136333333D01*
X111702380Y-136571428D01*
X111750000Y-136666666D01*
X111797619Y-136714285D01*
X111892857Y-136761904D01*
X111988095Y-136761904D01*
X112130952Y-136714285D01*
X112702380Y-136142857D01*
X112702380Y-136761904D01*
%TO.C,R11*%
X130802380Y-111357142D02*
X130326190Y-111023809D01*
X130802380Y-110785714D02*
X129802380Y-110785714D01*
X129802380Y-111166666D01*
X129850000Y-111261904D01*
X129897619Y-111309523D01*
X129992857Y-111357142D01*
X130135714Y-111357142D01*
X130230952Y-111309523D01*
X130278571Y-111261904D01*
X130326190Y-111166666D01*
X130326190Y-110785714D01*
X130802380Y-112309523D02*
X130802380Y-111738095D01*
X130802380Y-112023809D02*
X129802380Y-112023809D01*
X129945238Y-111928571D01*
X130040476Y-111833333D01*
X130088095Y-111738095D01*
X130802380Y-113261904D02*
X130802380Y-112690476D01*
X130802380Y-112976190D02*
X129802380Y-112976190D01*
X129945238Y-112880952D01*
X130040476Y-112785714D01*
X130088095Y-112690476D01*
%TO.C,R10*%
X118702380Y-111457142D02*
X118226190Y-111123809D01*
X118702380Y-110885714D02*
X117702380Y-110885714D01*
X117702380Y-111266666D01*
X117750000Y-111361904D01*
X117797619Y-111409523D01*
X117892857Y-111457142D01*
X118035714Y-111457142D01*
X118130952Y-111409523D01*
X118178571Y-111361904D01*
X118226190Y-111266666D01*
X118226190Y-110885714D01*
X118702380Y-112409523D02*
X118702380Y-111838095D01*
X118702380Y-112123809D02*
X117702380Y-112123809D01*
X117845238Y-112028571D01*
X117940476Y-111933333D01*
X117988095Y-111838095D01*
X117702380Y-113028571D02*
X117702380Y-113123809D01*
X117750000Y-113219047D01*
X117797619Y-113266666D01*
X117892857Y-113314285D01*
X118083333Y-113361904D01*
X118321428Y-113361904D01*
X118511904Y-113314285D01*
X118607142Y-113266666D01*
X118654761Y-113219047D01*
X118702380Y-113123809D01*
X118702380Y-113028571D01*
X118654761Y-112933333D01*
X118607142Y-112885714D01*
X118511904Y-112838095D01*
X118321428Y-112790476D01*
X118083333Y-112790476D01*
X117892857Y-112838095D01*
X117797619Y-112885714D01*
X117750000Y-112933333D01*
X117702380Y-113028571D01*
%TO.C,R8*%
X161902380Y-103633333D02*
X161426190Y-103300000D01*
X161902380Y-103061904D02*
X160902380Y-103061904D01*
X160902380Y-103442857D01*
X160950000Y-103538095D01*
X160997619Y-103585714D01*
X161092857Y-103633333D01*
X161235714Y-103633333D01*
X161330952Y-103585714D01*
X161378571Y-103538095D01*
X161426190Y-103442857D01*
X161426190Y-103061904D01*
X161330952Y-104204761D02*
X161283333Y-104109523D01*
X161235714Y-104061904D01*
X161140476Y-104014285D01*
X161092857Y-104014285D01*
X160997619Y-104061904D01*
X160950000Y-104109523D01*
X160902380Y-104204761D01*
X160902380Y-104395238D01*
X160950000Y-104490476D01*
X160997619Y-104538095D01*
X161092857Y-104585714D01*
X161140476Y-104585714D01*
X161235714Y-104538095D01*
X161283333Y-104490476D01*
X161330952Y-104395238D01*
X161330952Y-104204761D01*
X161378571Y-104109523D01*
X161426190Y-104061904D01*
X161521428Y-104014285D01*
X161711904Y-104014285D01*
X161807142Y-104061904D01*
X161854761Y-104109523D01*
X161902380Y-104204761D01*
X161902380Y-104395238D01*
X161854761Y-104490476D01*
X161807142Y-104538095D01*
X161711904Y-104585714D01*
X161521428Y-104585714D01*
X161426190Y-104538095D01*
X161378571Y-104490476D01*
X161330952Y-104395238D01*
%TO.C,R7*%
X143060380Y-103633333D02*
X142584190Y-103300000D01*
X143060380Y-103061904D02*
X142060380Y-103061904D01*
X142060380Y-103442857D01*
X142108000Y-103538095D01*
X142155619Y-103585714D01*
X142250857Y-103633333D01*
X142393714Y-103633333D01*
X142488952Y-103585714D01*
X142536571Y-103538095D01*
X142584190Y-103442857D01*
X142584190Y-103061904D01*
X142060380Y-103966666D02*
X142060380Y-104633333D01*
X143060380Y-104204761D01*
%TO.C,R6*%
X171002380Y-80633333D02*
X170526190Y-80300000D01*
X171002380Y-80061904D02*
X170002380Y-80061904D01*
X170002380Y-80442857D01*
X170050000Y-80538095D01*
X170097619Y-80585714D01*
X170192857Y-80633333D01*
X170335714Y-80633333D01*
X170430952Y-80585714D01*
X170478571Y-80538095D01*
X170526190Y-80442857D01*
X170526190Y-80061904D01*
X170002380Y-81490476D02*
X170002380Y-81300000D01*
X170050000Y-81204761D01*
X170097619Y-81157142D01*
X170240476Y-81061904D01*
X170430952Y-81014285D01*
X170811904Y-81014285D01*
X170907142Y-81061904D01*
X170954761Y-81109523D01*
X171002380Y-81204761D01*
X171002380Y-81395238D01*
X170954761Y-81490476D01*
X170907142Y-81538095D01*
X170811904Y-81585714D01*
X170573809Y-81585714D01*
X170478571Y-81538095D01*
X170430952Y-81490476D01*
X170383333Y-81395238D01*
X170383333Y-81204761D01*
X170430952Y-81109523D01*
X170478571Y-81061904D01*
X170573809Y-81014285D01*
%TO.C,R5*%
X159102380Y-80733333D02*
X158626190Y-80400000D01*
X159102380Y-80161904D02*
X158102380Y-80161904D01*
X158102380Y-80542857D01*
X158150000Y-80638095D01*
X158197619Y-80685714D01*
X158292857Y-80733333D01*
X158435714Y-80733333D01*
X158530952Y-80685714D01*
X158578571Y-80638095D01*
X158626190Y-80542857D01*
X158626190Y-80161904D01*
X158102380Y-81638095D02*
X158102380Y-81161904D01*
X158578571Y-81114285D01*
X158530952Y-81161904D01*
X158483333Y-81257142D01*
X158483333Y-81495238D01*
X158530952Y-81590476D01*
X158578571Y-81638095D01*
X158673809Y-81685714D01*
X158911904Y-81685714D01*
X159007142Y-81638095D01*
X159054761Y-81590476D01*
X159102380Y-81495238D01*
X159102380Y-81257142D01*
X159054761Y-81161904D01*
X159007142Y-81114285D01*
%TO.C,R4*%
X131602380Y-103733333D02*
X131126190Y-103400000D01*
X131602380Y-103161904D02*
X130602380Y-103161904D01*
X130602380Y-103542857D01*
X130650000Y-103638095D01*
X130697619Y-103685714D01*
X130792857Y-103733333D01*
X130935714Y-103733333D01*
X131030952Y-103685714D01*
X131078571Y-103638095D01*
X131126190Y-103542857D01*
X131126190Y-103161904D01*
X130935714Y-104590476D02*
X131602380Y-104590476D01*
X130554761Y-104352380D02*
X131269047Y-104114285D01*
X131269047Y-104733333D01*
%TO.C,R3*%
X112702380Y-103633333D02*
X112226190Y-103300000D01*
X112702380Y-103061904D02*
X111702380Y-103061904D01*
X111702380Y-103442857D01*
X111750000Y-103538095D01*
X111797619Y-103585714D01*
X111892857Y-103633333D01*
X112035714Y-103633333D01*
X112130952Y-103585714D01*
X112178571Y-103538095D01*
X112226190Y-103442857D01*
X112226190Y-103061904D01*
X111702380Y-103966666D02*
X111702380Y-104585714D01*
X112083333Y-104252380D01*
X112083333Y-104395238D01*
X112130952Y-104490476D01*
X112178571Y-104538095D01*
X112273809Y-104585714D01*
X112511904Y-104585714D01*
X112607142Y-104538095D01*
X112654761Y-104490476D01*
X112702380Y-104395238D01*
X112702380Y-104109523D01*
X112654761Y-104014285D01*
X112607142Y-103966666D01*
%TO.C,R2*%
X130902380Y-80533333D02*
X130426190Y-80200000D01*
X130902380Y-79961904D02*
X129902380Y-79961904D01*
X129902380Y-80342857D01*
X129950000Y-80438095D01*
X129997619Y-80485714D01*
X130092857Y-80533333D01*
X130235714Y-80533333D01*
X130330952Y-80485714D01*
X130378571Y-80438095D01*
X130426190Y-80342857D01*
X130426190Y-79961904D01*
X129997619Y-80914285D02*
X129950000Y-80961904D01*
X129902380Y-81057142D01*
X129902380Y-81295238D01*
X129950000Y-81390476D01*
X129997619Y-81438095D01*
X130092857Y-81485714D01*
X130188095Y-81485714D01*
X130330952Y-81438095D01*
X130902380Y-80866666D01*
X130902380Y-81485714D01*
%TO.C,R1*%
X119002380Y-80533333D02*
X118526190Y-80200000D01*
X119002380Y-79961904D02*
X118002380Y-79961904D01*
X118002380Y-80342857D01*
X118050000Y-80438095D01*
X118097619Y-80485714D01*
X118192857Y-80533333D01*
X118335714Y-80533333D01*
X118430952Y-80485714D01*
X118478571Y-80438095D01*
X118526190Y-80342857D01*
X118526190Y-79961904D01*
X119002380Y-81485714D02*
X119002380Y-80914285D01*
X119002380Y-81200000D02*
X118002380Y-81200000D01*
X118145238Y-81104761D01*
X118240476Y-81009523D01*
X118288095Y-80914285D01*
%TD*%
M02*
