M48
; DRILL file {KiCad (5.1.6-0-10_14)} date Sunday, August 30, 2020 at 09:59:07 PM
; FORMAT={-:-/ absolute / metric / decimal}
; #@! TF.CreationDate,2020-08-30T21:59:07+02:00
; #@! TF.GenerationSoftware,Kicad,Pcbnew,(5.1.6-0-10_14)
FMAT,2
METRIC
T1C0.900
T2C1.000
T3C1.016
T4C1.100
T5C1.200
T6C2.700
T7C2.000
T8C2.700
%
G90
G05
T1
X135.76Y-80.7
X138.3Y-80.7
X120.073Y-80.658
X122.613Y-80.658
X166.048Y-112.154
X168.588Y-112.154
X150.589Y-80.658
X153.129Y-80.658
X135.832Y-112.0
X138.372Y-112.0
X166.048Y-80.658
X168.588Y-80.658
X150.589Y-112.154
X153.129Y-112.154
X120.073Y-112.1
X122.613Y-112.1
T2
X105.6Y-65.75
X105.6Y-68.29
X105.6Y-70.83
X134.597Y-97.93
X137.097Y-97.93
X139.597Y-97.93
X149.364Y-129.426
X151.864Y-129.426
X154.364Y-129.426
X164.823Y-74.026
X167.323Y-74.026
X169.823Y-74.026
X105.56Y-103.0
X105.56Y-105.54
X105.56Y-108.08
X105.56Y-110.62
X105.56Y-113.16
X105.56Y-115.7
X105.56Y-118.24
X105.56Y-120.78
X105.56Y-123.32
X105.56Y-125.86
X108.1Y-103.0
X108.1Y-105.54
X108.1Y-108.08
X108.1Y-110.62
X108.1Y-113.16
X108.1Y-115.7
X108.1Y-118.24
X108.1Y-120.78
X108.1Y-123.32
X108.1Y-125.86
X179.256Y-102.502
X179.256Y-105.042
X179.256Y-107.582
X179.256Y-110.122
X179.256Y-112.662
X179.256Y-115.202
X179.256Y-117.742
X179.256Y-120.282
X179.256Y-122.822
X179.256Y-125.362
X181.796Y-102.502
X181.796Y-105.042
X181.796Y-107.582
X181.796Y-110.122
X181.796Y-112.662
X181.796Y-115.202
X181.796Y-117.742
X181.796Y-120.282
X181.796Y-122.822
X181.796Y-125.362
X134.597Y-129.426
X137.097Y-129.426
X139.597Y-129.426
X118.838Y-129.426
X121.338Y-129.426
X123.838Y-129.426
X164.823Y-97.93
X167.323Y-97.93
X169.823Y-97.93
X104.15Y-94.9
X106.65Y-94.9
X109.15Y-94.9
X149.364Y-97.93
X151.864Y-97.93
X154.364Y-97.93
X164.823Y-129.426
X167.323Y-129.426
X169.823Y-129.426
X149.11Y-74.026
X151.61Y-74.026
X154.11Y-74.026
X118.838Y-97.93
X121.338Y-97.93
X123.838Y-97.93
T3
X117.85Y-54.55
X120.39Y-54.55
X122.93Y-54.55
X125.47Y-54.55
X128.01Y-54.55
X130.55Y-54.55
X133.09Y-54.55
T4
X176.573Y-51.8
X176.573Y-56.3
X183.073Y-51.8
X183.073Y-56.3
X177.224Y-79.049
X177.224Y-83.549
X183.724Y-79.049
X183.724Y-83.549
X148.614Y-101.486
X148.614Y-105.986
X155.114Y-101.486
X155.114Y-105.986
X118.088Y-132.982
X118.088Y-137.482
X124.588Y-132.982
X124.588Y-137.482
X177.224Y-69.821
X177.224Y-74.321
X183.724Y-69.821
X183.724Y-74.321
X164.073Y-101.486
X164.073Y-105.986
X170.573Y-101.486
X170.573Y-105.986
X118.088Y-101.486
X118.088Y-105.986
X124.588Y-101.486
X124.588Y-105.986
X164.073Y-132.982
X164.073Y-137.482
X170.573Y-132.982
X170.573Y-137.482
X133.847Y-132.982
X133.847Y-137.482
X140.347Y-132.982
X140.347Y-137.482
X177.328Y-88.278
X177.328Y-92.778
X183.828Y-88.278
X183.828Y-92.778
X177.224Y-60.592
X177.224Y-65.092
X183.724Y-60.592
X183.724Y-65.092
X133.847Y-101.486
X133.847Y-105.986
X140.347Y-101.486
X140.347Y-105.986
X148.614Y-132.982
X148.614Y-137.482
X155.114Y-132.982
X155.114Y-137.482
T5
X100.95Y-65.7
X100.9Y-70.475
X100.95Y-75.25
T6
X100.5Y-53.5
T7
X171.723Y-90.93
X162.923Y-67.026
X116.938Y-122.426
X162.923Y-90.93
X147.464Y-90.93
X156.264Y-90.93
X156.264Y-122.426
X132.697Y-122.426
X141.497Y-122.426
X125.738Y-122.426
X102.25Y-87.9
X111.05Y-87.9
X162.923Y-122.426
X171.723Y-122.426
X147.21Y-67.026
X156.01Y-67.026
X116.938Y-90.93
X125.738Y-90.93
X132.697Y-90.93
X141.497Y-90.93
X147.464Y-122.426
X171.723Y-67.026
T8
X188.0Y-53.5
X188.0Y-136.0
X100.5Y-136.0
X111.45Y-55.55
X111.45Y-70.55
X139.45Y-55.55
X139.45Y-70.55
T0
M30
