%TF.GenerationSoftware,KiCad,Pcbnew,(5.1.6-0-10_14)*%
%TF.CreationDate,2020-08-30T21:59:18+02:00*%
%TF.ProjectId,sequencer-pcb,73657175-656e-4636-9572-2d7063622e6b,rev?*%
%TF.SameCoordinates,Original*%
%TF.FileFunction,Paste,Bot*%
%TF.FilePolarity,Positive*%
%FSLAX46Y46*%
G04 Gerber Fmt 4.6, Leading zero omitted, Abs format (unit mm)*
G04 Created by KiCad (PCBNEW (5.1.6-0-10_14)) date 2020-08-30 21:59:18*
%MOMM*%
%LPD*%
G01*
G04 APERTURE LIST*
G04 APERTURE END LIST*
%TO.C,R15*%
G36*
G01*
X172149999Y-113500000D02*
X173450001Y-113500000D01*
G75*
G02*
X173700000Y-113749999I0J-249999D01*
G01*
X173700000Y-114825001D01*
G75*
G02*
X173450001Y-115075000I-249999J0D01*
G01*
X172149999Y-115075000D01*
G75*
G02*
X171900000Y-114825001I0J249999D01*
G01*
X171900000Y-113749999D01*
G75*
G02*
X172149999Y-113500000I249999J0D01*
G01*
G37*
G36*
G01*
X172149999Y-109325000D02*
X173450001Y-109325000D01*
G75*
G02*
X173700000Y-109574999I0J-249999D01*
G01*
X173700000Y-110650001D01*
G75*
G02*
X173450001Y-110900000I-249999J0D01*
G01*
X172149999Y-110900000D01*
G75*
G02*
X171900000Y-110650001I0J249999D01*
G01*
X171900000Y-109574999D01*
G75*
G02*
X172149999Y-109325000I249999J0D01*
G01*
G37*
%TD*%
%TO.C,R22*%
G36*
G01*
X187449999Y-82566666D02*
X188750001Y-82566666D01*
G75*
G02*
X189000000Y-82816665I0J-249999D01*
G01*
X189000000Y-83891667D01*
G75*
G02*
X188750001Y-84141666I-249999J0D01*
G01*
X187449999Y-84141666D01*
G75*
G02*
X187200000Y-83891667I0J249999D01*
G01*
X187200000Y-82816665D01*
G75*
G02*
X187449999Y-82566666I249999J0D01*
G01*
G37*
G36*
G01*
X187449999Y-78391666D02*
X188750001Y-78391666D01*
G75*
G02*
X189000000Y-78641665I0J-249999D01*
G01*
X189000000Y-79716667D01*
G75*
G02*
X188750001Y-79966666I-249999J0D01*
G01*
X187449999Y-79966666D01*
G75*
G02*
X187200000Y-79716667I0J249999D01*
G01*
X187200000Y-78641665D01*
G75*
G02*
X187449999Y-78391666I249999J0D01*
G01*
G37*
%TD*%
%TO.C,R21*%
G36*
G01*
X187449999Y-73333333D02*
X188750001Y-73333333D01*
G75*
G02*
X189000000Y-73583332I0J-249999D01*
G01*
X189000000Y-74658334D01*
G75*
G02*
X188750001Y-74908333I-249999J0D01*
G01*
X187449999Y-74908333D01*
G75*
G02*
X187200000Y-74658334I0J249999D01*
G01*
X187200000Y-73583332D01*
G75*
G02*
X187449999Y-73333333I249999J0D01*
G01*
G37*
G36*
G01*
X187449999Y-69158333D02*
X188750001Y-69158333D01*
G75*
G02*
X189000000Y-69408332I0J-249999D01*
G01*
X189000000Y-70483334D01*
G75*
G02*
X188750001Y-70733333I-249999J0D01*
G01*
X187449999Y-70733333D01*
G75*
G02*
X187200000Y-70483334I0J249999D01*
G01*
X187200000Y-69408332D01*
G75*
G02*
X187449999Y-69158333I249999J0D01*
G01*
G37*
%TD*%
%TO.C,R20*%
G36*
G01*
X172649999Y-55200000D02*
X173950001Y-55200000D01*
G75*
G02*
X174200000Y-55449999I0J-249999D01*
G01*
X174200000Y-56525001D01*
G75*
G02*
X173950001Y-56775000I-249999J0D01*
G01*
X172649999Y-56775000D01*
G75*
G02*
X172400000Y-56525001I0J249999D01*
G01*
X172400000Y-55449999D01*
G75*
G02*
X172649999Y-55200000I249999J0D01*
G01*
G37*
G36*
G01*
X172649999Y-51025000D02*
X173950001Y-51025000D01*
G75*
G02*
X174200000Y-51274999I0J-249999D01*
G01*
X174200000Y-52350001D01*
G75*
G02*
X173950001Y-52600000I-249999J0D01*
G01*
X172649999Y-52600000D01*
G75*
G02*
X172400000Y-52350001I0J249999D01*
G01*
X172400000Y-51274999D01*
G75*
G02*
X172649999Y-51025000I249999J0D01*
G01*
G37*
%TD*%
%TO.C,R19*%
G36*
G01*
X188750001Y-61500000D02*
X187449999Y-61500000D01*
G75*
G02*
X187200000Y-61250001I0J249999D01*
G01*
X187200000Y-60174999D01*
G75*
G02*
X187449999Y-59925000I249999J0D01*
G01*
X188750001Y-59925000D01*
G75*
G02*
X189000000Y-60174999I0J-249999D01*
G01*
X189000000Y-61250001D01*
G75*
G02*
X188750001Y-61500000I-249999J0D01*
G01*
G37*
G36*
G01*
X188750001Y-65675000D02*
X187449999Y-65675000D01*
G75*
G02*
X187200000Y-65425001I0J249999D01*
G01*
X187200000Y-64349999D01*
G75*
G02*
X187449999Y-64100000I249999J0D01*
G01*
X188750001Y-64100000D01*
G75*
G02*
X189000000Y-64349999I0J-249999D01*
G01*
X189000000Y-65425001D01*
G75*
G02*
X188750001Y-65675000I-249999J0D01*
G01*
G37*
%TD*%
%TO.C,R18*%
G36*
G01*
X187449999Y-91800000D02*
X188750001Y-91800000D01*
G75*
G02*
X189000000Y-92049999I0J-249999D01*
G01*
X189000000Y-93125001D01*
G75*
G02*
X188750001Y-93375000I-249999J0D01*
G01*
X187449999Y-93375000D01*
G75*
G02*
X187200000Y-93125001I0J249999D01*
G01*
X187200000Y-92049999D01*
G75*
G02*
X187449999Y-91800000I249999J0D01*
G01*
G37*
G36*
G01*
X187449999Y-87625000D02*
X188750001Y-87625000D01*
G75*
G02*
X189000000Y-87874999I0J-249999D01*
G01*
X189000000Y-88950001D01*
G75*
G02*
X188750001Y-89200000I-249999J0D01*
G01*
X187449999Y-89200000D01*
G75*
G02*
X187200000Y-88950001I0J249999D01*
G01*
X187200000Y-87874999D01*
G75*
G02*
X187449999Y-87625000I249999J0D01*
G01*
G37*
%TD*%
%TO.C,R17*%
G36*
G01*
X160250001Y-133900000D02*
X158949999Y-133900000D01*
G75*
G02*
X158700000Y-133650001I0J249999D01*
G01*
X158700000Y-132574999D01*
G75*
G02*
X158949999Y-132325000I249999J0D01*
G01*
X160250001Y-132325000D01*
G75*
G02*
X160500000Y-132574999I0J-249999D01*
G01*
X160500000Y-133650001D01*
G75*
G02*
X160250001Y-133900000I-249999J0D01*
G01*
G37*
G36*
G01*
X160250001Y-138075000D02*
X158949999Y-138075000D01*
G75*
G02*
X158700000Y-137825001I0J249999D01*
G01*
X158700000Y-136749999D01*
G75*
G02*
X158949999Y-136500000I249999J0D01*
G01*
X160250001Y-136500000D01*
G75*
G02*
X160500000Y-136749999I0J-249999D01*
G01*
X160500000Y-137825001D01*
G75*
G02*
X160250001Y-138075000I-249999J0D01*
G01*
G37*
%TD*%
%TO.C,R16*%
G36*
G01*
X143949999Y-136500000D02*
X145250001Y-136500000D01*
G75*
G02*
X145500000Y-136749999I0J-249999D01*
G01*
X145500000Y-137825001D01*
G75*
G02*
X145250001Y-138075000I-249999J0D01*
G01*
X143949999Y-138075000D01*
G75*
G02*
X143700000Y-137825001I0J249999D01*
G01*
X143700000Y-136749999D01*
G75*
G02*
X143949999Y-136500000I249999J0D01*
G01*
G37*
G36*
G01*
X143949999Y-132325000D02*
X145250001Y-132325000D01*
G75*
G02*
X145500000Y-132574999I0J-249999D01*
G01*
X145500000Y-133650001D01*
G75*
G02*
X145250001Y-133900000I-249999J0D01*
G01*
X143949999Y-133900000D01*
G75*
G02*
X143700000Y-133650001I0J249999D01*
G01*
X143700000Y-132574999D01*
G75*
G02*
X143949999Y-132325000I249999J0D01*
G01*
G37*
%TD*%
%TO.C,R14*%
G36*
G01*
X157650001Y-110900000D02*
X156349999Y-110900000D01*
G75*
G02*
X156100000Y-110650001I0J249999D01*
G01*
X156100000Y-109574999D01*
G75*
G02*
X156349999Y-109325000I249999J0D01*
G01*
X157650001Y-109325000D01*
G75*
G02*
X157900000Y-109574999I0J-249999D01*
G01*
X157900000Y-110650001D01*
G75*
G02*
X157650001Y-110900000I-249999J0D01*
G01*
G37*
G36*
G01*
X157650001Y-115075000D02*
X156349999Y-115075000D01*
G75*
G02*
X156100000Y-114825001I0J249999D01*
G01*
X156100000Y-113749999D01*
G75*
G02*
X156349999Y-113500000I249999J0D01*
G01*
X157650001Y-113500000D01*
G75*
G02*
X157900000Y-113749999I0J-249999D01*
G01*
X157900000Y-114825001D01*
G75*
G02*
X157650001Y-115075000I-249999J0D01*
G01*
G37*
%TD*%
%TO.C,R13*%
G36*
G01*
X129950001Y-138175000D02*
X128649999Y-138175000D01*
G75*
G02*
X128400000Y-137925001I0J249999D01*
G01*
X128400000Y-136849999D01*
G75*
G02*
X128649999Y-136600000I249999J0D01*
G01*
X129950001Y-136600000D01*
G75*
G02*
X130200000Y-136849999I0J-249999D01*
G01*
X130200000Y-137925001D01*
G75*
G02*
X129950001Y-138175000I-249999J0D01*
G01*
G37*
G36*
G01*
X129950001Y-134000000D02*
X128649999Y-134000000D01*
G75*
G02*
X128400000Y-133750001I0J249999D01*
G01*
X128400000Y-132674999D01*
G75*
G02*
X128649999Y-132425000I249999J0D01*
G01*
X129950001Y-132425000D01*
G75*
G02*
X130200000Y-132674999I0J-249999D01*
G01*
X130200000Y-133750001D01*
G75*
G02*
X129950001Y-134000000I-249999J0D01*
G01*
G37*
%TD*%
%TO.C,R12*%
G36*
G01*
X113449999Y-136800000D02*
X114750001Y-136800000D01*
G75*
G02*
X115000000Y-137049999I0J-249999D01*
G01*
X115000000Y-138125001D01*
G75*
G02*
X114750001Y-138375000I-249999J0D01*
G01*
X113449999Y-138375000D01*
G75*
G02*
X113200000Y-138125001I0J249999D01*
G01*
X113200000Y-137049999D01*
G75*
G02*
X113449999Y-136800000I249999J0D01*
G01*
G37*
G36*
G01*
X113449999Y-132625000D02*
X114750001Y-132625000D01*
G75*
G02*
X115000000Y-132874999I0J-249999D01*
G01*
X115000000Y-133950001D01*
G75*
G02*
X114750001Y-134200000I-249999J0D01*
G01*
X113449999Y-134200000D01*
G75*
G02*
X113200000Y-133950001I0J249999D01*
G01*
X113200000Y-132874999D01*
G75*
G02*
X113449999Y-132625000I249999J0D01*
G01*
G37*
%TD*%
%TO.C,R11*%
G36*
G01*
X131549999Y-113300000D02*
X132850001Y-113300000D01*
G75*
G02*
X133100000Y-113549999I0J-249999D01*
G01*
X133100000Y-114625001D01*
G75*
G02*
X132850001Y-114875000I-249999J0D01*
G01*
X131549999Y-114875000D01*
G75*
G02*
X131300000Y-114625001I0J249999D01*
G01*
X131300000Y-113549999D01*
G75*
G02*
X131549999Y-113300000I249999J0D01*
G01*
G37*
G36*
G01*
X131549999Y-109125000D02*
X132850001Y-109125000D01*
G75*
G02*
X133100000Y-109374999I0J-249999D01*
G01*
X133100000Y-110450001D01*
G75*
G02*
X132850001Y-110700000I-249999J0D01*
G01*
X131549999Y-110700000D01*
G75*
G02*
X131300000Y-110450001I0J249999D01*
G01*
X131300000Y-109374999D01*
G75*
G02*
X131549999Y-109125000I249999J0D01*
G01*
G37*
%TD*%
%TO.C,R10*%
G36*
G01*
X117050001Y-110800000D02*
X115749999Y-110800000D01*
G75*
G02*
X115500000Y-110550001I0J249999D01*
G01*
X115500000Y-109474999D01*
G75*
G02*
X115749999Y-109225000I249999J0D01*
G01*
X117050001Y-109225000D01*
G75*
G02*
X117300000Y-109474999I0J-249999D01*
G01*
X117300000Y-110550001D01*
G75*
G02*
X117050001Y-110800000I-249999J0D01*
G01*
G37*
G36*
G01*
X117050001Y-114975000D02*
X115749999Y-114975000D01*
G75*
G02*
X115500000Y-114725001I0J249999D01*
G01*
X115500000Y-113649999D01*
G75*
G02*
X115749999Y-113400000I249999J0D01*
G01*
X117050001Y-113400000D01*
G75*
G02*
X117300000Y-113649999I0J-249999D01*
G01*
X117300000Y-114725001D01*
G75*
G02*
X117050001Y-114975000I-249999J0D01*
G01*
G37*
%TD*%
%TO.C,R8*%
G36*
G01*
X160250001Y-102500000D02*
X158949999Y-102500000D01*
G75*
G02*
X158700000Y-102250001I0J249999D01*
G01*
X158700000Y-101174999D01*
G75*
G02*
X158949999Y-100925000I249999J0D01*
G01*
X160250001Y-100925000D01*
G75*
G02*
X160500000Y-101174999I0J-249999D01*
G01*
X160500000Y-102250001D01*
G75*
G02*
X160250001Y-102500000I-249999J0D01*
G01*
G37*
G36*
G01*
X160250001Y-106675000D02*
X158949999Y-106675000D01*
G75*
G02*
X158700000Y-106425001I0J249999D01*
G01*
X158700000Y-105349999D01*
G75*
G02*
X158949999Y-105100000I249999J0D01*
G01*
X160250001Y-105100000D01*
G75*
G02*
X160500000Y-105349999I0J-249999D01*
G01*
X160500000Y-106425001D01*
G75*
G02*
X160250001Y-106675000I-249999J0D01*
G01*
G37*
%TD*%
%TO.C,R7*%
G36*
G01*
X143807999Y-100925000D02*
X145108001Y-100925000D01*
G75*
G02*
X145358000Y-101174999I0J-249999D01*
G01*
X145358000Y-102250001D01*
G75*
G02*
X145108001Y-102500000I-249999J0D01*
G01*
X143807999Y-102500000D01*
G75*
G02*
X143558000Y-102250001I0J249999D01*
G01*
X143558000Y-101174999D01*
G75*
G02*
X143807999Y-100925000I249999J0D01*
G01*
G37*
G36*
G01*
X143807999Y-105100000D02*
X145108001Y-105100000D01*
G75*
G02*
X145358000Y-105349999I0J-249999D01*
G01*
X145358000Y-106425001D01*
G75*
G02*
X145108001Y-106675000I-249999J0D01*
G01*
X143807999Y-106675000D01*
G75*
G02*
X143558000Y-106425001I0J249999D01*
G01*
X143558000Y-105349999D01*
G75*
G02*
X143807999Y-105100000I249999J0D01*
G01*
G37*
%TD*%
%TO.C,R6*%
G36*
G01*
X171749999Y-77925000D02*
X173050001Y-77925000D01*
G75*
G02*
X173300000Y-78174999I0J-249999D01*
G01*
X173300000Y-79250001D01*
G75*
G02*
X173050001Y-79500000I-249999J0D01*
G01*
X171749999Y-79500000D01*
G75*
G02*
X171500000Y-79250001I0J249999D01*
G01*
X171500000Y-78174999D01*
G75*
G02*
X171749999Y-77925000I249999J0D01*
G01*
G37*
G36*
G01*
X171749999Y-82100000D02*
X173050001Y-82100000D01*
G75*
G02*
X173300000Y-82349999I0J-249999D01*
G01*
X173300000Y-83425001D01*
G75*
G02*
X173050001Y-83675000I-249999J0D01*
G01*
X171749999Y-83675000D01*
G75*
G02*
X171500000Y-83425001I0J249999D01*
G01*
X171500000Y-82349999D01*
G75*
G02*
X171749999Y-82100000I249999J0D01*
G01*
G37*
%TD*%
%TO.C,R5*%
G36*
G01*
X157450001Y-79600000D02*
X156149999Y-79600000D01*
G75*
G02*
X155900000Y-79350001I0J249999D01*
G01*
X155900000Y-78274999D01*
G75*
G02*
X156149999Y-78025000I249999J0D01*
G01*
X157450001Y-78025000D01*
G75*
G02*
X157700000Y-78274999I0J-249999D01*
G01*
X157700000Y-79350001D01*
G75*
G02*
X157450001Y-79600000I-249999J0D01*
G01*
G37*
G36*
G01*
X157450001Y-83775000D02*
X156149999Y-83775000D01*
G75*
G02*
X155900000Y-83525001I0J249999D01*
G01*
X155900000Y-82449999D01*
G75*
G02*
X156149999Y-82200000I249999J0D01*
G01*
X157450001Y-82200000D01*
G75*
G02*
X157700000Y-82449999I0J-249999D01*
G01*
X157700000Y-83525001D01*
G75*
G02*
X157450001Y-83775000I-249999J0D01*
G01*
G37*
%TD*%
%TO.C,R4*%
G36*
G01*
X129950001Y-102600000D02*
X128649999Y-102600000D01*
G75*
G02*
X128400000Y-102350001I0J249999D01*
G01*
X128400000Y-101274999D01*
G75*
G02*
X128649999Y-101025000I249999J0D01*
G01*
X129950001Y-101025000D01*
G75*
G02*
X130200000Y-101274999I0J-249999D01*
G01*
X130200000Y-102350001D01*
G75*
G02*
X129950001Y-102600000I-249999J0D01*
G01*
G37*
G36*
G01*
X129950001Y-106775000D02*
X128649999Y-106775000D01*
G75*
G02*
X128400000Y-106525001I0J249999D01*
G01*
X128400000Y-105449999D01*
G75*
G02*
X128649999Y-105200000I249999J0D01*
G01*
X129950001Y-105200000D01*
G75*
G02*
X130200000Y-105449999I0J-249999D01*
G01*
X130200000Y-106525001D01*
G75*
G02*
X129950001Y-106775000I-249999J0D01*
G01*
G37*
%TD*%
%TO.C,R3*%
G36*
G01*
X113449999Y-105100000D02*
X114750001Y-105100000D01*
G75*
G02*
X115000000Y-105349999I0J-249999D01*
G01*
X115000000Y-106425001D01*
G75*
G02*
X114750001Y-106675000I-249999J0D01*
G01*
X113449999Y-106675000D01*
G75*
G02*
X113200000Y-106425001I0J249999D01*
G01*
X113200000Y-105349999D01*
G75*
G02*
X113449999Y-105100000I249999J0D01*
G01*
G37*
G36*
G01*
X113449999Y-100925000D02*
X114750001Y-100925000D01*
G75*
G02*
X115000000Y-101174999I0J-249999D01*
G01*
X115000000Y-102250001D01*
G75*
G02*
X114750001Y-102500000I-249999J0D01*
G01*
X113449999Y-102500000D01*
G75*
G02*
X113200000Y-102250001I0J249999D01*
G01*
X113200000Y-101174999D01*
G75*
G02*
X113449999Y-100925000I249999J0D01*
G01*
G37*
%TD*%
%TO.C,R2*%
G36*
G01*
X131649999Y-82000000D02*
X132950001Y-82000000D01*
G75*
G02*
X133200000Y-82249999I0J-249999D01*
G01*
X133200000Y-83325001D01*
G75*
G02*
X132950001Y-83575000I-249999J0D01*
G01*
X131649999Y-83575000D01*
G75*
G02*
X131400000Y-83325001I0J249999D01*
G01*
X131400000Y-82249999D01*
G75*
G02*
X131649999Y-82000000I249999J0D01*
G01*
G37*
G36*
G01*
X131649999Y-77825000D02*
X132950001Y-77825000D01*
G75*
G02*
X133200000Y-78074999I0J-249999D01*
G01*
X133200000Y-79150001D01*
G75*
G02*
X132950001Y-79400000I-249999J0D01*
G01*
X131649999Y-79400000D01*
G75*
G02*
X131400000Y-79150001I0J249999D01*
G01*
X131400000Y-78074999D01*
G75*
G02*
X131649999Y-77825000I249999J0D01*
G01*
G37*
%TD*%
%TO.C,R1*%
G36*
G01*
X117350001Y-79400000D02*
X116049999Y-79400000D01*
G75*
G02*
X115800000Y-79150001I0J249999D01*
G01*
X115800000Y-78074999D01*
G75*
G02*
X116049999Y-77825000I249999J0D01*
G01*
X117350001Y-77825000D01*
G75*
G02*
X117600000Y-78074999I0J-249999D01*
G01*
X117600000Y-79150001D01*
G75*
G02*
X117350001Y-79400000I-249999J0D01*
G01*
G37*
G36*
G01*
X117350001Y-83575000D02*
X116049999Y-83575000D01*
G75*
G02*
X115800000Y-83325001I0J249999D01*
G01*
X115800000Y-82249999D01*
G75*
G02*
X116049999Y-82000000I249999J0D01*
G01*
X117350001Y-82000000D01*
G75*
G02*
X117600000Y-82249999I0J-249999D01*
G01*
X117600000Y-83325001D01*
G75*
G02*
X117350001Y-83575000I-249999J0D01*
G01*
G37*
%TD*%
M02*
